<?xml version="1.0" encoding="utf-8" standalone="no"?>

<!DOCTYPE svg PUBLIC "-//W3C//DTD SVG 1.1//EN"

  "http://www.w3.org/Graphics/SVG/1.1/DTD/svg11.dtd">

<!-- Created with matplotlib (http://matplotlib.org/) -->

<svg height="252pt" version="1.1" viewBox="0 0 372 252" width="372pt" xmlns="http://www.w3.org/2000/svg" xmlns:xlink="http://www.w3.org/1999/xlink">

 <defs>

  <style type="text/css">

*{stroke-linecap:butt;stroke-linejoin:round;}

  </style>

 </defs>

 <g id="figure_1">

  <g id="patch_1">

   <path d="M -0 252.018125 

L 372.425 252.018125 

L 372.425 0 

L -0 0 

z

" style="fill:none;"/>

  </g>

  <g id="axes_1">

   <g id="patch_2">

    <path d="M 26.925 228.14 

L 361.725 228.14 

L 361.725 10.7 

L 26.925 10.7 

z

" style="fill:#ffffff;"/>

   </g>

   <g id="PolyCollection_1">

    <path clip-path="url(#pfb26624e52)" d="M 73.069871 139.097434 

L 72.08922 139.097434 

L 71.984291 137.900325 

L 71.875713 136.703216 

L 71.764602 135.506107 

L 71.649716 134.308998 

L 71.526976 133.111889 

L 71.389507 131.91478 

L 71.228197 130.717671 

L 71.032617 129.520562 

L 70.792089 128.323453 

L 70.496758 127.126344 

L 70.138556 125.929235 

L 69.712058 124.732125 

L 69.215185 123.535016 

L 68.649661 122.337907 

L 68.021106 121.140798 

L 67.338617 119.943689 

L 66.613791 118.74658 

L 65.859221 117.549471 

L 65.086655 116.352362 

L 64.305177 115.155253 

L 63.519899 113.958144 

L 62.731724 112.761035 

L 61.938528 111.563926 

L 61.137625 110.366817 

L 60.328646 109.169708 

L 59.515456 107.972599 

L 58.705714 106.775489 

L 57.907518 105.57838 

L 57.124008 104.381271 

L 56.34817 103.184162 

L 55.56062 101.987053 

L 54.732275 100.789944 

L 53.831832 99.592835 

L 52.835677 98.395726 

L 51.736554 97.198617 

L 50.547731 96.001508 

L 49.301371 94.804399 

L 48.042285 93.60729 

L 46.819867 92.410181 

L 45.681059 91.213072 

L 44.665809 90.015962 

L 43.804842 88.818853 

L 43.118598 87.621744 

L 42.616456 86.424635 

L 42.29633 85.227526 

L 42.145469 84.030417 

L 42.143182 82.833308 

L 42.265274 81.636199 

L 42.48893 80.43909 

L 42.796408 79.241981 

L 43.176495 78.044872 

L 43.62379 76.847763 

L 44.136795 75.650654 

L 44.715932 74.453545 

L 45.36208 73.256435 

L 46.075499 72.059326 

L 46.854743 70.862217 

L 47.695398 69.665108 

L 48.589087 68.467999 

L 49.523511 67.27089 

L 50.484121 66.073781 

L 51.457254 64.876672 

L 52.433771 63.679563 

L 53.411619 62.482454 

L 54.395965 61.285345 

L 55.396342 60.088236 

L 56.421517 58.891127 

L 57.473877 57.694018 

L 58.545533 56.496908 

L 59.617892 55.299799 

L 60.665124 54.10269 

L 61.660431 52.905581 

L 62.582884 51.708472 

L 63.422348 50.511363 

L 64.18081 49.314254 

L 64.869929 48.117145 

L 65.506071 46.920036 

L 66.10494 45.722927 

L 66.677755 44.525818 

L 67.229904 43.328709 

L 67.76183 42.1316 

L 68.270997 40.934491 

L 68.753743 39.737381 

L 69.206336 38.540272 

L 69.625294 37.343163 

L 70.007443 36.146054 

L 70.350172 34.948945 

L 70.651969 33.751836 

L 70.912979 32.554727 

L 71.135275 31.357618 

L 71.322668 30.160509 

L 71.480179 28.9634 

L 71.613395 27.766291 

L 71.727908 26.569182 

L 71.828906 25.372073 

L 71.920837 24.174964 

L 72.007096 22.977855 

L 72.08975 21.780745 

L 72.169408 20.583636 

L 72.989683 20.583636 

L 72.989683 20.583636 

L 73.069341 21.780745 

L 73.151995 22.977855 

L 73.238254 24.174964 

L 73.330185 25.372073 

L 73.431183 26.569182 

L 73.545696 27.766291 

L 73.678912 28.9634 

L 73.836423 30.160509 

L 74.023816 31.357618 

L 74.246112 32.554727 

L 74.507122 33.751836 

L 74.808919 34.948945 

L 75.151648 36.146054 

L 75.533797 37.343163 

L 75.952755 38.540272 

L 76.405348 39.737381 

L 76.888094 40.934491 

L 77.397261 42.1316 

L 77.929187 43.328709 

L 78.481336 44.525818 

L 79.054151 45.722927 

L 79.65302 46.920036 

L 80.289161 48.117145 

L 80.978281 49.314254 

L 81.736743 50.511363 

L 82.576207 51.708472 

L 83.49866 52.905581 

L 84.493967 54.10269 

L 85.541198 55.299799 

L 86.613558 56.496908 

L 87.685214 57.694018 

L 88.737574 58.891127 

L 89.762749 60.088236 

L 90.763125 61.285345 

L 91.747472 62.482454 

L 92.72532 63.679563 

L 93.701837 64.876672 

L 94.67497 66.073781 

L 95.635579 67.27089 

L 96.570004 68.467999 

L 97.463693 69.665108 

L 98.304348 70.862217 

L 99.083592 72.059326 

L 99.797011 73.256435 

L 100.443158 74.453545 

L 101.022296 75.650654 

L 101.5353 76.847763 

L 101.982596 78.044872 

L 102.362683 79.241981 

L 102.670161 80.43909 

L 102.893817 81.636199 

L 103.015909 82.833308 

L 103.013622 84.030417 

L 102.862761 85.227526 

L 102.542635 86.424635 

L 102.040493 87.621744 

L 101.354249 88.818853 

L 100.493282 90.015962 

L 99.478032 91.213072 

L 98.339224 92.410181 

L 97.116806 93.60729 

L 95.85772 94.804399 

L 94.61136 96.001508 

L 93.422537 97.198617 

L 92.323414 98.395726 

L 91.327259 99.592835 

L 90.426816 100.789944 

L 89.598471 101.987053 

L 88.810921 103.184162 

L 88.035083 104.381271 

L 87.251573 105.57838 

L 86.453377 106.775489 

L 85.643635 107.972599 

L 84.830445 109.169708 

L 84.021466 110.366817 

L 83.220562 111.563926 

L 82.427367 112.761035 

L 81.639192 113.958144 

L 80.853914 115.155253 

L 80.072436 116.352362 

L 79.29987 117.549471 

L 78.5453 118.74658 

L 77.820474 119.943689 

L 77.137985 121.140798 

L 76.509429 122.337907 

L 75.943906 123.535016 

L 75.447033 124.732125 

L 75.020535 125.929235 

L 74.662333 127.126344 

L 74.367002 128.323453 

L 74.126474 129.520562 

L 73.930894 130.717671 

L 73.769584 131.91478 

L 73.632115 133.111889 

L 73.509375 134.308998 

L 73.394489 135.506107 

L 73.283378 136.703216 

L 73.1748 137.900325 

L 73.069871 139.097434 

z

" style="fill:#1f77b4;fill-opacity:0.3;"/>

   </g>

   <g id="PolyCollection_2">

    <path clip-path="url(#pfb26624e52)" d="M 207.494994 152.0183 

L 181.155006 152.0183 

L 179.826457 151.509038 

L 178.518081 150.999777 

L 177.245754 150.490516 

L 176.022153 149.981254 

L 174.856279 149.471993 

L 173.75335 148.962732 

L 172.715065 148.45347 

L 171.740192 147.944209 

L 170.825409 147.434948 

L 169.96629 146.925686 

L 169.158331 146.416425 

L 168.397881 145.907163 

L 167.682908 145.397902 

L 167.013494 144.888641 

L 166.39204 144.379379 

L 165.823153 143.870118 

L 165.313243 143.360857 

L 164.869878 142.851595 

L 164.500957 142.342334 

L 164.2138 141.833072 

L 164.014221 141.323811 

L 163.905687 140.81455 

L 163.888636 140.305288 

L 163.960008 139.796027 

L 164.11305 139.286766 

L 164.33742 138.777504 

L 164.619574 138.268243 

L 164.943433 137.758982 

L 165.291282 137.24972 

L 165.644826 136.740459 

L 165.986324 136.231197 

L 166.299717 135.721936 

L 166.571637 135.212675 

L 166.792224 134.703413 

L 166.95567 134.194152 

L 167.060437 133.684891 

L 167.109138 133.175629 

L 167.108077 132.666368 

L 167.066514 132.157107 

L 166.995694 131.647845 

L 166.907772 131.138584 

L 166.814694 130.629322 

L 166.727166 130.120061 

L 166.653784 129.6108 

L 166.600405 129.101538 

L 166.569797 128.592277 

L 166.561593 128.083016 

L 166.572532 127.573754 

L 166.596963 127.064493 

L 166.627551 126.555231 

L 166.656114 126.04597 

L 166.674535 125.536709 

L 166.675642 125.027447 

L 166.654001 124.518186 

L 166.606546 124.008925 

L 166.532972 123.499663 

L 166.435874 122.990402 

L 166.32059 122.481141 

L 166.194761 121.971879 

L 166.06765 121.462618 

L 165.949266 120.953356 

L 165.849396 120.444095 

L 165.776638 119.934834 

L 165.737548 119.425572 

L 165.735992 118.916311 

L 165.772791 118.40705 

L 165.845692 117.897788 

L 165.94967 117.388527 

L 166.077536 116.879266 

L 166.220763 116.370004 

L 166.370438 115.860743 

L 166.518243 115.351481 

L 166.657341 114.84222 

L 166.7831 114.332959 

L 166.893578 113.823697 

L 166.989767 113.314436 

L 167.075568 112.805175 

L 167.15756 112.295913 

L 167.244602 111.786652 

L 167.34731 111.27739 

L 167.477492 110.768129 

L 167.647568 110.258868 

L 167.87001 109.749606 

L 168.156826 109.240345 

L 168.519093 108.731084 

L 168.96653 108.221822 

L 169.507117 107.712561 

L 170.146742 107.2033 

L 170.888887 106.694038 

L 171.734356 106.184777 

L 172.681057 105.675515 

L 173.72386 105.166254 

L 174.854565 104.656993 

L 176.061979 104.147731 

L 177.332145 103.63847 

L 178.648721 103.129209 

L 179.993506 102.619947 

L 181.347094 102.110686 

L 182.689636 101.601425 

L 205.960364 101.601425 

L 205.960364 101.601425 

L 207.302906 102.110686 

L 208.656494 102.619947 

L 210.001279 103.129209 

L 211.317855 103.63847 

L 212.588021 104.147731 

L 213.795435 104.656993 

L 214.92614 105.166254 

L 215.968943 105.675515 

L 216.915644 106.184777 

L 217.761113 106.694038 

L 218.503258 107.2033 

L 219.142883 107.712561 

L 219.68347 108.221822 

L 220.130907 108.731084 

L 220.493174 109.240345 

L 220.77999 109.749606 

L 221.002432 110.258868 

L 221.172508 110.768129 

L 221.30269 111.27739 

L 221.405398 111.786652 

L 221.49244 112.295913 

L 221.574432 112.805175 

L 221.660233 113.314436 

L 221.756422 113.823697 

L 221.8669 114.332959 

L 221.992659 114.84222 

L 222.131757 115.351481 

L 222.279562 115.860743 

L 222.429237 116.370004 

L 222.572464 116.879266 

L 222.70033 117.388527 

L 222.804308 117.897788 

L 222.877209 118.40705 

L 222.914008 118.916311 

L 222.912452 119.425572 

L 222.873362 119.934834 

L 222.800604 120.444095 

L 222.700734 120.953356 

L 222.58235 121.462618 

L 222.455239 121.971879 

L 222.32941 122.481141 

L 222.214126 122.990402 

L 222.117028 123.499663 

L 222.043454 124.008925 

L 221.995999 124.518186 

L 221.974358 125.027447 

L 221.975465 125.536709 

L 221.993886 126.04597 

L 222.022449 126.555231 

L 222.053037 127.064493 

L 222.077468 127.573754 

L 222.088407 128.083016 

L 222.080203 128.592277 

L 222.049595 129.101538 

L 221.996216 129.6108 

L 221.922834 130.120061 

L 221.835306 130.629322 

L 221.742228 131.138584 

L 221.654306 131.647845 

L 221.583486 132.157107 

L 221.541923 132.666368 

L 221.540862 133.175629 

L 221.589563 133.684891 

L 221.69433 134.194152 

L 221.857776 134.703413 

L 222.078363 135.212675 

L 222.350283 135.721936 

L 222.663676 136.231197 

L 223.005174 136.740459 

L 223.358718 137.24972 

L 223.706567 137.758982 

L 224.030426 138.268243 

L 224.31258 138.777504 

L 224.53695 139.286766 

L 224.689992 139.796027 

L 224.761364 140.305288 

L 224.744313 140.81455 

L 224.635779 141.323811 

L 224.4362 141.833072 

L 224.149043 142.342334 

L 223.780122 142.851595 

L 223.336757 143.360857 

L 222.826847 143.870118 

L 222.25796 144.379379 

L 221.636506 144.888641 

L 220.967092 145.397902 

L 220.252119 145.907163 

L 219.491669 146.416425 

L 218.68371 146.925686 

L 217.824591 147.434948 

L 216.909808 147.944209 

L 215.934935 148.45347 

L 214.89665 148.962732 

L 213.793721 149.471993 

L 212.627847 149.981254 

L 211.404246 150.490516 

L 210.131919 150.999777 

L 208.823543 151.509038 

L 207.494994 152.0183 

z

" style="fill:#1f77b4;fill-opacity:0.3;"/>

   </g>

   <g id="PolyCollection_3">

    <path clip-path="url(#pfb26624e52)" d="M 316.74724 218.256364 

L 315.393669 218.256364 

L 315.27544 217.351549 

L 315.145413 216.446735 

L 315.004234 215.54192 

L 314.853362 214.637105 

L 314.694839 213.732291 

L 314.530688 212.827476 

L 314.362026 211.922662 

L 314.18809 211.017847 

L 314.005438 210.113033 

L 313.807571 209.208218 

L 313.585167 208.303404 

L 313.326924 207.398589 

L 313.020938 206.493775 

L 312.656355 205.58896 

L 312.225064 204.684146 

L 311.723168 203.779331 

L 311.152018 202.874517 

L 310.518661 201.969702 

L 309.835567 201.064887 

L 309.11954 200.160073 

L 308.389781 199.255258 

L 307.665184 198.350444 

L 306.961138 197.445629 

L 306.286309 196.540815 

L 305.640046 195.636 

L 305.01109 194.731186 

L 304.378118 193.826371 

L 303.712321 192.921557 

L 302.981771 192.016742 

L 302.156892 191.111928 

L 301.216015 190.207113 

L 300.149927 189.302298 

L 298.964482 188.397484 

L 297.680702 187.492669 

L 296.332338 186.587855 

L 294.961344 185.68304 

L 293.612146 184.778226 

L 292.325788 183.873411 

L 291.13507 182.968597 

L 290.061546 182.063782 

L 289.11486 181.158968 

L 288.29443 180.254153 

L 287.592962 179.349339 

L 287.000947 178.444524 

L 286.511054 177.53971 

L 286.121428 176.634895 

L 285.837158 175.73008 

L 285.669644 174.825266 

L 285.634091 173.920451 

L 285.745799 173.015637 

L 286.016169 172.110822 

L 286.449337 171.206008 

L 287.040162 170.301193 

L 287.773905 169.396379 

L 288.627549 168.491564 

L 289.572354 167.58675 

L 290.577095 166.681935 

L 291.611365 165.777121 

L 292.648463 164.872306 

L 293.667532 163.967492 

L 294.654815 163.062677 

L 295.603986 162.157862 

L 296.515629 161.253048 

L 297.395959 160.348233 

L 298.254967 159.443419 

L 299.104173 158.538604 

L 299.954313 157.63379 

L 300.813264 156.728975 

L 301.684565 155.824161 

L 302.566771 154.919346 

L 303.453735 154.014532 

L 304.335753 153.109717 

L 305.201265 152.204903 

L 306.03878 151.300088 

L 306.838587 150.395273 

L 307.593984 149.490459 

L 308.301839 148.585644 

L 308.96249 147.68083 

L 309.579139 146.776015 

L 310.156912 145.871201 

L 310.701805 144.966386 

L 311.219664 144.061572 

L 311.715303 143.156757 

L 312.191816 142.251943 

L 312.650146 141.347128 

L 313.08895 140.442314 

L 313.504793 139.537499 

L 313.892682 138.632685 

L 314.246887 137.72787 

L 314.561931 136.823055 

L 314.833596 135.918241 

L 315.059761 135.013426 

L 315.240913 134.108612 

L 315.380254 133.203797 

L 315.483366 132.298983 

L 315.557517 131.394168 

L 315.61074 130.489354 

L 315.650843 129.584539 

L 315.684542 128.679725 

L 316.456367 128.679725 

L 316.456367 128.679725 

L 316.490066 129.584539 

L 316.530169 130.489354 

L 316.583392 131.394168 

L 316.657543 132.298983 

L 316.760655 133.203797 

L 316.899996 134.108612 

L 317.081148 135.013426 

L 317.307313 135.918241 

L 317.578978 136.823055 

L 317.894022 137.72787 

L 318.248227 138.632685 

L 318.636116 139.537499 

L 319.051959 140.442314 

L 319.490763 141.347128 

L 319.949093 142.251943 

L 320.425606 143.156757 

L 320.921245 144.061572 

L 321.439104 144.966386 

L 321.983998 145.871201 

L 322.56177 146.776015 

L 323.178419 147.68083 

L 323.83907 148.585644 

L 324.546925 149.490459 

L 325.302323 150.395273 

L 326.10213 151.300088 

L 326.939644 152.204903 

L 327.805156 153.109717 

L 328.687174 154.014532 

L 329.574138 154.919346 

L 330.456344 155.824161 

L 331.327645 156.728975 

L 332.186597 157.63379 

L 333.036736 158.538604 

L 333.885942 159.443419 

L 334.74495 160.348233 

L 335.62528 161.253048 

L 336.536923 162.157862 

L 337.486094 163.062677 

L 338.473377 163.967492 

L 339.492447 164.872306 

L 340.529544 165.777121 

L 341.563815 166.681935 

L 342.568556 167.58675 

L 343.51336 168.491564 

L 344.367004 169.396379 

L 345.100747 170.301193 

L 345.691572 171.206008 

L 346.12474 172.110822 

L 346.39511 173.015637 

L 346.506818 173.920451 

L 346.471265 174.825266 

L 346.303751 175.73008 

L 346.019482 176.634895 

L 345.629856 177.53971 

L 345.139962 178.444524 

L 344.547947 179.349339 

L 343.846479 180.254153 

L 343.026049 181.158968 

L 342.079364 182.063782 

L 341.005839 182.968597 

L 339.815121 183.873411 

L 338.528763 184.778226 

L 337.179565 185.68304 

L 335.808571 186.587855 

L 334.460207 187.492669 

L 333.176427 188.397484 

L 331.990982 189.302298 

L 330.924895 190.207113 

L 329.984017 191.111928 

L 329.159138 192.016742 

L 328.428588 192.921557 

L 327.762791 193.826371 

L 327.129819 194.731186 

L 326.500863 195.636 

L 325.8546 196.540815 

L 325.179771 197.445629 

L 324.475725 198.350444 

L 323.751129 199.255258 

L 323.021369 200.160073 

L 322.305342 201.064887 

L 321.622248 201.969702 

L 320.988891 202.874517 

L 320.417741 203.779331 

L 319.915845 204.684146 

L 319.484554 205.58896 

L 319.119971 206.493775 

L 318.813985 207.398589 

L 318.555742 208.303404 

L 318.333338 209.208218 

L 318.135471 210.113033 

L 317.952819 211.017847 

L 317.778883 211.922662 

L 317.610221 212.827476 

L 317.44607 213.732291 

L 317.287547 214.637105 

L 317.136676 215.54192 

L 316.995496 216.446735 

L 316.865469 217.351549 

L 316.74724 218.256364 

z

" style="fill:#1f77b4;fill-opacity:0.3;"/>

   </g>

   <g id="matplotlib.axis_1">

    <g id="xtick_1">

     <g id="line2d_1">

      <defs>

       <path d="M 0 0 

L 0 3.5 

" id="m55e294c189" style="stroke:#000000;stroke-width:0.8;"/>

      </defs>

      <g>

       <use style="stroke:#000000;stroke-width:0.8;" x="72.579545" xlink:href="#m55e294c189" y="228.14"/>

      </g>

     </g>

     <g id="text_1">

      <!-- dog -->

      <defs>

       <path d="M 45.40625 46.390625 

L 45.40625 75.984375 

L 54.390625 75.984375 

L 54.390625 0 

L 45.40625 0 

L 45.40625 8.203125 

Q 42.578125 3.328125 38.25 0.953125 

Q 33.9375 -1.421875 27.875 -1.421875 

Q 17.96875 -1.421875 11.734375 6.484375 

Q 5.515625 14.40625 5.515625 27.296875 

Q 5.515625 40.1875 11.734375 48.09375 

Q 17.96875 56 27.875 56 

Q 33.9375 56 38.25 53.625 

Q 42.578125 51.265625 45.40625 46.390625 

z

M 14.796875 27.296875 

Q 14.796875 17.390625 18.875 11.75 

Q 22.953125 6.109375 30.078125 6.109375 

Q 37.203125 6.109375 41.296875 11.75 

Q 45.40625 17.390625 45.40625 27.296875 

Q 45.40625 37.203125 41.296875 42.84375 

Q 37.203125 48.484375 30.078125 48.484375 

Q 22.953125 48.484375 18.875 42.84375 

Q 14.796875 37.203125 14.796875 27.296875 

z

" id="DejaVuSans-64"/>

       <path d="M 30.609375 48.390625 

Q 23.390625 48.390625 19.1875 42.75 

Q 14.984375 37.109375 14.984375 27.296875 

Q 14.984375 17.484375 19.15625 11.84375 

Q 23.34375 6.203125 30.609375 6.203125 

Q 37.796875 6.203125 41.984375 11.859375 

Q 46.1875 17.53125 46.1875 27.296875 

Q 46.1875 37.015625 41.984375 42.703125 

Q 37.796875 48.390625 30.609375 48.390625 

z

M 30.609375 56 

Q 42.328125 56 49.015625 48.375 

Q 55.71875 40.765625 55.71875 27.296875 

Q 55.71875 13.875 49.015625 6.21875 

Q 42.328125 -1.421875 30.609375 -1.421875 

Q 18.84375 -1.421875 12.171875 6.21875 

Q 5.515625 13.875 5.515625 27.296875 

Q 5.515625 40.765625 12.171875 48.375 

Q 18.84375 56 30.609375 56 

z

" id="DejaVuSans-6f"/>

       <path d="M 45.40625 27.984375 

Q 45.40625 37.75 41.375 43.109375 

Q 37.359375 48.484375 30.078125 48.484375 

Q 22.859375 48.484375 18.828125 43.109375 

Q 14.796875 37.75 14.796875 27.984375 

Q 14.796875 18.265625 18.828125 12.890625 

Q 22.859375 7.515625 30.078125 7.515625 

Q 37.359375 7.515625 41.375 12.890625 

Q 45.40625 18.265625 45.40625 27.984375 

z

M 54.390625 6.78125 

Q 54.390625 -7.171875 48.1875 -13.984375 

Q 42 -20.796875 29.203125 -20.796875 

Q 24.46875 -20.796875 20.265625 -20.09375 

Q 16.0625 -19.390625 12.109375 -17.921875 

L 12.109375 -9.1875 

Q 16.0625 -11.328125 19.921875 -12.34375 

Q 23.78125 -13.375 27.78125 -13.375 

Q 36.625 -13.375 41.015625 -8.765625 

Q 45.40625 -4.15625 45.40625 5.171875 

L 45.40625 9.625 

Q 42.625 4.78125 38.28125 2.390625 

Q 33.9375 0 27.875 0 

Q 17.828125 0 11.671875 7.65625 

Q 5.515625 15.328125 5.515625 27.984375 

Q 5.515625 40.671875 11.671875 48.328125 

Q 17.828125 56 27.875 56 

Q 33.9375 56 38.28125 53.609375 

Q 42.625 51.21875 45.40625 46.390625 

L 45.40625 54.6875 

L 54.390625 54.6875 

z

" id="DejaVuSans-67"/>

      </defs>

      <g transform="translate(63.171733 242.738437)scale(0.1 -0.1)">

       <use xlink:href="#DejaVuSans-64"/>

       <use x="63.476562" xlink:href="#DejaVuSans-6f"/>

       <use x="124.658203" xlink:href="#DejaVuSans-67"/>

      </g>

     </g>

    </g>

    <g id="xtick_2">

     <g id="line2d_2">

      <g>

       <use style="stroke:#000000;stroke-width:0.8;" x="194.325" xlink:href="#m55e294c189" y="228.14"/>

      </g>

     </g>

     <g id="text_2">

      <!-- cat -->

      <defs>

       <path d="M 48.78125 52.59375 

L 48.78125 44.1875 

Q 44.96875 46.296875 41.140625 47.34375 

Q 37.3125 48.390625 33.40625 48.390625 

Q 24.65625 48.390625 19.8125 42.84375 

Q 14.984375 37.3125 14.984375 27.296875 

Q 14.984375 17.28125 19.8125 11.734375 

Q 24.65625 6.203125 33.40625 6.203125 

Q 37.3125 6.203125 41.140625 7.25 

Q 44.96875 8.296875 48.78125 10.40625 

L 48.78125 2.09375 

Q 45.015625 0.34375 40.984375 -0.53125 

Q 36.96875 -1.421875 32.421875 -1.421875 

Q 20.0625 -1.421875 12.78125 6.34375 

Q 5.515625 14.109375 5.515625 27.296875 

Q 5.515625 40.671875 12.859375 48.328125 

Q 20.21875 56 33.015625 56 

Q 37.15625 56 41.109375 55.140625 

Q 45.0625 54.296875 48.78125 52.59375 

z

" id="DejaVuSans-63"/>

       <path d="M 34.28125 27.484375 

Q 23.390625 27.484375 19.1875 25 

Q 14.984375 22.515625 14.984375 16.5 

Q 14.984375 11.71875 18.140625 8.90625 

Q 21.296875 6.109375 26.703125 6.109375 

Q 34.1875 6.109375 38.703125 11.40625 

Q 43.21875 16.703125 43.21875 25.484375 

L 43.21875 27.484375 

z

M 52.203125 31.203125 

L 52.203125 0 

L 43.21875 0 

L 43.21875 8.296875 

Q 40.140625 3.328125 35.546875 0.953125 

Q 30.953125 -1.421875 24.3125 -1.421875 

Q 15.921875 -1.421875 10.953125 3.296875 

Q 6 8.015625 6 15.921875 

Q 6 25.140625 12.171875 29.828125 

Q 18.359375 34.515625 30.609375 34.515625 

L 43.21875 34.515625 

L 43.21875 35.40625 

Q 43.21875 41.609375 39.140625 45 

Q 35.0625 48.390625 27.6875 48.390625 

Q 23 48.390625 18.546875 47.265625 

Q 14.109375 46.140625 10.015625 43.890625 

L 10.015625 52.203125 

Q 14.9375 54.109375 19.578125 55.046875 

Q 24.21875 56 28.609375 56 

Q 40.484375 56 46.34375 49.84375 

Q 52.203125 43.703125 52.203125 31.203125 

z

" id="DejaVuSans-61"/>

       <path d="M 18.3125 70.21875 

L 18.3125 54.6875 

L 36.8125 54.6875 

L 36.8125 47.703125 

L 18.3125 47.703125 

L 18.3125 18.015625 

Q 18.3125 11.328125 20.140625 9.421875 

Q 21.96875 7.515625 27.59375 7.515625 

L 36.8125 7.515625 

L 36.8125 0 

L 27.59375 0 

Q 17.1875 0 13.234375 3.875 

Q 9.28125 7.765625 9.28125 18.015625 

L 9.28125 47.703125 

L 2.6875 47.703125 

L 2.6875 54.6875 

L 9.28125 54.6875 

L 9.28125 70.21875 

z

" id="DejaVuSans-74"/>

      </defs>

      <g transform="translate(186.551563 242.738437)scale(0.1 -0.1)">

       <use xlink:href="#DejaVuSans-63"/>

       <use x="54.980469" xlink:href="#DejaVuSans-61"/>

       <use x="116.259766" xlink:href="#DejaVuSans-74"/>

      </g>

     </g>

    </g>

    <g id="xtick_3">

     <g id="line2d_3">

      <g>

       <use style="stroke:#000000;stroke-width:0.8;" x="316.070455" xlink:href="#m55e294c189" y="228.14"/>

      </g>

     </g>

     <g id="text_3">

      <!-- rabbit -->

      <defs>

       <path d="M 41.109375 46.296875 

Q 39.59375 47.171875 37.8125 47.578125 

Q 36.03125 48 33.890625 48 

Q 26.265625 48 22.1875 43.046875 

Q 18.109375 38.09375 18.109375 28.8125 

L 18.109375 0 

L 9.078125 0 

L 9.078125 54.6875 

L 18.109375 54.6875 

L 18.109375 46.1875 

Q 20.953125 51.171875 25.484375 53.578125 

Q 30.03125 56 36.53125 56 

Q 37.453125 56 38.578125 55.875 

Q 39.703125 55.765625 41.0625 55.515625 

z

" id="DejaVuSans-72"/>

       <path d="M 48.6875 27.296875 

Q 48.6875 37.203125 44.609375 42.84375 

Q 40.53125 48.484375 33.40625 48.484375 

Q 26.265625 48.484375 22.1875 42.84375 

Q 18.109375 37.203125 18.109375 27.296875 

Q 18.109375 17.390625 22.1875 11.75 

Q 26.265625 6.109375 33.40625 6.109375 

Q 40.53125 6.109375 44.609375 11.75 

Q 48.6875 17.390625 48.6875 27.296875 

z

M 18.109375 46.390625 

Q 20.953125 51.265625 25.265625 53.625 

Q 29.59375 56 35.59375 56 

Q 45.5625 56 51.78125 48.09375 

Q 58.015625 40.1875 58.015625 27.296875 

Q 58.015625 14.40625 51.78125 6.484375 

Q 45.5625 -1.421875 35.59375 -1.421875 

Q 29.59375 -1.421875 25.265625 0.953125 

Q 20.953125 3.328125 18.109375 8.203125 

L 18.109375 0 

L 9.078125 0 

L 9.078125 75.984375 

L 18.109375 75.984375 

z

" id="DejaVuSans-62"/>

       <path d="M 9.421875 54.6875 

L 18.40625 54.6875 

L 18.40625 0 

L 9.421875 0 

z

M 9.421875 75.984375 

L 18.40625 75.984375 

L 18.40625 64.59375 

L 9.421875 64.59375 

z

" id="DejaVuSans-69"/>

      </defs>

      <g transform="translate(301.253267 242.738437)scale(0.1 -0.1)">

       <use xlink:href="#DejaVuSans-72"/>

       <use x="41.113281" xlink:href="#DejaVuSans-61"/>

       <use x="102.392578" xlink:href="#DejaVuSans-62"/>

       <use x="165.869141" xlink:href="#DejaVuSans-62"/>

       <use x="229.345703" xlink:href="#DejaVuSans-69"/>

       <use x="257.128906" xlink:href="#DejaVuSans-74"/>

      </g>

     </g>

    </g>

   </g>

   <g id="matplotlib.axis_2">

    <g id="ytick_1">

     <g id="line2d_4">

      <defs>

       <path d="M 0 0 

L -3.5 0 

" id="me9820cdeeb" style="stroke:#000000;stroke-width:0.8;"/>

      </defs>

      <g>

       <use style="stroke:#000000;stroke-width:0.8;" x="26.925" xlink:href="#me9820cdeeb" y="207.503109"/>

      </g>

     </g>

     <g id="text_4">

      <!-- 5 -->

      <defs>

       <path d="M 10.796875 72.90625 

L 49.515625 72.90625 

L 49.515625 64.59375 

L 19.828125 64.59375 

L 19.828125 46.734375 

Q 21.96875 47.46875 24.109375 47.828125 

Q 26.265625 48.1875 28.421875 48.1875 

Q 40.625 48.1875 47.75 41.5 

Q 54.890625 34.8125 54.890625 23.390625 

Q 54.890625 11.625 47.5625 5.09375 

Q 40.234375 -1.421875 26.90625 -1.421875 

Q 22.3125 -1.421875 17.546875 -0.640625 

Q 12.796875 0.140625 7.71875 1.703125 

L 7.71875 11.625 

Q 12.109375 9.234375 16.796875 8.0625 

Q 21.484375 6.890625 26.703125 6.890625 

Q 35.15625 6.890625 40.078125 11.328125 

Q 45.015625 15.765625 45.015625 23.390625 

Q 45.015625 31 40.078125 35.4375 

Q 35.15625 39.890625 26.703125 39.890625 

Q 22.75 39.890625 18.8125 39.015625 

Q 14.890625 38.140625 10.796875 36.28125 

z

" id="DejaVuSans-35"/>

      </defs>

      <g transform="translate(13.5625 211.302327)scale(0.1 -0.1)">

       <use xlink:href="#DejaVuSans-35"/>

      </g>

     </g>

    </g>

    <g id="ytick_2">

     <g id="line2d_5">

      <g>

       <use style="stroke:#000000;stroke-width:0.8;" x="26.925" xlink:href="#me9820cdeeb" y="182.287492"/>

      </g>

     </g>

     <g id="text_5">

      <!-- 10 -->

      <defs>

       <path d="M 12.40625 8.296875 

L 28.515625 8.296875 

L 28.515625 63.921875 

L 10.984375 60.40625 

L 10.984375 69.390625 

L 28.421875 72.90625 

L 38.28125 72.90625 

L 38.28125 8.296875 

L 54.390625 8.296875 

L 54.390625 0 

L 12.40625 0 

z

" id="DejaVuSans-31"/>

       <path d="M 31.78125 66.40625 

Q 24.171875 66.40625 20.328125 58.90625 

Q 16.5 51.421875 16.5 36.375 

Q 16.5 21.390625 20.328125 13.890625 

Q 24.171875 6.390625 31.78125 6.390625 

Q 39.453125 6.390625 43.28125 13.890625 

Q 47.125 21.390625 47.125 36.375 

Q 47.125 51.421875 43.28125 58.90625 

Q 39.453125 66.40625 31.78125 66.40625 

z

M 31.78125 74.21875 

Q 44.046875 74.21875 50.515625 64.515625 

Q 56.984375 54.828125 56.984375 36.375 

Q 56.984375 17.96875 50.515625 8.265625 

Q 44.046875 -1.421875 31.78125 -1.421875 

Q 19.53125 -1.421875 13.0625 8.265625 

Q 6.59375 17.96875 6.59375 36.375 

Q 6.59375 54.828125 13.0625 64.515625 

Q 19.53125 74.21875 31.78125 74.21875 

z

" id="DejaVuSans-30"/>

      </defs>

      <g transform="translate(7.2 186.086711)scale(0.1 -0.1)">

       <use xlink:href="#DejaVuSans-31"/>

       <use x="63.623047" xlink:href="#DejaVuSans-30"/>

      </g>

     </g>

    </g>

    <g id="ytick_3">

     <g id="line2d_6">

      <g>

       <use style="stroke:#000000;stroke-width:0.8;" x="26.925" xlink:href="#me9820cdeeb" y="157.071876"/>

      </g>

     </g>

     <g id="text_6">

      <!-- 15 -->

      <g transform="translate(7.2 160.871095)scale(0.1 -0.1)">

       <use xlink:href="#DejaVuSans-31"/>

       <use x="63.623047" xlink:href="#DejaVuSans-35"/>

      </g>

     </g>

    </g>

    <g id="ytick_4">

     <g id="line2d_7">

      <g>

       <use style="stroke:#000000;stroke-width:0.8;" x="26.925" xlink:href="#me9820cdeeb" y="131.85626"/>

      </g>

     </g>

     <g id="text_7">

      <!-- 20 -->

      <defs>

       <path d="M 19.1875 8.296875 

L 53.609375 8.296875 

L 53.609375 0 

L 7.328125 0 

L 7.328125 8.296875 

Q 12.9375 14.109375 22.625 23.890625 

Q 32.328125 33.6875 34.8125 36.53125 

Q 39.546875 41.84375 41.421875 45.53125 

Q 43.3125 49.21875 43.3125 52.78125 

Q 43.3125 58.59375 39.234375 62.25 

Q 35.15625 65.921875 28.609375 65.921875 

Q 23.96875 65.921875 18.8125 64.3125 

Q 13.671875 62.703125 7.8125 59.421875 

L 7.8125 69.390625 

Q 13.765625 71.78125 18.9375 73 

Q 24.125 74.21875 28.421875 74.21875 

Q 39.75 74.21875 46.484375 68.546875 

Q 53.21875 62.890625 53.21875 53.421875 

Q 53.21875 48.921875 51.53125 44.890625 

Q 49.859375 40.875 45.40625 35.40625 

Q 44.1875 33.984375 37.640625 27.21875 

Q 31.109375 20.453125 19.1875 8.296875 

z

" id="DejaVuSans-32"/>

      </defs>

      <g transform="translate(7.2 135.655479)scale(0.1 -0.1)">

       <use xlink:href="#DejaVuSans-32"/>

       <use x="63.623047" xlink:href="#DejaVuSans-30"/>

      </g>

     </g>

    </g>

    <g id="ytick_5">

     <g id="line2d_8">

      <g>

       <use style="stroke:#000000;stroke-width:0.8;" x="26.925" xlink:href="#me9820cdeeb" y="106.640644"/>

      </g>

     </g>

     <g id="text_8">

      <!-- 25 -->

      <g transform="translate(7.2 110.439862)scale(0.1 -0.1)">

       <use xlink:href="#DejaVuSans-32"/>

       <use x="63.623047" xlink:href="#DejaVuSans-35"/>

      </g>

     </g>

    </g>

    <g id="ytick_6">

     <g id="line2d_9">

      <g>

       <use style="stroke:#000000;stroke-width:0.8;" x="26.925" xlink:href="#me9820cdeeb" y="81.425027"/>

      </g>

     </g>

     <g id="text_9">

      <!-- 30 -->

      <defs>

       <path d="M 40.578125 39.3125 

Q 47.65625 37.796875 51.625 33 

Q 55.609375 28.21875 55.609375 21.1875 

Q 55.609375 10.40625 48.1875 4.484375 

Q 40.765625 -1.421875 27.09375 -1.421875 

Q 22.515625 -1.421875 17.65625 -0.515625 

Q 12.796875 0.390625 7.625 2.203125 

L 7.625 11.71875 

Q 11.71875 9.328125 16.59375 8.109375 

Q 21.484375 6.890625 26.8125 6.890625 

Q 36.078125 6.890625 40.9375 10.546875 

Q 45.796875 14.203125 45.796875 21.1875 

Q 45.796875 27.640625 41.28125 31.265625 

Q 36.765625 34.90625 28.71875 34.90625 

L 20.21875 34.90625 

L 20.21875 43.015625 

L 29.109375 43.015625 

Q 36.375 43.015625 40.234375 45.921875 

Q 44.09375 48.828125 44.09375 54.296875 

Q 44.09375 59.90625 40.109375 62.90625 

Q 36.140625 65.921875 28.71875 65.921875 

Q 24.65625 65.921875 20.015625 65.03125 

Q 15.375 64.15625 9.8125 62.3125 

L 9.8125 71.09375 

Q 15.4375 72.65625 20.34375 73.4375 

Q 25.25 74.21875 29.59375 74.21875 

Q 40.828125 74.21875 47.359375 69.109375 

Q 53.90625 64.015625 53.90625 55.328125 

Q 53.90625 49.265625 50.4375 45.09375 

Q 46.96875 40.921875 40.578125 39.3125 

z

" id="DejaVuSans-33"/>

      </defs>

      <g transform="translate(7.2 85.224246)scale(0.1 -0.1)">

       <use xlink:href="#DejaVuSans-33"/>

       <use x="63.623047" xlink:href="#DejaVuSans-30"/>

      </g>

     </g>

    </g>

    <g id="ytick_7">

     <g id="line2d_10">

      <g>

       <use style="stroke:#000000;stroke-width:0.8;" x="26.925" xlink:href="#me9820cdeeb" y="56.209411"/>

      </g>

     </g>

     <g id="text_10">

      <!-- 35 -->

      <g transform="translate(7.2 60.00863)scale(0.1 -0.1)">

       <use xlink:href="#DejaVuSans-33"/>

       <use x="63.623047" xlink:href="#DejaVuSans-35"/>

      </g>

     </g>

    </g>

    <g id="ytick_8">

     <g id="line2d_11">

      <g>

       <use style="stroke:#000000;stroke-width:0.8;" x="26.925" xlink:href="#me9820cdeeb" y="30.993795"/>

      </g>

     </g>

     <g id="text_11">

      <!-- 40 -->

      <defs>

       <path d="M 37.796875 64.3125 

L 12.890625 25.390625 

L 37.796875 25.390625 

z

M 35.203125 72.90625 

L 47.609375 72.90625 

L 47.609375 25.390625 

L 58.015625 25.390625 

L 58.015625 17.1875 

L 47.609375 17.1875 

L 47.609375 0 

L 37.796875 0 

L 37.796875 17.1875 

L 4.890625 17.1875 

L 4.890625 26.703125 

z

" id="DejaVuSans-34"/>

      </defs>

      <g transform="translate(7.2 34.793014)scale(0.1 -0.1)">

       <use xlink:href="#DejaVuSans-34"/>

       <use x="63.623047" xlink:href="#DejaVuSans-30"/>

      </g>

     </g>

    </g>

   </g>

   <g id="LineCollection_1">

    <path clip-path="url(#pfb26624e52)" d="M 57.361364 20.583636 

L 87.797727 20.583636 

" style="fill:none;stroke:#1f77b4;stroke-width:1.5;"/>

    <path clip-path="url(#pfb26624e52)" d="M 179.106818 101.601425 

L 209.543182 101.601425 

" style="fill:none;stroke:#1f77b4;stroke-width:1.5;"/>

    <path clip-path="url(#pfb26624e52)" d="M 300.852273 128.679725 

L 331.288636 128.679725 

" style="fill:none;stroke:#1f77b4;stroke-width:1.5;"/>

   </g>

   <g id="LineCollection_2">

    <path clip-path="url(#pfb26624e52)" d="M 57.361364 139.097434 

L 87.797727 139.097434 

" style="fill:none;stroke:#1f77b4;stroke-width:1.5;"/>

    <path clip-path="url(#pfb26624e52)" d="M 179.106818 152.0183 

L 209.543182 152.0183 

" style="fill:none;stroke:#1f77b4;stroke-width:1.5;"/>

    <path clip-path="url(#pfb26624e52)" d="M 300.852273 218.256364 

L 331.288636 218.256364 

" style="fill:none;stroke:#1f77b4;stroke-width:1.5;"/>

   </g>

   <g id="LineCollection_3">

    <path clip-path="url(#pfb26624e52)" d="M 72.579545 139.097434 

L 72.579545 20.583636 

" style="fill:none;stroke:#1f77b4;stroke-width:1.5;"/>

    <path clip-path="url(#pfb26624e52)" d="M 194.325 152.0183 

L 194.325 101.601425 

" style="fill:none;stroke:#1f77b4;stroke-width:1.5;"/>

    <path clip-path="url(#pfb26624e52)" d="M 316.070455 218.256364 

L 316.070455 128.679725 

" style="fill:none;stroke:#1f77b4;stroke-width:1.5;"/>

   </g>

   <g id="patch_3">

    <path d="M 26.925 228.14 

L 26.925 10.7 

" style="fill:none;stroke:#000000;stroke-linecap:square;stroke-linejoin:miter;stroke-width:0.8;"/>

   </g>

   <g id="patch_4">

    <path d="M 361.725 228.14 

L 361.725 10.7 

" style="fill:none;stroke:#000000;stroke-linecap:square;stroke-linejoin:miter;stroke-width:0.8;"/>

   </g>

   <g id="patch_5">

    <path d="M 26.925 228.14 

L 361.725 228.14 

" style="fill:none;stroke:#000000;stroke-linecap:square;stroke-linejoin:miter;stroke-width:0.8;"/>

   </g>

   <g id="patch_6">

    <path d="M 26.925 10.7 

L 361.725 10.7 

" style="fill:none;stroke:#000000;stroke-linecap:square;stroke-linejoin:miter;stroke-width:0.8;"/>

   </g>

  </g>

 </g>

 <defs>

  <clipPath id="pfb26624e52">

   <rect height="217.44" width="334.8" x="26.925" y="10.7"/>

  </clipPath>

 </defs>

</svg>
