<?xml version="1.0" encoding="utf-8" standalone="no"?>

<!DOCTYPE svg PUBLIC "-//W3C//DTD SVG 1.1//EN"

  "http://www.w3.org/Graphics/SVG/1.1/DTD/svg11.dtd">

<!-- Created with matplotlib (http://matplotlib.org/) -->

<svg height="265pt" version="1.1" viewBox="0 0 401 265" width="401pt" xmlns="http://www.w3.org/2000/svg" xmlns:xlink="http://www.w3.org/1999/xlink">

 <defs>

  <style type="text/css">

*{stroke-linecap:butt;stroke-linejoin:round;}

  </style>

 </defs>

 <g id="figure_1">

  <g id="patch_1">

   <path d="M 0 265.69625 

L 401.278125 265.69625 

L 401.278125 0 

L 0 0 

z

" style="fill:none;"/>

  </g>

  <g id="axes_1">

   <g id="patch_2">

    <path d="M 55.778125 228.14 

L 390.578125 228.14 

L 390.578125 10.7 

L 55.778125 10.7 

z

" style="fill:#ffffff;"/>

   </g>

   <g id="matplotlib.axis_1">

    <g id="xtick_1">

     <g id="line2d_1">

      <defs>

       <path d="M 0 0 

L 0 3.5 

" id="mcfaebf35ba" style="stroke:#000000;stroke-width:0.8;"/>

      </defs>

      <g>

       <use style="stroke:#000000;stroke-width:0.8;" x="70.996307" xlink:href="#mcfaebf35ba" y="228.14"/>

      </g>

     </g>

     <g id="text_1">

      <!-- 0 -->

      <defs>

       <path d="M 31.78125 66.40625 

Q 24.171875 66.40625 20.328125 58.90625 

Q 16.5 51.421875 16.5 36.375 

Q 16.5 21.390625 20.328125 13.890625 

Q 24.171875 6.390625 31.78125 6.390625 

Q 39.453125 6.390625 43.28125 13.890625 

Q 47.125 21.390625 47.125 36.375 

Q 47.125 51.421875 43.28125 58.90625 

Q 39.453125 66.40625 31.78125 66.40625 

z

M 31.78125 74.21875 

Q 44.046875 74.21875 50.515625 64.515625 

Q 56.984375 54.828125 56.984375 36.375 

Q 56.984375 17.96875 50.515625 8.265625 

Q 44.046875 -1.421875 31.78125 -1.421875 

Q 19.53125 -1.421875 13.0625 8.265625 

Q 6.59375 17.96875 6.59375 36.375 

Q 6.59375 54.828125 13.0625 64.515625 

Q 19.53125 74.21875 31.78125 74.21875 

z

" id="DejaVuSans-30"/>

      </defs>

      <g transform="translate(67.815057 242.738437)scale(0.1 -0.1)">

       <use xlink:href="#DejaVuSans-30"/>

      </g>

     </g>

    </g>

    <g id="xtick_2">

     <g id="line2d_2">

      <g>

       <use style="stroke:#000000;stroke-width:0.8;" x="132.48391" xlink:href="#mcfaebf35ba" y="228.14"/>

      </g>

     </g>

     <g id="text_2">

      <!-- 20 -->

      <defs>

       <path d="M 19.1875 8.296875 

L 53.609375 8.296875 

L 53.609375 0 

L 7.328125 0 

L 7.328125 8.296875 

Q 12.9375 14.109375 22.625 23.890625 

Q 32.328125 33.6875 34.8125 36.53125 

Q 39.546875 41.84375 41.421875 45.53125 

Q 43.3125 49.21875 43.3125 52.78125 

Q 43.3125 58.59375 39.234375 62.25 

Q 35.15625 65.921875 28.609375 65.921875 

Q 23.96875 65.921875 18.8125 64.3125 

Q 13.671875 62.703125 7.8125 59.421875 

L 7.8125 69.390625 

Q 13.765625 71.78125 18.9375 73 

Q 24.125 74.21875 28.421875 74.21875 

Q 39.75 74.21875 46.484375 68.546875 

Q 53.21875 62.890625 53.21875 53.421875 

Q 53.21875 48.921875 51.53125 44.890625 

Q 49.859375 40.875 45.40625 35.40625 

Q 44.1875 33.984375 37.640625 27.21875 

Q 31.109375 20.453125 19.1875 8.296875 

z

" id="DejaVuSans-32"/>

      </defs>

      <g transform="translate(126.12141 242.738437)scale(0.1 -0.1)">

       <use xlink:href="#DejaVuSans-32"/>

       <use x="63.623047" xlink:href="#DejaVuSans-30"/>

      </g>

     </g>

    </g>

    <g id="xtick_3">

     <g id="line2d_3">

      <g>

       <use style="stroke:#000000;stroke-width:0.8;" x="193.971513" xlink:href="#mcfaebf35ba" y="228.14"/>

      </g>

     </g>

     <g id="text_3">

      <!-- 40 -->

      <defs>

       <path d="M 37.796875 64.3125 

L 12.890625 25.390625 

L 37.796875 25.390625 

z

M 35.203125 72.90625 

L 47.609375 72.90625 

L 47.609375 25.390625 

L 58.015625 25.390625 

L 58.015625 17.1875 

L 47.609375 17.1875 

L 47.609375 0 

L 37.796875 0 

L 37.796875 17.1875 

L 4.890625 17.1875 

L 4.890625 26.703125 

z

" id="DejaVuSans-34"/>

      </defs>

      <g transform="translate(187.609013 242.738437)scale(0.1 -0.1)">

       <use xlink:href="#DejaVuSans-34"/>

       <use x="63.623047" xlink:href="#DejaVuSans-30"/>

      </g>

     </g>

    </g>

    <g id="xtick_4">

     <g id="line2d_4">

      <g>

       <use style="stroke:#000000;stroke-width:0.8;" x="255.459117" xlink:href="#mcfaebf35ba" y="228.14"/>

      </g>

     </g>

     <g id="text_4">

      <!-- 60 -->

      <defs>

       <path d="M 33.015625 40.375 

Q 26.375 40.375 22.484375 35.828125 

Q 18.609375 31.296875 18.609375 23.390625 

Q 18.609375 15.53125 22.484375 10.953125 

Q 26.375 6.390625 33.015625 6.390625 

Q 39.65625 6.390625 43.53125 10.953125 

Q 47.40625 15.53125 47.40625 23.390625 

Q 47.40625 31.296875 43.53125 35.828125 

Q 39.65625 40.375 33.015625 40.375 

z

M 52.59375 71.296875 

L 52.59375 62.3125 

Q 48.875 64.0625 45.09375 64.984375 

Q 41.3125 65.921875 37.59375 65.921875 

Q 27.828125 65.921875 22.671875 59.328125 

Q 17.53125 52.734375 16.796875 39.40625 

Q 19.671875 43.65625 24.015625 45.921875 

Q 28.375 48.1875 33.59375 48.1875 

Q 44.578125 48.1875 50.953125 41.515625 

Q 57.328125 34.859375 57.328125 23.390625 

Q 57.328125 12.15625 50.6875 5.359375 

Q 44.046875 -1.421875 33.015625 -1.421875 

Q 20.359375 -1.421875 13.671875 8.265625 

Q 6.984375 17.96875 6.984375 36.375 

Q 6.984375 53.65625 15.1875 63.9375 

Q 23.390625 74.21875 37.203125 74.21875 

Q 40.921875 74.21875 44.703125 73.484375 

Q 48.484375 72.75 52.59375 71.296875 

z

" id="DejaVuSans-36"/>

      </defs>

      <g transform="translate(249.096617 242.738437)scale(0.1 -0.1)">

       <use xlink:href="#DejaVuSans-36"/>

       <use x="63.623047" xlink:href="#DejaVuSans-30"/>

      </g>

     </g>

    </g>

    <g id="xtick_5">

     <g id="line2d_5">

      <g>

       <use style="stroke:#000000;stroke-width:0.8;" x="316.94672" xlink:href="#mcfaebf35ba" y="228.14"/>

      </g>

     </g>

     <g id="text_5">

      <!-- 80 -->

      <defs>

       <path d="M 31.78125 34.625 

Q 24.75 34.625 20.71875 30.859375 

Q 16.703125 27.09375 16.703125 20.515625 

Q 16.703125 13.921875 20.71875 10.15625 

Q 24.75 6.390625 31.78125 6.390625 

Q 38.8125 6.390625 42.859375 10.171875 

Q 46.921875 13.96875 46.921875 20.515625 

Q 46.921875 27.09375 42.890625 30.859375 

Q 38.875 34.625 31.78125 34.625 

z

M 21.921875 38.8125 

Q 15.578125 40.375 12.03125 44.71875 

Q 8.5 49.078125 8.5 55.328125 

Q 8.5 64.0625 14.71875 69.140625 

Q 20.953125 74.21875 31.78125 74.21875 

Q 42.671875 74.21875 48.875 69.140625 

Q 55.078125 64.0625 55.078125 55.328125 

Q 55.078125 49.078125 51.53125 44.71875 

Q 48 40.375 41.703125 38.8125 

Q 48.828125 37.15625 52.796875 32.3125 

Q 56.78125 27.484375 56.78125 20.515625 

Q 56.78125 9.90625 50.3125 4.234375 

Q 43.84375 -1.421875 31.78125 -1.421875 

Q 19.734375 -1.421875 13.25 4.234375 

Q 6.78125 9.90625 6.78125 20.515625 

Q 6.78125 27.484375 10.78125 32.3125 

Q 14.796875 37.15625 21.921875 38.8125 

z

M 18.3125 54.390625 

Q 18.3125 48.734375 21.84375 45.5625 

Q 25.390625 42.390625 31.78125 42.390625 

Q 38.140625 42.390625 41.71875 45.5625 

Q 45.3125 48.734375 45.3125 54.390625 

Q 45.3125 60.0625 41.71875 63.234375 

Q 38.140625 66.40625 31.78125 66.40625 

Q 25.390625 66.40625 21.84375 63.234375 

Q 18.3125 60.0625 18.3125 54.390625 

z

" id="DejaVuSans-38"/>

      </defs>

      <g transform="translate(310.58422 242.738437)scale(0.1 -0.1)">

       <use xlink:href="#DejaVuSans-38"/>

       <use x="63.623047" xlink:href="#DejaVuSans-30"/>

      </g>

     </g>

    </g>

    <g id="xtick_6">

     <g id="line2d_6">

      <g>

       <use style="stroke:#000000;stroke-width:0.8;" x="378.434323" xlink:href="#mcfaebf35ba" y="228.14"/>

      </g>

     </g>

     <g id="text_6">

      <!-- 100 -->

      <defs>

       <path d="M 12.40625 8.296875 

L 28.515625 8.296875 

L 28.515625 63.921875 

L 10.984375 60.40625 

L 10.984375 69.390625 

L 28.421875 72.90625 

L 38.28125 72.90625 

L 38.28125 8.296875 

L 54.390625 8.296875 

L 54.390625 0 

L 12.40625 0 

z

" id="DejaVuSans-31"/>

      </defs>

      <g transform="translate(368.890573 242.738437)scale(0.1 -0.1)">

       <use xlink:href="#DejaVuSans-31"/>

       <use x="63.623047" xlink:href="#DejaVuSans-30"/>

       <use x="127.246094" xlink:href="#DejaVuSans-30"/>

      </g>

     </g>

    </g>

    <g id="text_7">

     <!-- Iteration -->

     <defs>

      <path d="M 9.8125 72.90625 

L 19.671875 72.90625 

L 19.671875 0 

L 9.8125 0 

z

" id="DejaVuSans-49"/>

      <path d="M 18.3125 70.21875 

L 18.3125 54.6875 

L 36.8125 54.6875 

L 36.8125 47.703125 

L 18.3125 47.703125 

L 18.3125 18.015625 

Q 18.3125 11.328125 20.140625 9.421875 

Q 21.96875 7.515625 27.59375 7.515625 

L 36.8125 7.515625 

L 36.8125 0 

L 27.59375 0 

Q 17.1875 0 13.234375 3.875 

Q 9.28125 7.765625 9.28125 18.015625 

L 9.28125 47.703125 

L 2.6875 47.703125 

L 2.6875 54.6875 

L 9.28125 54.6875 

L 9.28125 70.21875 

z

" id="DejaVuSans-74"/>

      <path d="M 56.203125 29.59375 

L 56.203125 25.203125 

L 14.890625 25.203125 

Q 15.484375 15.921875 20.484375 11.0625 

Q 25.484375 6.203125 34.421875 6.203125 

Q 39.59375 6.203125 44.453125 7.46875 

Q 49.3125 8.734375 54.109375 11.28125 

L 54.109375 2.78125 

Q 49.265625 0.734375 44.1875 -0.34375 

Q 39.109375 -1.421875 33.890625 -1.421875 

Q 20.796875 -1.421875 13.15625 6.1875 

Q 5.515625 13.8125 5.515625 26.8125 

Q 5.515625 40.234375 12.765625 48.109375 

Q 20.015625 56 32.328125 56 

Q 43.359375 56 49.78125 48.890625 

Q 56.203125 41.796875 56.203125 29.59375 

z

M 47.21875 32.234375 

Q 47.125 39.59375 43.09375 43.984375 

Q 39.0625 48.390625 32.421875 48.390625 

Q 24.90625 48.390625 20.390625 44.140625 

Q 15.875 39.890625 15.1875 32.171875 

z

" id="DejaVuSans-65"/>

      <path d="M 41.109375 46.296875 

Q 39.59375 47.171875 37.8125 47.578125 

Q 36.03125 48 33.890625 48 

Q 26.265625 48 22.1875 43.046875 

Q 18.109375 38.09375 18.109375 28.8125 

L 18.109375 0 

L 9.078125 0 

L 9.078125 54.6875 

L 18.109375 54.6875 

L 18.109375 46.1875 

Q 20.953125 51.171875 25.484375 53.578125 

Q 30.03125 56 36.53125 56 

Q 37.453125 56 38.578125 55.875 

Q 39.703125 55.765625 41.0625 55.515625 

z

" id="DejaVuSans-72"/>

      <path d="M 34.28125 27.484375 

Q 23.390625 27.484375 19.1875 25 

Q 14.984375 22.515625 14.984375 16.5 

Q 14.984375 11.71875 18.140625 8.90625 

Q 21.296875 6.109375 26.703125 6.109375 

Q 34.1875 6.109375 38.703125 11.40625 

Q 43.21875 16.703125 43.21875 25.484375 

L 43.21875 27.484375 

z

M 52.203125 31.203125 

L 52.203125 0 

L 43.21875 0 

L 43.21875 8.296875 

Q 40.140625 3.328125 35.546875 0.953125 

Q 30.953125 -1.421875 24.3125 -1.421875 

Q 15.921875 -1.421875 10.953125 3.296875 

Q 6 8.015625 6 15.921875 

Q 6 25.140625 12.171875 29.828125 

Q 18.359375 34.515625 30.609375 34.515625 

L 43.21875 34.515625 

L 43.21875 35.40625 

Q 43.21875 41.609375 39.140625 45 

Q 35.0625 48.390625 27.6875 48.390625 

Q 23 48.390625 18.546875 47.265625 

Q 14.109375 46.140625 10.015625 43.890625 

L 10.015625 52.203125 

Q 14.9375 54.109375 19.578125 55.046875 

Q 24.21875 56 28.609375 56 

Q 40.484375 56 46.34375 49.84375 

Q 52.203125 43.703125 52.203125 31.203125 

z

" id="DejaVuSans-61"/>

      <path d="M 9.421875 54.6875 

L 18.40625 54.6875 

L 18.40625 0 

L 9.421875 0 

z

M 9.421875 75.984375 

L 18.40625 75.984375 

L 18.40625 64.59375 

L 9.421875 64.59375 

z

" id="DejaVuSans-69"/>

      <path d="M 30.609375 48.390625 

Q 23.390625 48.390625 19.1875 42.75 

Q 14.984375 37.109375 14.984375 27.296875 

Q 14.984375 17.484375 19.15625 11.84375 

Q 23.34375 6.203125 30.609375 6.203125 

Q 37.796875 6.203125 41.984375 11.859375 

Q 46.1875 17.53125 46.1875 27.296875 

Q 46.1875 37.015625 41.984375 42.703125 

Q 37.796875 48.390625 30.609375 48.390625 

z

M 30.609375 56 

Q 42.328125 56 49.015625 48.375 

Q 55.71875 40.765625 55.71875 27.296875 

Q 55.71875 13.875 49.015625 6.21875 

Q 42.328125 -1.421875 30.609375 -1.421875 

Q 18.84375 -1.421875 12.171875 6.21875 

Q 5.515625 13.875 5.515625 27.296875 

Q 5.515625 40.765625 12.171875 48.375 

Q 18.84375 56 30.609375 56 

z

" id="DejaVuSans-6f"/>

      <path d="M 54.890625 33.015625 

L 54.890625 0 

L 45.90625 0 

L 45.90625 32.71875 

Q 45.90625 40.484375 42.875 44.328125 

Q 39.84375 48.1875 33.796875 48.1875 

Q 26.515625 48.1875 22.3125 43.546875 

Q 18.109375 38.921875 18.109375 30.90625 

L 18.109375 0 

L 9.078125 0 

L 9.078125 54.6875 

L 18.109375 54.6875 

L 18.109375 46.1875 

Q 21.34375 51.125 25.703125 53.5625 

Q 30.078125 56 35.796875 56 

Q 45.21875 56 50.046875 50.171875 

Q 54.890625 44.34375 54.890625 33.015625 

z

" id="DejaVuSans-6e"/>

     </defs>

     <g transform="translate(201.969531 256.416562)scale(0.1 -0.1)">

      <use xlink:href="#DejaVuSans-49"/>

      <use x="29.492188" xlink:href="#DejaVuSans-74"/>

      <use x="68.701172" xlink:href="#DejaVuSans-65"/>

      <use x="130.224609" xlink:href="#DejaVuSans-72"/>

      <use x="171.337891" xlink:href="#DejaVuSans-61"/>

      <use x="232.617188" xlink:href="#DejaVuSans-74"/>

      <use x="271.826172" xlink:href="#DejaVuSans-69"/>

      <use x="299.609375" xlink:href="#DejaVuSans-6f"/>

      <use x="360.791016" xlink:href="#DejaVuSans-6e"/>

     </g>

    </g>

   </g>

   <g id="matplotlib.axis_2">

    <g id="ytick_1">

     <g id="line2d_7">

      <defs>

       <path d="M 0 0 

L -3.5 0 

" id="m2d2117c188" style="stroke:#000000;stroke-width:0.8;"/>

      </defs>

      <g>

       <use style="stroke:#000000;stroke-width:0.8;" x="55.778125" xlink:href="#m2d2117c188" y="207.179347"/>

      </g>

     </g>

     <g id="text_8">

      <!-- $\mathdefault{10^{-10}}$ -->

      <defs>

       <path d="M 10.59375 35.5 

L 73.1875 35.5 

L 73.1875 27.203125 

L 10.59375 27.203125 

z

" id="DejaVuSans-2212"/>

      </defs>

      <g transform="translate(20.878125 210.978566)scale(0.1 -0.1)">

       <use transform="translate(0 0.765625)" xlink:href="#DejaVuSans-31"/>

       <use transform="translate(63.623047 0.765625)" xlink:href="#DejaVuSans-30"/>

       <use transform="translate(128.203125 39.046875)scale(0.7)" xlink:href="#DejaVuSans-2212"/>

       <use transform="translate(186.855469 39.046875)scale(0.7)" xlink:href="#DejaVuSans-31"/>

       <use transform="translate(231.391602 39.046875)scale(0.7)" xlink:href="#DejaVuSans-30"/>

      </g>

     </g>

    </g>

    <g id="ytick_2">

     <g id="line2d_8">

      <g>

       <use style="stroke:#000000;stroke-width:0.8;" x="55.778125" xlink:href="#m2d2117c188" y="167.478869"/>

      </g>

     </g>

     <g id="text_9">

      <!-- $\mathdefault{10^{-8}}$ -->

      <g transform="translate(25.278125 171.278088)scale(0.1 -0.1)">

       <use transform="translate(0 0.765625)" xlink:href="#DejaVuSans-31"/>

       <use transform="translate(63.623047 0.765625)" xlink:href="#DejaVuSans-30"/>

       <use transform="translate(128.203125 39.046875)scale(0.7)" xlink:href="#DejaVuSans-2212"/>

       <use transform="translate(186.855469 39.046875)scale(0.7)" xlink:href="#DejaVuSans-38"/>

      </g>

     </g>

    </g>

    <g id="ytick_3">

     <g id="line2d_9">

      <g>

       <use style="stroke:#000000;stroke-width:0.8;" x="55.778125" xlink:href="#m2d2117c188" y="127.778392"/>

      </g>

     </g>

     <g id="text_10">

      <!-- $\mathdefault{10^{-6}}$ -->

      <g transform="translate(25.278125 131.57761)scale(0.1 -0.1)">

       <use transform="translate(0 0.765625)" xlink:href="#DejaVuSans-31"/>

       <use transform="translate(63.623047 0.765625)" xlink:href="#DejaVuSans-30"/>

       <use transform="translate(128.203125 39.046875)scale(0.7)" xlink:href="#DejaVuSans-2212"/>

       <use transform="translate(186.855469 39.046875)scale(0.7)" xlink:href="#DejaVuSans-36"/>

      </g>

     </g>

    </g>

    <g id="ytick_4">

     <g id="line2d_10">

      <g>

       <use style="stroke:#000000;stroke-width:0.8;" x="55.778125" xlink:href="#m2d2117c188" y="88.077914"/>

      </g>

     </g>

     <g id="text_11">

      <!-- $\mathdefault{10^{-4}}$ -->

      <g transform="translate(25.278125 91.877133)scale(0.1 -0.1)">

       <use transform="translate(0 0.684375)" xlink:href="#DejaVuSans-31"/>

       <use transform="translate(63.623047 0.684375)" xlink:href="#DejaVuSans-30"/>

       <use transform="translate(128.203125 38.965625)scale(0.7)" xlink:href="#DejaVuSans-2212"/>

       <use transform="translate(186.855469 38.965625)scale(0.7)" xlink:href="#DejaVuSans-34"/>

      </g>

     </g>

    </g>

    <g id="ytick_5">

     <g id="line2d_11">

      <g>

       <use style="stroke:#000000;stroke-width:0.8;" x="55.778125" xlink:href="#m2d2117c188" y="48.377436"/>

      </g>

     </g>

     <g id="text_12">

      <!-- $\mathdefault{10^{-2}}$ -->

      <g transform="translate(25.278125 52.176655)scale(0.1 -0.1)">

       <use transform="translate(0 0.765625)" xlink:href="#DejaVuSans-31"/>

       <use transform="translate(63.623047 0.765625)" xlink:href="#DejaVuSans-30"/>

       <use transform="translate(128.203125 39.046875)scale(0.7)" xlink:href="#DejaVuSans-2212"/>

       <use transform="translate(186.855469 39.046875)scale(0.7)" xlink:href="#DejaVuSans-32"/>

      </g>

     </g>

    </g>

    <g id="text_13">

     <!-- Average error minus optimal -->

     <defs>

      <path d="M 34.1875 63.1875 

L 20.796875 26.90625 

L 47.609375 26.90625 

z

M 28.609375 72.90625 

L 39.796875 72.90625 

L 67.578125 0 

L 57.328125 0 

L 50.6875 18.703125 

L 17.828125 18.703125 

L 11.1875 0 

L 0.78125 0 

z

" id="DejaVuSans-41"/>

      <path d="M 2.984375 54.6875 

L 12.5 54.6875 

L 29.59375 8.796875 

L 46.6875 54.6875 

L 56.203125 54.6875 

L 35.6875 0 

L 23.484375 0 

z

" id="DejaVuSans-76"/>

      <path d="M 45.40625 27.984375 

Q 45.40625 37.75 41.375 43.109375 

Q 37.359375 48.484375 30.078125 48.484375 

Q 22.859375 48.484375 18.828125 43.109375 

Q 14.796875 37.75 14.796875 27.984375 

Q 14.796875 18.265625 18.828125 12.890625 

Q 22.859375 7.515625 30.078125 7.515625 

Q 37.359375 7.515625 41.375 12.890625 

Q 45.40625 18.265625 45.40625 27.984375 

z

M 54.390625 6.78125 

Q 54.390625 -7.171875 48.1875 -13.984375 

Q 42 -20.796875 29.203125 -20.796875 

Q 24.46875 -20.796875 20.265625 -20.09375 

Q 16.0625 -19.390625 12.109375 -17.921875 

L 12.109375 -9.1875 

Q 16.0625 -11.328125 19.921875 -12.34375 

Q 23.78125 -13.375 27.78125 -13.375 

Q 36.625 -13.375 41.015625 -8.765625 

Q 45.40625 -4.15625 45.40625 5.171875 

L 45.40625 9.625 

Q 42.625 4.78125 38.28125 2.390625 

Q 33.9375 0 27.875 0 

Q 17.828125 0 11.671875 7.65625 

Q 5.515625 15.328125 5.515625 27.984375 

Q 5.515625 40.671875 11.671875 48.328125 

Q 17.828125 56 27.875 56 

Q 33.9375 56 38.28125 53.609375 

Q 42.625 51.21875 45.40625 46.390625 

L 45.40625 54.6875 

L 54.390625 54.6875 

z

" id="DejaVuSans-67"/>

      <path id="DejaVuSans-20"/>

      <path d="M 52 44.1875 

Q 55.375 50.25 60.0625 53.125 

Q 64.75 56 71.09375 56 

Q 79.640625 56 84.28125 50.015625 

Q 88.921875 44.046875 88.921875 33.015625 

L 88.921875 0 

L 79.890625 0 

L 79.890625 32.71875 

Q 79.890625 40.578125 77.09375 44.375 

Q 74.3125 48.1875 68.609375 48.1875 

Q 61.625 48.1875 57.5625 43.546875 

Q 53.515625 38.921875 53.515625 30.90625 

L 53.515625 0 

L 44.484375 0 

L 44.484375 32.71875 

Q 44.484375 40.625 41.703125 44.40625 

Q 38.921875 48.1875 33.109375 48.1875 

Q 26.21875 48.1875 22.15625 43.53125 

Q 18.109375 38.875 18.109375 30.90625 

L 18.109375 0 

L 9.078125 0 

L 9.078125 54.6875 

L 18.109375 54.6875 

L 18.109375 46.1875 

Q 21.1875 51.21875 25.484375 53.609375 

Q 29.78125 56 35.6875 56 

Q 41.65625 56 45.828125 52.96875 

Q 50 49.953125 52 44.1875 

z

" id="DejaVuSans-6d"/>

      <path d="M 8.5 21.578125 

L 8.5 54.6875 

L 17.484375 54.6875 

L 17.484375 21.921875 

Q 17.484375 14.15625 20.5 10.265625 

Q 23.53125 6.390625 29.59375 6.390625 

Q 36.859375 6.390625 41.078125 11.03125 

Q 45.3125 15.671875 45.3125 23.6875 

L 45.3125 54.6875 

L 54.296875 54.6875 

L 54.296875 0 

L 45.3125 0 

L 45.3125 8.40625 

Q 42.046875 3.421875 37.71875 1 

Q 33.40625 -1.421875 27.6875 -1.421875 

Q 18.265625 -1.421875 13.375 4.4375 

Q 8.5 10.296875 8.5 21.578125 

z

M 31.109375 56 

z

" id="DejaVuSans-75"/>

      <path d="M 44.28125 53.078125 

L 44.28125 44.578125 

Q 40.484375 46.53125 36.375 47.5 

Q 32.28125 48.484375 27.875 48.484375 

Q 21.1875 48.484375 17.84375 46.4375 

Q 14.5 44.390625 14.5 40.28125 

Q 14.5 37.15625 16.890625 35.375 

Q 19.28125 33.59375 26.515625 31.984375 

L 29.59375 31.296875 

Q 39.15625 29.25 43.1875 25.515625 

Q 47.21875 21.78125 47.21875 15.09375 

Q 47.21875 7.46875 41.1875 3.015625 

Q 35.15625 -1.421875 24.609375 -1.421875 

Q 20.21875 -1.421875 15.453125 -0.5625 

Q 10.6875 0.296875 5.421875 2 

L 5.421875 11.28125 

Q 10.40625 8.6875 15.234375 7.390625 

Q 20.0625 6.109375 24.8125 6.109375 

Q 31.15625 6.109375 34.5625 8.28125 

Q 37.984375 10.453125 37.984375 14.40625 

Q 37.984375 18.0625 35.515625 20.015625 

Q 33.0625 21.96875 24.703125 23.78125 

L 21.578125 24.515625 

Q 13.234375 26.265625 9.515625 29.90625 

Q 5.8125 33.546875 5.8125 39.890625 

Q 5.8125 47.609375 11.28125 51.796875 

Q 16.75 56 26.8125 56 

Q 31.78125 56 36.171875 55.265625 

Q 40.578125 54.546875 44.28125 53.078125 

z

" id="DejaVuSans-73"/>

      <path d="M 18.109375 8.203125 

L 18.109375 -20.796875 

L 9.078125 -20.796875 

L 9.078125 54.6875 

L 18.109375 54.6875 

L 18.109375 46.390625 

Q 20.953125 51.265625 25.265625 53.625 

Q 29.59375 56 35.59375 56 

Q 45.5625 56 51.78125 48.09375 

Q 58.015625 40.1875 58.015625 27.296875 

Q 58.015625 14.40625 51.78125 6.484375 

Q 45.5625 -1.421875 35.59375 -1.421875 

Q 29.59375 -1.421875 25.265625 0.953125 

Q 20.953125 3.328125 18.109375 8.203125 

z

M 48.6875 27.296875 

Q 48.6875 37.203125 44.609375 42.84375 

Q 40.53125 48.484375 33.40625 48.484375 

Q 26.265625 48.484375 22.1875 42.84375 

Q 18.109375 37.203125 18.109375 27.296875 

Q 18.109375 17.390625 22.1875 11.75 

Q 26.265625 6.109375 33.40625 6.109375 

Q 40.53125 6.109375 44.609375 11.75 

Q 48.6875 17.390625 48.6875 27.296875 

z

" id="DejaVuSans-70"/>

      <path d="M 9.421875 75.984375 

L 18.40625 75.984375 

L 18.40625 0 

L 9.421875 0 

z

" id="DejaVuSans-6c"/>

     </defs>

     <g transform="translate(14.798438 191.417656)rotate(-90)scale(0.1 -0.1)">

      <use xlink:href="#DejaVuSans-41"/>

      <use x="68.330078" xlink:href="#DejaVuSans-76"/>

      <use x="127.509766" xlink:href="#DejaVuSans-65"/>

      <use x="189.033203" xlink:href="#DejaVuSans-72"/>

      <use x="230.146484" xlink:href="#DejaVuSans-61"/>

      <use x="291.425781" xlink:href="#DejaVuSans-67"/>

      <use x="354.902344" xlink:href="#DejaVuSans-65"/>

      <use x="416.425781" xlink:href="#DejaVuSans-20"/>

      <use x="448.212891" xlink:href="#DejaVuSans-65"/>

      <use x="509.736328" xlink:href="#DejaVuSans-72"/>

      <use x="550.833984" xlink:href="#DejaVuSans-72"/>

      <use x="591.916016" xlink:href="#DejaVuSans-6f"/>

      <use x="653.097656" xlink:href="#DejaVuSans-72"/>

      <use x="694.210938" xlink:href="#DejaVuSans-20"/>

      <use x="725.998047" xlink:href="#DejaVuSans-6d"/>

      <use x="823.410156" xlink:href="#DejaVuSans-69"/>

      <use x="851.193359" xlink:href="#DejaVuSans-6e"/>

      <use x="914.572266" xlink:href="#DejaVuSans-75"/>

      <use x="977.951172" xlink:href="#DejaVuSans-73"/>

      <use x="1030.050781" xlink:href="#DejaVuSans-20"/>

      <use x="1061.837891" xlink:href="#DejaVuSans-6f"/>

      <use x="1123.019531" xlink:href="#DejaVuSans-70"/>

      <use x="1186.496094" xlink:href="#DejaVuSans-74"/>

      <use x="1225.705078" xlink:href="#DejaVuSans-69"/>

      <use x="1253.488281" xlink:href="#DejaVuSans-6d"/>

      <use x="1350.900391" xlink:href="#DejaVuSans-61"/>

      <use x="1412.179688" xlink:href="#DejaVuSans-6c"/>

     </g>

    </g>

   </g>

   <g id="line2d_12">

    <path clip-path="url(#pc0dc6050a7)" d="M 70.996307 20.583636 

L 74.070687 48.311703 

L 77.145067 50.839321 

L 80.219447 54.421954 

L 83.293827 55.795679 

L 86.368208 57.580963 

L 89.442588 59.27429 

L 92.516968 60.987216 

L 95.591348 62.695925 

L 98.665728 64.405539 

L 101.740108 66.114958 

L 104.814489 67.82442 

L 107.888869 69.533872 

L 110.963249 71.243326 

L 114.037629 72.95278 

L 117.112009 74.662234 

L 120.186389 76.371688 

L 123.26077 78.081142 

L 126.33515 79.790596 

L 129.40953 81.50005 

L 132.48391 83.209504 

L 135.55829 84.918958 

L 138.63267 86.628411 

L 141.707051 88.337865 

L 144.781431 90.047319 

L 147.855811 91.756773 

L 150.930191 93.466227 

L 154.004571 95.175681 

L 157.078951 96.885135 

L 160.153332 98.594589 

L 163.227712 100.304043 

L 166.302092 102.013497 

L 169.376472 103.722951 

L 172.450852 105.432405 

L 175.525232 107.141859 

L 178.599613 108.851312 

L 181.673993 110.560766 

L 184.748373 112.27022 

L 187.822753 113.979674 

L 190.897133 115.689128 

L 193.971513 117.398582 

L 197.045894 119.108036 

L 200.120274 120.81749 

L 203.194654 122.526944 

L 206.269034 124.236398 

L 209.343414 125.945852 

L 212.417794 127.655306 

L 215.492175 129.364759 

L 218.566555 131.074213 

L 221.640935 132.783667 

L 224.715315 134.493121 

L 227.789695 136.202575 

L 230.864075 137.912029 

L 233.938456 139.621483 

L 237.012836 141.330937 

L 240.087216 143.040391 

L 243.161596 144.749845 

L 246.235976 146.459299 

L 249.310356 148.168753 

L 252.384737 149.878207 

L 255.459117 151.58766 

L 258.533497 153.297114 

L 261.607877 155.006568 

L 264.682257 156.716022 

L 267.756637 158.425476 

L 270.831018 160.13493 

L 273.905398 161.844384 

L 276.979778 163.553838 

L 280.054158 165.263292 

L 283.128538 166.972746 

L 286.202918 168.6822 

L 289.277299 170.391654 

L 292.351679 172.101108 

L 295.426059 173.810561 

L 298.500439 175.520015 

L 301.574819 177.229469 

L 304.649199 178.938923 

L 307.72358 180.648377 

L 310.79796 182.357831 

L 313.87234 184.067285 

L 316.94672 185.776739 

L 320.0211 187.486193 

L 323.09548 189.195647 

L 326.169861 190.905101 

L 329.244241 192.614555 

L 332.318621 194.324009 

L 335.393001 196.033462 

L 338.467381 197.742916 

L 341.541761 199.45237 

L 344.616142 201.161824 

L 347.690522 202.871278 

L 350.764902 204.580732 

L 353.839282 206.290186 

L 356.913662 207.99964 

L 359.988042 209.709094 

L 363.062423 211.418548 

L 366.136803 213.128002 

L 369.211183 214.837456 

L 372.285563 216.54691 

L 375.359943 218.256364 

" style="fill:none;stroke:#1f77b4;stroke-linecap:square;stroke-width:1.5;"/>

   </g>

   <g id="patch_3">

    <path d="M 55.778125 228.14 

L 55.778125 10.7 

" style="fill:none;stroke:#000000;stroke-linecap:square;stroke-linejoin:miter;stroke-width:0.8;"/>

   </g>

   <g id="patch_4">

    <path d="M 390.578125 228.14 

L 390.578125 10.7 

" style="fill:none;stroke:#000000;stroke-linecap:square;stroke-linejoin:miter;stroke-width:0.8;"/>

   </g>

   <g id="patch_5">

    <path d="M 55.778125 228.14 

L 390.578125 228.14 

" style="fill:none;stroke:#000000;stroke-linecap:square;stroke-linejoin:miter;stroke-width:0.8;"/>

   </g>

   <g id="patch_6">

    <path d="M 55.778125 10.7 

L 390.578125 10.7 

" style="fill:none;stroke:#000000;stroke-linecap:square;stroke-linejoin:miter;stroke-width:0.8;"/>

   </g>

  </g>

 </g>

 <defs>

  <clipPath id="pc0dc6050a7">

   <rect height="217.44" width="334.8" x="55.778125" y="10.7"/>

  </clipPath>

 </defs>

</svg>
