<?xml version="1.0" encoding="utf-8" standalone="no"?>

<!DOCTYPE svg PUBLIC "-//W3C//DTD SVG 1.1//EN"

  "http://www.w3.org/Graphics/SVG/1.1/DTD/svg11.dtd">

<!-- Created with matplotlib (http://matplotlib.org/) -->

<svg height="265pt" version="1.1" viewBox="0 0 400 265" width="400pt" xmlns="http://www.w3.org/2000/svg" xmlns:xlink="http://www.w3.org/1999/xlink">

 <defs>

  <style type="text/css">

*{stroke-linecap:butt;stroke-linejoin:round;}

  </style>

 </defs>

 <g id="figure_1">

  <g id="patch_1">

   <path d="M 0 265.69625 

L 400.348797 265.69625 

L 400.348797 0 

L 0 0 

z

" style="fill:none;"/>

  </g>

  <g id="axes_1">

   <g id="patch_2">

    <path d="M 52.160938 228.14 

L 386.960938 228.14 

L 386.960938 10.7 

L 52.160938 10.7 

z

" style="fill:#ffffff;"/>

   </g>

   <g id="matplotlib.axis_1">

    <g id="xtick_1">

     <g id="line2d_1">

      <defs>

       <path d="M 0 0 

L 0 3.5 

" id="mc25f9b3316" style="stroke:#000000;stroke-width:0.8;"/>

      </defs>

      <g>

       <use style="stroke:#000000;stroke-width:0.8;" x="62.799608" xlink:href="#mc25f9b3316" y="228.14"/>

      </g>

     </g>

     <g id="text_1">

      <!-- 0.0 -->

      <defs>

       <path d="M 31.78125 66.40625 

Q 24.171875 66.40625 20.328125 58.90625 

Q 16.5 51.421875 16.5 36.375 

Q 16.5 21.390625 20.328125 13.890625 

Q 24.171875 6.390625 31.78125 6.390625 

Q 39.453125 6.390625 43.28125 13.890625 

Q 47.125 21.390625 47.125 36.375 

Q 47.125 51.421875 43.28125 58.90625 

Q 39.453125 66.40625 31.78125 66.40625 

z

M 31.78125 74.21875 

Q 44.046875 74.21875 50.515625 64.515625 

Q 56.984375 54.828125 56.984375 36.375 

Q 56.984375 17.96875 50.515625 8.265625 

Q 44.046875 -1.421875 31.78125 -1.421875 

Q 19.53125 -1.421875 13.0625 8.265625 

Q 6.59375 17.96875 6.59375 36.375 

Q 6.59375 54.828125 13.0625 64.515625 

Q 19.53125 74.21875 31.78125 74.21875 

z

" id="DejaVuSans-30"/>

       <path d="M 10.6875 12.40625 

L 21 12.40625 

L 21 0 

L 10.6875 0 

z

" id="DejaVuSans-2e"/>

      </defs>

      <g transform="translate(54.848045 242.738437)scale(0.1 -0.1)">

       <use xlink:href="#DejaVuSans-30"/>

       <use x="63.623047" xlink:href="#DejaVuSans-2e"/>

       <use x="95.410156" xlink:href="#DejaVuSans-30"/>

      </g>

     </g>

    </g>

    <g id="xtick_2">

     <g id="line2d_2">

      <g>

       <use style="stroke:#000000;stroke-width:0.8;" x="103.099311" xlink:href="#mc25f9b3316" y="228.14"/>

      </g>

     </g>

     <g id="text_2">

      <!-- 0.2 -->

      <defs>

       <path d="M 19.1875 8.296875 

L 53.609375 8.296875 

L 53.609375 0 

L 7.328125 0 

L 7.328125 8.296875 

Q 12.9375 14.109375 22.625 23.890625 

Q 32.328125 33.6875 34.8125 36.53125 

Q 39.546875 41.84375 41.421875 45.53125 

Q 43.3125 49.21875 43.3125 52.78125 

Q 43.3125 58.59375 39.234375 62.25 

Q 35.15625 65.921875 28.609375 65.921875 

Q 23.96875 65.921875 18.8125 64.3125 

Q 13.671875 62.703125 7.8125 59.421875 

L 7.8125 69.390625 

Q 13.765625 71.78125 18.9375 73 

Q 24.125 74.21875 28.421875 74.21875 

Q 39.75 74.21875 46.484375 68.546875 

Q 53.21875 62.890625 53.21875 53.421875 

Q 53.21875 48.921875 51.53125 44.890625 

Q 49.859375 40.875 45.40625 35.40625 

Q 44.1875 33.984375 37.640625 27.21875 

Q 31.109375 20.453125 19.1875 8.296875 

z

" id="DejaVuSans-32"/>

      </defs>

      <g transform="translate(95.147748 242.738437)scale(0.1 -0.1)">

       <use xlink:href="#DejaVuSans-30"/>

       <use x="63.623047" xlink:href="#DejaVuSans-2e"/>

       <use x="95.410156" xlink:href="#DejaVuSans-32"/>

      </g>

     </g>

    </g>

    <g id="xtick_3">

     <g id="line2d_3">

      <g>

       <use style="stroke:#000000;stroke-width:0.8;" x="143.399014" xlink:href="#mc25f9b3316" y="228.14"/>

      </g>

     </g>

     <g id="text_3">

      <!-- 0.4 -->

      <defs>

       <path d="M 37.796875 64.3125 

L 12.890625 25.390625 

L 37.796875 25.390625 

z

M 35.203125 72.90625 

L 47.609375 72.90625 

L 47.609375 25.390625 

L 58.015625 25.390625 

L 58.015625 17.1875 

L 47.609375 17.1875 

L 47.609375 0 

L 37.796875 0 

L 37.796875 17.1875 

L 4.890625 17.1875 

L 4.890625 26.703125 

z

" id="DejaVuSans-34"/>

      </defs>

      <g transform="translate(135.447452 242.738437)scale(0.1 -0.1)">

       <use xlink:href="#DejaVuSans-30"/>

       <use x="63.623047" xlink:href="#DejaVuSans-2e"/>

       <use x="95.410156" xlink:href="#DejaVuSans-34"/>

      </g>

     </g>

    </g>

    <g id="xtick_4">

     <g id="line2d_4">

      <g>

       <use style="stroke:#000000;stroke-width:0.8;" x="183.698718" xlink:href="#mc25f9b3316" y="228.14"/>

      </g>

     </g>

     <g id="text_4">

      <!-- 0.6 -->

      <defs>

       <path d="M 33.015625 40.375 

Q 26.375 40.375 22.484375 35.828125 

Q 18.609375 31.296875 18.609375 23.390625 

Q 18.609375 15.53125 22.484375 10.953125 

Q 26.375 6.390625 33.015625 6.390625 

Q 39.65625 6.390625 43.53125 10.953125 

Q 47.40625 15.53125 47.40625 23.390625 

Q 47.40625 31.296875 43.53125 35.828125 

Q 39.65625 40.375 33.015625 40.375 

z

M 52.59375 71.296875 

L 52.59375 62.3125 

Q 48.875 64.0625 45.09375 64.984375 

Q 41.3125 65.921875 37.59375 65.921875 

Q 27.828125 65.921875 22.671875 59.328125 

Q 17.53125 52.734375 16.796875 39.40625 

Q 19.671875 43.65625 24.015625 45.921875 

Q 28.375 48.1875 33.59375 48.1875 

Q 44.578125 48.1875 50.953125 41.515625 

Q 57.328125 34.859375 57.328125 23.390625 

Q 57.328125 12.15625 50.6875 5.359375 

Q 44.046875 -1.421875 33.015625 -1.421875 

Q 20.359375 -1.421875 13.671875 8.265625 

Q 6.984375 17.96875 6.984375 36.375 

Q 6.984375 53.65625 15.1875 63.9375 

Q 23.390625 74.21875 37.203125 74.21875 

Q 40.921875 74.21875 44.703125 73.484375 

Q 48.484375 72.75 52.59375 71.296875 

z

" id="DejaVuSans-36"/>

      </defs>

      <g transform="translate(175.747155 242.738437)scale(0.1 -0.1)">

       <use xlink:href="#DejaVuSans-30"/>

       <use x="63.623047" xlink:href="#DejaVuSans-2e"/>

       <use x="95.410156" xlink:href="#DejaVuSans-36"/>

      </g>

     </g>

    </g>

    <g id="xtick_5">

     <g id="line2d_5">

      <g>

       <use style="stroke:#000000;stroke-width:0.8;" x="223.998421" xlink:href="#mc25f9b3316" y="228.14"/>

      </g>

     </g>

     <g id="text_5">

      <!-- 0.8 -->

      <defs>

       <path d="M 31.78125 34.625 

Q 24.75 34.625 20.71875 30.859375 

Q 16.703125 27.09375 16.703125 20.515625 

Q 16.703125 13.921875 20.71875 10.15625 

Q 24.75 6.390625 31.78125 6.390625 

Q 38.8125 6.390625 42.859375 10.171875 

Q 46.921875 13.96875 46.921875 20.515625 

Q 46.921875 27.09375 42.890625 30.859375 

Q 38.875 34.625 31.78125 34.625 

z

M 21.921875 38.8125 

Q 15.578125 40.375 12.03125 44.71875 

Q 8.5 49.078125 8.5 55.328125 

Q 8.5 64.0625 14.71875 69.140625 

Q 20.953125 74.21875 31.78125 74.21875 

Q 42.671875 74.21875 48.875 69.140625 

Q 55.078125 64.0625 55.078125 55.328125 

Q 55.078125 49.078125 51.53125 44.71875 

Q 48 40.375 41.703125 38.8125 

Q 48.828125 37.15625 52.796875 32.3125 

Q 56.78125 27.484375 56.78125 20.515625 

Q 56.78125 9.90625 50.3125 4.234375 

Q 43.84375 -1.421875 31.78125 -1.421875 

Q 19.734375 -1.421875 13.25 4.234375 

Q 6.78125 9.90625 6.78125 20.515625 

Q 6.78125 27.484375 10.78125 32.3125 

Q 14.796875 37.15625 21.921875 38.8125 

z

M 18.3125 54.390625 

Q 18.3125 48.734375 21.84375 45.5625 

Q 25.390625 42.390625 31.78125 42.390625 

Q 38.140625 42.390625 41.71875 45.5625 

Q 45.3125 48.734375 45.3125 54.390625 

Q 45.3125 60.0625 41.71875 63.234375 

Q 38.140625 66.40625 31.78125 66.40625 

Q 25.390625 66.40625 21.84375 63.234375 

Q 18.3125 60.0625 18.3125 54.390625 

z

" id="DejaVuSans-38"/>

      </defs>

      <g transform="translate(216.046858 242.738437)scale(0.1 -0.1)">

       <use xlink:href="#DejaVuSans-30"/>

       <use x="63.623047" xlink:href="#DejaVuSans-2e"/>

       <use x="95.410156" xlink:href="#DejaVuSans-38"/>

      </g>

     </g>

    </g>

    <g id="xtick_6">

     <g id="line2d_6">

      <g>

       <use style="stroke:#000000;stroke-width:0.8;" x="264.298124" xlink:href="#mc25f9b3316" y="228.14"/>

      </g>

     </g>

     <g id="text_6">

      <!-- 1.0 -->

      <defs>

       <path d="M 12.40625 8.296875 

L 28.515625 8.296875 

L 28.515625 63.921875 

L 10.984375 60.40625 

L 10.984375 69.390625 

L 28.421875 72.90625 

L 38.28125 72.90625 

L 38.28125 8.296875 

L 54.390625 8.296875 

L 54.390625 0 

L 12.40625 0 

z

" id="DejaVuSans-31"/>

      </defs>

      <g transform="translate(256.346562 242.738437)scale(0.1 -0.1)">

       <use xlink:href="#DejaVuSans-31"/>

       <use x="63.623047" xlink:href="#DejaVuSans-2e"/>

       <use x="95.410156" xlink:href="#DejaVuSans-30"/>

      </g>

     </g>

    </g>

    <g id="xtick_7">

     <g id="line2d_7">

      <g>

       <use style="stroke:#000000;stroke-width:0.8;" x="304.597827" xlink:href="#mc25f9b3316" y="228.14"/>

      </g>

     </g>

     <g id="text_7">

      <!-- 1.2 -->

      <g transform="translate(296.646265 242.738437)scale(0.1 -0.1)">

       <use xlink:href="#DejaVuSans-31"/>

       <use x="63.623047" xlink:href="#DejaVuSans-2e"/>

       <use x="95.410156" xlink:href="#DejaVuSans-32"/>

      </g>

     </g>

    </g>

    <g id="xtick_8">

     <g id="line2d_8">

      <g>

       <use style="stroke:#000000;stroke-width:0.8;" x="344.897531" xlink:href="#mc25f9b3316" y="228.14"/>

      </g>

     </g>

     <g id="text_8">

      <!-- 1.4 -->

      <g transform="translate(336.945968 242.738437)scale(0.1 -0.1)">

       <use xlink:href="#DejaVuSans-31"/>

       <use x="63.623047" xlink:href="#DejaVuSans-2e"/>

       <use x="95.410156" xlink:href="#DejaVuSans-34"/>

      </g>

     </g>

    </g>

    <g id="xtick_9">

     <g id="line2d_9">

      <g>

       <use style="stroke:#000000;stroke-width:0.8;" x="385.197234" xlink:href="#mc25f9b3316" y="228.14"/>

      </g>

     </g>

     <g id="text_9">

      <!-- 1.6 -->

      <g transform="translate(377.245672 242.738437)scale(0.1 -0.1)">

       <use xlink:href="#DejaVuSans-31"/>

       <use x="63.623047" xlink:href="#DejaVuSans-2e"/>

       <use x="95.410156" xlink:href="#DejaVuSans-36"/>

      </g>

     </g>

    </g>

    <g id="text_10">

     <!-- theta1 -->

     <defs>

      <path d="M 18.3125 70.21875 

L 18.3125 54.6875 

L 36.8125 54.6875 

L 36.8125 47.703125 

L 18.3125 47.703125 

L 18.3125 18.015625 

Q 18.3125 11.328125 20.140625 9.421875 

Q 21.96875 7.515625 27.59375 7.515625 

L 36.8125 7.515625 

L 36.8125 0 

L 27.59375 0 

Q 17.1875 0 13.234375 3.875 

Q 9.28125 7.765625 9.28125 18.015625 

L 9.28125 47.703125 

L 2.6875 47.703125 

L 2.6875 54.6875 

L 9.28125 54.6875 

L 9.28125 70.21875 

z

" id="DejaVuSans-74"/>

      <path d="M 54.890625 33.015625 

L 54.890625 0 

L 45.90625 0 

L 45.90625 32.71875 

Q 45.90625 40.484375 42.875 44.328125 

Q 39.84375 48.1875 33.796875 48.1875 

Q 26.515625 48.1875 22.3125 43.546875 

Q 18.109375 38.921875 18.109375 30.90625 

L 18.109375 0 

L 9.078125 0 

L 9.078125 75.984375 

L 18.109375 75.984375 

L 18.109375 46.1875 

Q 21.34375 51.125 25.703125 53.5625 

Q 30.078125 56 35.796875 56 

Q 45.21875 56 50.046875 50.171875 

Q 54.890625 44.34375 54.890625 33.015625 

z

" id="DejaVuSans-68"/>

      <path d="M 56.203125 29.59375 

L 56.203125 25.203125 

L 14.890625 25.203125 

Q 15.484375 15.921875 20.484375 11.0625 

Q 25.484375 6.203125 34.421875 6.203125 

Q 39.59375 6.203125 44.453125 7.46875 

Q 49.3125 8.734375 54.109375 11.28125 

L 54.109375 2.78125 

Q 49.265625 0.734375 44.1875 -0.34375 

Q 39.109375 -1.421875 33.890625 -1.421875 

Q 20.796875 -1.421875 13.15625 6.1875 

Q 5.515625 13.8125 5.515625 26.8125 

Q 5.515625 40.234375 12.765625 48.109375 

Q 20.015625 56 32.328125 56 

Q 43.359375 56 49.78125 48.890625 

Q 56.203125 41.796875 56.203125 29.59375 

z

M 47.21875 32.234375 

Q 47.125 39.59375 43.09375 43.984375 

Q 39.0625 48.390625 32.421875 48.390625 

Q 24.90625 48.390625 20.390625 44.140625 

Q 15.875 39.890625 15.1875 32.171875 

z

" id="DejaVuSans-65"/>

      <path d="M 34.28125 27.484375 

Q 23.390625 27.484375 19.1875 25 

Q 14.984375 22.515625 14.984375 16.5 

Q 14.984375 11.71875 18.140625 8.90625 

Q 21.296875 6.109375 26.703125 6.109375 

Q 34.1875 6.109375 38.703125 11.40625 

Q 43.21875 16.703125 43.21875 25.484375 

L 43.21875 27.484375 

z

M 52.203125 31.203125 

L 52.203125 0 

L 43.21875 0 

L 43.21875 8.296875 

Q 40.140625 3.328125 35.546875 0.953125 

Q 30.953125 -1.421875 24.3125 -1.421875 

Q 15.921875 -1.421875 10.953125 3.296875 

Q 6 8.015625 6 15.921875 

Q 6 25.140625 12.171875 29.828125 

Q 18.359375 34.515625 30.609375 34.515625 

L 43.21875 34.515625 

L 43.21875 35.40625 

Q 43.21875 41.609375 39.140625 45 

Q 35.0625 48.390625 27.6875 48.390625 

Q 23 48.390625 18.546875 47.265625 

Q 14.109375 46.140625 10.015625 43.890625 

L 10.015625 52.203125 

Q 14.9375 54.109375 19.578125 55.046875 

Q 24.21875 56 28.609375 56 

Q 40.484375 56 46.34375 49.84375 

Q 52.203125 43.703125 52.203125 31.203125 

z

" id="DejaVuSans-61"/>

     </defs>

     <g transform="translate(203.15 256.416562)scale(0.1 -0.1)">

      <use xlink:href="#DejaVuSans-74"/>

      <use x="39.208984" xlink:href="#DejaVuSans-68"/>

      <use x="102.587891" xlink:href="#DejaVuSans-65"/>

      <use x="164.111328" xlink:href="#DejaVuSans-74"/>

      <use x="203.320312" xlink:href="#DejaVuSans-61"/>

      <use x="264.599609" xlink:href="#DejaVuSans-31"/>

     </g>

    </g>

   </g>

   <g id="matplotlib.axis_2">

    <g id="ytick_1">

     <g id="line2d_10">

      <defs>

       <path d="M 0 0 

L -3.5 0 

" id="mea48e745f1" style="stroke:#000000;stroke-width:0.8;"/>

      </defs>

      <g>

       <use style="stroke:#000000;stroke-width:0.8;" x="52.160938" xlink:href="#mea48e745f1" y="227.483468"/>

      </g>

     </g>

     <g id="text_11">

      <!-- −0.3 -->

      <defs>

       <path d="M 10.59375 35.5 

L 73.1875 35.5 

L 73.1875 27.203125 

L 10.59375 27.203125 

z

" id="DejaVuSans-2212"/>

       <path d="M 40.578125 39.3125 

Q 47.65625 37.796875 51.625 33 

Q 55.609375 28.21875 55.609375 21.1875 

Q 55.609375 10.40625 48.1875 4.484375 

Q 40.765625 -1.421875 27.09375 -1.421875 

Q 22.515625 -1.421875 17.65625 -0.515625 

Q 12.796875 0.390625 7.625 2.203125 

L 7.625 11.71875 

Q 11.71875 9.328125 16.59375 8.109375 

Q 21.484375 6.890625 26.8125 6.890625 

Q 36.078125 6.890625 40.9375 10.546875 

Q 45.796875 14.203125 45.796875 21.1875 

Q 45.796875 27.640625 41.28125 31.265625 

Q 36.765625 34.90625 28.71875 34.90625 

L 20.21875 34.90625 

L 20.21875 43.015625 

L 29.109375 43.015625 

Q 36.375 43.015625 40.234375 45.921875 

Q 44.09375 48.828125 44.09375 54.296875 

Q 44.09375 59.90625 40.109375 62.90625 

Q 36.140625 65.921875 28.71875 65.921875 

Q 24.65625 65.921875 20.015625 65.03125 

Q 15.375 64.15625 9.8125 62.3125 

L 9.8125 71.09375 

Q 15.4375 72.65625 20.34375 73.4375 

Q 25.25 74.21875 29.59375 74.21875 

Q 40.828125 74.21875 47.359375 69.109375 

Q 53.90625 64.015625 53.90625 55.328125 

Q 53.90625 49.265625 50.4375 45.09375 

Q 46.96875 40.921875 40.578125 39.3125 

z

" id="DejaVuSans-33"/>

      </defs>

      <g transform="translate(20.878125 231.282687)scale(0.1 -0.1)">

       <use xlink:href="#DejaVuSans-2212"/>

       <use x="83.789062" xlink:href="#DejaVuSans-30"/>

       <use x="147.412109" xlink:href="#DejaVuSans-2e"/>

       <use x="179.199219" xlink:href="#DejaVuSans-33"/>

      </g>

     </g>

    </g>

    <g id="ytick_2">

     <g id="line2d_11">

      <g>

       <use style="stroke:#000000;stroke-width:0.8;" x="52.160938" xlink:href="#mea48e745f1" y="188.828974"/>

      </g>

     </g>

     <g id="text_12">

      <!-- −0.2 -->

      <g transform="translate(20.878125 192.628192)scale(0.1 -0.1)">

       <use xlink:href="#DejaVuSans-2212"/>

       <use x="83.789062" xlink:href="#DejaVuSans-30"/>

       <use x="147.412109" xlink:href="#DejaVuSans-2e"/>

       <use x="179.199219" xlink:href="#DejaVuSans-32"/>

      </g>

     </g>

    </g>

    <g id="ytick_3">

     <g id="line2d_12">

      <g>

       <use style="stroke:#000000;stroke-width:0.8;" x="52.160938" xlink:href="#mea48e745f1" y="150.174479"/>

      </g>

     </g>

     <g id="text_13">

      <!-- −0.1 -->

      <g transform="translate(20.878125 153.973698)scale(0.1 -0.1)">

       <use xlink:href="#DejaVuSans-2212"/>

       <use x="83.789062" xlink:href="#DejaVuSans-30"/>

       <use x="147.412109" xlink:href="#DejaVuSans-2e"/>

       <use x="179.199219" xlink:href="#DejaVuSans-31"/>

      </g>

     </g>

    </g>

    <g id="ytick_4">

     <g id="line2d_13">

      <g>

       <use style="stroke:#000000;stroke-width:0.8;" x="52.160938" xlink:href="#mea48e745f1" y="111.519985"/>

      </g>

     </g>

     <g id="text_14">

      <!-- 0.0 -->

      <g transform="translate(29.257812 115.319204)scale(0.1 -0.1)">

       <use xlink:href="#DejaVuSans-30"/>

       <use x="63.623047" xlink:href="#DejaVuSans-2e"/>

       <use x="95.410156" xlink:href="#DejaVuSans-30"/>

      </g>

     </g>

    </g>

    <g id="ytick_5">

     <g id="line2d_14">

      <g>

       <use style="stroke:#000000;stroke-width:0.8;" x="52.160938" xlink:href="#mea48e745f1" y="72.865491"/>

      </g>

     </g>

     <g id="text_15">

      <!-- 0.1 -->

      <g transform="translate(29.257812 76.664709)scale(0.1 -0.1)">

       <use xlink:href="#DejaVuSans-30"/>

       <use x="63.623047" xlink:href="#DejaVuSans-2e"/>

       <use x="95.410156" xlink:href="#DejaVuSans-31"/>

      </g>

     </g>

    </g>

    <g id="ytick_6">

     <g id="line2d_15">

      <g>

       <use style="stroke:#000000;stroke-width:0.8;" x="52.160938" xlink:href="#mea48e745f1" y="34.210996"/>

      </g>

     </g>

     <g id="text_16">

      <!-- 0.2 -->

      <g transform="translate(29.257812 38.010215)scale(0.1 -0.1)">

       <use xlink:href="#DejaVuSans-30"/>

       <use x="63.623047" xlink:href="#DejaVuSans-2e"/>

       <use x="95.410156" xlink:href="#DejaVuSans-32"/>

      </g>

     </g>

    </g>

    <g id="text_17">

     <!-- theta2 -->

     <g transform="translate(14.798437 135.830937)rotate(-90)scale(0.1 -0.1)">

      <use xlink:href="#DejaVuSans-74"/>

      <use x="39.208984" xlink:href="#DejaVuSans-68"/>

      <use x="102.587891" xlink:href="#DejaVuSans-65"/>

      <use x="164.111328" xlink:href="#DejaVuSans-74"/>

      <use x="203.320312" xlink:href="#DejaVuSans-61"/>

      <use x="264.599609" xlink:href="#DejaVuSans-32"/>

     </g>

    </g>

   </g>

   <g id="LineCollection_1"/>

   <g id="LineCollection_2">

    <path clip-path="url(#pd726d64cda)" d="M 285.60165 228.14 

L 275.921742 216.801787 

L 258.283214 195.360101 

L 252.171649 187.711457 

L 238.590675 170.228844 

L 227.123671 154.931558 

L 213.032178 135.263618 

L 206.942847 126.431312 

L 196.238732 110.132362 

L 191.471219 102.483719 

L 185.672374 92.649749 

L 183.223954 88.279095 

L 178.703476 79.537789 

L 176.654476 75.167136 

L 174.454164 69.703819 

L 173.294606 66.25033 

L 172.58434 63.147839 

L 172.325243 60.962513 

L 172.326175 59.869849 

L 172.466878 58.777186 

L 172.822335 57.684523 

L 173.294606 56.911914 

L 173.710912 56.591859 

L 174.977018 56.01815 

L 176.65943 55.986344 

L 179.033042 56.591859 

L 180.024254 56.929718 

L 181.725202 57.684523 

L 185.07149 59.531134 

L 190.480163 63.147839 

L 193.483551 65.365281 

L 200.213199 70.80302 

L 208.625259 78.221152 

L 220.402144 89.422791 

L 232.21526 101.391055 

L 245.638324 115.696992 

L 261.185029 133.078291 

L 270.874505 144.294026 

L 287.926712 164.765528 

L 301.157922 181.280092 

L 317.982043 203.168814 

L 333.123752 223.868892 

L 336.139073 228.14 

L 336.139073 228.14 

" style="fill:none;stroke:#1f77b4;stroke-width:1.5;"/>

   </g>

   <g id="LineCollection_3">

    <path clip-path="url(#pd726d64cda)" d="M 271.523738 228.14 

L 263.36503 218.30603 

L 255.317365 208.47206 

L 242.2735 192.239746 

L 223.766968 168.53871 

L 206.092468 145.097588 

L 198.530787 134.811572 

L 183.237647 113.410352 

L 170.482006 94.835075 

L 164.658995 86.093769 

L 154.788073 70.774492 

L 145.459901 55.499196 

L 141.008587 47.850553 

L 135.576619 38.016583 

L 132.167592 31.460603 

L 128.974589 24.904623 

L 126.052217 18.348643 

L 123.923756 12.885327 

L 123.158948 10.7 

L 123.158948 10.7 

" style="fill:none;stroke:#1f77b4;stroke-width:1.5;"/>

    <path clip-path="url(#pd726d64cda)" d="M 157.658142 10.7 

L 161.646201 13.97799 

L 169.241289 20.53397 

L 174.115927 24.904623 

L 180.05213 30.36794 

L 191.801139 41.639371 

L 205.604603 55.499196 

L 216.10779 66.425829 

L 223.766968 74.568505 

L 242.2735 94.849327 

L 260.780033 115.904024 

L 280.917863 139.634271 

L 288.154113 148.375578 

L 299.734818 162.580201 

L 314.617219 181.261167 

L 333.123752 205.213115 

L 350.219458 228.14 

L 350.219458 228.14 

" style="fill:none;stroke:#1f77b4;stroke-width:1.5;"/>

   </g>

   <g id="LineCollection_4">

    <path clip-path="url(#pd726d64cda)" d="M 259.514686 228.14 

L 249.683277 216.120704 

L 239.978509 204.101407 

L 228.668155 189.896784 

L 210.307671 166.346261 

L 191.700627 141.819598 

L 174.786503 118.873668 

L 159.835309 97.998496 

L 144.017649 75.167136 

L 135.929701 63.147839 

L 125.91251 47.850553 

L 116.092596 32.311863 

L 106.347545 16.163317 

L 103.174184 10.7 

L 103.174184 10.7 

" style="fill:none;stroke:#1f77b4;stroke-width:1.5;"/>

    <path clip-path="url(#pd726d64cda)" d="M 177.645877 10.7 

L 185.180602 18.348643 

L 200.213199 34.001153 

L 218.719731 53.898957 

L 238.908676 76.319407 

L 259.097621 99.437071 

L 280.215999 124.336985 

L 290.199812 136.356281 

L 300.052317 148.375578 

L 312.405335 163.672864 

L 321.967112 175.692161 

L 333.123752 189.910744 

L 353.312696 216.247004 

L 362.22424 228.14 

L 362.22424 228.14 

" style="fill:none;stroke:#1f77b4;stroke-width:1.5;"/>

   </g>

   <g id="LineCollection_5">

    <path clip-path="url(#pd726d64cda)" d="M 248.37485 228.14 

L 235.09085 211.75005 

L 220.269032 193.174774 

L 200.213199 167.526572 

L 179.763475 140.726935 

L 163.200133 118.498296 

L 144.42238 92.649749 

L 129.551892 71.625821 

L 113.960455 48.943216 

L 102.633299 31.985626 

L 90.270687 12.885327 

L 88.882254 10.7 

L 88.882254 10.7 

" style="fill:none;stroke:#1f77b4;stroke-width:1.5;"/>

    <path clip-path="url(#pd726d64cda)" d="M 191.940584 10.7 

L 209.089033 29.275276 

L 222.084556 43.64039 

L 243.955912 68.369351 

L 266.742244 94.835075 

L 277.820457 107.947035 

L 296.874942 130.892965 

L 308.47419 145.097588 

L 321.675485 161.487538 

L 338.170988 182.312188 

L 360.120173 210.657387 

L 373.368338 228.14 

L 373.368338 228.14 

" style="fill:none;stroke:#1f77b4;stroke-width:1.5;"/>

   </g>

   <g id="LineCollection_6">

    <path clip-path="url(#pd726d64cda)" d="M 237.70269 228.14 

L 225.355809 212.842714 

L 203.578023 185.40658 

L 180.771715 156.024221 

L 169.106602 140.726935 

L 157.587425 125.429648 

L 143.802194 106.854372 

L 132.916716 91.971205 

L 114.410184 66.166127 

L 97.039511 41.294573 

L 85.122874 23.81196 

L 76.358834 10.7 

L 76.358834 10.7 

" style="fill:none;stroke:#1f77b4;stroke-width:1.5;"/>

    <path clip-path="url(#pd726d64cda)" d="M 204.461866 10.7 

L 216.255862 23.81196 

L 228.86819 38.016583 

L 250.775834 63.147839 

L 272.556917 88.684289 

L 296.110686 116.908895 

L 319.998366 146.190251 

L 338.34638 169.136181 

L 358.915875 195.360101 

L 373.501641 214.283147 

L 384.037036 228.14 

L 384.037036 228.14 

" style="fill:none;stroke:#1f77b4;stroke-width:1.5;"/>

   </g>

   <g id="LineCollection_7">

    <path clip-path="url(#pd726d64cda)" d="M 227.318895 228.14 

L 213.672495 211.159784 

L 189.941209 181.155477 

L 168.24737 153.176974 

L 145.512102 123.244322 

L 132.916716 106.380331 

L 111.62601 77.352462 

L 100.605237 62.055176 

L 85.118463 40.20191 

L 72.954599 22.719296 

L 64.716288 10.7 

L 64.716288 10.7 

" style="fill:none;stroke:#1f77b4;stroke-width:1.5;"/>

    <path clip-path="url(#pd726d64cda)" d="M 216.10473 10.7 

L 229.585559 25.997286 

L 242.904035 41.294573 

L 257.936435 58.777186 

L 274.619153 78.445126 

L 292.885036 100.298392 

L 315.327472 127.614975 

L 329.758927 145.446861 

L 354.695577 176.784824 

L 367.526224 193.174774 

L 381.054819 210.657387 

L 386.960938 218.35206 

L 386.960938 218.35206 

" style="fill:none;stroke:#1f77b4;stroke-width:1.5;"/>

   </g>

   <g id="LineCollection_8">

    <path clip-path="url(#pd726d64cda)" d="M 217.129554 228.14 

L 203.121537 210.657387 

L 184.954613 187.711457 

L 161.517721 157.622528 

L 137.752445 126.522312 

L 117.27129 99.205729 

L 100.950887 77.074549 

L 79.015819 46.757889 

L 58.890586 18.299779 

L 53.598567 10.7 

L 53.598567 10.7 

" style="fill:none;stroke:#1f77b4;stroke-width:1.5;"/>

    <path clip-path="url(#pd726d64cda)" d="M 227.223608 10.7 

L 250.86424 38.016583 

L 273.158169 64.240503 

L 289.638635 83.908442 

L 311.301452 110.132362 

L 336.488576 141.162127 

L 362.243188 173.506834 

L 380.231289 196.474934 

L 386.960938 205.153358 

L 386.960938 205.153358 

" style="fill:none;stroke:#1f77b4;stroke-width:1.5;"/>

   </g>

   <g id="LineCollection_9">

    <path clip-path="url(#pd726d64cda)" d="M 207.077544 228.14 

L 191.801139 209.028798 

L 165.536109 175.692161 

L 150.264569 156.024221 

L 135.161847 136.356281 

L 121.05169 117.781005 

L 97.586063 86.42377 

L 75.680999 56.591859 

L 53.66231 25.997286 

L 52.160938 23.888873 

L 52.160938 23.888873 

" style="fill:none;stroke:#1f77b4;stroke-width:1.5;"/>

    <path clip-path="url(#pd726d64cda)" d="M 237.989289 10.7 

L 254.050385 29.397046 

L 280.968978 61.209463 

L 307.99798 93.742412 

L 333.123752 124.519332 

L 360.146443 158.209548 

L 385.278525 190.11001 

L 386.960938 192.265639 

L 386.960938 192.265639 

" style="fill:none;stroke:#1f77b4;stroke-width:1.5;"/>

   </g>

   <g id="LineCollection_10">

    <path clip-path="url(#pd726d64cda)" d="M 197.126119 228.14 

L 181.433341 208.47206 

L 158.152897 178.935015 

L 131.070438 144.004925 

L 107.680535 113.321757 

L 82.370702 79.537789 

L 58.890586 47.609905 

L 52.160938 38.346815 

L 52.160938 38.346815 

" style="fill:none;stroke:#1f77b4;stroke-width:1.5;"/>

    <path clip-path="url(#pd726d64cda)" d="M 248.515599 10.7 

L 264.33699 29.275276 

L 289.381038 59.058452 

L 317.167262 92.649749 

L 334.107593 113.410352 

L 350.872833 134.170955 

L 367.46551 154.931558 

L 385.278525 177.458736 

L 386.960938 179.599914 

L 386.960938 179.599914 

" style="fill:none;stroke:#1f77b4;stroke-width:1.5;"/>

   </g>

   <g id="LineCollection_11">

    <path clip-path="url(#pd726d64cda)" d="M 187.250569 228.14 

L 169.845373 206.286734 

L 143.011189 172.153378 

L 115.327693 136.356281 

L 98.657341 114.503015 

L 80.524155 90.464422 

L 57.765313 59.869849 

L 52.160938 52.264093 

L 52.160938 52.264093 

" style="fill:none;stroke:#1f77b4;stroke-width:1.5;"/>

    <path clip-path="url(#pd726d64cda)" d="M 258.864052 10.7 

L 275.921742 30.874294 

L 304.677357 65.333166 

L 331.44134 97.912675 

L 360.042345 133.279201 

L 386.960938 167.098388 

L 386.960938 167.098388 

" style="fill:none;stroke:#1f77b4;stroke-width:1.5;"/>

   </g>

   <g id="LineCollection_12">

    <path clip-path="url(#pd726d64cda)" d="M 177.433667 228.14 

L 159.185214 205.19407 

L 139.402053 180.062814 

L 114.410184 147.918683 

L 87.14162 112.317688 

L 64.874885 82.815779 

L 52.160938 65.790334 

L 52.160938 65.790334 

" style="fill:none;stroke:#1f77b4;stroke-width:1.5;"/>

    <path clip-path="url(#pd726d64cda)" d="M 269.076745 10.7 

L 286.525192 31.460603 

L 308.340519 57.684523 

L 330.801943 85.001106 

L 348.583821 106.854372 

L 373.501641 137.824206 

L 386.960938 154.72422 

L 386.960938 154.72422 

" style="fill:none;stroke:#1f77b4;stroke-width:1.5;"/>

   </g>

   <g id="LineCollection_13">

    <path clip-path="url(#pd726d64cda)" d="M 167.663031 228.14 

L 145.978294 200.823417 

L 121.971626 170.228844 

L 103.315334 146.190251 

L 85.675839 123.244322 

L 58.890586 87.972191 

L 52.160938 79.026026 

L 52.160938 79.026026 

" style="fill:none;stroke:#1f77b4;stroke-width:1.5;"/>

    <path clip-path="url(#pd726d64cda)" d="M 279.183463 10.7 

L 297.793098 32.955299 

L 328.155743 69.703819 

L 357.514105 105.761709 

L 376.866465 129.81114 

L 386.960938 142.449701 

L 386.960938 142.449701 

" style="fill:none;stroke:#1f77b4;stroke-width:1.5;"/>

   </g>

   <g id="LineCollection_14">

    <path clip-path="url(#pd726d64cda)" d="M 157.929539 228.14 

L 131.094699 194.267437 

L 102.633299 157.865333 

L 73.419163 119.966332 

L 52.160938 92.036675 

L 52.160938 92.036675 

" style="fill:none;stroke:#1f77b4;stroke-width:1.5;"/>

    <path clip-path="url(#pd726d64cda)" d="M 289.205871 10.7 

L 308.309516 33.64593 

L 333.123752 63.749545 

L 364.640539 102.483719 

L 383.973749 126.522312 

L 386.960938 130.254553 

L 386.960938 130.254553 

" style="fill:none;stroke:#1f77b4;stroke-width:1.5;"/>

   </g>

   <g id="LineCollection_15">

    <path clip-path="url(#pd726d64cda)" d="M 148.22806 228.14 

L 127.86948 202.462935 

L 97.461091 163.672864 

L 68.729972 126.522312 

L 52.160938 104.869473 

L 52.160938 104.869473 

" style="fill:none;stroke:#1f77b4;stroke-width:1.5;"/>

    <path clip-path="url(#pd726d64cda)" d="M 299.160106 10.7 

L 319.664455 35.424053 

L 351.630284 74.407483 

L 383.596113 113.931963 

L 386.960938 118.124259 

L 386.960938 118.124259 

" style="fill:none;stroke:#1f77b4;stroke-width:1.5;"/>

   </g>

   <g id="LineCollection_16">

    <path clip-path="url(#pd726d64cda)" d="M 138.553799 228.14 

L 117.774958 201.91608 

L 85.809179 161.117606 

L 54.848429 121.058995 

L 52.160938 117.558064 

L 52.160938 117.558064 

" style="fill:none;stroke:#1f77b4;stroke-width:1.5;"/>

    <path clip-path="url(#pd726d64cda)" d="M 309.058434 10.7 

L 329.833222 35.831256 

L 361.724757 74.828214 

L 386.960938 106.047639 

L 386.960938 106.047639 

" style="fill:none;stroke:#1f77b4;stroke-width:1.5;"/>

   </g>

   <g id="LineCollection_17">

    <path clip-path="url(#pd726d64cda)" d="M 128.900167 228.14 

L 105.550802 198.63809 

L 79.07953 164.858043 

L 52.160938 130.12849 

L 52.160938 130.12849 

" style="fill:none;stroke:#1f77b4;stroke-width:1.5;"/>

    <path clip-path="url(#pd726d64cda)" d="M 318.910343 10.7 

L 319.664455 11.609396 

L 319.815728 11.792663 

L 320.71828 12.885327 

L 321.346867 13.643849 

L 321.622493 13.97799 

L 322.525046 15.070653 

L 323.029279 15.679517 

L 323.428093 16.163317 

L 324.330641 17.25598 

L 324.711691 17.716404 

L 325.232526 18.348643 

L 326.135063 19.441307 

L 326.394103 19.754512 

L 327.035791 20.53397 

L 327.938313 21.626633 

L 328.076515 21.793844 

L 328.837889 22.719296 

L 329.740389 23.81196 

L 329.758927 23.834404 

L 330.638819 24.904623 

L 331.44134 25.876786 

L 331.540356 25.997286 

L 332.43858 27.08995 

L 333.123752 27.920505 

L 333.338986 28.182613 

L 334.237171 29.275276 

L 334.806164 29.965456 

L 335.136452 30.36794 

L 336.034592 31.460603 

L 336.488576 32.011643 

L 336.932753 32.553266 

L 337.830842 33.64593 

L 338.170988 34.059067 

L 338.727887 34.738593 

L 339.625921 35.831256 

L 339.8534 36.107732 

L 340.521856 36.92392 

L 341.419828 38.016583 

L 341.535812 38.157642 

L 342.314657 39.109246 

L 343.212563 40.20191 

L 343.218224 40.208799 

L 344.106291 41.294573 

L 344.900636 42.261822 

L 345.00316 42.387236 

L 345.896757 43.479899 

L 346.583048 44.316128 

L 346.792541 44.572563 

L 347.686054 45.665226 

L 348.26546 46.371685 

L 348.580758 46.757889 

L 349.474182 47.850553 

L 349.947872 48.428497 

L 350.36781 48.943216 

L 351.26114 50.035879 

L 351.630284 50.486568 

L 352.153698 51.128543 

L 353.046927 52.221206 

L 353.312696 52.545899 

L 353.938421 53.313869 

L 354.831543 54.406533 

L 354.995108 54.606494 

L 355.721977 55.499196 

L 356.614988 56.591859 

L 356.67752 56.668357 

L 357.504366 57.684523 

L 358.359932 58.731715 

L 358.396913 58.777186 

L 359.285588 59.869849 

L 360.042345 60.796715 

L 360.177096 60.962513 

L 361.065642 62.055176 

L 361.724757 62.862987 

L 361.956115 63.147839 

L 362.844528 64.240503 

L 363.407169 64.930534 

L 363.733971 65.333166 

L 364.622245 66.425829 

L 365.089581 66.999359 

L 365.510662 67.518492 

L 366.398792 68.611156 

L 366.771993 69.069465 

L 367.286189 69.703819 

L 368.174168 70.796482 

L 368.454405 71.140857 

L 369.060551 71.889146 

L 369.948374 72.981809 

L 370.136817 73.213536 

L 370.833746 74.074472 

L 371.721408 75.167136 

L 371.819229 75.287506 

L 372.605775 76.259799 

L 373.49327 77.352462 

L 373.501641 77.36277 

L 374.376637 78.445126 

L 375.184053 79.439816 

L 375.263219 79.537789 

L 376.146332 80.630452 

L 376.866465 81.518207 

L 377.031928 81.723116 

L 377.914858 82.815779 

L 378.548877 83.597897 

L 378.799474 83.908442 

L 379.682215 85.001106 

L 380.231289 85.678889 

L 380.565855 86.093769 

L 381.448402 87.186432 

L 381.913701 87.761187 

L 382.331073 88.279095 

L 383.21342 89.371759 

L 383.596113 89.844793 

L 384.095125 90.464422 

L 384.977267 91.557085 

L 385.278525 91.92971 

L 385.858011 92.649749 

L 386.739942 93.742412 

L 386.960938 94.015943 

" style="fill:none;stroke:#1f77b4;stroke-width:1.5;"/>

   </g>

   <g id="LineCollection_18">

    <path clip-path="url(#pd726d64cda)" d="M 119.263916 228.14 

L 118.396856 227.047337 

L 117.775008 226.265983 

L 117.528313 225.954673 

L 116.661578 224.86201 

L 116.092596 224.146622 

L 115.793821 223.769347 

L 114.927414 222.676683 

L 114.410184 222.025943 

L 114.060439 221.58402 

L 113.194365 220.491357 

L 112.727772 219.903943 

L 112.328167 219.398693 

L 111.462433 218.30603 

L 111.04536 217.78062 

L 110.597007 217.213367 

L 109.731617 216.120704 

L 109.362948 215.65597 

L 108.866959 215.02804 

L 108.001917 213.935377 

L 107.680535 213.529989 

L 107.138023 212.842714 

L 106.273336 211.75005 

L 105.998123 211.402675 

L 105.4102 210.657387 

L 104.545872 209.564724 

L 104.315711 209.274024 

L 103.683491 208.47206 

L 102.819527 207.379397 

L 102.633299 207.144033 

L 101.957895 206.286734 

L 101.094301 205.19407 

L 100.950887 205.012699 

L 100.233414 204.101407 

L 99.370194 203.008744 

L 99.268475 202.880018 

L 98.510049 201.91608 

L 97.647208 200.823417 

L 97.586063 200.745988 

L 96.787798 199.730754 

L 95.925343 198.63809 

L 95.903651 198.610604 

L 95.066664 197.545427 

L 94.221239 196.473763 

L 94.204744 196.452764 

L 93.346647 195.360101 

L 92.538827 194.335438 

L 92.485446 194.267437 

L 91.627747 193.174774 

L 90.856415 192.195756 

L 90.767262 192.082111 

L 89.909964 190.989447 

L 89.174003 190.054714 

L 89.05019 189.896784 

L 88.1933 188.804121 

L 87.491591 187.912308 

L 87.334232 187.711457 

L 86.477755 186.618794 

L 85.809179 185.768535 

L 85.619389 185.526131 

L 84.763329 184.433467 

L 84.126767 183.623392 

L 83.90566 183.340804 

L 83.050023 182.248141 

L 82.444355 181.476875 

L 82.193047 181.155477 

L 81.337837 180.062814 

L 80.761943 179.328982 

L 80.481549 178.970151 

L 79.626773 177.877487 

L 79.07953 177.179708 

L 78.771168 176.784824 

L 77.91683 175.692161 

L 77.397118 175.02905 

L 77.061904 174.599497 

L 76.208009 173.506834 

L 75.714706 172.877005 

L 75.353757 172.414171 

L 74.50031 171.321508 

L 74.032294 170.723569 

L 73.646728 170.228844 

L 72.793735 169.136181 

L 72.349882 168.56874 

L 71.940818 168.043518 

L 71.088283 166.950854 

L 70.66747 166.412513 

L 70.236027 165.858191 

L 69.383956 164.765528 

L 68.985058 164.254885 

L 68.532355 163.672864 

L 67.680753 162.580201 

L 67.302646 162.095853 

L 66.829804 161.487538 

L 65.978676 160.394874 

L 65.620234 159.935414 

L 65.128373 159.302211 

L 64.277725 158.209548 

L 63.937822 157.773563 

L 63.428063 157.116884 

L 62.5779 156.024221 

L 62.25541 155.610297 

L 61.728876 154.931558 

L 60.879202 153.838894 

L 60.572998 153.445613 

L 60.03081 152.746231 

L 59.181631 151.653568 

L 58.890586 151.279507 

L 58.333868 150.560905 

L 57.485188 149.468241 

L 57.208174 149.111976 

L 56.638048 148.375578 

L 55.789874 147.282915 

L 55.525762 146.943016 

L 54.943353 146.190251 

L 54.09569 145.097588 

L 53.84335 144.772624 

L 53.249782 144.004925 

L 52.402634 142.912261 

L 52.160938 142.600796 

" style="fill:none;stroke:#1f77b4;stroke-width:1.5;"/>

    <path clip-path="url(#pd726d64cda)" d="M 328.723292 10.7 

L 329.626123 11.792663 

L 329.758927 11.953298 

L 330.526107 12.885327 

L 331.42892 13.97799 

L 331.44134 13.993021 

L 332.327812 15.070653 

L 333.123752 16.034511 

L 333.229653 16.163317 

L 334.128406 17.25598 

L 334.806164 18.077237 

L 335.029169 18.348643 

L 335.92789 19.441307 

L 336.488576 20.121131 

L 336.827579 20.53397 

L 337.726262 21.626633 

L 338.170988 22.166196 

L 338.624882 22.719296 

L 339.523522 23.81196 

L 339.8534 24.212435 

L 340.421078 24.904623 

L 341.319669 25.997286 

L 341.535812 26.25985 

L 342.216165 27.08995 

L 343.114704 28.182613 

L 343.218224 28.308446 

L 344.010144 29.275276 

L 344.900636 30.358268 

L 344.908554 30.36794 

L 345.803014 31.460603 

L 346.583048 32.409855 

L 346.700382 32.553266 

L 347.594774 33.64593 

L 348.26546 34.462625 

L 348.491105 34.738593 

L 349.385424 35.831256 

L 349.947872 36.516581 

L 350.280723 36.92392 

L 351.174963 38.016583 

L 351.630284 38.571726 

L 352.069234 39.109246 

L 352.96339 40.20191 

L 353.312696 40.628063 

L 353.856638 41.294573 

L 354.750706 42.387236 

L 354.995108 42.685595 

L 355.642935 43.479899 

L 356.536909 44.572563 

L 356.67752 44.744325 

L 357.428124 45.665226 

L 358.322 46.757889 

L 358.359932 46.804255 

L 359.212205 47.850553 

L 360.042345 48.86575 

L 360.105415 48.943216 

L 360.995176 50.035879 

L 361.724757 50.928662 

L 361.887391 51.128543 

L 362.777039 52.221206 

L 363.407169 52.992778 

L 363.668261 53.313869 

L 364.557791 54.406533 

L 365.089581 55.058102 

L 365.448026 55.499196 

L 366.337432 56.591859 

L 366.771993 57.124636 

L 367.226685 57.684523 

L 368.115963 58.777186 

L 368.454405 59.192382 

L 369.004237 59.869849 

L 369.893381 60.962513 

L 370.136817 61.261345 

L 370.780683 62.055176 

L 371.669688 63.147839 

L 371.819229 63.331527 

L 372.55602 64.240503 

L 373.444882 65.333166 

L 373.501641 65.40293 

L 374.330249 66.425829 

L 375.184053 67.475758 

L 375.218655 67.518492 

L 376.10337 68.611156 

L 376.866465 69.550133 

L 376.990824 69.703819 

L 377.875381 70.796482 

L 378.548877 71.625734 

L 378.761889 71.889146 

L 379.646282 72.981809 

L 380.231289 73.702563 

L 380.531848 74.074472 

L 381.416073 75.167136 

L 381.913701 75.780624 

L 382.300701 76.259799 

L 383.184753 77.352462 

L 383.596113 77.859919 

L 384.068447 78.445126 

L 384.952322 79.537789 

L 385.278525 79.940452 

L 385.835087 80.630452 

L 386.718778 81.723116 

L 386.960938 82.022225 

" style="fill:none;stroke:#1f77b4;stroke-width:1.5;"/>

   </g>

   <g id="LineCollection_19">

    <path clip-path="url(#pd726d64cda)" d="M 109.644786 228.14 

L 109.362948 227.785733 

L 108.77792 227.047337 

L 107.90994 225.954673 

L 107.680535 225.666138 

L 107.043822 224.86201 

L 106.176158 223.769347 

L 105.998123 223.545285 

L 105.310784 222.676683 

L 104.443439 221.58402 

L 104.315711 221.423172 

L 103.578805 220.491357 

L 102.711784 219.398693 

L 102.633299 219.299795 

L 101.847887 218.30603 

L 100.981195 217.213367 

L 100.950887 217.175153 

L 100.118029 216.120704 

L 99.268475 215.049146 

L 99.25181 215.02804 

L 98.389233 213.935377 

L 97.586063 212.9217 

L 97.523735 212.842714 

L 96.661498 211.75005 

L 95.903651 210.792984 

L 95.796718 210.657387 

L 94.934826 209.564724 

L 94.221239 208.662996 

L 94.070759 208.47206 

L 93.209216 207.379397 

L 92.538827 206.531732 

L 92.345858 206.286734 

L 91.484669 205.19407 

L 90.856415 204.39919 

L 90.622016 204.101407 

L 89.761186 203.008744 

L 89.174003 202.265367 

L 88.899234 201.91608 

L 88.038768 200.823417 

L 87.491591 200.130259 

L 87.177512 199.730754 

L 86.317414 198.63809 

L 85.809179 197.993864 

L 85.45685 197.545427 

L 84.597125 196.452764 

L 84.126767 195.856179 

L 83.73725 195.360101 

L 82.877901 194.267437 

L 82.444355 193.7172 

L 82.018711 193.174774 

L 81.159744 192.082111 

L 80.761943 191.576925 

L 80.301233 190.989447 

L 79.442653 189.896784 

L 79.07953 189.435351 

L 78.584819 188.804121 

L 77.72663 187.711457 

L 77.397118 187.292475 

L 76.869467 186.618794 

L 76.011674 185.526131 

L 75.714706 185.148293 

L 75.155178 184.433467 

L 74.297786 183.340804 

L 74.032294 183.002802 

L 73.441954 182.248141 

L 72.584967 181.155477 

L 72.349882 180.856 

L 71.729794 180.062814 

L 70.873217 178.970151 

L 70.66747 178.707884 

L 70.018698 177.877487 

L 69.162536 176.784824 

L 68.985058 176.55845 

L 68.308668 175.692161 

L 67.452925 174.599497 

L 67.302646 174.407695 

L 66.599704 173.506834 

L 65.744385 172.414171 

L 65.620234 172.255616 

L 64.891807 171.321508 

L 64.036916 170.228844 

L 63.937822 170.102211 

L 63.184976 169.136181 

L 62.330518 168.043518 

L 62.25541 167.947475 

L 61.479212 166.950854 

L 60.625193 165.858191 

L 60.572998 165.791407 

L 59.774516 164.765528 

L 58.920939 163.672864 

L 58.890586 163.634002 

L 58.070889 162.580201 

L 57.217759 161.487538 

L 57.208174 161.475257 

L 56.36833 160.394874 

L 55.525762 159.315111 

L 55.515737 159.302211 

L 54.666841 158.209548 

L 53.84335 157.153568 

L 53.814859 157.116884 

L 52.966421 156.024221 

L 52.160938 154.990683 

" style="fill:none;stroke:#1f77b4;stroke-width:1.5;"/>

    <path clip-path="url(#pd726d64cda)" d="M 338.503221 10.7 

L 339.402328 11.792663 

L 339.8534 12.339706 

L 340.301429 12.885327 

L 341.200499 13.97799 

L 341.535812 14.384887 

L 342.098583 15.070653 

L 342.997611 16.163317 

L 343.218224 16.431187 

L 343.894681 17.25598 

L 344.793663 18.348643 

L 344.900636 18.478609 

L 345.689723 19.441307 

L 346.583048 20.527184 

L 346.588607 20.53397 

L 347.483709 21.626633 

L 348.26546 22.577455 

L 348.381596 22.719296 

L 349.276638 23.81196 

L 349.947872 24.628851 

L 350.173533 24.904623 

L 351.06851 25.997286 

L 351.630284 26.681375 

L 351.964416 27.08995 

L 352.859324 28.182613 

L 353.312696 28.735028 

L 353.754245 29.275276 

L 354.64908 30.36794 

L 354.995108 30.789814 

L 355.543021 31.460603 

L 356.437777 32.553266 

L 356.67752 32.845734 

L 357.330741 33.64593 

L 358.225414 34.738593 

L 358.359932 34.902793 

L 359.117406 35.831256 

L 360.011992 36.92392 

L 360.042345 36.960991 

L 360.903016 38.016583 

L 361.724757 39.020726 

L 361.796898 39.109246 

L 362.68757 40.20191 

L 363.407169 41.081766 

L 363.580495 41.294573 

L 364.471066 42.387236 

L 365.089581 43.14395 

L 365.363041 43.479899 

L 366.253506 44.572563 

L 366.771993 45.20728 

L 367.144533 45.665226 

L 368.034888 46.757889 

L 368.454405 47.271759 

L 368.924971 47.850553 

L 369.815212 48.943216 

L 370.136817 49.337389 

L 370.704356 50.035879 

L 371.594478 51.128543 

L 371.819229 51.404174 

L 372.482686 52.221206 

L 373.372684 53.313869 

L 373.501641 53.472116 

L 374.259961 54.406533 

L 375.149831 55.499196 

L 375.184053 55.541217 

L 376.03618 56.591859 

L 376.866465 57.611804 

L 376.925418 57.684523 

L 377.811344 58.777186 

L 378.548877 59.683737 

L 378.699667 59.869849 

L 379.585451 60.962513 

L 380.231289 61.756833 

L 380.472863 62.055176 

L 381.358501 63.147839 

L 381.913701 63.831095 

L 382.245006 64.240503 

L 383.130494 65.333166 

L 383.596113 65.906526 

L 384.016096 66.425829 

L 384.901428 67.518492 

L 385.278525 67.983127 

L 385.786132 68.611156 

L 386.671305 69.703819 

L 386.960938 70.060902 

" style="fill:none;stroke:#1f77b4;stroke-width:1.5;"/>

   </g>

   <g id="LineCollection_20">

    <path clip-path="url(#pd726d64cda)" d="M 100.039751 228.14 

L 99.268475 227.169841 

L 99.171465 227.047337 

L 98.306015 225.954673 

L 97.586063 225.04854 

L 97.438437 224.86201 

L 96.573292 223.769347 

L 95.903651 222.92604 

L 95.706419 222.676683 

L 94.841582 221.58402 

L 94.221239 220.802336 

L 93.97541 220.491357 

L 93.110886 219.398693 

L 92.538827 218.677427 

L 92.24541 218.30603 

L 91.381204 217.213367 

L 90.856415 216.55131 

L 90.516422 216.120704 

L 89.652537 215.02804 

L 89.174003 214.423981 

L 88.788444 213.935377 

L 87.924884 212.842714 

L 87.491591 212.295439 

L 87.061477 211.75005 

L 86.198247 210.657387 

L 85.809179 210.165681 

L 85.335522 209.564724 

L 84.472626 208.47206 

L 84.126767 208.034703 

L 83.610579 207.379397 

L 82.748022 206.286734 

L 82.444355 205.902504 

L 81.886649 205.19407 

L 81.024434 204.101407 

L 80.761943 203.76908 

L 80.163731 203.008744 

L 79.301863 201.91608 

L 79.07953 201.63443 

L 78.441828 200.823417 

L 77.58031 199.730754 

L 77.397118 199.498549 

L 76.720938 198.63809 

L 75.859775 197.545427 

L 75.714706 197.361435 

L 75.001062 196.452764 

L 74.140259 195.360101 

L 74.032294 195.223087 

L 73.282201 194.267437 

L 72.421762 193.174774 

L 72.349882 193.0835 

L 71.564356 192.082111 

L 70.704284 190.989447 

L 70.66747 190.942672 

L 69.847526 189.896784 

L 68.987827 188.804121 

L 68.985058 188.800601 

L 68.131712 187.711457 

L 67.302646 186.657116 

L 67.272629 186.618794 

L 66.416915 185.526131 

L 65.620234 184.512372 

L 65.558467 184.433467 

L 64.703135 183.340804 

L 63.937822 182.366381 

L 63.845318 182.248141 

L 62.990372 181.155477 

L 62.25541 180.219141 

L 62.133182 180.062814 

L 61.278627 178.970151 

L 60.572998 178.070648 

L 60.422061 177.877487 

L 59.567901 176.784824 

L 58.890586 175.9209 

L 58.711954 175.692161 

L 57.858193 174.599497 

L 57.208174 173.769894 

L 57.002863 173.506834 

L 56.149505 172.414171 

L 55.525762 171.617627 

L 55.294786 171.321508 

L 54.441836 170.228844 

L 53.84335 169.464097 

L 53.587726 169.136181 

L 52.735187 168.043518 

L 52.160938 167.309301 

" style="fill:none;stroke:#1f77b4;stroke-width:1.5;"/>

    <path clip-path="url(#pd726d64cda)" d="M 348.254835 10.7 

L 348.26546 10.71291 

L 349.150549 11.792663 

L 349.947872 12.761944 

L 350.048964 12.885327 

L 350.94454 13.97799 

L 351.630284 14.812104 

L 351.842003 15.070653 

L 352.737521 16.163317 

L 353.312696 16.863337 

L 353.634035 17.25598 

L 354.529493 18.348643 

L 354.995108 18.915647 

L 355.425062 19.441307 

L 356.320455 20.53397 

L 356.67752 20.969036 

L 357.215083 21.626633 

L 358.110406 22.719296 

L 358.359932 23.023506 

L 359.004097 23.81196 

L 359.899346 24.904623 

L 360.042345 25.079059 

L 360.792103 25.997286 

L 361.687275 27.08995 

L 361.724757 27.135698 

L 362.579102 28.182613 

L 363.407169 29.193771 

L 363.473652 29.275276 

L 364.365093 30.36794 

L 365.089581 31.253123 

L 365.258725 31.460603 

L 366.150075 32.553266 

L 366.771993 33.313564 

L 367.042792 33.64593 

L 367.934048 34.738593 

L 368.454405 35.375097 

L 368.825854 35.831256 

L 369.717011 36.92392 

L 370.136817 37.437723 

L 370.60791 38.016583 

L 371.498964 39.109246 

L 371.819229 39.501445 

L 372.38896 40.20191 

L 373.279908 41.294573 

L 373.501641 41.566266 

L 374.169003 42.387236 

L 375.05984 43.479899 

L 375.184053 43.632187 

L 375.94804 44.572563 

L 376.838761 45.665226 

L 376.866465 45.699212 

L 377.726068 46.757889 

L 378.548877 47.767694 

L 378.616127 47.850553 

L 379.503089 48.943216 

L 380.231289 49.837424 

L 380.392266 50.035879 

L 381.279101 51.128543 

L 381.913701 51.90826 

L 382.167401 52.221206 

L 383.054104 53.313869 

L 383.596113 53.980205 

L 383.94153 54.406533 

L 384.828098 55.499196 

L 385.278525 56.053262 

L 385.714654 56.591859 

L 386.601082 57.684523 

L 386.960938 58.127432 

" style="fill:none;stroke:#1f77b4;stroke-width:1.5;"/>

   </g>

   <g id="LineCollection_21">

    <path clip-path="url(#pd726d64cda)" d="M 90.445403 228.14 

L 89.578859 227.047337 

L 89.174003 226.537641 

L 88.712677 225.954673 

L 87.846426 224.86201 

L 87.491591 224.415037 

L 86.980918 223.769347 

L 86.114964 222.676683 

L 85.809179 222.29128 

L 85.250127 221.58402 

L 84.384473 220.491357 

L 84.126767 220.166368 

L 83.520303 219.398693 

L 82.654953 218.30603 

L 82.444355 218.040298 

L 81.791447 217.213367 

L 80.926405 216.120704 

L 80.761943 215.913068 

L 80.063559 215.02804 

L 79.19883 213.935377 

L 79.07953 213.784675 

L 78.33664 212.842714 

L 77.472227 211.75005 

L 77.397118 211.655118 

L 76.61069 210.657387 

L 75.746597 209.564724 

L 75.714706 209.524393 

L 74.88571 208.47206 

L 74.032294 207.392444 

L 74.022019 207.379397 

L 73.1617 206.286734 

L 72.349882 205.259161 

L 72.29865 205.19407 

L 71.438661 204.101407 

L 70.66747 203.124707 

L 70.576248 203.008744 

L 69.716592 201.91608 

L 68.985058 200.989081 

L 68.854814 200.823417 

L 67.995494 199.730754 

L 67.302646 198.852279 

L 67.134347 198.63809 

L 66.275369 197.545427 

L 65.620234 196.714299 

L 65.414849 196.452764 

L 64.556215 195.360101 

L 63.937822 194.57514 

L 63.696319 194.267437 

L 62.838033 193.174774 

L 62.25541 192.434797 

L 61.978758 192.082111 

L 61.120825 190.989447 

L 60.572998 190.293269 

L 60.262166 189.896784 

L 59.404589 188.804121 

L 58.890586 188.150553 

L 58.546544 187.711457 

L 57.689328 186.618794 

L 57.208174 186.006647 

L 56.831893 185.526131 

L 55.97504 184.433467 

L 55.525762 183.861548 

L 55.118212 183.340804 

L 54.261727 182.248141 

L 53.84335 181.715254 

L 53.405502 181.155477 

L 52.549389 180.062814 

L 52.160938 179.567762 

" style="fill:none;stroke:#1f77b4;stroke-width:1.5;"/>

    <path clip-path="url(#pd726d64cda)" d="M 357.979373 10.7 

L 358.359932 11.163436 

L 358.874676 11.792663 

L 359.770468 12.885327 

L 360.042345 13.216593 

L 360.66487 13.97799 

L 361.560596 15.070653 

L 361.724757 15.270783 

L 362.4541 16.163317 

L 363.349756 17.25598 

L 363.407169 17.32601 

L 364.242367 18.348643 

L 365.089581 19.382514 

L 365.137577 19.441307 

L 366.029669 20.53397 

L 366.771993 21.440337 

L 366.923995 21.626633 

L 367.816006 22.719296 

L 368.454405 23.499199 

L 368.709452 23.81196 

L 369.601378 24.904623 

L 370.136817 25.559102 

L 370.493947 25.997286 

L 371.385784 27.08995 

L 371.819229 27.620049 

L 372.27748 28.182613 

L 373.169225 29.275276 

L 373.501641 29.682042 

L 374.06005 30.36794 

L 374.951699 31.460603 

L 375.184053 31.745082 

L 375.841658 32.553266 

L 376.733207 33.64593 

L 376.866465 33.809173 

L 377.622302 34.738593 

L 378.513747 35.831256 

L 378.548877 35.874315 

L 379.401982 36.92392 

L 380.231289 37.94082 

L 380.292843 38.016583 

L 381.180698 39.109246 

L 381.913701 40.008551 

L 382.07071 40.20191 

L 382.958449 41.294573 

L 383.596113 42.077338 

L 383.847615 42.387236 

L 384.735236 43.479899 

L 385.278525 44.147182 

L 385.623558 44.572563 

L 386.511057 45.665226 

L 386.960938 46.218085 

" style="fill:none;stroke:#1f77b4;stroke-width:1.5;"/>

   </g>

   <g id="LineCollection_22">

    <path clip-path="url(#pd726d64cda)" d="M 80.861062 228.14 

L 80.761943 228.015181 

L 79.99613 227.047337 

L 79.128897 225.954673 

L 79.07953 225.892473 

L 78.264611 224.86201 

L 77.397664 223.769347 

L 77.397118 223.768659 

L 76.534021 222.676683 

L 75.714706 221.6435 

L 75.667708 221.58402 

L 74.804359 220.491357 

L 74.032294 219.517231 

L 73.938681 219.398693 

L 73.075626 218.30603 

L 72.349882 217.389854 

L 72.210579 217.213367 

L 71.347823 216.120704 

L 70.66747 215.261365 

L 70.483404 215.02804 

L 69.620949 213.935377 

L 68.985058 213.131762 

L 68.757156 212.842714 

L 67.895006 211.75005 

L 67.302646 211.001043 

L 67.031835 210.657387 

L 66.169993 209.564724 

L 65.620234 208.869207 

L 65.307441 208.47206 

L 64.445911 207.379397 

L 63.937822 206.736249 

L 63.583975 206.286734 

L 62.72276 205.19407 

L 62.25541 204.602169 

L 61.861436 204.101407 

L 61.000541 203.008744 

L 60.572998 202.466965 

L 60.139827 201.91608 

L 59.279254 200.823417 

L 58.890586 200.330632 

L 58.419146 199.730754 

L 57.558899 198.63809 

L 57.208174 198.193171 

L 56.699394 197.545427 

L 55.839477 196.452764 

L 55.525762 196.054577 

L 54.980572 195.360101 

L 54.120988 194.267437 

L 53.84335 193.91485 

L 53.26268 193.174774 

L 52.403432 192.082111 

L 52.160938 191.773985 

" style="fill:none;stroke:#1f77b4;stroke-width:1.5;"/>

    <path clip-path="url(#pd726d64cda)" d="M 367.682903 10.7 

L 368.454405 11.641412 

L 368.577909 11.792663 

L 369.470482 12.885327 

L 370.136817 13.698837 

L 370.364639 13.97799 

L 371.257136 15.070653 

L 371.819229 15.757258 

L 372.150447 16.163317 

L 373.042865 17.25598 

L 373.501641 17.816676 

L 373.935334 18.348643 

L 374.827668 19.441307 

L 375.184053 19.877094 

L 375.719298 20.53397 

L 376.611545 21.626633 

L 376.866465 21.938513 

L 377.502338 22.719296 

L 378.394496 23.81196 

L 378.548877 24.000936 

L 379.284456 24.904623 

L 380.176519 25.997286 

L 380.231289 26.064365 

L 381.06565 27.08995 

L 381.913701 28.12901 

L 381.957293 28.182613 

L 382.84592 29.275276 

L 383.596113 30.194921 

L 383.736742 30.36794 

L 384.625266 31.460603 

L 385.278525 32.26184 

L 385.515271 32.553266 

L 386.403686 33.64593 

L 386.960938 34.32977 

" style="fill:none;stroke:#1f77b4;stroke-width:1.5;"/>

   </g>

   <g id="LineCollection_23">

    <path clip-path="url(#pd726d64cda)" d="M 71.287726 228.14 

L 70.66747 227.358504 

L 70.421353 227.047337 

L 69.55643 225.954673 

L 68.985058 225.234396 

L 68.690673 224.86201 

L 67.826026 223.769347 

L 67.302646 223.109226 

L 66.960882 222.676683 

L 66.096515 221.58402 

L 65.620234 220.982992 

L 65.23198 220.491357 

L 64.367897 219.398693 

L 63.937822 218.855692 

L 63.503969 218.30603 

L 62.640172 217.213367 

L 62.25541 216.727323 

L 61.776849 216.120704 

L 60.913341 215.02804 

L 60.572998 214.597884 

L 60.050619 213.935377 

L 59.187405 212.842714 

L 58.890586 212.467373 

L 58.325281 211.75005 

L 57.462362 210.657387 

L 57.208174 210.335787 

L 56.600834 209.564724 

L 55.738215 208.47206 

L 55.525762 208.203124 

L 54.877278 207.379397 

L 54.014962 206.286734 

L 53.84335 206.069382 

L 53.154615 205.19407 

L 52.292605 204.101407 

L 52.160938 203.934559 

" style="fill:none;stroke:#1f77b4;stroke-width:1.5;"/>

    <path clip-path="url(#pd726d64cda)" d="M 377.368108 10.7 

L 378.260868 11.792663 

L 378.548877 12.144789 

L 379.152467 12.885327 

L 380.045146 13.97799 

L 380.231289 14.205687 

L 380.93594 15.070653 

L 381.828534 16.163317 

L 381.913701 16.267549 

L 382.718527 17.25598 

L 383.596113 18.330444 

L 383.610927 18.348643 

L 384.500226 19.441307 

L 385.278525 20.394689 

L 385.391833 20.53397 

L 386.281038 21.626633 

L 386.960938 22.459901 

" style="fill:none;stroke:#1f77b4;stroke-width:1.5;"/>

   </g>

   <g id="LineCollection_24">

    <path clip-path="url(#pd726d64cda)" d="M 61.721286 228.14 

L 60.855464 227.047337 

L 60.572998 226.691189 

L 59.990789 225.954673 

L 59.125234 224.86201 

L 58.890586 224.566006 

L 58.261148 223.769347 

L 57.395864 222.676683 

L 57.208174 222.439799 

L 56.532364 221.58402 

L 55.667353 220.491357 

L 55.525762 220.312564 

L 54.804438 219.398693 

L 53.939702 218.30603 

L 53.84335 218.184302 

L 53.077368 217.213367 

L 52.212911 216.120704 

L 52.160938 216.055008 

" style="fill:none;stroke:#1f77b4;stroke-width:1.5;"/>

   </g>

   <g id="LineCollection_25">

    <path clip-path="url(#pd726d64cda)" d="M 52.160938 228.14 

L 52.160938 228.14 

" style="fill:none;stroke:#1f77b4;stroke-width:1.5;"/>

   </g>

   <g id="line2d_16">

    <path clip-path="url(#pd726d64cda)" d="M 62.799608 111.519985 

L 191.846521 55.724086 

L 178.550328 79.91983 

L 191.833489 87.293267 

L 198.935764 96.799323 

L 206.326268 104.857772 

L 212.832675 112.262657 

L 218.761229 118.947762 

L 224.123127 125.005914 

L 228.98029 130.491449 

L 233.378718 135.459357 

L 237.36203 139.958315 

L 240.969348 144.032623 

L 244.236173 147.722355 

L 247.194642 151.063814 

L 249.873861 154.089873 

L 252.300189 156.830302 

L 254.497496 159.312062 

L 256.487399 161.559569 

L 258.289475 163.594934 

L 259.921454 165.43818 

L 261.39939 167.107443 

L 262.737823 168.619144 

L 263.949922 169.988156 

L 265.047611 171.227947 

L 266.041689 172.350714 

L 266.941936 173.367503 

L 267.757209 174.288317 

L 268.495528 175.122215 

L 269.164158 175.877402 

L 269.769675 176.561307 

L 270.318038 177.180659 

L 270.814641 177.741549 

L 271.264369 178.249497 

L 271.671648 178.7095 

L 272.040483 179.126084 

L 272.374504 179.503346 

L 272.676997 179.844998 

L 272.950938 180.154402 

L 273.199021 180.434601 

L 273.423688 180.688352 

L 273.627148 180.918151 

L 273.811404 181.12626 

L 273.978268 181.314726 

L 274.129382 181.485402 

L 274.266232 181.639968 

L 274.390165 181.779944 

L 274.5024 181.906709 

L 274.604041 182.021508 

L 274.696088 182.125471 

L 274.779446 182.219621 

L 274.854937 182.304884 

L 274.923302 182.382099 

L 274.985214 182.452026 

L 275.041282 182.515352 

L 275.092058 182.572701 

L 275.138041 182.624637 

L 275.179684 182.671671 

L 275.217396 182.714265 

L 275.251548 182.752839 

L 275.282477 182.787771 

L 275.310487 182.819407 

L 275.335852 182.848056 

L 275.358824 182.874001 

L 275.379627 182.897498 

L 275.398466 182.918776 

L 275.415528 182.938046 

L 275.430978 182.955497 

L 275.444971 182.971301 

L 275.457643 182.985613 

L 275.469118 182.998574 

L 275.479511 183.010312 

L 275.488922 183.020942 

L 275.497445 183.030568 

L 275.505164 183.039286 

L 275.512154 183.047181 

L 275.518484 183.054331 

L 275.524217 183.060806 

L 275.529409 183.066669 

L 275.53411 183.07198 

L 275.538368 183.076789 

L 275.542224 183.081144 

L 275.545716 183.085088 

L 275.548878 183.08866 

L 275.551742 183.091894 

L 275.554336 183.094823 

L 275.556684 183.097476 

L 275.558811 183.099879 

L 275.560738 183.102054 

L 275.562482 183.104025 

L 275.564062 183.105809 

L 275.565493 183.107425 

L 275.566788 183.108888 

L 275.567962 183.110213 

L 275.569024 183.111413 

L 275.569987 183.1125 

L 275.570858 183.113485 

L 275.571647 183.114376 

L 275.572362 183.115183 

L 275.573009 183.115914 

" style="fill:none;stroke:#ff7f0e;stroke-linecap:square;stroke-width:1.5;"/>

    <defs>

     <path d="M -3 3 

L 3 -3 

M -3 -3 

L 3 3 

" id="me52790fe90" style="stroke:#ff7f0e;"/>

    </defs>

    <g clip-path="url(#pd726d64cda)">

     <use style="fill:#ff7f0e;stroke:#ff7f0e;" x="62.799608" xlink:href="#me52790fe90" y="111.519985"/>

     <use style="fill:#ff7f0e;stroke:#ff7f0e;" x="191.846521" xlink:href="#me52790fe90" y="55.724086"/>

     <use style="fill:#ff7f0e;stroke:#ff7f0e;" x="178.550328" xlink:href="#me52790fe90" y="79.91983"/>

     <use style="fill:#ff7f0e;stroke:#ff7f0e;" x="191.833489" xlink:href="#me52790fe90" y="87.293267"/>

     <use style="fill:#ff7f0e;stroke:#ff7f0e;" x="198.935764" xlink:href="#me52790fe90" y="96.799323"/>

     <use style="fill:#ff7f0e;stroke:#ff7f0e;" x="206.326268" xlink:href="#me52790fe90" y="104.857772"/>

     <use style="fill:#ff7f0e;stroke:#ff7f0e;" x="212.832675" xlink:href="#me52790fe90" y="112.262657"/>

     <use style="fill:#ff7f0e;stroke:#ff7f0e;" x="218.761229" xlink:href="#me52790fe90" y="118.947762"/>

     <use style="fill:#ff7f0e;stroke:#ff7f0e;" x="224.123127" xlink:href="#me52790fe90" y="125.005914"/>

     <use style="fill:#ff7f0e;stroke:#ff7f0e;" x="228.98029" xlink:href="#me52790fe90" y="130.491449"/>

     <use style="fill:#ff7f0e;stroke:#ff7f0e;" x="233.378718" xlink:href="#me52790fe90" y="135.459357"/>

     <use style="fill:#ff7f0e;stroke:#ff7f0e;" x="237.36203" xlink:href="#me52790fe90" y="139.958315"/>

     <use style="fill:#ff7f0e;stroke:#ff7f0e;" x="240.969348" xlink:href="#me52790fe90" y="144.032623"/>

     <use style="fill:#ff7f0e;stroke:#ff7f0e;" x="244.236173" xlink:href="#me52790fe90" y="147.722355"/>

     <use style="fill:#ff7f0e;stroke:#ff7f0e;" x="247.194642" xlink:href="#me52790fe90" y="151.063814"/>

     <use style="fill:#ff7f0e;stroke:#ff7f0e;" x="249.873861" xlink:href="#me52790fe90" y="154.089873"/>

     <use style="fill:#ff7f0e;stroke:#ff7f0e;" x="252.300189" xlink:href="#me52790fe90" y="156.830302"/>

     <use style="fill:#ff7f0e;stroke:#ff7f0e;" x="254.497496" xlink:href="#me52790fe90" y="159.312062"/>

     <use style="fill:#ff7f0e;stroke:#ff7f0e;" x="256.487399" xlink:href="#me52790fe90" y="161.559569"/>

     <use style="fill:#ff7f0e;stroke:#ff7f0e;" x="258.289475" xlink:href="#me52790fe90" y="163.594934"/>

     <use style="fill:#ff7f0e;stroke:#ff7f0e;" x="259.921454" xlink:href="#me52790fe90" y="165.43818"/>

     <use style="fill:#ff7f0e;stroke:#ff7f0e;" x="261.39939" xlink:href="#me52790fe90" y="167.107443"/>

     <use style="fill:#ff7f0e;stroke:#ff7f0e;" x="262.737823" xlink:href="#me52790fe90" y="168.619144"/>

     <use style="fill:#ff7f0e;stroke:#ff7f0e;" x="263.949922" xlink:href="#me52790fe90" y="169.988156"/>

     <use style="fill:#ff7f0e;stroke:#ff7f0e;" x="265.047611" xlink:href="#me52790fe90" y="171.227947"/>

     <use style="fill:#ff7f0e;stroke:#ff7f0e;" x="266.041689" xlink:href="#me52790fe90" y="172.350714"/>

     <use style="fill:#ff7f0e;stroke:#ff7f0e;" x="266.941936" xlink:href="#me52790fe90" y="173.367503"/>

     <use style="fill:#ff7f0e;stroke:#ff7f0e;" x="267.757209" xlink:href="#me52790fe90" y="174.288317"/>

     <use style="fill:#ff7f0e;stroke:#ff7f0e;" x="268.495528" xlink:href="#me52790fe90" y="175.122215"/>

     <use style="fill:#ff7f0e;stroke:#ff7f0e;" x="269.164158" xlink:href="#me52790fe90" y="175.877402"/>

     <use style="fill:#ff7f0e;stroke:#ff7f0e;" x="269.769675" xlink:href="#me52790fe90" y="176.561307"/>

     <use style="fill:#ff7f0e;stroke:#ff7f0e;" x="270.318038" xlink:href="#me52790fe90" y="177.180659"/>

     <use style="fill:#ff7f0e;stroke:#ff7f0e;" x="270.814641" xlink:href="#me52790fe90" y="177.741549"/>

     <use style="fill:#ff7f0e;stroke:#ff7f0e;" x="271.264369" xlink:href="#me52790fe90" y="178.249497"/>

     <use style="fill:#ff7f0e;stroke:#ff7f0e;" x="271.671648" xlink:href="#me52790fe90" y="178.7095"/>

     <use style="fill:#ff7f0e;stroke:#ff7f0e;" x="272.040483" xlink:href="#me52790fe90" y="179.126084"/>

     <use style="fill:#ff7f0e;stroke:#ff7f0e;" x="272.374504" xlink:href="#me52790fe90" y="179.503346"/>

     <use style="fill:#ff7f0e;stroke:#ff7f0e;" x="272.676997" xlink:href="#me52790fe90" y="179.844998"/>

     <use style="fill:#ff7f0e;stroke:#ff7f0e;" x="272.950938" xlink:href="#me52790fe90" y="180.154402"/>

     <use style="fill:#ff7f0e;stroke:#ff7f0e;" x="273.199021" xlink:href="#me52790fe90" y="180.434601"/>

     <use style="fill:#ff7f0e;stroke:#ff7f0e;" x="273.423688" xlink:href="#me52790fe90" y="180.688352"/>

     <use style="fill:#ff7f0e;stroke:#ff7f0e;" x="273.627148" xlink:href="#me52790fe90" y="180.918151"/>

     <use style="fill:#ff7f0e;stroke:#ff7f0e;" x="273.811404" xlink:href="#me52790fe90" y="181.12626"/>

     <use style="fill:#ff7f0e;stroke:#ff7f0e;" x="273.978268" xlink:href="#me52790fe90" y="181.314726"/>

     <use style="fill:#ff7f0e;stroke:#ff7f0e;" x="274.129382" xlink:href="#me52790fe90" y="181.485402"/>

     <use style="fill:#ff7f0e;stroke:#ff7f0e;" x="274.266232" xlink:href="#me52790fe90" y="181.639968"/>

     <use style="fill:#ff7f0e;stroke:#ff7f0e;" x="274.390165" xlink:href="#me52790fe90" y="181.779944"/>

     <use style="fill:#ff7f0e;stroke:#ff7f0e;" x="274.5024" xlink:href="#me52790fe90" y="181.906709"/>

     <use style="fill:#ff7f0e;stroke:#ff7f0e;" x="274.604041" xlink:href="#me52790fe90" y="182.021508"/>

     <use style="fill:#ff7f0e;stroke:#ff7f0e;" x="274.696088" xlink:href="#me52790fe90" y="182.125471"/>

     <use style="fill:#ff7f0e;stroke:#ff7f0e;" x="274.779446" xlink:href="#me52790fe90" y="182.219621"/>

     <use style="fill:#ff7f0e;stroke:#ff7f0e;" x="274.854937" xlink:href="#me52790fe90" y="182.304884"/>

     <use style="fill:#ff7f0e;stroke:#ff7f0e;" x="274.923302" xlink:href="#me52790fe90" y="182.382099"/>

     <use style="fill:#ff7f0e;stroke:#ff7f0e;" x="274.985214" xlink:href="#me52790fe90" y="182.452026"/>

     <use style="fill:#ff7f0e;stroke:#ff7f0e;" x="275.041282" xlink:href="#me52790fe90" y="182.515352"/>

     <use style="fill:#ff7f0e;stroke:#ff7f0e;" x="275.092058" xlink:href="#me52790fe90" y="182.572701"/>

     <use style="fill:#ff7f0e;stroke:#ff7f0e;" x="275.138041" xlink:href="#me52790fe90" y="182.624637"/>

     <use style="fill:#ff7f0e;stroke:#ff7f0e;" x="275.179684" xlink:href="#me52790fe90" y="182.671671"/>

     <use style="fill:#ff7f0e;stroke:#ff7f0e;" x="275.217396" xlink:href="#me52790fe90" y="182.714265"/>

     <use style="fill:#ff7f0e;stroke:#ff7f0e;" x="275.251548" xlink:href="#me52790fe90" y="182.752839"/>

     <use style="fill:#ff7f0e;stroke:#ff7f0e;" x="275.282477" xlink:href="#me52790fe90" y="182.787771"/>

     <use style="fill:#ff7f0e;stroke:#ff7f0e;" x="275.310487" xlink:href="#me52790fe90" y="182.819407"/>

     <use style="fill:#ff7f0e;stroke:#ff7f0e;" x="275.335852" xlink:href="#me52790fe90" y="182.848056"/>

     <use style="fill:#ff7f0e;stroke:#ff7f0e;" x="275.358824" xlink:href="#me52790fe90" y="182.874001"/>

     <use style="fill:#ff7f0e;stroke:#ff7f0e;" x="275.379627" xlink:href="#me52790fe90" y="182.897498"/>

     <use style="fill:#ff7f0e;stroke:#ff7f0e;" x="275.398466" xlink:href="#me52790fe90" y="182.918776"/>

     <use style="fill:#ff7f0e;stroke:#ff7f0e;" x="275.415528" xlink:href="#me52790fe90" y="182.938046"/>

     <use style="fill:#ff7f0e;stroke:#ff7f0e;" x="275.430978" xlink:href="#me52790fe90" y="182.955497"/>

     <use style="fill:#ff7f0e;stroke:#ff7f0e;" x="275.444971" xlink:href="#me52790fe90" y="182.971301"/>

     <use style="fill:#ff7f0e;stroke:#ff7f0e;" x="275.457643" xlink:href="#me52790fe90" y="182.985613"/>

     <use style="fill:#ff7f0e;stroke:#ff7f0e;" x="275.469118" xlink:href="#me52790fe90" y="182.998574"/>

     <use style="fill:#ff7f0e;stroke:#ff7f0e;" x="275.479511" xlink:href="#me52790fe90" y="183.010312"/>

     <use style="fill:#ff7f0e;stroke:#ff7f0e;" x="275.488922" xlink:href="#me52790fe90" y="183.020942"/>

     <use style="fill:#ff7f0e;stroke:#ff7f0e;" x="275.497445" xlink:href="#me52790fe90" y="183.030568"/>

     <use style="fill:#ff7f0e;stroke:#ff7f0e;" x="275.505164" xlink:href="#me52790fe90" y="183.039286"/>

     <use style="fill:#ff7f0e;stroke:#ff7f0e;" x="275.512154" xlink:href="#me52790fe90" y="183.047181"/>

     <use style="fill:#ff7f0e;stroke:#ff7f0e;" x="275.518484" xlink:href="#me52790fe90" y="183.054331"/>

     <use style="fill:#ff7f0e;stroke:#ff7f0e;" x="275.524217" xlink:href="#me52790fe90" y="183.060806"/>

     <use style="fill:#ff7f0e;stroke:#ff7f0e;" x="275.529409" xlink:href="#me52790fe90" y="183.066669"/>

     <use style="fill:#ff7f0e;stroke:#ff7f0e;" x="275.53411" xlink:href="#me52790fe90" y="183.07198"/>

     <use style="fill:#ff7f0e;stroke:#ff7f0e;" x="275.538368" xlink:href="#me52790fe90" y="183.076789"/>

     <use style="fill:#ff7f0e;stroke:#ff7f0e;" x="275.542224" xlink:href="#me52790fe90" y="183.081144"/>

     <use style="fill:#ff7f0e;stroke:#ff7f0e;" x="275.545716" xlink:href="#me52790fe90" y="183.085088"/>

     <use style="fill:#ff7f0e;stroke:#ff7f0e;" x="275.548878" xlink:href="#me52790fe90" y="183.08866"/>

     <use style="fill:#ff7f0e;stroke:#ff7f0e;" x="275.551742" xlink:href="#me52790fe90" y="183.091894"/>

     <use style="fill:#ff7f0e;stroke:#ff7f0e;" x="275.554336" xlink:href="#me52790fe90" y="183.094823"/>

     <use style="fill:#ff7f0e;stroke:#ff7f0e;" x="275.556684" xlink:href="#me52790fe90" y="183.097476"/>

     <use style="fill:#ff7f0e;stroke:#ff7f0e;" x="275.558811" xlink:href="#me52790fe90" y="183.099879"/>

     <use style="fill:#ff7f0e;stroke:#ff7f0e;" x="275.560738" xlink:href="#me52790fe90" y="183.102054"/>

     <use style="fill:#ff7f0e;stroke:#ff7f0e;" x="275.562482" xlink:href="#me52790fe90" y="183.104025"/>

     <use style="fill:#ff7f0e;stroke:#ff7f0e;" x="275.564062" xlink:href="#me52790fe90" y="183.105809"/>

     <use style="fill:#ff7f0e;stroke:#ff7f0e;" x="275.565493" xlink:href="#me52790fe90" y="183.107425"/>

     <use style="fill:#ff7f0e;stroke:#ff7f0e;" x="275.566788" xlink:href="#me52790fe90" y="183.108888"/>

     <use style="fill:#ff7f0e;stroke:#ff7f0e;" x="275.567962" xlink:href="#me52790fe90" y="183.110213"/>

     <use style="fill:#ff7f0e;stroke:#ff7f0e;" x="275.569024" xlink:href="#me52790fe90" y="183.111413"/>

     <use style="fill:#ff7f0e;stroke:#ff7f0e;" x="275.569987" xlink:href="#me52790fe90" y="183.1125"/>

     <use style="fill:#ff7f0e;stroke:#ff7f0e;" x="275.570858" xlink:href="#me52790fe90" y="183.113485"/>

     <use style="fill:#ff7f0e;stroke:#ff7f0e;" x="275.571647" xlink:href="#me52790fe90" y="183.114376"/>

     <use style="fill:#ff7f0e;stroke:#ff7f0e;" x="275.572362" xlink:href="#me52790fe90" y="183.115183"/>

     <use style="fill:#ff7f0e;stroke:#ff7f0e;" x="275.573009" xlink:href="#me52790fe90" y="183.115914"/>

    </g>

   </g>

   <g id="patch_3">

    <path d="M 52.160938 228.14 

L 52.160938 10.7 

" style="fill:none;stroke:#000000;stroke-linecap:square;stroke-linejoin:miter;stroke-width:0.8;"/>

   </g>

   <g id="patch_4">

    <path d="M 386.960938 228.14 

L 386.960938 10.7 

" style="fill:none;stroke:#000000;stroke-linecap:square;stroke-linejoin:miter;stroke-width:0.8;"/>

   </g>

   <g id="patch_5">

    <path d="M 52.160938 228.14 

L 386.960938 228.14 

" style="fill:none;stroke:#000000;stroke-linecap:square;stroke-linejoin:miter;stroke-width:0.8;"/>

   </g>

   <g id="patch_6">

    <path d="M 52.160938 10.7 

L 386.960938 10.7 

" style="fill:none;stroke:#000000;stroke-linecap:square;stroke-linejoin:miter;stroke-width:0.8;"/>

   </g>

  </g>

 </g>

 <defs>

  <clipPath id="pd726d64cda">

   <rect height="217.44" width="334.8" x="52.160938" y="10.7"/>

  </clipPath>

 </defs>

</svg>
