<?xml version="1.0" encoding="utf-8" standalone="no"?>

<!DOCTYPE svg PUBLIC "-//W3C//DTD SVG 1.1//EN"

  "http://www.w3.org/Graphics/SVG/1.1/DTD/svg11.dtd">

<!-- Created with matplotlib (http://matplotlib.org/) -->

<svg height="265pt" version="1.1" viewBox="0 0 396 265" width="396pt" xmlns="http://www.w3.org/2000/svg" xmlns:xlink="http://www.w3.org/1999/xlink">

 <defs>

  <style type="text/css">

*{stroke-linecap:butt;stroke-linejoin:round;}

  </style>

 </defs>

 <g id="figure_1">

  <g id="patch_1">

   <path d="M 0 265.69625 

L 396.878125 265.69625 

L 396.878125 0 

L 0 0 

z

" style="fill:none;"/>

  </g>

  <g id="axes_1">

   <g id="patch_2">

    <path d="M 51.378125 228.14 

L 386.178125 228.14 

L 386.178125 10.7 

L 51.378125 10.7 

z

" style="fill:#ffffff;"/>

   </g>

   <g id="matplotlib.axis_1">

    <g id="xtick_1">

     <g id="line2d_1">

      <defs>

       <path d="M 0 0 

L 0 3.5 

" id="m93d2422217" style="stroke:#000000;stroke-width:0.8;"/>

      </defs>

      <g>

       <use style="stroke:#000000;stroke-width:0.8;" x="66.596307" xlink:href="#m93d2422217" y="228.14"/>

      </g>

     </g>

     <g id="text_1">

      <!-- 0 -->

      <defs>

       <path d="M 31.78125 66.40625 

Q 24.171875 66.40625 20.328125 58.90625 

Q 16.5 51.421875 16.5 36.375 

Q 16.5 21.390625 20.328125 13.890625 

Q 24.171875 6.390625 31.78125 6.390625 

Q 39.453125 6.390625 43.28125 13.890625 

Q 47.125 21.390625 47.125 36.375 

Q 47.125 51.421875 43.28125 58.90625 

Q 39.453125 66.40625 31.78125 66.40625 

z

M 31.78125 74.21875 

Q 44.046875 74.21875 50.515625 64.515625 

Q 56.984375 54.828125 56.984375 36.375 

Q 56.984375 17.96875 50.515625 8.265625 

Q 44.046875 -1.421875 31.78125 -1.421875 

Q 19.53125 -1.421875 13.0625 8.265625 

Q 6.59375 17.96875 6.59375 36.375 

Q 6.59375 54.828125 13.0625 64.515625 

Q 19.53125 74.21875 31.78125 74.21875 

z

" id="DejaVuSans-30"/>

      </defs>

      <g transform="translate(63.415057 242.738437)scale(0.1 -0.1)">

       <use xlink:href="#DejaVuSans-30"/>

      </g>

     </g>

    </g>

    <g id="xtick_2">

     <g id="line2d_2">

      <g>

       <use style="stroke:#000000;stroke-width:0.8;" x="127.469034" xlink:href="#m93d2422217" y="228.14"/>

      </g>

     </g>

     <g id="text_2">

      <!-- 20 -->

      <defs>

       <path d="M 19.1875 8.296875 

L 53.609375 8.296875 

L 53.609375 0 

L 7.328125 0 

L 7.328125 8.296875 

Q 12.9375 14.109375 22.625 23.890625 

Q 32.328125 33.6875 34.8125 36.53125 

Q 39.546875 41.84375 41.421875 45.53125 

Q 43.3125 49.21875 43.3125 52.78125 

Q 43.3125 58.59375 39.234375 62.25 

Q 35.15625 65.921875 28.609375 65.921875 

Q 23.96875 65.921875 18.8125 64.3125 

Q 13.671875 62.703125 7.8125 59.421875 

L 7.8125 69.390625 

Q 13.765625 71.78125 18.9375 73 

Q 24.125 74.21875 28.421875 74.21875 

Q 39.75 74.21875 46.484375 68.546875 

Q 53.21875 62.890625 53.21875 53.421875 

Q 53.21875 48.921875 51.53125 44.890625 

Q 49.859375 40.875 45.40625 35.40625 

Q 44.1875 33.984375 37.640625 27.21875 

Q 31.109375 20.453125 19.1875 8.296875 

z

" id="DejaVuSans-32"/>

      </defs>

      <g transform="translate(121.106534 242.738437)scale(0.1 -0.1)">

       <use xlink:href="#DejaVuSans-32"/>

       <use x="63.623047" xlink:href="#DejaVuSans-30"/>

      </g>

     </g>

    </g>

    <g id="xtick_3">

     <g id="line2d_3">

      <g>

       <use style="stroke:#000000;stroke-width:0.8;" x="188.341761" xlink:href="#m93d2422217" y="228.14"/>

      </g>

     </g>

     <g id="text_3">

      <!-- 40 -->

      <defs>

       <path d="M 37.796875 64.3125 

L 12.890625 25.390625 

L 37.796875 25.390625 

z

M 35.203125 72.90625 

L 47.609375 72.90625 

L 47.609375 25.390625 

L 58.015625 25.390625 

L 58.015625 17.1875 

L 47.609375 17.1875 

L 47.609375 0 

L 37.796875 0 

L 37.796875 17.1875 

L 4.890625 17.1875 

L 4.890625 26.703125 

z

" id="DejaVuSans-34"/>

      </defs>

      <g transform="translate(181.979261 242.738437)scale(0.1 -0.1)">

       <use xlink:href="#DejaVuSans-34"/>

       <use x="63.623047" xlink:href="#DejaVuSans-30"/>

      </g>

     </g>

    </g>

    <g id="xtick_4">

     <g id="line2d_4">

      <g>

       <use style="stroke:#000000;stroke-width:0.8;" x="249.214489" xlink:href="#m93d2422217" y="228.14"/>

      </g>

     </g>

     <g id="text_4">

      <!-- 60 -->

      <defs>

       <path d="M 33.015625 40.375 

Q 26.375 40.375 22.484375 35.828125 

Q 18.609375 31.296875 18.609375 23.390625 

Q 18.609375 15.53125 22.484375 10.953125 

Q 26.375 6.390625 33.015625 6.390625 

Q 39.65625 6.390625 43.53125 10.953125 

Q 47.40625 15.53125 47.40625 23.390625 

Q 47.40625 31.296875 43.53125 35.828125 

Q 39.65625 40.375 33.015625 40.375 

z

M 52.59375 71.296875 

L 52.59375 62.3125 

Q 48.875 64.0625 45.09375 64.984375 

Q 41.3125 65.921875 37.59375 65.921875 

Q 27.828125 65.921875 22.671875 59.328125 

Q 17.53125 52.734375 16.796875 39.40625 

Q 19.671875 43.65625 24.015625 45.921875 

Q 28.375 48.1875 33.59375 48.1875 

Q 44.578125 48.1875 50.953125 41.515625 

Q 57.328125 34.859375 57.328125 23.390625 

Q 57.328125 12.15625 50.6875 5.359375 

Q 44.046875 -1.421875 33.015625 -1.421875 

Q 20.359375 -1.421875 13.671875 8.265625 

Q 6.984375 17.96875 6.984375 36.375 

Q 6.984375 53.65625 15.1875 63.9375 

Q 23.390625 74.21875 37.203125 74.21875 

Q 40.921875 74.21875 44.703125 73.484375 

Q 48.484375 72.75 52.59375 71.296875 

z

" id="DejaVuSans-36"/>

      </defs>

      <g transform="translate(242.851989 242.738437)scale(0.1 -0.1)">

       <use xlink:href="#DejaVuSans-36"/>

       <use x="63.623047" xlink:href="#DejaVuSans-30"/>

      </g>

     </g>

    </g>

    <g id="xtick_5">

     <g id="line2d_5">

      <g>

       <use style="stroke:#000000;stroke-width:0.8;" x="310.087216" xlink:href="#m93d2422217" y="228.14"/>

      </g>

     </g>

     <g id="text_5">

      <!-- 80 -->

      <defs>

       <path d="M 31.78125 34.625 

Q 24.75 34.625 20.71875 30.859375 

Q 16.703125 27.09375 16.703125 20.515625 

Q 16.703125 13.921875 20.71875 10.15625 

Q 24.75 6.390625 31.78125 6.390625 

Q 38.8125 6.390625 42.859375 10.171875 

Q 46.921875 13.96875 46.921875 20.515625 

Q 46.921875 27.09375 42.890625 30.859375 

Q 38.875 34.625 31.78125 34.625 

z

M 21.921875 38.8125 

Q 15.578125 40.375 12.03125 44.71875 

Q 8.5 49.078125 8.5 55.328125 

Q 8.5 64.0625 14.71875 69.140625 

Q 20.953125 74.21875 31.78125 74.21875 

Q 42.671875 74.21875 48.875 69.140625 

Q 55.078125 64.0625 55.078125 55.328125 

Q 55.078125 49.078125 51.53125 44.71875 

Q 48 40.375 41.703125 38.8125 

Q 48.828125 37.15625 52.796875 32.3125 

Q 56.78125 27.484375 56.78125 20.515625 

Q 56.78125 9.90625 50.3125 4.234375 

Q 43.84375 -1.421875 31.78125 -1.421875 

Q 19.734375 -1.421875 13.25 4.234375 

Q 6.78125 9.90625 6.78125 20.515625 

Q 6.78125 27.484375 10.78125 32.3125 

Q 14.796875 37.15625 21.921875 38.8125 

z

M 18.3125 54.390625 

Q 18.3125 48.734375 21.84375 45.5625 

Q 25.390625 42.390625 31.78125 42.390625 

Q 38.140625 42.390625 41.71875 45.5625 

Q 45.3125 48.734375 45.3125 54.390625 

Q 45.3125 60.0625 41.71875 63.234375 

Q 38.140625 66.40625 31.78125 66.40625 

Q 25.390625 66.40625 21.84375 63.234375 

Q 18.3125 60.0625 18.3125 54.390625 

z

" id="DejaVuSans-38"/>

      </defs>

      <g transform="translate(303.724716 242.738437)scale(0.1 -0.1)">

       <use xlink:href="#DejaVuSans-38"/>

       <use x="63.623047" xlink:href="#DejaVuSans-30"/>

      </g>

     </g>

    </g>

    <g id="xtick_6">

     <g id="line2d_6">

      <g>

       <use style="stroke:#000000;stroke-width:0.8;" x="370.959943" xlink:href="#m93d2422217" y="228.14"/>

      </g>

     </g>

     <g id="text_6">

      <!-- 100 -->

      <defs>

       <path d="M 12.40625 8.296875 

L 28.515625 8.296875 

L 28.515625 63.921875 

L 10.984375 60.40625 

L 10.984375 69.390625 

L 28.421875 72.90625 

L 38.28125 72.90625 

L 38.28125 8.296875 

L 54.390625 8.296875 

L 54.390625 0 

L 12.40625 0 

z

" id="DejaVuSans-31"/>

      </defs>

      <g transform="translate(361.416193 242.738437)scale(0.1 -0.1)">

       <use xlink:href="#DejaVuSans-31"/>

       <use x="63.623047" xlink:href="#DejaVuSans-30"/>

       <use x="127.246094" xlink:href="#DejaVuSans-30"/>

      </g>

     </g>

    </g>

    <g id="text_7">

     <!-- Degree of coefficient -->

     <defs>

      <path d="M 19.671875 64.796875 

L 19.671875 8.109375 

L 31.59375 8.109375 

Q 46.6875 8.109375 53.6875 14.9375 

Q 60.6875 21.78125 60.6875 36.53125 

Q 60.6875 51.171875 53.6875 57.984375 

Q 46.6875 64.796875 31.59375 64.796875 

z

M 9.8125 72.90625 

L 30.078125 72.90625 

Q 51.265625 72.90625 61.171875 64.09375 

Q 71.09375 55.28125 71.09375 36.53125 

Q 71.09375 17.671875 61.125 8.828125 

Q 51.171875 0 30.078125 0 

L 9.8125 0 

z

" id="DejaVuSans-44"/>

      <path d="M 56.203125 29.59375 

L 56.203125 25.203125 

L 14.890625 25.203125 

Q 15.484375 15.921875 20.484375 11.0625 

Q 25.484375 6.203125 34.421875 6.203125 

Q 39.59375 6.203125 44.453125 7.46875 

Q 49.3125 8.734375 54.109375 11.28125 

L 54.109375 2.78125 

Q 49.265625 0.734375 44.1875 -0.34375 

Q 39.109375 -1.421875 33.890625 -1.421875 

Q 20.796875 -1.421875 13.15625 6.1875 

Q 5.515625 13.8125 5.515625 26.8125 

Q 5.515625 40.234375 12.765625 48.109375 

Q 20.015625 56 32.328125 56 

Q 43.359375 56 49.78125 48.890625 

Q 56.203125 41.796875 56.203125 29.59375 

z

M 47.21875 32.234375 

Q 47.125 39.59375 43.09375 43.984375 

Q 39.0625 48.390625 32.421875 48.390625 

Q 24.90625 48.390625 20.390625 44.140625 

Q 15.875 39.890625 15.1875 32.171875 

z

" id="DejaVuSans-65"/>

      <path d="M 45.40625 27.984375 

Q 45.40625 37.75 41.375 43.109375 

Q 37.359375 48.484375 30.078125 48.484375 

Q 22.859375 48.484375 18.828125 43.109375 

Q 14.796875 37.75 14.796875 27.984375 

Q 14.796875 18.265625 18.828125 12.890625 

Q 22.859375 7.515625 30.078125 7.515625 

Q 37.359375 7.515625 41.375 12.890625 

Q 45.40625 18.265625 45.40625 27.984375 

z

M 54.390625 6.78125 

Q 54.390625 -7.171875 48.1875 -13.984375 

Q 42 -20.796875 29.203125 -20.796875 

Q 24.46875 -20.796875 20.265625 -20.09375 

Q 16.0625 -19.390625 12.109375 -17.921875 

L 12.109375 -9.1875 

Q 16.0625 -11.328125 19.921875 -12.34375 

Q 23.78125 -13.375 27.78125 -13.375 

Q 36.625 -13.375 41.015625 -8.765625 

Q 45.40625 -4.15625 45.40625 5.171875 

L 45.40625 9.625 

Q 42.625 4.78125 38.28125 2.390625 

Q 33.9375 0 27.875 0 

Q 17.828125 0 11.671875 7.65625 

Q 5.515625 15.328125 5.515625 27.984375 

Q 5.515625 40.671875 11.671875 48.328125 

Q 17.828125 56 27.875 56 

Q 33.9375 56 38.28125 53.609375 

Q 42.625 51.21875 45.40625 46.390625 

L 45.40625 54.6875 

L 54.390625 54.6875 

z

" id="DejaVuSans-67"/>

      <path d="M 41.109375 46.296875 

Q 39.59375 47.171875 37.8125 47.578125 

Q 36.03125 48 33.890625 48 

Q 26.265625 48 22.1875 43.046875 

Q 18.109375 38.09375 18.109375 28.8125 

L 18.109375 0 

L 9.078125 0 

L 9.078125 54.6875 

L 18.109375 54.6875 

L 18.109375 46.1875 

Q 20.953125 51.171875 25.484375 53.578125 

Q 30.03125 56 36.53125 56 

Q 37.453125 56 38.578125 55.875 

Q 39.703125 55.765625 41.0625 55.515625 

z

" id="DejaVuSans-72"/>

      <path id="DejaVuSans-20"/>

      <path d="M 30.609375 48.390625 

Q 23.390625 48.390625 19.1875 42.75 

Q 14.984375 37.109375 14.984375 27.296875 

Q 14.984375 17.484375 19.15625 11.84375 

Q 23.34375 6.203125 30.609375 6.203125 

Q 37.796875 6.203125 41.984375 11.859375 

Q 46.1875 17.53125 46.1875 27.296875 

Q 46.1875 37.015625 41.984375 42.703125 

Q 37.796875 48.390625 30.609375 48.390625 

z

M 30.609375 56 

Q 42.328125 56 49.015625 48.375 

Q 55.71875 40.765625 55.71875 27.296875 

Q 55.71875 13.875 49.015625 6.21875 

Q 42.328125 -1.421875 30.609375 -1.421875 

Q 18.84375 -1.421875 12.171875 6.21875 

Q 5.515625 13.875 5.515625 27.296875 

Q 5.515625 40.765625 12.171875 48.375 

Q 18.84375 56 30.609375 56 

z

" id="DejaVuSans-6f"/>

      <path d="M 37.109375 75.984375 

L 37.109375 68.5 

L 28.515625 68.5 

Q 23.6875 68.5 21.796875 66.546875 

Q 19.921875 64.59375 19.921875 59.515625 

L 19.921875 54.6875 

L 34.71875 54.6875 

L 34.71875 47.703125 

L 19.921875 47.703125 

L 19.921875 0 

L 10.890625 0 

L 10.890625 47.703125 

L 2.296875 47.703125 

L 2.296875 54.6875 

L 10.890625 54.6875 

L 10.890625 58.5 

Q 10.890625 67.625 15.140625 71.796875 

Q 19.390625 75.984375 28.609375 75.984375 

z

" id="DejaVuSans-66"/>

      <path d="M 48.78125 52.59375 

L 48.78125 44.1875 

Q 44.96875 46.296875 41.140625 47.34375 

Q 37.3125 48.390625 33.40625 48.390625 

Q 24.65625 48.390625 19.8125 42.84375 

Q 14.984375 37.3125 14.984375 27.296875 

Q 14.984375 17.28125 19.8125 11.734375 

Q 24.65625 6.203125 33.40625 6.203125 

Q 37.3125 6.203125 41.140625 7.25 

Q 44.96875 8.296875 48.78125 10.40625 

L 48.78125 2.09375 

Q 45.015625 0.34375 40.984375 -0.53125 

Q 36.96875 -1.421875 32.421875 -1.421875 

Q 20.0625 -1.421875 12.78125 6.34375 

Q 5.515625 14.109375 5.515625 27.296875 

Q 5.515625 40.671875 12.859375 48.328125 

Q 20.21875 56 33.015625 56 

Q 37.15625 56 41.109375 55.140625 

Q 45.0625 54.296875 48.78125 52.59375 

z

" id="DejaVuSans-63"/>

      <path d="M 9.421875 54.6875 

L 18.40625 54.6875 

L 18.40625 0 

L 9.421875 0 

z

M 9.421875 75.984375 

L 18.40625 75.984375 

L 18.40625 64.59375 

L 9.421875 64.59375 

z

" id="DejaVuSans-69"/>

      <path d="M 54.890625 33.015625 

L 54.890625 0 

L 45.90625 0 

L 45.90625 32.71875 

Q 45.90625 40.484375 42.875 44.328125 

Q 39.84375 48.1875 33.796875 48.1875 

Q 26.515625 48.1875 22.3125 43.546875 

Q 18.109375 38.921875 18.109375 30.90625 

L 18.109375 0 

L 9.078125 0 

L 9.078125 54.6875 

L 18.109375 54.6875 

L 18.109375 46.1875 

Q 21.34375 51.125 25.703125 53.5625 

Q 30.078125 56 35.796875 56 

Q 45.21875 56 50.046875 50.171875 

Q 54.890625 44.34375 54.890625 33.015625 

z

" id="DejaVuSans-6e"/>

      <path d="M 18.3125 70.21875 

L 18.3125 54.6875 

L 36.8125 54.6875 

L 36.8125 47.703125 

L 18.3125 47.703125 

L 18.3125 18.015625 

Q 18.3125 11.328125 20.140625 9.421875 

Q 21.96875 7.515625 27.59375 7.515625 

L 36.8125 7.515625 

L 36.8125 0 

L 27.59375 0 

Q 17.1875 0 13.234375 3.875 

Q 9.28125 7.765625 9.28125 18.015625 

L 9.28125 47.703125 

L 2.6875 47.703125 

L 2.6875 54.6875 

L 9.28125 54.6875 

L 9.28125 70.21875 

z

" id="DejaVuSans-74"/>

     </defs>

     <g transform="translate(166.334375 256.416562)scale(0.1 -0.1)">

      <use xlink:href="#DejaVuSans-44"/>

      <use x="77.001953" xlink:href="#DejaVuSans-65"/>

      <use x="138.525391" xlink:href="#DejaVuSans-67"/>

      <use x="202.001953" xlink:href="#DejaVuSans-72"/>

      <use x="243.083984" xlink:href="#DejaVuSans-65"/>

      <use x="304.607422" xlink:href="#DejaVuSans-65"/>

      <use x="366.130859" xlink:href="#DejaVuSans-20"/>

      <use x="397.917969" xlink:href="#DejaVuSans-6f"/>

      <use x="459.099609" xlink:href="#DejaVuSans-66"/>

      <use x="494.304688" xlink:href="#DejaVuSans-20"/>

      <use x="526.091797" xlink:href="#DejaVuSans-63"/>

      <use x="581.072266" xlink:href="#DejaVuSans-6f"/>

      <use x="642.253906" xlink:href="#DejaVuSans-65"/>

      <use x="703.777344" xlink:href="#DejaVuSans-66"/>

      <use x="738.982422" xlink:href="#DejaVuSans-66"/>

      <use x="774.1875" xlink:href="#DejaVuSans-69"/>

      <use x="801.970703" xlink:href="#DejaVuSans-63"/>

      <use x="856.951172" xlink:href="#DejaVuSans-69"/>

      <use x="884.734375" xlink:href="#DejaVuSans-65"/>

      <use x="946.257812" xlink:href="#DejaVuSans-6e"/>

      <use x="1009.636719" xlink:href="#DejaVuSans-74"/>

     </g>

    </g>

   </g>

   <g id="matplotlib.axis_2">

    <g id="ytick_1">

     <g id="line2d_7">

      <defs>

       <path d="M 0 0 

L -3.5 0 

" id="mbc6997af33" style="stroke:#000000;stroke-width:0.8;"/>

      </defs>

      <g>

       <use style="stroke:#000000;stroke-width:0.8;" x="51.378125" xlink:href="#mbc6997af33" y="223.023968"/>

      </g>

     </g>

     <g id="text_8">

      <!-- $\mathdefault{10^{-4}}$ -->

      <defs>

       <path d="M 10.59375 35.5 

L 73.1875 35.5 

L 73.1875 27.203125 

L 10.59375 27.203125 

z

" id="DejaVuSans-2212"/>

      </defs>

      <g transform="translate(20.878125 226.823186)scale(0.1 -0.1)">

       <use transform="translate(0 0.684375)" xlink:href="#DejaVuSans-31"/>

       <use transform="translate(63.623047 0.684375)" xlink:href="#DejaVuSans-30"/>

       <use transform="translate(128.203125 38.965625)scale(0.7)" xlink:href="#DejaVuSans-2212"/>

       <use transform="translate(186.855469 38.965625)scale(0.7)" xlink:href="#DejaVuSans-34"/>

      </g>

     </g>

    </g>

    <g id="ytick_2">

     <g id="line2d_8">

      <g>

       <use style="stroke:#000000;stroke-width:0.8;" x="51.378125" xlink:href="#mbc6997af33" y="175.035038"/>

      </g>

     </g>

     <g id="text_9">

      <!-- $\mathdefault{10^{-3}}$ -->

      <defs>

       <path d="M 40.578125 39.3125 

Q 47.65625 37.796875 51.625 33 

Q 55.609375 28.21875 55.609375 21.1875 

Q 55.609375 10.40625 48.1875 4.484375 

Q 40.765625 -1.421875 27.09375 -1.421875 

Q 22.515625 -1.421875 17.65625 -0.515625 

Q 12.796875 0.390625 7.625 2.203125 

L 7.625 11.71875 

Q 11.71875 9.328125 16.59375 8.109375 

Q 21.484375 6.890625 26.8125 6.890625 

Q 36.078125 6.890625 40.9375 10.546875 

Q 45.796875 14.203125 45.796875 21.1875 

Q 45.796875 27.640625 41.28125 31.265625 

Q 36.765625 34.90625 28.71875 34.90625 

L 20.21875 34.90625 

L 20.21875 43.015625 

L 29.109375 43.015625 

Q 36.375 43.015625 40.234375 45.921875 

Q 44.09375 48.828125 44.09375 54.296875 

Q 44.09375 59.90625 40.109375 62.90625 

Q 36.140625 65.921875 28.71875 65.921875 

Q 24.65625 65.921875 20.015625 65.03125 

Q 15.375 64.15625 9.8125 62.3125 

L 9.8125 71.09375 

Q 15.4375 72.65625 20.34375 73.4375 

Q 25.25 74.21875 29.59375 74.21875 

Q 40.828125 74.21875 47.359375 69.109375 

Q 53.90625 64.015625 53.90625 55.328125 

Q 53.90625 49.265625 50.4375 45.09375 

Q 46.96875 40.921875 40.578125 39.3125 

z

" id="DejaVuSans-33"/>

      </defs>

      <g transform="translate(20.878125 178.834256)scale(0.1 -0.1)">

       <use transform="translate(0 0.765625)" xlink:href="#DejaVuSans-31"/>

       <use transform="translate(63.623047 0.765625)" xlink:href="#DejaVuSans-30"/>

       <use transform="translate(128.203125 39.046875)scale(0.7)" xlink:href="#DejaVuSans-2212"/>

       <use transform="translate(186.855469 39.046875)scale(0.7)" xlink:href="#DejaVuSans-33"/>

      </g>

     </g>

    </g>

    <g id="ytick_3">

     <g id="line2d_9">

      <g>

       <use style="stroke:#000000;stroke-width:0.8;" x="51.378125" xlink:href="#mbc6997af33" y="127.046108"/>

      </g>

     </g>

     <g id="text_10">

      <!-- $\mathdefault{10^{-2}}$ -->

      <g transform="translate(20.878125 130.845326)scale(0.1 -0.1)">

       <use transform="translate(0 0.765625)" xlink:href="#DejaVuSans-31"/>

       <use transform="translate(63.623047 0.765625)" xlink:href="#DejaVuSans-30"/>

       <use transform="translate(128.203125 39.046875)scale(0.7)" xlink:href="#DejaVuSans-2212"/>

       <use transform="translate(186.855469 39.046875)scale(0.7)" xlink:href="#DejaVuSans-32"/>

      </g>

     </g>

    </g>

    <g id="ytick_4">

     <g id="line2d_10">

      <g>

       <use style="stroke:#000000;stroke-width:0.8;" x="51.378125" xlink:href="#mbc6997af33" y="79.057177"/>

      </g>

     </g>

     <g id="text_11">

      <!-- $\mathdefault{10^{-1}}$ -->

      <g transform="translate(20.878125 82.856396)scale(0.1 -0.1)">

       <use transform="translate(0 0.684375)" xlink:href="#DejaVuSans-31"/>

       <use transform="translate(63.623047 0.684375)" xlink:href="#DejaVuSans-30"/>

       <use transform="translate(128.203125 38.965625)scale(0.7)" xlink:href="#DejaVuSans-2212"/>

       <use transform="translate(186.855469 38.965625)scale(0.7)" xlink:href="#DejaVuSans-31"/>

      </g>

     </g>

    </g>

    <g id="ytick_5">

     <g id="line2d_11">

      <g>

       <use style="stroke:#000000;stroke-width:0.8;" x="51.378125" xlink:href="#mbc6997af33" y="31.068247"/>

      </g>

     </g>

     <g id="text_12">

      <!-- $\mathdefault{10^{0}}$ -->

      <g transform="translate(26.778125 34.867466)scale(0.1 -0.1)">

       <use transform="translate(0 0.765625)" xlink:href="#DejaVuSans-31"/>

       <use transform="translate(63.623047 0.765625)" xlink:href="#DejaVuSans-30"/>

       <use transform="translate(128.203125 39.046875)scale(0.7)" xlink:href="#DejaVuSans-30"/>

      </g>

     </g>

    </g>

    <g id="ytick_6">

     <g id="line2d_12">

      <defs>

       <path d="M 0 0 

L -2 0 

" id="m64b6711bae" style="stroke:#000000;stroke-width:0.6;"/>

      </defs>

      <g>

       <use style="stroke:#000000;stroke-width:0.6;" x="51.378125" xlink:href="#m64b6711bae" y="227.674575"/>

      </g>

     </g>

    </g>

    <g id="ytick_7">

     <g id="line2d_13">

      <g>

       <use style="stroke:#000000;stroke-width:0.6;" x="51.378125" xlink:href="#m64b6711bae" y="225.219821"/>

      </g>

     </g>

    </g>

    <g id="ytick_8">

     <g id="line2d_14">

      <g>

       <use style="stroke:#000000;stroke-width:0.6;" x="51.378125" xlink:href="#m64b6711bae" y="208.57786"/>

      </g>

     </g>

    </g>

    <g id="ytick_9">

     <g id="line2d_15">

      <g>

       <use style="stroke:#000000;stroke-width:0.6;" x="51.378125" xlink:href="#m64b6711bae" y="200.127429"/>

      </g>

     </g>

    </g>

    <g id="ytick_10">

     <g id="line2d_16">

      <g>

       <use style="stroke:#000000;stroke-width:0.6;" x="51.378125" xlink:href="#m64b6711bae" y="194.131753"/>

      </g>

     </g>

    </g>

    <g id="ytick_11">

     <g id="line2d_17">

      <g>

       <use style="stroke:#000000;stroke-width:0.6;" x="51.378125" xlink:href="#m64b6711bae" y="189.481145"/>

      </g>

     </g>

    </g>

    <g id="ytick_12">

     <g id="line2d_18">

      <g>

       <use style="stroke:#000000;stroke-width:0.6;" x="51.378125" xlink:href="#m64b6711bae" y="185.681322"/>

      </g>

     </g>

    </g>

    <g id="ytick_13">

     <g id="line2d_19">

      <g>

       <use style="stroke:#000000;stroke-width:0.6;" x="51.378125" xlink:href="#m64b6711bae" y="182.468617"/>

      </g>

     </g>

    </g>

    <g id="ytick_14">

     <g id="line2d_20">

      <g>

       <use style="stroke:#000000;stroke-width:0.6;" x="51.378125" xlink:href="#m64b6711bae" y="179.685645"/>

      </g>

     </g>

    </g>

    <g id="ytick_15">

     <g id="line2d_21">

      <g>

       <use style="stroke:#000000;stroke-width:0.6;" x="51.378125" xlink:href="#m64b6711bae" y="177.230891"/>

      </g>

     </g>

    </g>

    <g id="ytick_16">

     <g id="line2d_22">

      <g>

       <use style="stroke:#000000;stroke-width:0.6;" x="51.378125" xlink:href="#m64b6711bae" y="160.58893"/>

      </g>

     </g>

    </g>

    <g id="ytick_17">

     <g id="line2d_23">

      <g>

       <use style="stroke:#000000;stroke-width:0.6;" x="51.378125" xlink:href="#m64b6711bae" y="152.138499"/>

      </g>

     </g>

    </g>

    <g id="ytick_18">

     <g id="line2d_24">

      <g>

       <use style="stroke:#000000;stroke-width:0.6;" x="51.378125" xlink:href="#m64b6711bae" y="146.142823"/>

      </g>

     </g>

    </g>

    <g id="ytick_19">

     <g id="line2d_25">

      <g>

       <use style="stroke:#000000;stroke-width:0.6;" x="51.378125" xlink:href="#m64b6711bae" y="141.492215"/>

      </g>

     </g>

    </g>

    <g id="ytick_20">

     <g id="line2d_26">

      <g>

       <use style="stroke:#000000;stroke-width:0.6;" x="51.378125" xlink:href="#m64b6711bae" y="137.692392"/>

      </g>

     </g>

    </g>

    <g id="ytick_21">

     <g id="line2d_27">

      <g>

       <use style="stroke:#000000;stroke-width:0.6;" x="51.378125" xlink:href="#m64b6711bae" y="134.479687"/>

      </g>

     </g>

    </g>

    <g id="ytick_22">

     <g id="line2d_28">

      <g>

       <use style="stroke:#000000;stroke-width:0.6;" x="51.378125" xlink:href="#m64b6711bae" y="131.696715"/>

      </g>

     </g>

    </g>

    <g id="ytick_23">

     <g id="line2d_29">

      <g>

       <use style="stroke:#000000;stroke-width:0.6;" x="51.378125" xlink:href="#m64b6711bae" y="129.241961"/>

      </g>

     </g>

    </g>

    <g id="ytick_24">

     <g id="line2d_30">

      <g>

       <use style="stroke:#000000;stroke-width:0.6;" x="51.378125" xlink:href="#m64b6711bae" y="112.6"/>

      </g>

     </g>

    </g>

    <g id="ytick_25">

     <g id="line2d_31">

      <g>

       <use style="stroke:#000000;stroke-width:0.6;" x="51.378125" xlink:href="#m64b6711bae" y="104.149569"/>

      </g>

     </g>

    </g>

    <g id="ytick_26">

     <g id="line2d_32">

      <g>

       <use style="stroke:#000000;stroke-width:0.6;" x="51.378125" xlink:href="#m64b6711bae" y="98.153893"/>

      </g>

     </g>

    </g>

    <g id="ytick_27">

     <g id="line2d_33">

      <g>

       <use style="stroke:#000000;stroke-width:0.6;" x="51.378125" xlink:href="#m64b6711bae" y="93.503285"/>

      </g>

     </g>

    </g>

    <g id="ytick_28">

     <g id="line2d_34">

      <g>

       <use style="stroke:#000000;stroke-width:0.6;" x="51.378125" xlink:href="#m64b6711bae" y="89.703462"/>

      </g>

     </g>

    </g>

    <g id="ytick_29">

     <g id="line2d_35">

      <g>

       <use style="stroke:#000000;stroke-width:0.6;" x="51.378125" xlink:href="#m64b6711bae" y="86.490757"/>

      </g>

     </g>

    </g>

    <g id="ytick_30">

     <g id="line2d_36">

      <g>

       <use style="stroke:#000000;stroke-width:0.6;" x="51.378125" xlink:href="#m64b6711bae" y="83.707785"/>

      </g>

     </g>

    </g>

    <g id="ytick_31">

     <g id="line2d_37">

      <g>

       <use style="stroke:#000000;stroke-width:0.6;" x="51.378125" xlink:href="#m64b6711bae" y="81.25303"/>

      </g>

     </g>

    </g>

    <g id="ytick_32">

     <g id="line2d_38">

      <g>

       <use style="stroke:#000000;stroke-width:0.6;" x="51.378125" xlink:href="#m64b6711bae" y="64.61107"/>

      </g>

     </g>

    </g>

    <g id="ytick_33">

     <g id="line2d_39">

      <g>

       <use style="stroke:#000000;stroke-width:0.6;" x="51.378125" xlink:href="#m64b6711bae" y="56.160639"/>

      </g>

     </g>

    </g>

    <g id="ytick_34">

     <g id="line2d_40">

      <g>

       <use style="stroke:#000000;stroke-width:0.6;" x="51.378125" xlink:href="#m64b6711bae" y="50.164963"/>

      </g>

     </g>

    </g>

    <g id="ytick_35">

     <g id="line2d_41">

      <g>

       <use style="stroke:#000000;stroke-width:0.6;" x="51.378125" xlink:href="#m64b6711bae" y="45.514355"/>

      </g>

     </g>

    </g>

    <g id="ytick_36">

     <g id="line2d_42">

      <g>

       <use style="stroke:#000000;stroke-width:0.6;" x="51.378125" xlink:href="#m64b6711bae" y="41.714532"/>

      </g>

     </g>

    </g>

    <g id="ytick_37">

     <g id="line2d_43">

      <g>

       <use style="stroke:#000000;stroke-width:0.6;" x="51.378125" xlink:href="#m64b6711bae" y="38.501827"/>

      </g>

     </g>

    </g>

    <g id="ytick_38">

     <g id="line2d_44">

      <g>

       <use style="stroke:#000000;stroke-width:0.6;" x="51.378125" xlink:href="#m64b6711bae" y="35.718855"/>

      </g>

     </g>

    </g>

    <g id="ytick_39">

     <g id="line2d_45">

      <g>

       <use style="stroke:#000000;stroke-width:0.6;" x="51.378125" xlink:href="#m64b6711bae" y="33.2641"/>

      </g>

     </g>

    </g>

    <g id="ytick_40">

     <g id="line2d_46">

      <g>

       <use style="stroke:#000000;stroke-width:0.6;" x="51.378125" xlink:href="#m64b6711bae" y="16.62214"/>

      </g>

     </g>

    </g>

    <g id="text_13">

     <!-- Coefficient weight -->

     <defs>

      <path d="M 64.40625 67.28125 

L 64.40625 56.890625 

Q 59.421875 61.53125 53.78125 63.8125 

Q 48.140625 66.109375 41.796875 66.109375 

Q 29.296875 66.109375 22.65625 58.46875 

Q 16.015625 50.828125 16.015625 36.375 

Q 16.015625 21.96875 22.65625 14.328125 

Q 29.296875 6.6875 41.796875 6.6875 

Q 48.140625 6.6875 53.78125 8.984375 

Q 59.421875 11.28125 64.40625 15.921875 

L 64.40625 5.609375 

Q 59.234375 2.09375 53.4375 0.328125 

Q 47.65625 -1.421875 41.21875 -1.421875 

Q 24.65625 -1.421875 15.125 8.703125 

Q 5.609375 18.84375 5.609375 36.375 

Q 5.609375 53.953125 15.125 64.078125 

Q 24.65625 74.21875 41.21875 74.21875 

Q 47.75 74.21875 53.53125 72.484375 

Q 59.328125 70.75 64.40625 67.28125 

z

" id="DejaVuSans-43"/>

      <path d="M 4.203125 54.6875 

L 13.1875 54.6875 

L 24.421875 12.015625 

L 35.59375 54.6875 

L 46.1875 54.6875 

L 57.421875 12.015625 

L 68.609375 54.6875 

L 77.59375 54.6875 

L 63.28125 0 

L 52.6875 0 

L 40.921875 44.828125 

L 29.109375 0 

L 18.5 0 

z

" id="DejaVuSans-77"/>

      <path d="M 54.890625 33.015625 

L 54.890625 0 

L 45.90625 0 

L 45.90625 32.71875 

Q 45.90625 40.484375 42.875 44.328125 

Q 39.84375 48.1875 33.796875 48.1875 

Q 26.515625 48.1875 22.3125 43.546875 

Q 18.109375 38.921875 18.109375 30.90625 

L 18.109375 0 

L 9.078125 0 

L 9.078125 75.984375 

L 18.109375 75.984375 

L 18.109375 46.1875 

Q 21.34375 51.125 25.703125 53.5625 

Q 30.078125 56 35.796875 56 

Q 45.21875 56 50.046875 50.171875 

Q 54.890625 44.34375 54.890625 33.015625 

z

" id="DejaVuSans-68"/>

     </defs>

     <g transform="translate(14.798438 164.747344)rotate(-90)scale(0.1 -0.1)">

      <use xlink:href="#DejaVuSans-43"/>

      <use x="69.824219" xlink:href="#DejaVuSans-6f"/>

      <use x="131.005859" xlink:href="#DejaVuSans-65"/>

      <use x="192.529297" xlink:href="#DejaVuSans-66"/>

      <use x="227.734375" xlink:href="#DejaVuSans-66"/>

      <use x="262.939453" xlink:href="#DejaVuSans-69"/>

      <use x="290.722656" xlink:href="#DejaVuSans-63"/>

      <use x="345.703125" xlink:href="#DejaVuSans-69"/>

      <use x="373.486328" xlink:href="#DejaVuSans-65"/>

      <use x="435.009766" xlink:href="#DejaVuSans-6e"/>

      <use x="498.388672" xlink:href="#DejaVuSans-74"/>

      <use x="537.597656" xlink:href="#DejaVuSans-20"/>

      <use x="569.384766" xlink:href="#DejaVuSans-77"/>

      <use x="651.171875" xlink:href="#DejaVuSans-65"/>

      <use x="712.695312" xlink:href="#DejaVuSans-69"/>

      <use x="740.478516" xlink:href="#DejaVuSans-67"/>

      <use x="803.955078" xlink:href="#DejaVuSans-68"/>

      <use x="867.333984" xlink:href="#DejaVuSans-74"/>

     </g>

    </g>

   </g>

   <g id="line2d_47">

    <path clip-path="url(#p96a0c770ea)" d="M 66.596307 20.583636 

L 69.639943 53.526274 

L 72.68358 43.335932 

L 75.727216 52.04969 

L 78.770852 52.923064 

L 81.814489 58.382867 

L 84.858125 66.623549 

L 87.901761 71.814613 

L 90.945398 85.259245 

L 93.989034 90.862834 

L 97.03267 121.407381 

L 100.076307 131.078157 

L 103.119943 113.316093 

L 106.16358 115.752008 

L 109.207216 100.946306 

L 112.250852 104.805958 

L 115.294489 97.565006 

L 118.338125 101.975255 

L 121.381761 97.099907 

L 124.425398 101.928225 

L 127.469034 98.031906 

L 130.51267 103.252799 

L 133.556307 99.756315 

L 136.599943 105.373956 

L 139.64358 101.979598 

L 142.687216 108.008528 

L 145.730852 104.544023 

L 148.774489 111.00237 

L 151.818125 107.36126 

L 154.861761 114.267596 

L 157.905398 110.38303 

L 160.949034 117.754408 

L 163.99267 113.586994 

L 167.036307 121.437259 

L 170.079943 116.969943 

L 173.12358 125.307867 

L 176.167216 120.545175 

L 179.210852 129.371999 

L 182.254489 124.342959 

L 185.298125 133.648794 

L 188.341761 128.414233 

L 191.385398 138.172352 

L 194.429034 132.839005 

L 197.47267 142.996111 

L 200.516307 137.743383 

L 203.559943 148.201675 

L 206.60358 143.335299 

L 209.647216 153.916119 

L 212.690852 149.987785 

L 215.734489 160.347898 

L 218.778125 158.471134 

L 221.821761 167.870219 

L 224.865398 170.837816 

L 227.909034 177.253179 

L 230.95267 197.600585 

L 233.996307 190.548142 

L 237.039943 191.561588 

L 240.08358 218.256364 

L 243.127216 171.908795 

L 246.170852 213.246337 

L 249.214489 162.793002 

L 252.258125 194.604636 

L 255.301761 157.020467 

L 258.345398 186.537401 

L 261.389034 152.902677 

L 264.43267 181.844456 

L 267.476307 149.768619 

L 270.519943 178.836538 

L 273.56358 147.282956 

L 276.607216 176.842574 

L 279.650852 145.254122 

L 282.694489 175.527444 

L 285.738125 143.562543 

L 288.781761 174.699994 

L 291.825398 142.12871 

L 294.869034 174.241256 

L 297.91267 140.897191 

L 300.956307 174.072535 

L 303.999943 139.82789 

L 307.04358 174.13944 

L 310.087216 138.890935 

L 313.130852 174.403176 

L 316.174489 138.063534 

L 319.218125 174.835463 

L 322.261761 137.327942 

L 325.305398 175.415433 

L 328.349034 136.670109 

L 331.39267 176.12765 

L 334.436307 136.078749 

L 337.479943 176.960817 

L 340.52358 135.544679 

L 343.567216 177.90692 

L 346.610852 135.060347 

L 349.654489 178.960662 

L 352.698125 134.619481 

L 355.741761 180.119112 

L 358.785398 134.216823 

L 361.829034 181.381499 

L 364.87267 133.847935 

L 367.916307 182.749155 

L 370.959943 133.509042 

" style="fill:none;stroke:#1f77b4;stroke-linecap:square;stroke-width:1.5;"/>

   </g>

   <g id="patch_3">

    <path d="M 51.378125 228.14 

L 51.378125 10.7 

" style="fill:none;stroke:#000000;stroke-linecap:square;stroke-linejoin:miter;stroke-width:0.8;"/>

   </g>

   <g id="patch_4">

    <path d="M 386.178125 228.14 

L 386.178125 10.7 

" style="fill:none;stroke:#000000;stroke-linecap:square;stroke-linejoin:miter;stroke-width:0.8;"/>

   </g>

   <g id="patch_5">

    <path d="M 51.378125 228.14 

L 386.178125 228.14 

" style="fill:none;stroke:#000000;stroke-linecap:square;stroke-linejoin:miter;stroke-width:0.8;"/>

   </g>

   <g id="patch_6">

    <path d="M 51.378125 10.7 

L 386.178125 10.7 

" style="fill:none;stroke:#000000;stroke-linecap:square;stroke-linejoin:miter;stroke-width:0.8;"/>

   </g>

  </g>

 </g>

 <defs>

  <clipPath id="p96a0c770ea">

   <rect height="217.44" width="334.8" x="51.378125" y="10.7"/>

  </clipPath>

 </defs>

</svg>
