<?xml version="1.0" encoding="utf-8" standalone="no"?>

<!DOCTYPE svg PUBLIC "-//W3C//DTD SVG 1.1//EN"

  "http://www.w3.org/Graphics/SVG/1.1/DTD/svg11.dtd">

<!-- Created with matplotlib (http://matplotlib.org/) -->

<svg height="265pt" version="1.1" viewBox="0 0 390 265" width="390pt" xmlns="http://www.w3.org/2000/svg" xmlns:xlink="http://www.w3.org/1999/xlink">

 <defs>

  <style type="text/css">

*{stroke-linecap:butt;stroke-linejoin:round;}

  </style>

 </defs>

 <g id="figure_1">

  <g id="patch_1">

   <path d="M 0 265.69625 

L 390.978125 265.69625 

L 390.978125 0 

L 0 0 

z

" style="fill:none;"/>

  </g>

  <g id="axes_1">

   <g id="patch_2">

    <path d="M 45.478125 228.14 

L 380.278125 228.14 

L 380.278125 10.7 

L 45.478125 10.7 

z

" style="fill:#ffffff;"/>

   </g>

   <g id="matplotlib.axis_1">

    <g id="xtick_1">

     <g id="line2d_1">

      <defs>

       <path d="M 0 0 

L 0 3.5 

" id="m7c5e09f69f" style="stroke:#000000;stroke-width:0.8;"/>

      </defs>

      <g>

       <use style="stroke:#000000;stroke-width:0.8;" x="60.696307" xlink:href="#m7c5e09f69f" y="228.14"/>

      </g>

     </g>

     <g id="text_1">

      <!-- 0 -->

      <defs>

       <path d="M 31.78125 66.40625 

Q 24.171875 66.40625 20.328125 58.90625 

Q 16.5 51.421875 16.5 36.375 

Q 16.5 21.390625 20.328125 13.890625 

Q 24.171875 6.390625 31.78125 6.390625 

Q 39.453125 6.390625 43.28125 13.890625 

Q 47.125 21.390625 47.125 36.375 

Q 47.125 51.421875 43.28125 58.90625 

Q 39.453125 66.40625 31.78125 66.40625 

z

M 31.78125 74.21875 

Q 44.046875 74.21875 50.515625 64.515625 

Q 56.984375 54.828125 56.984375 36.375 

Q 56.984375 17.96875 50.515625 8.265625 

Q 44.046875 -1.421875 31.78125 -1.421875 

Q 19.53125 -1.421875 13.0625 8.265625 

Q 6.59375 17.96875 6.59375 36.375 

Q 6.59375 54.828125 13.0625 64.515625 

Q 19.53125 74.21875 31.78125 74.21875 

z

" id="DejaVuSans-30"/>

      </defs>

      <g transform="translate(57.515057 242.738437)scale(0.1 -0.1)">

       <use xlink:href="#DejaVuSans-30"/>

      </g>

     </g>

    </g>

    <g id="xtick_2">

     <g id="line2d_2">

      <g>

       <use style="stroke:#000000;stroke-width:0.8;" x="121.569034" xlink:href="#m7c5e09f69f" y="228.14"/>

      </g>

     </g>

     <g id="text_2">

      <!-- 20 -->

      <defs>

       <path d="M 19.1875 8.296875 

L 53.609375 8.296875 

L 53.609375 0 

L 7.328125 0 

L 7.328125 8.296875 

Q 12.9375 14.109375 22.625 23.890625 

Q 32.328125 33.6875 34.8125 36.53125 

Q 39.546875 41.84375 41.421875 45.53125 

Q 43.3125 49.21875 43.3125 52.78125 

Q 43.3125 58.59375 39.234375 62.25 

Q 35.15625 65.921875 28.609375 65.921875 

Q 23.96875 65.921875 18.8125 64.3125 

Q 13.671875 62.703125 7.8125 59.421875 

L 7.8125 69.390625 

Q 13.765625 71.78125 18.9375 73 

Q 24.125 74.21875 28.421875 74.21875 

Q 39.75 74.21875 46.484375 68.546875 

Q 53.21875 62.890625 53.21875 53.421875 

Q 53.21875 48.921875 51.53125 44.890625 

Q 49.859375 40.875 45.40625 35.40625 

Q 44.1875 33.984375 37.640625 27.21875 

Q 31.109375 20.453125 19.1875 8.296875 

z

" id="DejaVuSans-32"/>

      </defs>

      <g transform="translate(115.206534 242.738437)scale(0.1 -0.1)">

       <use xlink:href="#DejaVuSans-32"/>

       <use x="63.623047" xlink:href="#DejaVuSans-30"/>

      </g>

     </g>

    </g>

    <g id="xtick_3">

     <g id="line2d_3">

      <g>

       <use style="stroke:#000000;stroke-width:0.8;" x="182.441761" xlink:href="#m7c5e09f69f" y="228.14"/>

      </g>

     </g>

     <g id="text_3">

      <!-- 40 -->

      <defs>

       <path d="M 37.796875 64.3125 

L 12.890625 25.390625 

L 37.796875 25.390625 

z

M 35.203125 72.90625 

L 47.609375 72.90625 

L 47.609375 25.390625 

L 58.015625 25.390625 

L 58.015625 17.1875 

L 47.609375 17.1875 

L 47.609375 0 

L 37.796875 0 

L 37.796875 17.1875 

L 4.890625 17.1875 

L 4.890625 26.703125 

z

" id="DejaVuSans-34"/>

      </defs>

      <g transform="translate(176.079261 242.738437)scale(0.1 -0.1)">

       <use xlink:href="#DejaVuSans-34"/>

       <use x="63.623047" xlink:href="#DejaVuSans-30"/>

      </g>

     </g>

    </g>

    <g id="xtick_4">

     <g id="line2d_4">

      <g>

       <use style="stroke:#000000;stroke-width:0.8;" x="243.314489" xlink:href="#m7c5e09f69f" y="228.14"/>

      </g>

     </g>

     <g id="text_4">

      <!-- 60 -->

      <defs>

       <path d="M 33.015625 40.375 

Q 26.375 40.375 22.484375 35.828125 

Q 18.609375 31.296875 18.609375 23.390625 

Q 18.609375 15.53125 22.484375 10.953125 

Q 26.375 6.390625 33.015625 6.390625 

Q 39.65625 6.390625 43.53125 10.953125 

Q 47.40625 15.53125 47.40625 23.390625 

Q 47.40625 31.296875 43.53125 35.828125 

Q 39.65625 40.375 33.015625 40.375 

z

M 52.59375 71.296875 

L 52.59375 62.3125 

Q 48.875 64.0625 45.09375 64.984375 

Q 41.3125 65.921875 37.59375 65.921875 

Q 27.828125 65.921875 22.671875 59.328125 

Q 17.53125 52.734375 16.796875 39.40625 

Q 19.671875 43.65625 24.015625 45.921875 

Q 28.375 48.1875 33.59375 48.1875 

Q 44.578125 48.1875 50.953125 41.515625 

Q 57.328125 34.859375 57.328125 23.390625 

Q 57.328125 12.15625 50.6875 5.359375 

Q 44.046875 -1.421875 33.015625 -1.421875 

Q 20.359375 -1.421875 13.671875 8.265625 

Q 6.984375 17.96875 6.984375 36.375 

Q 6.984375 53.65625 15.1875 63.9375 

Q 23.390625 74.21875 37.203125 74.21875 

Q 40.921875 74.21875 44.703125 73.484375 

Q 48.484375 72.75 52.59375 71.296875 

z

" id="DejaVuSans-36"/>

      </defs>

      <g transform="translate(236.951989 242.738437)scale(0.1 -0.1)">

       <use xlink:href="#DejaVuSans-36"/>

       <use x="63.623047" xlink:href="#DejaVuSans-30"/>

      </g>

     </g>

    </g>

    <g id="xtick_5">

     <g id="line2d_5">

      <g>

       <use style="stroke:#000000;stroke-width:0.8;" x="304.187216" xlink:href="#m7c5e09f69f" y="228.14"/>

      </g>

     </g>

     <g id="text_5">

      <!-- 80 -->

      <defs>

       <path d="M 31.78125 34.625 

Q 24.75 34.625 20.71875 30.859375 

Q 16.703125 27.09375 16.703125 20.515625 

Q 16.703125 13.921875 20.71875 10.15625 

Q 24.75 6.390625 31.78125 6.390625 

Q 38.8125 6.390625 42.859375 10.171875 

Q 46.921875 13.96875 46.921875 20.515625 

Q 46.921875 27.09375 42.890625 30.859375 

Q 38.875 34.625 31.78125 34.625 

z

M 21.921875 38.8125 

Q 15.578125 40.375 12.03125 44.71875 

Q 8.5 49.078125 8.5 55.328125 

Q 8.5 64.0625 14.71875 69.140625 

Q 20.953125 74.21875 31.78125 74.21875 

Q 42.671875 74.21875 48.875 69.140625 

Q 55.078125 64.0625 55.078125 55.328125 

Q 55.078125 49.078125 51.53125 44.71875 

Q 48 40.375 41.703125 38.8125 

Q 48.828125 37.15625 52.796875 32.3125 

Q 56.78125 27.484375 56.78125 20.515625 

Q 56.78125 9.90625 50.3125 4.234375 

Q 43.84375 -1.421875 31.78125 -1.421875 

Q 19.734375 -1.421875 13.25 4.234375 

Q 6.78125 9.90625 6.78125 20.515625 

Q 6.78125 27.484375 10.78125 32.3125 

Q 14.796875 37.15625 21.921875 38.8125 

z

M 18.3125 54.390625 

Q 18.3125 48.734375 21.84375 45.5625 

Q 25.390625 42.390625 31.78125 42.390625 

Q 38.140625 42.390625 41.71875 45.5625 

Q 45.3125 48.734375 45.3125 54.390625 

Q 45.3125 60.0625 41.71875 63.234375 

Q 38.140625 66.40625 31.78125 66.40625 

Q 25.390625 66.40625 21.84375 63.234375 

Q 18.3125 60.0625 18.3125 54.390625 

z

" id="DejaVuSans-38"/>

      </defs>

      <g transform="translate(297.824716 242.738437)scale(0.1 -0.1)">

       <use xlink:href="#DejaVuSans-38"/>

       <use x="63.623047" xlink:href="#DejaVuSans-30"/>

      </g>

     </g>

    </g>

    <g id="xtick_6">

     <g id="line2d_6">

      <g>

       <use style="stroke:#000000;stroke-width:0.8;" x="365.059943" xlink:href="#m7c5e09f69f" y="228.14"/>

      </g>

     </g>

     <g id="text_6">

      <!-- 100 -->

      <defs>

       <path d="M 12.40625 8.296875 

L 28.515625 8.296875 

L 28.515625 63.921875 

L 10.984375 60.40625 

L 10.984375 69.390625 

L 28.421875 72.90625 

L 38.28125 72.90625 

L 38.28125 8.296875 

L 54.390625 8.296875 

L 54.390625 0 

L 12.40625 0 

z

" id="DejaVuSans-31"/>

      </defs>

      <g transform="translate(355.516193 242.738437)scale(0.1 -0.1)">

       <use xlink:href="#DejaVuSans-31"/>

       <use x="63.623047" xlink:href="#DejaVuSans-30"/>

       <use x="127.246094" xlink:href="#DejaVuSans-30"/>

      </g>

     </g>

    </g>

    <g id="text_7">

     <!-- Degree of coefficient -->

     <defs>

      <path d="M 19.671875 64.796875 

L 19.671875 8.109375 

L 31.59375 8.109375 

Q 46.6875 8.109375 53.6875 14.9375 

Q 60.6875 21.78125 60.6875 36.53125 

Q 60.6875 51.171875 53.6875 57.984375 

Q 46.6875 64.796875 31.59375 64.796875 

z

M 9.8125 72.90625 

L 30.078125 72.90625 

Q 51.265625 72.90625 61.171875 64.09375 

Q 71.09375 55.28125 71.09375 36.53125 

Q 71.09375 17.671875 61.125 8.828125 

Q 51.171875 0 30.078125 0 

L 9.8125 0 

z

" id="DejaVuSans-44"/>

      <path d="M 56.203125 29.59375 

L 56.203125 25.203125 

L 14.890625 25.203125 

Q 15.484375 15.921875 20.484375 11.0625 

Q 25.484375 6.203125 34.421875 6.203125 

Q 39.59375 6.203125 44.453125 7.46875 

Q 49.3125 8.734375 54.109375 11.28125 

L 54.109375 2.78125 

Q 49.265625 0.734375 44.1875 -0.34375 

Q 39.109375 -1.421875 33.890625 -1.421875 

Q 20.796875 -1.421875 13.15625 6.1875 

Q 5.515625 13.8125 5.515625 26.8125 

Q 5.515625 40.234375 12.765625 48.109375 

Q 20.015625 56 32.328125 56 

Q 43.359375 56 49.78125 48.890625 

Q 56.203125 41.796875 56.203125 29.59375 

z

M 47.21875 32.234375 

Q 47.125 39.59375 43.09375 43.984375 

Q 39.0625 48.390625 32.421875 48.390625 

Q 24.90625 48.390625 20.390625 44.140625 

Q 15.875 39.890625 15.1875 32.171875 

z

" id="DejaVuSans-65"/>

      <path d="M 45.40625 27.984375 

Q 45.40625 37.75 41.375 43.109375 

Q 37.359375 48.484375 30.078125 48.484375 

Q 22.859375 48.484375 18.828125 43.109375 

Q 14.796875 37.75 14.796875 27.984375 

Q 14.796875 18.265625 18.828125 12.890625 

Q 22.859375 7.515625 30.078125 7.515625 

Q 37.359375 7.515625 41.375 12.890625 

Q 45.40625 18.265625 45.40625 27.984375 

z

M 54.390625 6.78125 

Q 54.390625 -7.171875 48.1875 -13.984375 

Q 42 -20.796875 29.203125 -20.796875 

Q 24.46875 -20.796875 20.265625 -20.09375 

Q 16.0625 -19.390625 12.109375 -17.921875 

L 12.109375 -9.1875 

Q 16.0625 -11.328125 19.921875 -12.34375 

Q 23.78125 -13.375 27.78125 -13.375 

Q 36.625 -13.375 41.015625 -8.765625 

Q 45.40625 -4.15625 45.40625 5.171875 

L 45.40625 9.625 

Q 42.625 4.78125 38.28125 2.390625 

Q 33.9375 0 27.875 0 

Q 17.828125 0 11.671875 7.65625 

Q 5.515625 15.328125 5.515625 27.984375 

Q 5.515625 40.671875 11.671875 48.328125 

Q 17.828125 56 27.875 56 

Q 33.9375 56 38.28125 53.609375 

Q 42.625 51.21875 45.40625 46.390625 

L 45.40625 54.6875 

L 54.390625 54.6875 

z

" id="DejaVuSans-67"/>

      <path d="M 41.109375 46.296875 

Q 39.59375 47.171875 37.8125 47.578125 

Q 36.03125 48 33.890625 48 

Q 26.265625 48 22.1875 43.046875 

Q 18.109375 38.09375 18.109375 28.8125 

L 18.109375 0 

L 9.078125 0 

L 9.078125 54.6875 

L 18.109375 54.6875 

L 18.109375 46.1875 

Q 20.953125 51.171875 25.484375 53.578125 

Q 30.03125 56 36.53125 56 

Q 37.453125 56 38.578125 55.875 

Q 39.703125 55.765625 41.0625 55.515625 

z

" id="DejaVuSans-72"/>

      <path id="DejaVuSans-20"/>

      <path d="M 30.609375 48.390625 

Q 23.390625 48.390625 19.1875 42.75 

Q 14.984375 37.109375 14.984375 27.296875 

Q 14.984375 17.484375 19.15625 11.84375 

Q 23.34375 6.203125 30.609375 6.203125 

Q 37.796875 6.203125 41.984375 11.859375 

Q 46.1875 17.53125 46.1875 27.296875 

Q 46.1875 37.015625 41.984375 42.703125 

Q 37.796875 48.390625 30.609375 48.390625 

z

M 30.609375 56 

Q 42.328125 56 49.015625 48.375 

Q 55.71875 40.765625 55.71875 27.296875 

Q 55.71875 13.875 49.015625 6.21875 

Q 42.328125 -1.421875 30.609375 -1.421875 

Q 18.84375 -1.421875 12.171875 6.21875 

Q 5.515625 13.875 5.515625 27.296875 

Q 5.515625 40.765625 12.171875 48.375 

Q 18.84375 56 30.609375 56 

z

" id="DejaVuSans-6f"/>

      <path d="M 37.109375 75.984375 

L 37.109375 68.5 

L 28.515625 68.5 

Q 23.6875 68.5 21.796875 66.546875 

Q 19.921875 64.59375 19.921875 59.515625 

L 19.921875 54.6875 

L 34.71875 54.6875 

L 34.71875 47.703125 

L 19.921875 47.703125 

L 19.921875 0 

L 10.890625 0 

L 10.890625 47.703125 

L 2.296875 47.703125 

L 2.296875 54.6875 

L 10.890625 54.6875 

L 10.890625 58.5 

Q 10.890625 67.625 15.140625 71.796875 

Q 19.390625 75.984375 28.609375 75.984375 

z

" id="DejaVuSans-66"/>

      <path d="M 48.78125 52.59375 

L 48.78125 44.1875 

Q 44.96875 46.296875 41.140625 47.34375 

Q 37.3125 48.390625 33.40625 48.390625 

Q 24.65625 48.390625 19.8125 42.84375 

Q 14.984375 37.3125 14.984375 27.296875 

Q 14.984375 17.28125 19.8125 11.734375 

Q 24.65625 6.203125 33.40625 6.203125 

Q 37.3125 6.203125 41.140625 7.25 

Q 44.96875 8.296875 48.78125 10.40625 

L 48.78125 2.09375 

Q 45.015625 0.34375 40.984375 -0.53125 

Q 36.96875 -1.421875 32.421875 -1.421875 

Q 20.0625 -1.421875 12.78125 6.34375 

Q 5.515625 14.109375 5.515625 27.296875 

Q 5.515625 40.671875 12.859375 48.328125 

Q 20.21875 56 33.015625 56 

Q 37.15625 56 41.109375 55.140625 

Q 45.0625 54.296875 48.78125 52.59375 

z

" id="DejaVuSans-63"/>

      <path d="M 9.421875 54.6875 

L 18.40625 54.6875 

L 18.40625 0 

L 9.421875 0 

z

M 9.421875 75.984375 

L 18.40625 75.984375 

L 18.40625 64.59375 

L 9.421875 64.59375 

z

" id="DejaVuSans-69"/>

      <path d="M 54.890625 33.015625 

L 54.890625 0 

L 45.90625 0 

L 45.90625 32.71875 

Q 45.90625 40.484375 42.875 44.328125 

Q 39.84375 48.1875 33.796875 48.1875 

Q 26.515625 48.1875 22.3125 43.546875 

Q 18.109375 38.921875 18.109375 30.90625 

L 18.109375 0 

L 9.078125 0 

L 9.078125 54.6875 

L 18.109375 54.6875 

L 18.109375 46.1875 

Q 21.34375 51.125 25.703125 53.5625 

Q 30.078125 56 35.796875 56 

Q 45.21875 56 50.046875 50.171875 

Q 54.890625 44.34375 54.890625 33.015625 

z

" id="DejaVuSans-6e"/>

      <path d="M 18.3125 70.21875 

L 18.3125 54.6875 

L 36.8125 54.6875 

L 36.8125 47.703125 

L 18.3125 47.703125 

L 18.3125 18.015625 

Q 18.3125 11.328125 20.140625 9.421875 

Q 21.96875 7.515625 27.59375 7.515625 

L 36.8125 7.515625 

L 36.8125 0 

L 27.59375 0 

Q 17.1875 0 13.234375 3.875 

Q 9.28125 7.765625 9.28125 18.015625 

L 9.28125 47.703125 

L 2.6875 47.703125 

L 2.6875 54.6875 

L 9.28125 54.6875 

L 9.28125 70.21875 

z

" id="DejaVuSans-74"/>

     </defs>

     <g transform="translate(160.434375 256.416562)scale(0.1 -0.1)">

      <use xlink:href="#DejaVuSans-44"/>

      <use x="77.001953" xlink:href="#DejaVuSans-65"/>

      <use x="138.525391" xlink:href="#DejaVuSans-67"/>

      <use x="202.001953" xlink:href="#DejaVuSans-72"/>

      <use x="243.083984" xlink:href="#DejaVuSans-65"/>

      <use x="304.607422" xlink:href="#DejaVuSans-65"/>

      <use x="366.130859" xlink:href="#DejaVuSans-20"/>

      <use x="397.917969" xlink:href="#DejaVuSans-6f"/>

      <use x="459.099609" xlink:href="#DejaVuSans-66"/>

      <use x="494.304688" xlink:href="#DejaVuSans-20"/>

      <use x="526.091797" xlink:href="#DejaVuSans-63"/>

      <use x="581.072266" xlink:href="#DejaVuSans-6f"/>

      <use x="642.253906" xlink:href="#DejaVuSans-65"/>

      <use x="703.777344" xlink:href="#DejaVuSans-66"/>

      <use x="738.982422" xlink:href="#DejaVuSans-66"/>

      <use x="774.1875" xlink:href="#DejaVuSans-69"/>

      <use x="801.970703" xlink:href="#DejaVuSans-63"/>

      <use x="856.951172" xlink:href="#DejaVuSans-69"/>

      <use x="884.734375" xlink:href="#DejaVuSans-65"/>

      <use x="946.257812" xlink:href="#DejaVuSans-6e"/>

      <use x="1009.636719" xlink:href="#DejaVuSans-74"/>

     </g>

    </g>

   </g>

   <g id="matplotlib.axis_2">

    <g id="ytick_1">

     <g id="line2d_7">

      <defs>

       <path d="M 0 0 

L -3.5 0 

" id="m698d8a2c50" style="stroke:#000000;stroke-width:0.8;"/>

      </defs>

      <g>

       <use style="stroke:#000000;stroke-width:0.8;" x="45.478125" xlink:href="#m698d8a2c50" y="207.296816"/>

      </g>

     </g>

     <g id="text_8">

      <!-- $\mathdefault{10^{0}}$ -->

      <g transform="translate(20.878125 211.096035)scale(0.1 -0.1)">

       <use transform="translate(0 0.765625)" xlink:href="#DejaVuSans-31"/>

       <use transform="translate(63.623047 0.765625)" xlink:href="#DejaVuSans-30"/>

       <use transform="translate(128.203125 39.046875)scale(0.7)" xlink:href="#DejaVuSans-30"/>

      </g>

     </g>

    </g>

    <g id="ytick_2">

     <g id="line2d_8">

      <g>

       <use style="stroke:#000000;stroke-width:0.8;" x="45.478125" xlink:href="#m698d8a2c50" y="178.245531"/>

      </g>

     </g>

     <g id="text_9">

      <!-- $\mathdefault{10^{1}}$ -->

      <g transform="translate(20.878125 182.04475)scale(0.1 -0.1)">

       <use transform="translate(0 0.684375)" xlink:href="#DejaVuSans-31"/>

       <use transform="translate(63.623047 0.684375)" xlink:href="#DejaVuSans-30"/>

       <use transform="translate(128.203125 38.965625)scale(0.7)" xlink:href="#DejaVuSans-31"/>

      </g>

     </g>

    </g>

    <g id="ytick_3">

     <g id="line2d_9">

      <g>

       <use style="stroke:#000000;stroke-width:0.8;" x="45.478125" xlink:href="#m698d8a2c50" y="149.194247"/>

      </g>

     </g>

     <g id="text_10">

      <!-- $\mathdefault{10^{2}}$ -->

      <g transform="translate(20.878125 152.993465)scale(0.1 -0.1)">

       <use transform="translate(0 0.765625)" xlink:href="#DejaVuSans-31"/>

       <use transform="translate(63.623047 0.765625)" xlink:href="#DejaVuSans-30"/>

       <use transform="translate(128.203125 39.046875)scale(0.7)" xlink:href="#DejaVuSans-32"/>

      </g>

     </g>

    </g>

    <g id="ytick_4">

     <g id="line2d_10">

      <g>

       <use style="stroke:#000000;stroke-width:0.8;" x="45.478125" xlink:href="#m698d8a2c50" y="120.142962"/>

      </g>

     </g>

     <g id="text_11">

      <!-- $\mathdefault{10^{3}}$ -->

      <defs>

       <path d="M 40.578125 39.3125 

Q 47.65625 37.796875 51.625 33 

Q 55.609375 28.21875 55.609375 21.1875 

Q 55.609375 10.40625 48.1875 4.484375 

Q 40.765625 -1.421875 27.09375 -1.421875 

Q 22.515625 -1.421875 17.65625 -0.515625 

Q 12.796875 0.390625 7.625 2.203125 

L 7.625 11.71875 

Q 11.71875 9.328125 16.59375 8.109375 

Q 21.484375 6.890625 26.8125 6.890625 

Q 36.078125 6.890625 40.9375 10.546875 

Q 45.796875 14.203125 45.796875 21.1875 

Q 45.796875 27.640625 41.28125 31.265625 

Q 36.765625 34.90625 28.71875 34.90625 

L 20.21875 34.90625 

L 20.21875 43.015625 

L 29.109375 43.015625 

Q 36.375 43.015625 40.234375 45.921875 

Q 44.09375 48.828125 44.09375 54.296875 

Q 44.09375 59.90625 40.109375 62.90625 

Q 36.140625 65.921875 28.71875 65.921875 

Q 24.65625 65.921875 20.015625 65.03125 

Q 15.375 64.15625 9.8125 62.3125 

L 9.8125 71.09375 

Q 15.4375 72.65625 20.34375 73.4375 

Q 25.25 74.21875 29.59375 74.21875 

Q 40.828125 74.21875 47.359375 69.109375 

Q 53.90625 64.015625 53.90625 55.328125 

Q 53.90625 49.265625 50.4375 45.09375 

Q 46.96875 40.921875 40.578125 39.3125 

z

" id="DejaVuSans-33"/>

      </defs>

      <g transform="translate(20.878125 123.942181)scale(0.1 -0.1)">

       <use transform="translate(0 0.765625)" xlink:href="#DejaVuSans-31"/>

       <use transform="translate(63.623047 0.765625)" xlink:href="#DejaVuSans-30"/>

       <use transform="translate(128.203125 39.046875)scale(0.7)" xlink:href="#DejaVuSans-33"/>

      </g>

     </g>

    </g>

    <g id="ytick_5">

     <g id="line2d_11">

      <g>

       <use style="stroke:#000000;stroke-width:0.8;" x="45.478125" xlink:href="#m698d8a2c50" y="91.091677"/>

      </g>

     </g>

     <g id="text_12">

      <!-- $\mathdefault{10^{4}}$ -->

      <g transform="translate(20.878125 94.890896)scale(0.1 -0.1)">

       <use transform="translate(0 0.684375)" xlink:href="#DejaVuSans-31"/>

       <use transform="translate(63.623047 0.684375)" xlink:href="#DejaVuSans-30"/>

       <use transform="translate(128.203125 38.965625)scale(0.7)" xlink:href="#DejaVuSans-34"/>

      </g>

     </g>

    </g>

    <g id="ytick_6">

     <g id="line2d_12">

      <g>

       <use style="stroke:#000000;stroke-width:0.8;" x="45.478125" xlink:href="#m698d8a2c50" y="62.040392"/>

      </g>

     </g>

     <g id="text_13">

      <!-- $\mathdefault{10^{5}}$ -->

      <defs>

       <path d="M 10.796875 72.90625 

L 49.515625 72.90625 

L 49.515625 64.59375 

L 19.828125 64.59375 

L 19.828125 46.734375 

Q 21.96875 47.46875 24.109375 47.828125 

Q 26.265625 48.1875 28.421875 48.1875 

Q 40.625 48.1875 47.75 41.5 

Q 54.890625 34.8125 54.890625 23.390625 

Q 54.890625 11.625 47.5625 5.09375 

Q 40.234375 -1.421875 26.90625 -1.421875 

Q 22.3125 -1.421875 17.546875 -0.640625 

Q 12.796875 0.140625 7.71875 1.703125 

L 7.71875 11.625 

Q 12.109375 9.234375 16.796875 8.0625 

Q 21.484375 6.890625 26.703125 6.890625 

Q 35.15625 6.890625 40.078125 11.328125 

Q 45.015625 15.765625 45.015625 23.390625 

Q 45.015625 31 40.078125 35.4375 

Q 35.15625 39.890625 26.703125 39.890625 

Q 22.75 39.890625 18.8125 39.015625 

Q 14.890625 38.140625 10.796875 36.28125 

z

" id="DejaVuSans-35"/>

      </defs>

      <g transform="translate(20.878125 65.839611)scale(0.1 -0.1)">

       <use transform="translate(0 0.684375)" xlink:href="#DejaVuSans-31"/>

       <use transform="translate(63.623047 0.684375)" xlink:href="#DejaVuSans-30"/>

       <use transform="translate(128.203125 38.965625)scale(0.7)" xlink:href="#DejaVuSans-35"/>

      </g>

     </g>

    </g>

    <g id="ytick_7">

     <g id="line2d_13">

      <g>

       <use style="stroke:#000000;stroke-width:0.8;" x="45.478125" xlink:href="#m698d8a2c50" y="32.989108"/>

      </g>

     </g>

     <g id="text_14">

      <!-- $\mathdefault{10^{6}}$ -->

      <g transform="translate(20.878125 36.788326)scale(0.1 -0.1)">

       <use transform="translate(0 0.765625)" xlink:href="#DejaVuSans-31"/>

       <use transform="translate(63.623047 0.765625)" xlink:href="#DejaVuSans-30"/>

       <use transform="translate(128.203125 39.046875)scale(0.7)" xlink:href="#DejaVuSans-36"/>

      </g>

     </g>

    </g>

    <g id="ytick_8">

     <g id="line2d_14">

      <defs>

       <path d="M 0 0 

L -2 0 

" id="mf682073ce3" style="stroke:#000000;stroke-width:0.6;"/>

      </defs>

      <g>

       <use style="stroke:#000000;stroke-width:0.6;" x="45.478125" xlink:href="#mf682073ce3" y="227.602793"/>

      </g>

     </g>

    </g>

    <g id="ytick_9">

     <g id="line2d_15">

      <g>

       <use style="stroke:#000000;stroke-width:0.6;" x="45.478125" xlink:href="#mf682073ce3" y="222.487116"/>

      </g>

     </g>

    </g>

    <g id="ytick_10">

     <g id="line2d_16">

      <g>

       <use style="stroke:#000000;stroke-width:0.6;" x="45.478125" xlink:href="#mf682073ce3" y="218.857485"/>

      </g>

     </g>

    </g>

    <g id="ytick_11">

     <g id="line2d_17">

      <g>

       <use style="stroke:#000000;stroke-width:0.6;" x="45.478125" xlink:href="#mf682073ce3" y="216.042124"/>

      </g>

     </g>

    </g>

    <g id="ytick_12">

     <g id="line2d_18">

      <g>

       <use style="stroke:#000000;stroke-width:0.6;" x="45.478125" xlink:href="#mf682073ce3" y="213.741807"/>

      </g>

     </g>

    </g>

    <g id="ytick_13">

     <g id="line2d_19">

      <g>

       <use style="stroke:#000000;stroke-width:0.6;" x="45.478125" xlink:href="#mf682073ce3" y="211.796917"/>

      </g>

     </g>

    </g>

    <g id="ytick_14">

     <g id="line2d_20">

      <g>

       <use style="stroke:#000000;stroke-width:0.6;" x="45.478125" xlink:href="#mf682073ce3" y="210.112177"/>

      </g>

     </g>

    </g>

    <g id="ytick_15">

     <g id="line2d_21">

      <g>

       <use style="stroke:#000000;stroke-width:0.6;" x="45.478125" xlink:href="#mf682073ce3" y="208.62613"/>

      </g>

     </g>

    </g>

    <g id="ytick_16">

     <g id="line2d_22">

      <g>

       <use style="stroke:#000000;stroke-width:0.6;" x="45.478125" xlink:href="#mf682073ce3" y="198.551508"/>

      </g>

     </g>

    </g>

    <g id="ytick_17">

     <g id="line2d_23">

      <g>

       <use style="stroke:#000000;stroke-width:0.6;" x="45.478125" xlink:href="#mf682073ce3" y="193.435831"/>

      </g>

     </g>

    </g>

    <g id="ytick_18">

     <g id="line2d_24">

      <g>

       <use style="stroke:#000000;stroke-width:0.6;" x="45.478125" xlink:href="#mf682073ce3" y="189.8062"/>

      </g>

     </g>

    </g>

    <g id="ytick_19">

     <g id="line2d_25">

      <g>

       <use style="stroke:#000000;stroke-width:0.6;" x="45.478125" xlink:href="#mf682073ce3" y="186.99084"/>

      </g>

     </g>

    </g>

    <g id="ytick_20">

     <g id="line2d_26">

      <g>

       <use style="stroke:#000000;stroke-width:0.6;" x="45.478125" xlink:href="#mf682073ce3" y="184.690523"/>

      </g>

     </g>

    </g>

    <g id="ytick_21">

     <g id="line2d_27">

      <g>

       <use style="stroke:#000000;stroke-width:0.6;" x="45.478125" xlink:href="#mf682073ce3" y="182.745632"/>

      </g>

     </g>

    </g>

    <g id="ytick_22">

     <g id="line2d_28">

      <g>

       <use style="stroke:#000000;stroke-width:0.6;" x="45.478125" xlink:href="#mf682073ce3" y="181.060892"/>

      </g>

     </g>

    </g>

    <g id="ytick_23">

     <g id="line2d_29">

      <g>

       <use style="stroke:#000000;stroke-width:0.6;" x="45.478125" xlink:href="#mf682073ce3" y="179.574845"/>

      </g>

     </g>

    </g>

    <g id="ytick_24">

     <g id="line2d_30">

      <g>

       <use style="stroke:#000000;stroke-width:0.6;" x="45.478125" xlink:href="#mf682073ce3" y="169.500223"/>

      </g>

     </g>

    </g>

    <g id="ytick_25">

     <g id="line2d_31">

      <g>

       <use style="stroke:#000000;stroke-width:0.6;" x="45.478125" xlink:href="#mf682073ce3" y="164.384546"/>

      </g>

     </g>

    </g>

    <g id="ytick_26">

     <g id="line2d_32">

      <g>

       <use style="stroke:#000000;stroke-width:0.6;" x="45.478125" xlink:href="#mf682073ce3" y="160.754915"/>

      </g>

     </g>

    </g>

    <g id="ytick_27">

     <g id="line2d_33">

      <g>

       <use style="stroke:#000000;stroke-width:0.6;" x="45.478125" xlink:href="#mf682073ce3" y="157.939555"/>

      </g>

     </g>

    </g>

    <g id="ytick_28">

     <g id="line2d_34">

      <g>

       <use style="stroke:#000000;stroke-width:0.6;" x="45.478125" xlink:href="#mf682073ce3" y="155.639238"/>

      </g>

     </g>

    </g>

    <g id="ytick_29">

     <g id="line2d_35">

      <g>

       <use style="stroke:#000000;stroke-width:0.6;" x="45.478125" xlink:href="#mf682073ce3" y="153.694348"/>

      </g>

     </g>

    </g>

    <g id="ytick_30">

     <g id="line2d_36">

      <g>

       <use style="stroke:#000000;stroke-width:0.6;" x="45.478125" xlink:href="#mf682073ce3" y="152.009607"/>

      </g>

     </g>

    </g>

    <g id="ytick_31">

     <g id="line2d_37">

      <g>

       <use style="stroke:#000000;stroke-width:0.6;" x="45.478125" xlink:href="#mf682073ce3" y="150.523561"/>

      </g>

     </g>

    </g>

    <g id="ytick_32">

     <g id="line2d_38">

      <g>

       <use style="stroke:#000000;stroke-width:0.6;" x="45.478125" xlink:href="#mf682073ce3" y="140.448939"/>

      </g>

     </g>

    </g>

    <g id="ytick_33">

     <g id="line2d_39">

      <g>

       <use style="stroke:#000000;stroke-width:0.6;" x="45.478125" xlink:href="#mf682073ce3" y="135.333261"/>

      </g>

     </g>

    </g>

    <g id="ytick_34">

     <g id="line2d_40">

      <g>

       <use style="stroke:#000000;stroke-width:0.6;" x="45.478125" xlink:href="#mf682073ce3" y="131.70363"/>

      </g>

     </g>

    </g>

    <g id="ytick_35">

     <g id="line2d_41">

      <g>

       <use style="stroke:#000000;stroke-width:0.6;" x="45.478125" xlink:href="#mf682073ce3" y="128.88827"/>

      </g>

     </g>

    </g>

    <g id="ytick_36">

     <g id="line2d_42">

      <g>

       <use style="stroke:#000000;stroke-width:0.6;" x="45.478125" xlink:href="#mf682073ce3" y="126.587953"/>

      </g>

     </g>

    </g>

    <g id="ytick_37">

     <g id="line2d_43">

      <g>

       <use style="stroke:#000000;stroke-width:0.6;" x="45.478125" xlink:href="#mf682073ce3" y="124.643063"/>

      </g>

     </g>

    </g>

    <g id="ytick_38">

     <g id="line2d_44">

      <g>

       <use style="stroke:#000000;stroke-width:0.6;" x="45.478125" xlink:href="#mf682073ce3" y="122.958322"/>

      </g>

     </g>

    </g>

    <g id="ytick_39">

     <g id="line2d_45">

      <g>

       <use style="stroke:#000000;stroke-width:0.6;" x="45.478125" xlink:href="#mf682073ce3" y="121.472276"/>

      </g>

     </g>

    </g>

    <g id="ytick_40">

     <g id="line2d_46">

      <g>

       <use style="stroke:#000000;stroke-width:0.6;" x="45.478125" xlink:href="#mf682073ce3" y="111.397654"/>

      </g>

     </g>

    </g>

    <g id="ytick_41">

     <g id="line2d_47">

      <g>

       <use style="stroke:#000000;stroke-width:0.6;" x="45.478125" xlink:href="#mf682073ce3" y="106.281977"/>

      </g>

     </g>

    </g>

    <g id="ytick_42">

     <g id="line2d_48">

      <g>

       <use style="stroke:#000000;stroke-width:0.6;" x="45.478125" xlink:href="#mf682073ce3" y="102.652346"/>

      </g>

     </g>

    </g>

    <g id="ytick_43">

     <g id="line2d_49">

      <g>

       <use style="stroke:#000000;stroke-width:0.6;" x="45.478125" xlink:href="#mf682073ce3" y="99.836985"/>

      </g>

     </g>

    </g>

    <g id="ytick_44">

     <g id="line2d_50">

      <g>

       <use style="stroke:#000000;stroke-width:0.6;" x="45.478125" xlink:href="#mf682073ce3" y="97.536668"/>

      </g>

     </g>

    </g>

    <g id="ytick_45">

     <g id="line2d_51">

      <g>

       <use style="stroke:#000000;stroke-width:0.6;" x="45.478125" xlink:href="#mf682073ce3" y="95.591778"/>

      </g>

     </g>

    </g>

    <g id="ytick_46">

     <g id="line2d_52">

      <g>

       <use style="stroke:#000000;stroke-width:0.6;" x="45.478125" xlink:href="#mf682073ce3" y="93.907038"/>

      </g>

     </g>

    </g>

    <g id="ytick_47">

     <g id="line2d_53">

      <g>

       <use style="stroke:#000000;stroke-width:0.6;" x="45.478125" xlink:href="#mf682073ce3" y="92.420991"/>

      </g>

     </g>

    </g>

    <g id="ytick_48">

     <g id="line2d_54">

      <g>

       <use style="stroke:#000000;stroke-width:0.6;" x="45.478125" xlink:href="#mf682073ce3" y="82.346369"/>

      </g>

     </g>

    </g>

    <g id="ytick_49">

     <g id="line2d_55">

      <g>

       <use style="stroke:#000000;stroke-width:0.6;" x="45.478125" xlink:href="#mf682073ce3" y="77.230692"/>

      </g>

     </g>

    </g>

    <g id="ytick_50">

     <g id="line2d_56">

      <g>

       <use style="stroke:#000000;stroke-width:0.6;" x="45.478125" xlink:href="#mf682073ce3" y="73.601061"/>

      </g>

     </g>

    </g>

    <g id="ytick_51">

     <g id="line2d_57">

      <g>

       <use style="stroke:#000000;stroke-width:0.6;" x="45.478125" xlink:href="#mf682073ce3" y="70.785701"/>

      </g>

     </g>

    </g>

    <g id="ytick_52">

     <g id="line2d_58">

      <g>

       <use style="stroke:#000000;stroke-width:0.6;" x="45.478125" xlink:href="#mf682073ce3" y="68.485384"/>

      </g>

     </g>

    </g>

    <g id="ytick_53">

     <g id="line2d_59">

      <g>

       <use style="stroke:#000000;stroke-width:0.6;" x="45.478125" xlink:href="#mf682073ce3" y="66.540493"/>

      </g>

     </g>

    </g>

    <g id="ytick_54">

     <g id="line2d_60">

      <g>

       <use style="stroke:#000000;stroke-width:0.6;" x="45.478125" xlink:href="#mf682073ce3" y="64.855753"/>

      </g>

     </g>

    </g>

    <g id="ytick_55">

     <g id="line2d_61">

      <g>

       <use style="stroke:#000000;stroke-width:0.6;" x="45.478125" xlink:href="#mf682073ce3" y="63.369706"/>

      </g>

     </g>

    </g>

    <g id="ytick_56">

     <g id="line2d_62">

      <g>

       <use style="stroke:#000000;stroke-width:0.6;" x="45.478125" xlink:href="#mf682073ce3" y="53.295084"/>

      </g>

     </g>

    </g>

    <g id="ytick_57">

     <g id="line2d_63">

      <g>

       <use style="stroke:#000000;stroke-width:0.6;" x="45.478125" xlink:href="#mf682073ce3" y="48.179407"/>

      </g>

     </g>

    </g>

    <g id="ytick_58">

     <g id="line2d_64">

      <g>

       <use style="stroke:#000000;stroke-width:0.6;" x="45.478125" xlink:href="#mf682073ce3" y="44.549776"/>

      </g>

     </g>

    </g>

    <g id="ytick_59">

     <g id="line2d_65">

      <g>

       <use style="stroke:#000000;stroke-width:0.6;" x="45.478125" xlink:href="#mf682073ce3" y="41.734416"/>

      </g>

     </g>

    </g>

    <g id="ytick_60">

     <g id="line2d_66">

      <g>

       <use style="stroke:#000000;stroke-width:0.6;" x="45.478125" xlink:href="#mf682073ce3" y="39.434099"/>

      </g>

     </g>

    </g>

    <g id="ytick_61">

     <g id="line2d_67">

      <g>

       <use style="stroke:#000000;stroke-width:0.6;" x="45.478125" xlink:href="#mf682073ce3" y="37.489209"/>

      </g>

     </g>

    </g>

    <g id="ytick_62">

     <g id="line2d_68">

      <g>

       <use style="stroke:#000000;stroke-width:0.6;" x="45.478125" xlink:href="#mf682073ce3" y="35.804468"/>

      </g>

     </g>

    </g>

    <g id="ytick_63">

     <g id="line2d_69">

      <g>

       <use style="stroke:#000000;stroke-width:0.6;" x="45.478125" xlink:href="#mf682073ce3" y="34.318422"/>

      </g>

     </g>

    </g>

    <g id="ytick_64">

     <g id="line2d_70">

      <g>

       <use style="stroke:#000000;stroke-width:0.6;" x="45.478125" xlink:href="#mf682073ce3" y="24.2438"/>

      </g>

     </g>

    </g>

    <g id="ytick_65">

     <g id="line2d_71">

      <g>

       <use style="stroke:#000000;stroke-width:0.6;" x="45.478125" xlink:href="#mf682073ce3" y="19.128122"/>

      </g>

     </g>

    </g>

    <g id="ytick_66">

     <g id="line2d_72">

      <g>

       <use style="stroke:#000000;stroke-width:0.6;" x="45.478125" xlink:href="#mf682073ce3" y="15.498491"/>

      </g>

     </g>

    </g>

    <g id="ytick_67">

     <g id="line2d_73">

      <g>

       <use style="stroke:#000000;stroke-width:0.6;" x="45.478125" xlink:href="#mf682073ce3" y="12.683131"/>

      </g>

     </g>

    </g>

    <g id="ytick_68">

     <g id="line2d_74">

      <g>

       <use style="stroke:#000000;stroke-width:0.6;" x="45.478125" xlink:href="#mf682073ce3" y="10.382814"/>

      </g>

     </g>

    </g>

    <g id="text_15">

     <!-- Coefficient weight -->

     <defs>

      <path d="M 64.40625 67.28125 

L 64.40625 56.890625 

Q 59.421875 61.53125 53.78125 63.8125 

Q 48.140625 66.109375 41.796875 66.109375 

Q 29.296875 66.109375 22.65625 58.46875 

Q 16.015625 50.828125 16.015625 36.375 

Q 16.015625 21.96875 22.65625 14.328125 

Q 29.296875 6.6875 41.796875 6.6875 

Q 48.140625 6.6875 53.78125 8.984375 

Q 59.421875 11.28125 64.40625 15.921875 

L 64.40625 5.609375 

Q 59.234375 2.09375 53.4375 0.328125 

Q 47.65625 -1.421875 41.21875 -1.421875 

Q 24.65625 -1.421875 15.125 8.703125 

Q 5.609375 18.84375 5.609375 36.375 

Q 5.609375 53.953125 15.125 64.078125 

Q 24.65625 74.21875 41.21875 74.21875 

Q 47.75 74.21875 53.53125 72.484375 

Q 59.328125 70.75 64.40625 67.28125 

z

" id="DejaVuSans-43"/>

      <path d="M 4.203125 54.6875 

L 13.1875 54.6875 

L 24.421875 12.015625 

L 35.59375 54.6875 

L 46.1875 54.6875 

L 57.421875 12.015625 

L 68.609375 54.6875 

L 77.59375 54.6875 

L 63.28125 0 

L 52.6875 0 

L 40.921875 44.828125 

L 29.109375 0 

L 18.5 0 

z

" id="DejaVuSans-77"/>

      <path d="M 54.890625 33.015625 

L 54.890625 0 

L 45.90625 0 

L 45.90625 32.71875 

Q 45.90625 40.484375 42.875 44.328125 

Q 39.84375 48.1875 33.796875 48.1875 

Q 26.515625 48.1875 22.3125 43.546875 

Q 18.109375 38.921875 18.109375 30.90625 

L 18.109375 0 

L 9.078125 0 

L 9.078125 75.984375 

L 18.109375 75.984375 

L 18.109375 46.1875 

Q 21.34375 51.125 25.703125 53.5625 

Q 30.078125 56 35.796875 56 

Q 45.21875 56 50.046875 50.171875 

Q 54.890625 44.34375 54.890625 33.015625 

z

" id="DejaVuSans-68"/>

     </defs>

     <g transform="translate(14.798438 164.747344)rotate(-90)scale(0.1 -0.1)">

      <use xlink:href="#DejaVuSans-43"/>

      <use x="69.824219" xlink:href="#DejaVuSans-6f"/>

      <use x="131.005859" xlink:href="#DejaVuSans-65"/>

      <use x="192.529297" xlink:href="#DejaVuSans-66"/>

      <use x="227.734375" xlink:href="#DejaVuSans-66"/>

      <use x="262.939453" xlink:href="#DejaVuSans-69"/>

      <use x="290.722656" xlink:href="#DejaVuSans-63"/>

      <use x="345.703125" xlink:href="#DejaVuSans-69"/>

      <use x="373.486328" xlink:href="#DejaVuSans-65"/>

      <use x="435.009766" xlink:href="#DejaVuSans-6e"/>

      <use x="498.388672" xlink:href="#DejaVuSans-74"/>

      <use x="537.597656" xlink:href="#DejaVuSans-20"/>

      <use x="569.384766" xlink:href="#DejaVuSans-77"/>

      <use x="651.171875" xlink:href="#DejaVuSans-65"/>

      <use x="712.695312" xlink:href="#DejaVuSans-69"/>

      <use x="740.478516" xlink:href="#DejaVuSans-67"/>

      <use x="803.955078" xlink:href="#DejaVuSans-68"/>

      <use x="867.333984" xlink:href="#DejaVuSans-74"/>

     </g>

    </g>

   </g>

   <g id="line2d_75">

    <path clip-path="url(#p42d0372e78)" d="M 60.696307 200.666764 

L 63.739943 218.256364 

L 66.78358 216.386509 

L 69.827216 203.997946 

L 72.870852 161.02213 

L 75.914489 168.173571 

L 78.958125 123.427292 

L 82.001761 125.196109 

L 85.045398 94.24807 

L 88.089034 98.859301 

L 91.13267 72.30949 

L 94.176307 81.734002 

L 97.219943 57.254271 

L 100.26358 73.411279 

L 103.307216 49.454302 

L 106.350852 78.105017 

L 109.394489 49.905584 

L 112.438125 85.32502 

L 115.481761 58.438997 

L 118.525398 50.908388 

L 121.569034 69.956023 

L 124.61267 36.216093 

L 127.656307 59.691285 

L 130.699943 32.372617 

L 133.74358 59.659784 

L 136.787216 35.21312 

L 139.830852 55.374448 

L 142.874489 39.75211 

L 145.918125 39.270958 

L 148.961761 53.744852 

L 152.005398 33.98662 

L 155.049034 28.769198 

L 158.09267 32.181069 

L 161.136307 27.839689 

L 164.179943 29.165052 

L 167.22358 33.322154 

L 170.267216 42.803389 

L 173.310852 37.560682 

L 176.354489 63.220399 

L 179.398125 42.447799 

L 182.441761 22.086731 

L 185.485398 40.32419 

L 188.529034 22.606543 

L 191.57267 30.05971 

L 194.616307 66.985433 

L 197.659943 26.284207 

L 200.70358 30.144947 

L 203.747216 46.87471 

L 206.790852 24.433894 

L 209.834489 23.008251 

L 212.878125 69.069713 

L 215.921761 25.310358 

L 218.965398 35.605843 

L 222.009034 50.311154 

L 225.05267 38.523904 

L 228.096307 24.565389 

L 231.139943 56.605688 

L 234.18358 33.152595 

L 237.227216 27.406809 

L 240.270852 45.466255 

L 243.314489 42.73636 

L 246.358125 52.011122 

L 249.401761 31.699063 

L 252.445398 51.511998 

L 255.489034 53.773333 

L 258.53267 43.344009 

L 261.576307 37.74737 

L 264.619943 20.583636 

L 267.66358 32.99468 

L 270.707216 26.854647 

L 273.750852 27.413807 

L 276.794489 35.531983 

L 279.838125 54.716095 

L 282.881761 60.420175 

L 285.925398 38.201014 

L 288.969034 54.925015 

L 292.01267 26.198732 

L 295.056307 26.207323 

L 298.099943 41.796989 

L 301.14358 37.726609 

L 304.187216 24.305033 

L 307.230852 50.412951 

L 310.274489 44.193241 

L 313.318125 31.633937 

L 316.361761 44.093284 

L 319.405398 30.779696 

L 322.449034 56.859556 

L 325.49267 23.842257 

L 328.536307 36.664067 

L 331.579943 30.418159 

L 334.62358 49.953903 

L 337.667216 41.358196 

L 340.710852 41.934769 

L 343.754489 30.16523 

L 346.798125 67.803799 

L 349.841761 32.882992 

L 352.885398 24.984574 

L 355.929034 34.720869 

L 358.97267 37.239452 

L 362.016307 36.375716 

L 365.059943 51.784947 

" style="fill:none;stroke:#1f77b4;stroke-linecap:square;stroke-width:1.5;"/>

   </g>

   <g id="patch_3">

    <path d="M 45.478125 228.14 

L 45.478125 10.7 

" style="fill:none;stroke:#000000;stroke-linecap:square;stroke-linejoin:miter;stroke-width:0.8;"/>

   </g>

   <g id="patch_4">

    <path d="M 380.278125 228.14 

L 380.278125 10.7 

" style="fill:none;stroke:#000000;stroke-linecap:square;stroke-linejoin:miter;stroke-width:0.8;"/>

   </g>

   <g id="patch_5">

    <path d="M 45.478125 228.14 

L 380.278125 228.14 

" style="fill:none;stroke:#000000;stroke-linecap:square;stroke-linejoin:miter;stroke-width:0.8;"/>

   </g>

   <g id="patch_6">

    <path d="M 45.478125 10.7 

L 380.278125 10.7 

" style="fill:none;stroke:#000000;stroke-linecap:square;stroke-linejoin:miter;stroke-width:0.8;"/>

   </g>

  </g>

 </g>

 <defs>

  <clipPath id="p42d0372e78">

   <rect height="217.44" width="334.8" x="45.478125" y="10.7"/>

  </clipPath>

 </defs>

</svg>
