<?xml version="1.0" encoding="utf-8" standalone="no"?>

<!DOCTYPE svg PUBLIC "-//W3C//DTD SVG 1.1//EN"

  "http://www.w3.org/Graphics/SVG/1.1/DTD/svg11.dtd">

<!-- Created with matplotlib (http://matplotlib.org/) -->

<svg height="252pt" version="1.1" viewBox="0 0 449 252" width="449pt" xmlns="http://www.w3.org/2000/svg" xmlns:xlink="http://www.w3.org/1999/xlink">

 <defs>

  <style type="text/css">

*{stroke-linecap:butt;stroke-linejoin:round;}

  </style>

 </defs>

 <g id="figure_1">

  <g id="patch_1">

   <path d="M 0 252.018125 

L 449.299125 252.018125 

L 449.299125 0 

L 0 0 

z

" style="fill:none;"/>

  </g>

  <g id="axes_1">

   <g id="patch_2">

    <path d="M 30.103125 228.14 

L 364.903125 228.14 

L 364.903125 10.7 

L 30.103125 10.7 

z

" style="fill:#ffffff;"/>

   </g>

   <g id="matplotlib.axis_1">

    <g id="xtick_1">

     <g id="line2d_1">

      <defs>

       <path d="M 0 0 

L 0 3.5 

" id="mfd389627b8" style="stroke:#000000;stroke-width:0.8;"/>

      </defs>

      <g>

       <use style="stroke:#000000;stroke-width:0.8;" x="63.583125" xlink:href="#mfd389627b8" y="228.14"/>

      </g>

     </g>

     <g id="text_1">

      <!-- 0 -->

      <defs>

       <path d="M 31.78125 66.40625 

Q 24.171875 66.40625 20.328125 58.90625 

Q 16.5 51.421875 16.5 36.375 

Q 16.5 21.390625 20.328125 13.890625 

Q 24.171875 6.390625 31.78125 6.390625 

Q 39.453125 6.390625 43.28125 13.890625 

Q 47.125 21.390625 47.125 36.375 

Q 47.125 51.421875 43.28125 58.90625 

Q 39.453125 66.40625 31.78125 66.40625 

z

M 31.78125 74.21875 

Q 44.046875 74.21875 50.515625 64.515625 

Q 56.984375 54.828125 56.984375 36.375 

Q 56.984375 17.96875 50.515625 8.265625 

Q 44.046875 -1.421875 31.78125 -1.421875 

Q 19.53125 -1.421875 13.0625 8.265625 

Q 6.59375 17.96875 6.59375 36.375 

Q 6.59375 54.828125 13.0625 64.515625 

Q 19.53125 74.21875 31.78125 74.21875 

z

" id="DejaVuSans-30"/>

      </defs>

      <g transform="translate(60.401875 242.738437)scale(0.1 -0.1)">

       <use xlink:href="#DejaVuSans-30"/>

      </g>

     </g>

    </g>

    <g id="xtick_2">

     <g id="line2d_2">

      <g>

       <use style="stroke:#000000;stroke-width:0.8;" x="130.543125" xlink:href="#mfd389627b8" y="228.14"/>

      </g>

     </g>

     <g id="text_2">

      <!-- 1 -->

      <defs>

       <path d="M 12.40625 8.296875 

L 28.515625 8.296875 

L 28.515625 63.921875 

L 10.984375 60.40625 

L 10.984375 69.390625 

L 28.421875 72.90625 

L 38.28125 72.90625 

L 38.28125 8.296875 

L 54.390625 8.296875 

L 54.390625 0 

L 12.40625 0 

z

" id="DejaVuSans-31"/>

      </defs>

      <g transform="translate(127.361875 242.738437)scale(0.1 -0.1)">

       <use xlink:href="#DejaVuSans-31"/>

      </g>

     </g>

    </g>

    <g id="xtick_3">

     <g id="line2d_3">

      <g>

       <use style="stroke:#000000;stroke-width:0.8;" x="197.503125" xlink:href="#mfd389627b8" y="228.14"/>

      </g>

     </g>

     <g id="text_3">

      <!-- 2 -->

      <defs>

       <path d="M 19.1875 8.296875 

L 53.609375 8.296875 

L 53.609375 0 

L 7.328125 0 

L 7.328125 8.296875 

Q 12.9375 14.109375 22.625 23.890625 

Q 32.328125 33.6875 34.8125 36.53125 

Q 39.546875 41.84375 41.421875 45.53125 

Q 43.3125 49.21875 43.3125 52.78125 

Q 43.3125 58.59375 39.234375 62.25 

Q 35.15625 65.921875 28.609375 65.921875 

Q 23.96875 65.921875 18.8125 64.3125 

Q 13.671875 62.703125 7.8125 59.421875 

L 7.8125 69.390625 

Q 13.765625 71.78125 18.9375 73 

Q 24.125 74.21875 28.421875 74.21875 

Q 39.75 74.21875 46.484375 68.546875 

Q 53.21875 62.890625 53.21875 53.421875 

Q 53.21875 48.921875 51.53125 44.890625 

Q 49.859375 40.875 45.40625 35.40625 

Q 44.1875 33.984375 37.640625 27.21875 

Q 31.109375 20.453125 19.1875 8.296875 

z

" id="DejaVuSans-32"/>

      </defs>

      <g transform="translate(194.321875 242.738437)scale(0.1 -0.1)">

       <use xlink:href="#DejaVuSans-32"/>

      </g>

     </g>

    </g>

    <g id="xtick_4">

     <g id="line2d_4">

      <g>

       <use style="stroke:#000000;stroke-width:0.8;" x="264.463125" xlink:href="#mfd389627b8" y="228.14"/>

      </g>

     </g>

     <g id="text_4">

      <!-- 3 -->

      <defs>

       <path d="M 40.578125 39.3125 

Q 47.65625 37.796875 51.625 33 

Q 55.609375 28.21875 55.609375 21.1875 

Q 55.609375 10.40625 48.1875 4.484375 

Q 40.765625 -1.421875 27.09375 -1.421875 

Q 22.515625 -1.421875 17.65625 -0.515625 

Q 12.796875 0.390625 7.625 2.203125 

L 7.625 11.71875 

Q 11.71875 9.328125 16.59375 8.109375 

Q 21.484375 6.890625 26.8125 6.890625 

Q 36.078125 6.890625 40.9375 10.546875 

Q 45.796875 14.203125 45.796875 21.1875 

Q 45.796875 27.640625 41.28125 31.265625 

Q 36.765625 34.90625 28.71875 34.90625 

L 20.21875 34.90625 

L 20.21875 43.015625 

L 29.109375 43.015625 

Q 36.375 43.015625 40.234375 45.921875 

Q 44.09375 48.828125 44.09375 54.296875 

Q 44.09375 59.90625 40.109375 62.90625 

Q 36.140625 65.921875 28.71875 65.921875 

Q 24.65625 65.921875 20.015625 65.03125 

Q 15.375 64.15625 9.8125 62.3125 

L 9.8125 71.09375 

Q 15.4375 72.65625 20.34375 73.4375 

Q 25.25 74.21875 29.59375 74.21875 

Q 40.828125 74.21875 47.359375 69.109375 

Q 53.90625 64.015625 53.90625 55.328125 

Q 53.90625 49.265625 50.4375 45.09375 

Q 46.96875 40.921875 40.578125 39.3125 

z

" id="DejaVuSans-33"/>

      </defs>

      <g transform="translate(261.281875 242.738437)scale(0.1 -0.1)">

       <use xlink:href="#DejaVuSans-33"/>

      </g>

     </g>

    </g>

    <g id="xtick_5">

     <g id="line2d_5">

      <g>

       <use style="stroke:#000000;stroke-width:0.8;" x="331.423125" xlink:href="#mfd389627b8" y="228.14"/>

      </g>

     </g>

     <g id="text_5">

      <!-- 4 -->

      <defs>

       <path d="M 37.796875 64.3125 

L 12.890625 25.390625 

L 37.796875 25.390625 

z

M 35.203125 72.90625 

L 47.609375 72.90625 

L 47.609375 25.390625 

L 58.015625 25.390625 

L 58.015625 17.1875 

L 47.609375 17.1875 

L 47.609375 0 

L 37.796875 0 

L 37.796875 17.1875 

L 4.890625 17.1875 

L 4.890625 26.703125 

z

" id="DejaVuSans-34"/>

      </defs>

      <g transform="translate(328.241875 242.738437)scale(0.1 -0.1)">

       <use xlink:href="#DejaVuSans-34"/>

      </g>

     </g>

    </g>

   </g>

   <g id="matplotlib.axis_2">

    <g id="ytick_1">

     <g id="line2d_6">

      <defs>

       <path d="M 0 0 

L -3.5 0 

" id="m44c063c091" style="stroke:#000000;stroke-width:0.8;"/>

      </defs>

      <g>

       <use style="stroke:#000000;stroke-width:0.8;" x="30.103125" xlink:href="#m44c063c091" y="218.256364"/>

      </g>

     </g>

     <g id="text_6">

      <!-- 0.0 -->

      <defs>

       <path d="M 10.6875 12.40625 

L 21 12.40625 

L 21 0 

L 10.6875 0 

z

" id="DejaVuSans-2e"/>

      </defs>

      <g transform="translate(7.2 222.055582)scale(0.1 -0.1)">

       <use xlink:href="#DejaVuSans-30"/>

       <use x="63.623047" xlink:href="#DejaVuSans-2e"/>

       <use x="95.410156" xlink:href="#DejaVuSans-30"/>

      </g>

     </g>

    </g>

    <g id="ytick_2">

     <g id="line2d_7">

      <g>

       <use style="stroke:#000000;stroke-width:0.8;" x="30.103125" xlink:href="#m44c063c091" y="178.721818"/>

      </g>

     </g>

     <g id="text_7">

      <!-- 0.2 -->

      <g transform="translate(7.2 182.521037)scale(0.1 -0.1)">

       <use xlink:href="#DejaVuSans-30"/>

       <use x="63.623047" xlink:href="#DejaVuSans-2e"/>

       <use x="95.410156" xlink:href="#DejaVuSans-32"/>

      </g>

     </g>

    </g>

    <g id="ytick_3">

     <g id="line2d_8">

      <g>

       <use style="stroke:#000000;stroke-width:0.8;" x="30.103125" xlink:href="#m44c063c091" y="139.187273"/>

      </g>

     </g>

     <g id="text_8">

      <!-- 0.4 -->

      <g transform="translate(7.2 142.986491)scale(0.1 -0.1)">

       <use xlink:href="#DejaVuSans-30"/>

       <use x="63.623047" xlink:href="#DejaVuSans-2e"/>

       <use x="95.410156" xlink:href="#DejaVuSans-34"/>

      </g>

     </g>

    </g>

    <g id="ytick_4">

     <g id="line2d_9">

      <g>

       <use style="stroke:#000000;stroke-width:0.8;" x="30.103125" xlink:href="#m44c063c091" y="99.652727"/>

      </g>

     </g>

     <g id="text_9">

      <!-- 0.6 -->

      <defs>

       <path d="M 33.015625 40.375 

Q 26.375 40.375 22.484375 35.828125 

Q 18.609375 31.296875 18.609375 23.390625 

Q 18.609375 15.53125 22.484375 10.953125 

Q 26.375 6.390625 33.015625 6.390625 

Q 39.65625 6.390625 43.53125 10.953125 

Q 47.40625 15.53125 47.40625 23.390625 

Q 47.40625 31.296875 43.53125 35.828125 

Q 39.65625 40.375 33.015625 40.375 

z

M 52.59375 71.296875 

L 52.59375 62.3125 

Q 48.875 64.0625 45.09375 64.984375 

Q 41.3125 65.921875 37.59375 65.921875 

Q 27.828125 65.921875 22.671875 59.328125 

Q 17.53125 52.734375 16.796875 39.40625 

Q 19.671875 43.65625 24.015625 45.921875 

Q 28.375 48.1875 33.59375 48.1875 

Q 44.578125 48.1875 50.953125 41.515625 

Q 57.328125 34.859375 57.328125 23.390625 

Q 57.328125 12.15625 50.6875 5.359375 

Q 44.046875 -1.421875 33.015625 -1.421875 

Q 20.359375 -1.421875 13.671875 8.265625 

Q 6.984375 17.96875 6.984375 36.375 

Q 6.984375 53.65625 15.1875 63.9375 

Q 23.390625 74.21875 37.203125 74.21875 

Q 40.921875 74.21875 44.703125 73.484375 

Q 48.484375 72.75 52.59375 71.296875 

z

" id="DejaVuSans-36"/>

      </defs>

      <g transform="translate(7.2 103.451946)scale(0.1 -0.1)">

       <use xlink:href="#DejaVuSans-30"/>

       <use x="63.623047" xlink:href="#DejaVuSans-2e"/>

       <use x="95.410156" xlink:href="#DejaVuSans-36"/>

      </g>

     </g>

    </g>

    <g id="ytick_5">

     <g id="line2d_10">

      <g>

       <use style="stroke:#000000;stroke-width:0.8;" x="30.103125" xlink:href="#m44c063c091" y="60.118182"/>

      </g>

     </g>

     <g id="text_10">

      <!-- 0.8 -->

      <defs>

       <path d="M 31.78125 34.625 

Q 24.75 34.625 20.71875 30.859375 

Q 16.703125 27.09375 16.703125 20.515625 

Q 16.703125 13.921875 20.71875 10.15625 

Q 24.75 6.390625 31.78125 6.390625 

Q 38.8125 6.390625 42.859375 10.171875 

Q 46.921875 13.96875 46.921875 20.515625 

Q 46.921875 27.09375 42.890625 30.859375 

Q 38.875 34.625 31.78125 34.625 

z

M 21.921875 38.8125 

Q 15.578125 40.375 12.03125 44.71875 

Q 8.5 49.078125 8.5 55.328125 

Q 8.5 64.0625 14.71875 69.140625 

Q 20.953125 74.21875 31.78125 74.21875 

Q 42.671875 74.21875 48.875 69.140625 

Q 55.078125 64.0625 55.078125 55.328125 

Q 55.078125 49.078125 51.53125 44.71875 

Q 48 40.375 41.703125 38.8125 

Q 48.828125 37.15625 52.796875 32.3125 

Q 56.78125 27.484375 56.78125 20.515625 

Q 56.78125 9.90625 50.3125 4.234375 

Q 43.84375 -1.421875 31.78125 -1.421875 

Q 19.734375 -1.421875 13.25 4.234375 

Q 6.78125 9.90625 6.78125 20.515625 

Q 6.78125 27.484375 10.78125 32.3125 

Q 14.796875 37.15625 21.921875 38.8125 

z

M 18.3125 54.390625 

Q 18.3125 48.734375 21.84375 45.5625 

Q 25.390625 42.390625 31.78125 42.390625 

Q 38.140625 42.390625 41.71875 45.5625 

Q 45.3125 48.734375 45.3125 54.390625 

Q 45.3125 60.0625 41.71875 63.234375 

Q 38.140625 66.40625 31.78125 66.40625 

Q 25.390625 66.40625 21.84375 63.234375 

Q 18.3125 60.0625 18.3125 54.390625 

z

" id="DejaVuSans-38"/>

      </defs>

      <g transform="translate(7.2 63.917401)scale(0.1 -0.1)">

       <use xlink:href="#DejaVuSans-30"/>

       <use x="63.623047" xlink:href="#DejaVuSans-2e"/>

       <use x="95.410156" xlink:href="#DejaVuSans-38"/>

      </g>

     </g>

    </g>

    <g id="ytick_6">

     <g id="line2d_11">

      <g>

       <use style="stroke:#000000;stroke-width:0.8;" x="30.103125" xlink:href="#m44c063c091" y="20.583636"/>

      </g>

     </g>

     <g id="text_11">

      <!-- 1.0 -->

      <g transform="translate(7.2 24.382855)scale(0.1 -0.1)">

       <use xlink:href="#DejaVuSans-31"/>

       <use x="63.623047" xlink:href="#DejaVuSans-2e"/>

       <use x="95.410156" xlink:href="#DejaVuSans-30"/>

      </g>

     </g>

    </g>

   </g>

   <g id="line2d_12">

    <path clip-path="url(#pfc45c40d52)" d="M 30.103125 98.361794 

L 33.484943 86.293394 

L 36.866761 74.484625 

L 40.24858 63.209194 

L 43.630398 52.746821 

L 47.012216 43.371949 

L 50.394034 35.341897 

L 53.775852 28.885187 

L 57.15767 24.190757 

L 60.539489 21.39878 

L 63.921307 20.59372 

L 67.303125 21.80008 

L 70.684943 24.981166 

L 74.066761 30.040943 

L 77.44858 36.828847 

L 80.830398 45.147229 

L 84.212216 54.760907 

L 87.594034 65.408185 

L 90.975852 76.812626 

L 94.35767 88.694837 

L 97.739489 100.783579 

L 101.121307 112.825601 

L 104.503125 124.593742 

L 107.884943 135.892987 

L 111.266761 146.564338 

L 114.64858 156.486529 

L 118.030398 165.57574 

L 121.412216 173.783587 

L 124.794034 181.093732 

L 128.175852 187.517519 

L 131.55767 193.089012 

L 134.939489 197.859831 

L 138.321307 201.894074 

L 141.703125 205.263626 

L 145.084943 208.044003 

L 148.466761 210.310877 

L 151.84858 212.137318 

L 155.230398 213.591749 

L 158.612216 214.736574 

L 161.994034 215.627388 

L 165.375852 216.312681 

L 168.75767 216.833927 

L 172.139489 217.225955 

L 175.521307 217.517516 

L 178.903125 217.731956 

L 182.284943 217.887936 

L 185.666761 218.000149 

L 189.04858 218.079994 

L 192.430398 218.136188 

L 195.812216 218.17531 

L 199.194034 218.202251 

L 202.575852 218.220604 

L 205.95767 218.232972 

L 209.339489 218.241218 

L 212.721307 218.246656 

L 216.103125 218.250205 

L 219.484943 218.252496 

L 222.866761 218.25396 

L 226.24858 218.254885 

L 229.630398 218.255463 

L 233.012216 218.255821 

L 236.394034 218.25604 

L 239.775852 218.256172 

L 243.15767 218.256252 

L 246.539489 218.256299 

L 249.921307 218.256327 

L 253.303125 218.256343 

L 256.684943 218.256352 

L 260.066761 218.256357 

L 263.44858 218.25636 

L 266.830398 218.256362 

L 270.212216 218.256363 

L 273.594034 218.256363 

L 276.975852 218.256363 

L 280.35767 218.256363 

L 283.739489 218.256364 

L 287.121307 218.256364 

L 290.503125 218.256364 

L 293.884943 218.256364 

L 297.266761 218.256364 

L 300.64858 218.256364 

L 304.030398 218.256364 

L 307.412216 218.256364 

L 310.794034 218.256364 

L 314.175852 218.256364 

L 317.55767 218.256364 

L 320.939489 218.256364 

L 324.321307 218.256364 

L 327.703125 218.256364 

L 331.084943 218.256364 

L 334.466761 218.256364 

L 337.84858 218.256364 

L 341.230398 218.256364 

L 344.612216 218.256364 

L 347.994034 218.256364 

L 351.375852 218.256364 

L 354.75767 218.256364 

L 358.139489 218.256364 

L 361.521307 218.256364 

L 364.903125 218.256364 

" style="fill:none;stroke:#1f77b4;stroke-linecap:square;stroke-width:1.5;"/>

   </g>

   <g id="line2d_13">

    <path clip-path="url(#pfc45c40d52)" d="M 30.103125 191.504269 

L 33.484943 185.681809 

L 36.866761 178.994758 

L 40.24858 171.415326 

L 43.630398 162.939973 

L 47.012216 153.59423 

L 50.394034 143.436811 

L 53.775852 132.562631 

L 57.15767 121.104332 

L 60.539489 109.231992 

L 63.921307 97.150779 

L 67.303125 85.096413 

L 70.684943 73.328478 

L 74.066761 62.121761 

L 77.44858 51.755977 

L 80.830398 42.504393 

L 84.212216 34.621965 

L 87.594034 28.33372 

L 90.975852 23.8241 

L 94.35767 21.22798 

L 97.739489 20.62397 

L 101.121307 22.030457 

L 104.503125 25.40468 

L 107.884943 30.644888 

L 111.266761 37.595435 

L 114.64858 46.054457 

L 118.030398 55.783608 

L 121.412216 66.519181 

L 124.794034 77.983921 

L 128.175852 89.898766 

L 131.55767 101.993859 

L 134.939489 114.018226 

L 138.321307 125.747682 

L 141.703125 136.990676 

L 145.084943 147.591941 

L 148.466761 157.434001 

L 151.84858 166.436694 

L 155.230398 174.555013 

L 158.612216 181.775596 

L 161.994034 188.11229 

L 165.375852 193.601148 

L 168.75767 198.295261 

L 172.139489 202.25971 

L 175.521307 205.566919 

L 178.903125 208.292564 

L 182.284943 210.51217 

L 185.666761 212.298421 

L 189.04858 213.719191 

L 192.430398 214.836229 

L 195.812216 215.704427 

L 199.194034 216.371563 

L 202.575852 216.878425 

L 205.95767 217.259207 

L 209.339489 217.542088 

L 212.721307 217.749913 

L 216.103125 217.900915 

L 219.484943 218.009427 

L 222.866761 218.086554 

L 226.24858 218.140776 

L 229.630398 218.178484 

L 233.012216 218.204423 

L 236.394034 218.222074 

L 239.775852 218.233957 

L 243.15767 218.24187 

L 246.539489 218.247084 

L 249.921307 218.250482 

L 253.303125 218.252674 

L 256.684943 218.254073 

L 260.066761 218.254955 

L 263.44858 218.255507 

L 266.830398 218.255848 

L 270.212216 218.256056 

L 273.594034 218.256182 

L 276.975852 218.256258 

L 280.35767 218.256302 

L 283.739489 218.256329 

L 287.121307 218.256344 

L 290.503125 218.256352 

L 293.884943 218.256357 

L 297.266761 218.25636 

L 300.64858 218.256362 

L 304.030398 218.256363 

L 307.412216 218.256363 

L 310.794034 218.256363 

L 314.175852 218.256363 

L 317.55767 218.256364 

L 320.939489 218.256364 

L 324.321307 218.256364 

L 327.703125 218.256364 

L 331.084943 218.256364 

L 334.466761 218.256364 

L 337.84858 218.256364 

L 341.230398 218.256364 

L 344.612216 218.256364 

L 347.994034 218.256364 

L 351.375852 218.256364 

L 354.75767 218.256364 

L 358.139489 218.256364 

L 361.521307 218.256364 

L 364.903125 218.256364 

" style="fill:none;stroke:#ff7f0e;stroke-linecap:square;stroke-width:1.5;"/>

   </g>

   <g id="line2d_14">

    <path clip-path="url(#pfc45c40d52)" d="M 30.103125 216.060418 

L 33.484943 215.29828 

L 36.866761 214.31208 

L 40.24858 213.050477 

L 43.630398 211.455092 

L 47.012216 209.460986 

L 50.394034 206.997678 

L 53.775852 203.990773 

L 57.15767 200.364288 

L 60.539489 196.043705 

L 63.921307 190.959719 

L 67.303125 185.052636 

L 70.684943 178.277237 

L 74.066761 170.607929 

L 77.44858 162.04387 

L 80.830398 152.613738 

L 84.212216 142.379756 

L 87.594034 131.440569 

L 90.975852 119.932608 

L 94.35767 108.029602 

L 97.739489 95.940013 

L 101.121307 83.902284 

L 104.503125 72.177939 

L 107.884943 61.042742 

L 111.266761 50.776291 

L 114.64858 41.650553 

L 118.030398 33.918008 

L 121.412216 27.80008 

L 124.794034 23.476625 

L 128.175852 21.077151 

L 131.55767 20.674374 

L 134.939489 22.28056 

L 138.321307 25.846899 

L 141.703125 31.265976 

L 145.084943 38.377137 

L 148.466761 46.974407 

L 151.84858 56.816384 

L 155.230398 67.637471 

L 158.612216 79.15971 

L 161.994034 91.104483 

L 165.375852 103.20341 

L 168.75767 115.207874 

L 172.139489 126.896727 

L 175.521307 138.081916 

L 178.903125 148.611922 

L 182.284943 158.37305 

L 185.666761 167.288778 

L 189.04858 175.317438 

L 192.430398 182.448603 

L 195.812216 188.698569 

L 199.194034 194.105327 

L 202.575852 198.723389 

L 205.95767 202.618772 

L 209.339489 205.864397 

L 212.721307 208.536068 

L 216.103125 210.709133 

L 219.484943 212.455875 

L 222.866761 213.843602 

L 226.24858 214.933403 

L 229.630398 215.779461 

L 233.012216 216.428847 

L 236.394034 216.921667 

L 239.775852 217.291484 

L 243.15767 217.565914 

L 246.539489 217.767306 

L 249.921307 217.913472 

L 253.303125 218.018393 

L 256.684943 218.092886 

L 260.066761 218.1452 

L 263.44858 218.181541 

L 266.830398 218.206513 

L 270.212216 218.223487 

L 273.594034 218.234902 

L 276.975852 218.242496 

L 280.35767 218.247494 

L 283.739489 218.250748 

L 287.121307 218.252844 

L 290.503125 218.25418 

L 293.884943 218.255023 

L 297.266761 218.255549 

L 300.64858 218.255873 

L 304.030398 218.256072 

L 307.412216 218.256192 

L 310.794034 218.256263 

L 314.175852 218.256306 

L 317.55767 218.25633 

L 320.939489 218.256345 

L 324.321307 218.256353 

L 327.703125 218.256358 

L 331.084943 218.25636 

L 334.466761 218.256362 

L 337.84858 218.256363 

L 341.230398 218.256363 

L 344.612216 218.256363 

L 347.994034 218.256363 

L 351.375852 218.256364 

L 354.75767 218.256364 

L 358.139489 218.256364 

L 361.521307 218.256364 

L 364.903125 218.256364 

" style="fill:none;stroke:#2ca02c;stroke-linecap:square;stroke-width:1.5;"/>

   </g>

   <g id="line2d_15">

    <path clip-path="url(#pfc45c40d52)" d="M 30.103125 218.190052 

L 33.484943 218.157543 

L 36.866761 218.110592 

L 40.24858 218.043516 

L 43.630398 217.948731 

L 47.012216 217.81625 

L 50.394034 217.633109 

L 53.775852 217.382717 

L 57.15767 217.044161 

L 60.539489 216.591483 

L 63.921307 215.992971 

L 67.303125 215.210534 

L 70.684943 214.199222 

L 74.066761 212.906981 

L 77.44858 211.274747 

L 80.830398 209.236973 

L 84.212216 206.7227 

L 87.594034 203.657258 

L 90.975852 199.964662 

L 94.35767 195.570735 

L 97.739489 190.406927 

L 101.121307 184.414763 

L 104.503125 177.550756 

L 107.884943 169.791559 

L 111.266761 161.139078 

L 114.64858 151.625178 

L 118.030398 141.315618 

L 121.412216 130.312789 

L 124.794034 118.756905 

L 128.175852 106.82532 

L 131.55767 94.729746 

L 134.939489 82.711276 

L 138.321307 71.033288 

L 141.703125 59.972417 

L 145.084943 49.808027 

L 148.466761 40.810672 

L 151.84858 33.230232 

L 155.230398 27.284426 

L 158.612216 23.148436 

L 161.994034 20.946339 

L 165.375852 20.74492 

L 168.75767 22.550313 

L 172.139489 26.30769 

L 175.521307 31.904021 

L 178.903125 39.17373 

L 182.284943 47.906824 

L 185.666761 57.858961 

L 189.04858 68.762773 

L 192.430398 80.339716 

L 195.812216 92.311724 

L 199.194034 104.411994 

L 202.575852 116.394339 

L 205.95767 128.040705 

L 209.339489 139.166573 

L 212.721307 149.624183 

L 216.103125 159.303616 

L 219.484943 168.131965 

L 222.866761 176.070866 

L 226.24858 183.112779 

L 229.630398 189.276402 

L 233.012216 194.60161 

L 236.394034 199.144284 

L 239.775852 202.971333 

L 243.15767 206.156135 

L 246.539489 208.774587 

L 249.921307 210.901837 

L 253.303125 212.609743 

L 256.684943 213.965039 

L 260.066761 215.028145 

L 263.44858 215.852535 

L 266.830398 216.484571 

L 270.212216 216.963683 

L 273.594034 217.322812 

L 276.975852 217.589013 

L 280.35767 217.784149 

L 283.739489 217.925619 

L 287.121307 218.027058 

L 290.503125 218.098999 

L 293.884943 218.149466 

L 297.266761 218.184486 

L 300.64858 218.208523 

L 304.030398 218.224845 

L 307.412216 218.23581 

L 310.794034 218.243096 

L 314.175852 218.247886 

L 317.55767 218.251002 

L 320.939489 218.253007 

L 324.321307 218.254283 

L 327.703125 218.255088 

L 331.084943 218.255589 

L 334.466761 218.255898 

L 337.84858 218.256087 

L 341.230398 218.256201 

L 344.612216 218.256269 

L 347.994034 218.256309 

L 351.375852 218.256332 

L 354.75767 218.256346 

L 358.139489 218.256354 

L 361.521307 218.256358 

L 364.903125 218.256361 

" style="fill:none;stroke:#d62728;stroke-linecap:square;stroke-width:1.5;"/>

   </g>

   <g id="line2d_16">

    <path clip-path="url(#pfc45c40d52)" d="M 30.103125 218.255627 

L 33.484943 218.255149 

L 36.866761 218.254382 

L 40.24858 218.253162 

L 43.630398 218.251245 

L 47.012216 218.248262 

L 50.394034 218.243671 

L 53.775852 218.236681 

L 57.15767 218.226151 

L 60.539489 218.210457 

L 63.921307 218.187321 

L 67.303125 218.153579 

L 70.684943 218.104899 

L 74.066761 218.035429 

L 77.44858 217.937368 

L 80.830398 217.800459 

L 84.212216 217.611405 

L 87.594034 217.353215 

L 90.975852 217.004505 

L 94.35767 216.538771 

L 97.739489 215.923691 

L 101.121307 215.120505 

L 104.503125 214.08356 

L 107.884943 212.760091 

L 111.266761 211.090352 

L 114.64858 209.008198 

L 118.030398 206.442211 

L 121.412216 203.31747 

L 124.794034 199.558018 

L 128.175852 195.090058 

L 131.55767 189.845838 

L 134.939489 183.768156 

L 138.321307 176.815303 

L 141.703125 168.966232 

L 145.084943 160.225643 

L 148.466761 150.628632 

L 151.84858 140.244516 

L 155.230398 129.179447 

L 158.612216 117.577416 

L 161.994034 105.619374 

L 165.375852 93.520231 

L 168.75767 81.523663 

L 172.139489 69.894805 

L 175.521307 58.911065 

L 178.903125 48.851451 

L 182.284943 39.984986 

L 185.666761 32.558837 

L 189.04858 26.786913 

L 192.430398 22.839635 

L 195.812216 20.835584 

L 199.194034 20.835584 

L 202.575852 22.839635 

L 205.95767 26.786913 

L 209.339489 32.558837 

L 212.721307 39.984986 

L 216.103125 48.851451 

L 219.484943 58.911065 

L 222.866761 69.894805 

L 226.24858 81.523663 

L 229.630398 93.520231 

L 233.012216 105.619374 

L 236.394034 117.577416 

L 239.775852 129.179447 

L 243.15767 140.244516 

L 246.539489 150.628632 

L 249.921307 160.225643 

L 253.303125 168.966232 

L 256.684943 176.815303 

L 260.066761 183.768156 

L 263.44858 189.845838 

L 266.830398 195.090058 

L 270.212216 199.558018 

L 273.594034 203.31747 

L 276.975852 206.442211 

L 280.35767 209.008198 

L 283.739489 211.090352 

L 287.121307 212.760091 

L 290.503125 214.08356 

L 293.884943 215.120505 

L 297.266761 215.923691 

L 300.64858 216.538771 

L 304.030398 217.004505 

L 307.412216 217.353215 

L 310.794034 217.611405 

L 314.175852 217.800459 

L 317.55767 217.937368 

L 320.939489 218.035429 

L 324.321307 218.104899 

L 327.703125 218.153579 

L 331.084943 218.187321 

L 334.466761 218.210457 

L 337.84858 218.226151 

L 341.230398 218.236681 

L 344.612216 218.243671 

L 347.994034 218.248262 

L 351.375852 218.251245 

L 354.75767 218.253162 

L 358.139489 218.254382 

L 361.521307 218.255149 

L 364.903125 218.255627 

" style="fill:none;stroke:#9467bd;stroke-linecap:square;stroke-width:1.5;"/>

   </g>

   <g id="line2d_17">

    <path clip-path="url(#pfc45c40d52)" d="M 30.103125 218.256361 

L 33.484943 218.256358 

L 36.866761 218.256354 

L 40.24858 218.256346 

L 43.630398 218.256332 

L 47.012216 218.256309 

L 50.394034 218.256269 

L 53.775852 218.256201 

L 57.15767 218.256087 

L 60.539489 218.255898 

L 63.921307 218.255589 

L 67.303125 218.255088 

L 70.684943 218.254283 

L 74.066761 218.253007 

L 77.44858 218.251002 

L 80.830398 218.247886 

L 84.212216 218.243096 

L 87.594034 218.23581 

L 90.975852 218.224845 

L 94.35767 218.208523 

L 97.739489 218.184486 

L 101.121307 218.149466 

L 104.503125 218.098999 

L 107.884943 218.027058 

L 111.266761 217.925619 

L 114.64858 217.784149 

L 118.030398 217.589013 

L 121.412216 217.322812 

L 124.794034 216.963683 

L 128.175852 216.484571 

L 131.55767 215.852535 

L 134.939489 215.028145 

L 138.321307 213.965039 

L 141.703125 212.609743 

L 145.084943 210.901837 

L 148.466761 208.774587 

L 151.84858 206.156135 

L 155.230398 202.971333 

L 158.612216 199.144284 

L 161.994034 194.60161 

L 165.375852 189.276402 

L 168.75767 183.112779 

L 172.139489 176.070866 

L 175.521307 168.131965 

L 178.903125 159.303616 

L 182.284943 149.624183 

L 185.666761 139.166573 

L 189.04858 128.040705 

L 192.430398 116.394339 

L 195.812216 104.411994 

L 199.194034 92.311724 

L 202.575852 80.339716 

L 205.95767 68.762773 

L 209.339489 57.858961 

L 212.721307 47.906824 

L 216.103125 39.17373 

L 219.484943 31.904021 

L 222.866761 26.30769 

L 226.24858 22.550313 

L 229.630398 20.74492 

L 233.012216 20.946339 

L 236.394034 23.148436 

L 239.775852 27.284426 

L 243.15767 33.230232 

L 246.539489 40.810672 

L 249.921307 49.808027 

L 253.303125 59.972417 

L 256.684943 71.033288 

L 260.066761 82.711276 

L 263.44858 94.729746 

L 266.830398 106.82532 

L 270.212216 118.756905 

L 273.594034 130.312789 

L 276.975852 141.315618 

L 280.35767 151.625178 

L 283.739489 161.139078 

L 287.121307 169.791559 

L 290.503125 177.550756 

L 293.884943 184.414763 

L 297.266761 190.406927 

L 300.64858 195.570735 

L 304.030398 199.964662 

L 307.412216 203.657258 

L 310.794034 206.7227 

L 314.175852 209.236973 

L 317.55767 211.274747 

L 320.939489 212.906981 

L 324.321307 214.199222 

L 327.703125 215.210534 

L 331.084943 215.992971 

L 334.466761 216.591483 

L 337.84858 217.044161 

L 341.230398 217.382717 

L 344.612216 217.633109 

L 347.994034 217.81625 

L 351.375852 217.948731 

L 354.75767 218.043516 

L 358.139489 218.110592 

L 361.521307 218.157543 

L 364.903125 218.190052 

" style="fill:none;stroke:#8c564b;stroke-linecap:square;stroke-width:1.5;"/>

   </g>

   <g id="line2d_18">

    <path clip-path="url(#pfc45c40d52)" d="M 30.103125 218.256364 

L 33.484943 218.256364 

L 36.866761 218.256364 

L 40.24858 218.256364 

L 43.630398 218.256364 

L 47.012216 218.256363 

L 50.394034 218.256363 

L 53.775852 218.256363 

L 57.15767 218.256363 

L 60.539489 218.256362 

L 63.921307 218.25636 

L 67.303125 218.256358 

L 70.684943 218.256353 

L 74.066761 218.256345 

L 77.44858 218.25633 

L 80.830398 218.256306 

L 84.212216 218.256263 

L 87.594034 218.256192 

L 90.975852 218.256072 

L 94.35767 218.255873 

L 97.739489 218.255549 

L 101.121307 218.255023 

L 104.503125 218.25418 

L 107.884943 218.252844 

L 111.266761 218.250748 

L 114.64858 218.247494 

L 118.030398 218.242496 

L 121.412216 218.234902 

L 124.794034 218.223487 

L 128.175852 218.206513 

L 131.55767 218.181541 

L 134.939489 218.1452 

L 138.321307 218.092886 

L 141.703125 218.018393 

L 145.084943 217.913472 

L 148.466761 217.767306 

L 151.84858 217.565914 

L 155.230398 217.291484 

L 158.612216 216.921667 

L 161.994034 216.428847 

L 165.375852 215.779461 

L 168.75767 214.933403 

L 172.139489 213.843602 

L 175.521307 212.455875 

L 178.903125 210.709133 

L 182.284943 208.536068 

L 185.666761 205.864397 

L 189.04858 202.618772 

L 192.430398 198.723389 

L 195.812216 194.105327 

L 199.194034 188.698569 

L 202.575852 182.448603 

L 205.95767 175.317438 

L 209.339489 167.288778 

L 212.721307 158.37305 

L 216.103125 148.611922 

L 219.484943 138.081916 

L 222.866761 126.896727 

L 226.24858 115.207874 

L 229.630398 103.20341 

L 233.012216 91.104483 

L 236.394034 79.15971 

L 239.775852 67.637471 

L 243.15767 56.816384 

L 246.539489 46.974407 

L 249.921307 38.377137 

L 253.303125 31.265976 

L 256.684943 25.846899 

L 260.066761 22.28056 

L 263.44858 20.674374 

L 266.830398 21.077151 

L 270.212216 23.476625 

L 273.594034 27.80008 

L 276.975852 33.918008 

L 280.35767 41.650553 

L 283.739489 50.776291 

L 287.121307 61.042742 

L 290.503125 72.177939 

L 293.884943 83.902284 

L 297.266761 95.940013 

L 300.64858 108.029602 

L 304.030398 119.932608 

L 307.412216 131.440569 

L 310.794034 142.379756 

L 314.175852 152.613738 

L 317.55767 162.04387 

L 320.939489 170.607929 

L 324.321307 178.277237 

L 327.703125 185.052636 

L 331.084943 190.959719 

L 334.466761 196.043705 

L 337.84858 200.364288 

L 341.230398 203.990773 

L 344.612216 206.997678 

L 347.994034 209.460986 

L 351.375852 211.455092 

L 354.75767 213.050477 

L 358.139489 214.31208 

L 361.521307 215.29828 

L 364.903125 216.060418 

" style="fill:none;stroke:#e377c2;stroke-linecap:square;stroke-width:1.5;"/>

   </g>

   <g id="line2d_19">

    <path clip-path="url(#pfc45c40d52)" d="M 30.103125 218.256364 

L 33.484943 218.256364 

L 36.866761 218.256364 

L 40.24858 218.256364 

L 43.630398 218.256364 

L 47.012216 218.256364 

L 50.394034 218.256364 

L 53.775852 218.256364 

L 57.15767 218.256364 

L 60.539489 218.256364 

L 63.921307 218.256364 

L 67.303125 218.256364 

L 70.684943 218.256364 

L 74.066761 218.256364 

L 77.44858 218.256364 

L 80.830398 218.256363 

L 84.212216 218.256363 

L 87.594034 218.256363 

L 90.975852 218.256363 

L 94.35767 218.256362 

L 97.739489 218.25636 

L 101.121307 218.256357 

L 104.503125 218.256352 

L 107.884943 218.256344 

L 111.266761 218.256329 

L 114.64858 218.256302 

L 118.030398 218.256258 

L 121.412216 218.256182 

L 124.794034 218.256056 

L 128.175852 218.255848 

L 131.55767 218.255507 

L 134.939489 218.254955 

L 138.321307 218.254073 

L 141.703125 218.252674 

L 145.084943 218.250482 

L 148.466761 218.247084 

L 151.84858 218.24187 

L 155.230398 218.233957 

L 158.612216 218.222074 

L 161.994034 218.204423 

L 165.375852 218.178484 

L 168.75767 218.140776 

L 172.139489 218.086554 

L 175.521307 218.009427 

L 178.903125 217.900915 

L 182.284943 217.749913 

L 185.666761 217.542088 

L 189.04858 217.259207 

L 192.430398 216.878425 

L 195.812216 216.371563 

L 199.194034 215.704427 

L 202.575852 214.836229 

L 205.95767 213.719191 

L 209.339489 212.298421 

L 212.721307 210.51217 

L 216.103125 208.292564 

L 219.484943 205.566919 

L 222.866761 202.25971 

L 226.24858 198.295261 

L 229.630398 193.601148 

L 233.012216 188.11229 

L 236.394034 181.775596 

L 239.775852 174.555013 

L 243.15767 166.436694 

L 246.539489 157.434001 

L 249.921307 147.591941 

L 253.303125 136.990676 

L 256.684943 125.747682 

L 260.066761 114.018226 

L 263.44858 101.993859 

L 266.830398 89.898766 

L 270.212216 77.983921 

L 273.594034 66.519181 

L 276.975852 55.783608 

L 280.35767 46.054457 

L 283.739489 37.595435 

L 287.121307 30.644888 

L 290.503125 25.40468 

L 293.884943 22.030457 

L 297.266761 20.62397 

L 300.64858 21.22798 

L 304.030398 23.8241 

L 307.412216 28.33372 

L 310.794034 34.621965 

L 314.175852 42.504393 

L 317.55767 51.755977 

L 320.939489 62.121761 

L 324.321307 73.328478 

L 327.703125 85.096413 

L 331.084943 97.150779 

L 334.466761 109.231992 

L 337.84858 121.104332 

L 341.230398 132.562631 

L 344.612216 143.436811 

L 347.994034 153.59423 

L 351.375852 162.939973 

L 354.75767 171.415326 

L 358.139489 178.994758 

L 361.521307 185.681809 

L 364.903125 191.504269 

" style="fill:none;stroke:#7f7f7f;stroke-linecap:square;stroke-width:1.5;"/>

   </g>

   <g id="line2d_20">

    <path clip-path="url(#pfc45c40d52)" d="M 30.103125 218.256364 

L 33.484943 218.256364 

L 36.866761 218.256364 

L 40.24858 218.256364 

L 43.630398 218.256364 

L 47.012216 218.256364 

L 50.394034 218.256364 

L 53.775852 218.256364 

L 57.15767 218.256364 

L 60.539489 218.256364 

L 63.921307 218.256364 

L 67.303125 218.256364 

L 70.684943 218.256364 

L 74.066761 218.256364 

L 77.44858 218.256364 

L 80.830398 218.256364 

L 84.212216 218.256364 

L 87.594034 218.256364 

L 90.975852 218.256364 

L 94.35767 218.256364 

L 97.739489 218.256364 

L 101.121307 218.256364 

L 104.503125 218.256364 

L 107.884943 218.256364 

L 111.266761 218.256364 

L 114.64858 218.256363 

L 118.030398 218.256363 

L 121.412216 218.256363 

L 124.794034 218.256363 

L 128.175852 218.256362 

L 131.55767 218.25636 

L 134.939489 218.256357 

L 138.321307 218.256352 

L 141.703125 218.256343 

L 145.084943 218.256327 

L 148.466761 218.256299 

L 151.84858 218.256252 

L 155.230398 218.256172 

L 158.612216 218.25604 

L 161.994034 218.255821 

L 165.375852 218.255463 

L 168.75767 218.254885 

L 172.139489 218.25396 

L 175.521307 218.252496 

L 178.903125 218.250205 

L 182.284943 218.246656 

L 185.666761 218.241218 

L 189.04858 218.232972 

L 192.430398 218.220604 

L 195.812216 218.202251 

L 199.194034 218.17531 

L 202.575852 218.136188 

L 205.95767 218.079994 

L 209.339489 218.000149 

L 212.721307 217.887936 

L 216.103125 217.731956 

L 219.484943 217.517516 

L 222.866761 217.225955 

L 226.24858 216.833927 

L 229.630398 216.312681 

L 233.012216 215.627388 

L 236.394034 214.736574 

L 239.775852 213.591749 

L 243.15767 212.137318 

L 246.539489 210.310877 

L 249.921307 208.044003 

L 253.303125 205.263626 

L 256.684943 201.894074 

L 260.066761 197.859831 

L 263.44858 193.089012 

L 266.830398 187.517519 

L 270.212216 181.093732 

L 273.594034 173.783587 

L 276.975852 165.57574 

L 280.35767 156.486529 

L 283.739489 146.564338 

L 287.121307 135.892987 

L 290.503125 124.593742 

L 293.884943 112.825601 

L 297.266761 100.783579 

L 300.64858 88.694837 

L 304.030398 76.812626 

L 307.412216 65.408185 

L 310.794034 54.760907 

L 314.175852 45.147229 

L 317.55767 36.828847 

L 320.939489 30.040943 

L 324.321307 24.981166 

L 327.703125 21.80008 

L 331.084943 20.59372 

L 334.466761 21.39878 

L 337.84858 24.190757 

L 341.230398 28.885187 

L 344.612216 35.341897 

L 347.994034 43.371949 

L 351.375852 52.746821 

L 354.75767 63.209194 

L 358.139489 74.484625 

L 361.521307 86.293394 

L 364.903125 98.361794 

" style="fill:none;stroke:#bcbd22;stroke-linecap:square;stroke-width:1.5;"/>

   </g>

   <g id="line2d_21">

    <path clip-path="url(#pfc45c40d52)" d="M 30.103125 20.583636 

L 364.903125 20.583636 

" style="fill:none;stroke:#17becf;stroke-linecap:square;stroke-width:1.5;"/>

   </g>

   <g id="patch_3">

    <path d="M 30.103125 228.14 

L 30.103125 10.7 

" style="fill:none;stroke:#000000;stroke-linecap:square;stroke-linejoin:miter;stroke-width:0.8;"/>

   </g>

   <g id="patch_4">

    <path d="M 364.903125 228.14 

L 364.903125 10.7 

" style="fill:none;stroke:#000000;stroke-linecap:square;stroke-linejoin:miter;stroke-width:0.8;"/>

   </g>

   <g id="patch_5">

    <path d="M 30.103125 228.14 

L 364.903125 228.14 

" style="fill:none;stroke:#000000;stroke-linecap:square;stroke-linejoin:miter;stroke-width:0.8;"/>

   </g>

   <g id="patch_6">

    <path d="M 30.103125 10.7 

L 364.903125 10.7 

" style="fill:none;stroke:#000000;stroke-linecap:square;stroke-linejoin:miter;stroke-width:0.8;"/>

   </g>

   <g id="legend_1">

    <g id="patch_7">

     <path d="M 378.599125 176.572 

L 440.099125 176.572 

Q 442.099125 176.572 442.099125 174.572 

L 442.099125 28.572 

Q 442.099125 26.572 440.099125 26.572 

L 378.599125 26.572 

Q 376.599125 26.572 376.599125 28.572 

L 376.599125 174.572 

Q 376.599125 176.572 378.599125 176.572 

z

" style="fill:#ffffff;opacity:0.8;stroke:#cccccc;stroke-linejoin:miter;"/>

    </g>

    <g id="line2d_22">

     <path d="M 380.599125 34.672 

L 400.599125 34.672 

" style="fill:none;stroke:#1f77b4;stroke-linecap:square;stroke-width:1.5;"/>

    </g>

    <g id="line2d_23"/>

    <g id="text_12">

     <!-- $\phi_{1}(x)$ -->

     <defs>

      <path d="M 46.734375 75.984375 

L 42.78125 55.8125 

Q 52.546875 55.8125 57.5625 48.34375 

Q 62.75 40.71875 60.15625 27.296875 

Q 57.515625 13.875 49.359375 6.25 

Q 41.453125 -1.21875 31.6875 -1.21875 

L 27.875 -20.796875 

L 18.953125 -20.796875 

L 22.75 -1.21875 

Q 13.03125 -1.21875 7.953125 6.25 

Q 2.78125 13.875 5.421875 27.296875 

Q 8.015625 40.71875 16.15625 48.34375 

Q 24.125 55.8125 33.84375 55.8125 

L 37.796875 75.984375 

z

M 33.25 6.78125 

Q 38.765625 6.78125 43.5 11.8125 

Q 48.6875 17.4375 50.6875 27.296875 

Q 52.640625 37.0625 49.515625 42.78125 

Q 46.734375 47.796875 41.21875 47.796875 

z

M 24.3125 6.78125 

L 32.28125 47.796875 

Q 26.8125 47.796875 22.078125 42.78125 

Q 16.75 37.0625 14.890625 27.296875 

Q 13.03125 17.4375 16.0625 11.8125 

Q 18.796875 6.78125 24.3125 6.78125 

z

" id="DejaVuSans-Oblique-3d5"/>

      <path d="M 31 75.875 

Q 24.46875 64.65625 21.28125 53.65625 

Q 18.109375 42.671875 18.109375 31.390625 

Q 18.109375 20.125 21.3125 9.0625 

Q 24.515625 -2 31 -13.1875 

L 23.1875 -13.1875 

Q 15.875 -1.703125 12.234375 9.375 

Q 8.59375 20.453125 8.59375 31.390625 

Q 8.59375 42.28125 12.203125 53.3125 

Q 15.828125 64.359375 23.1875 75.875 

z

" id="DejaVuSans-28"/>

      <path d="M 60.015625 54.6875 

L 34.90625 27.875 

L 50.296875 0 

L 39.984375 0 

L 28.421875 21.6875 

L 8.296875 0 

L -2.59375 0 

L 24.3125 28.8125 

L 10.015625 54.6875 

L 20.3125 54.6875 

L 30.8125 34.90625 

L 49.125 54.6875 

z

" id="DejaVuSans-Oblique-78"/>

      <path d="M 8.015625 75.875 

L 15.828125 75.875 

Q 23.140625 64.359375 26.78125 53.3125 

Q 30.421875 42.28125 30.421875 31.390625 

Q 30.421875 20.453125 26.78125 9.375 

Q 23.140625 -1.703125 15.828125 -13.1875 

L 8.015625 -13.1875 

Q 14.5 -2 17.703125 9.0625 

Q 20.90625 20.125 20.90625 31.390625 

Q 20.90625 42.671875 17.703125 53.65625 

Q 14.5 64.65625 8.015625 75.875 

z

" id="DejaVuSans-29"/>

     </defs>

     <g transform="translate(408.599125 38.172)scale(0.1 -0.1)">

      <use transform="translate(0 0.015625)" xlink:href="#DejaVuSans-Oblique-3d5"/>

      <use transform="translate(65.966797 -16.390625)scale(0.7)" xlink:href="#DejaVuSans-31"/>

      <use transform="translate(113.237305 0.015625)" xlink:href="#DejaVuSans-28"/>

      <use transform="translate(152.250977 0.015625)" xlink:href="#DejaVuSans-Oblique-78"/>

      <use transform="translate(211.430664 0.015625)" xlink:href="#DejaVuSans-29"/>

     </g>

    </g>

    <g id="line2d_24">

     <path d="M 380.599125 49.372 

L 400.599125 49.372 

" style="fill:none;stroke:#ff7f0e;stroke-linecap:square;stroke-width:1.5;"/>

    </g>

    <g id="line2d_25"/>

    <g id="text_13">

     <!-- $\phi_{2}(x)$ -->

     <g transform="translate(408.599125 52.872)scale(0.1 -0.1)">

      <use transform="translate(0 0.015625)" xlink:href="#DejaVuSans-Oblique-3d5"/>

      <use transform="translate(65.966797 -16.390625)scale(0.7)" xlink:href="#DejaVuSans-32"/>

      <use transform="translate(113.237305 0.015625)" xlink:href="#DejaVuSans-28"/>

      <use transform="translate(152.250977 0.015625)" xlink:href="#DejaVuSans-Oblique-78"/>

      <use transform="translate(211.430664 0.015625)" xlink:href="#DejaVuSans-29"/>

     </g>

    </g>

    <g id="line2d_26">

     <path d="M 380.599125 64.072 

L 400.599125 64.072 

" style="fill:none;stroke:#2ca02c;stroke-linecap:square;stroke-width:1.5;"/>

    </g>

    <g id="line2d_27"/>

    <g id="text_14">

     <!-- $\phi_{3}(x)$ -->

     <g transform="translate(408.599125 67.572)scale(0.1 -0.1)">

      <use transform="translate(0 0.015625)" xlink:href="#DejaVuSans-Oblique-3d5"/>

      <use transform="translate(65.966797 -16.390625)scale(0.7)" xlink:href="#DejaVuSans-33"/>

      <use transform="translate(113.237305 0.015625)" xlink:href="#DejaVuSans-28"/>

      <use transform="translate(152.250977 0.015625)" xlink:href="#DejaVuSans-Oblique-78"/>

      <use transform="translate(211.430664 0.015625)" xlink:href="#DejaVuSans-29"/>

     </g>

    </g>

    <g id="line2d_28">

     <path d="M 380.599125 78.772 

L 400.599125 78.772 

" style="fill:none;stroke:#d62728;stroke-linecap:square;stroke-width:1.5;"/>

    </g>

    <g id="line2d_29"/>

    <g id="text_15">

     <!-- $\phi_{4}(x)$ -->

     <g transform="translate(408.599125 82.272)scale(0.1 -0.1)">

      <use transform="translate(0 0.015625)" xlink:href="#DejaVuSans-Oblique-3d5"/>

      <use transform="translate(65.966797 -16.390625)scale(0.7)" xlink:href="#DejaVuSans-34"/>

      <use transform="translate(113.237305 0.015625)" xlink:href="#DejaVuSans-28"/>

      <use transform="translate(152.250977 0.015625)" xlink:href="#DejaVuSans-Oblique-78"/>

      <use transform="translate(211.430664 0.015625)" xlink:href="#DejaVuSans-29"/>

     </g>

    </g>

    <g id="line2d_30">

     <path d="M 380.599125 93.472 

L 400.599125 93.472 

" style="fill:none;stroke:#9467bd;stroke-linecap:square;stroke-width:1.5;"/>

    </g>

    <g id="line2d_31"/>

    <g id="text_16">

     <!-- $\phi_{5}(x)$ -->

     <defs>

      <path d="M 10.796875 72.90625 

L 49.515625 72.90625 

L 49.515625 64.59375 

L 19.828125 64.59375 

L 19.828125 46.734375 

Q 21.96875 47.46875 24.109375 47.828125 

Q 26.265625 48.1875 28.421875 48.1875 

Q 40.625 48.1875 47.75 41.5 

Q 54.890625 34.8125 54.890625 23.390625 

Q 54.890625 11.625 47.5625 5.09375 

Q 40.234375 -1.421875 26.90625 -1.421875 

Q 22.3125 -1.421875 17.546875 -0.640625 

Q 12.796875 0.140625 7.71875 1.703125 

L 7.71875 11.625 

Q 12.109375 9.234375 16.796875 8.0625 

Q 21.484375 6.890625 26.703125 6.890625 

Q 35.15625 6.890625 40.078125 11.328125 

Q 45.015625 15.765625 45.015625 23.390625 

Q 45.015625 31 40.078125 35.4375 

Q 35.15625 39.890625 26.703125 39.890625 

Q 22.75 39.890625 18.8125 39.015625 

Q 14.890625 38.140625 10.796875 36.28125 

z

" id="DejaVuSans-35"/>

     </defs>

     <g transform="translate(408.599125 96.972)scale(0.1 -0.1)">

      <use transform="translate(0 0.015625)" xlink:href="#DejaVuSans-Oblique-3d5"/>

      <use transform="translate(65.966797 -16.390625)scale(0.7)" xlink:href="#DejaVuSans-35"/>

      <use transform="translate(113.237305 0.015625)" xlink:href="#DejaVuSans-28"/>

      <use transform="translate(152.250977 0.015625)" xlink:href="#DejaVuSans-Oblique-78"/>

      <use transform="translate(211.430664 0.015625)" xlink:href="#DejaVuSans-29"/>

     </g>

    </g>

    <g id="line2d_32">

     <path d="M 380.599125 108.172 

L 400.599125 108.172 

" style="fill:none;stroke:#8c564b;stroke-linecap:square;stroke-width:1.5;"/>

    </g>

    <g id="line2d_33"/>

    <g id="text_17">

     <!-- $\phi_{6}(x)$ -->

     <g transform="translate(408.599125 111.672)scale(0.1 -0.1)">

      <use transform="translate(0 0.015625)" xlink:href="#DejaVuSans-Oblique-3d5"/>

      <use transform="translate(65.966797 -16.390625)scale(0.7)" xlink:href="#DejaVuSans-36"/>

      <use transform="translate(113.237305 0.015625)" xlink:href="#DejaVuSans-28"/>

      <use transform="translate(152.250977 0.015625)" xlink:href="#DejaVuSans-Oblique-78"/>

      <use transform="translate(211.430664 0.015625)" xlink:href="#DejaVuSans-29"/>

     </g>

    </g>

    <g id="line2d_34">

     <path d="M 380.599125 122.872 

L 400.599125 122.872 

" style="fill:none;stroke:#e377c2;stroke-linecap:square;stroke-width:1.5;"/>

    </g>

    <g id="line2d_35"/>

    <g id="text_18">

     <!-- $\phi_{7}(x)$ -->

     <defs>

      <path d="M 8.203125 72.90625 

L 55.078125 72.90625 

L 55.078125 68.703125 

L 28.609375 0 

L 18.3125 0 

L 43.21875 64.59375 

L 8.203125 64.59375 

z

" id="DejaVuSans-37"/>

     </defs>

     <g transform="translate(408.599125 126.372)scale(0.1 -0.1)">

      <use transform="translate(0 0.015625)" xlink:href="#DejaVuSans-Oblique-3d5"/>

      <use transform="translate(65.966797 -16.390625)scale(0.7)" xlink:href="#DejaVuSans-37"/>

      <use transform="translate(113.237305 0.015625)" xlink:href="#DejaVuSans-28"/>

      <use transform="translate(152.250977 0.015625)" xlink:href="#DejaVuSans-Oblique-78"/>

      <use transform="translate(211.430664 0.015625)" xlink:href="#DejaVuSans-29"/>

     </g>

    </g>

    <g id="line2d_36">

     <path d="M 380.599125 137.572 

L 400.599125 137.572 

" style="fill:none;stroke:#7f7f7f;stroke-linecap:square;stroke-width:1.5;"/>

    </g>

    <g id="line2d_37"/>

    <g id="text_19">

     <!-- $\phi_{8}(x)$ -->

     <g transform="translate(408.599125 141.072)scale(0.1 -0.1)">

      <use transform="translate(0 0.015625)" xlink:href="#DejaVuSans-Oblique-3d5"/>

      <use transform="translate(65.966797 -16.390625)scale(0.7)" xlink:href="#DejaVuSans-38"/>

      <use transform="translate(113.237305 0.015625)" xlink:href="#DejaVuSans-28"/>

      <use transform="translate(152.250977 0.015625)" xlink:href="#DejaVuSans-Oblique-78"/>

      <use transform="translate(211.430664 0.015625)" xlink:href="#DejaVuSans-29"/>

     </g>

    </g>

    <g id="line2d_38">

     <path d="M 380.599125 152.272 

L 400.599125 152.272 

" style="fill:none;stroke:#bcbd22;stroke-linecap:square;stroke-width:1.5;"/>

    </g>

    <g id="line2d_39"/>

    <g id="text_20">

     <!-- $\phi_{9}(x)$ -->

     <defs>

      <path d="M 10.984375 1.515625 

L 10.984375 10.5 

Q 14.703125 8.734375 18.5 7.8125 

Q 22.3125 6.890625 25.984375 6.890625 

Q 35.75 6.890625 40.890625 13.453125 

Q 46.046875 20.015625 46.78125 33.40625 

Q 43.953125 29.203125 39.59375 26.953125 

Q 35.25 24.703125 29.984375 24.703125 

Q 19.046875 24.703125 12.671875 31.3125 

Q 6.296875 37.9375 6.296875 49.421875 

Q 6.296875 60.640625 12.9375 67.421875 

Q 19.578125 74.21875 30.609375 74.21875 

Q 43.265625 74.21875 49.921875 64.515625 

Q 56.59375 54.828125 56.59375 36.375 

Q 56.59375 19.140625 48.40625 8.859375 

Q 40.234375 -1.421875 26.421875 -1.421875 

Q 22.703125 -1.421875 18.890625 -0.6875 

Q 15.09375 0.046875 10.984375 1.515625 

z

M 30.609375 32.421875 

Q 37.25 32.421875 41.125 36.953125 

Q 45.015625 41.5 45.015625 49.421875 

Q 45.015625 57.28125 41.125 61.84375 

Q 37.25 66.40625 30.609375 66.40625 

Q 23.96875 66.40625 20.09375 61.84375 

Q 16.21875 57.28125 16.21875 49.421875 

Q 16.21875 41.5 20.09375 36.953125 

Q 23.96875 32.421875 30.609375 32.421875 

z

" id="DejaVuSans-39"/>

     </defs>

     <g transform="translate(408.599125 155.772)scale(0.1 -0.1)">

      <use transform="translate(0 0.015625)" xlink:href="#DejaVuSans-Oblique-3d5"/>

      <use transform="translate(65.966797 -16.390625)scale(0.7)" xlink:href="#DejaVuSans-39"/>

      <use transform="translate(113.237305 0.015625)" xlink:href="#DejaVuSans-28"/>

      <use transform="translate(152.250977 0.015625)" xlink:href="#DejaVuSans-Oblique-78"/>

      <use transform="translate(211.430664 0.015625)" xlink:href="#DejaVuSans-29"/>

     </g>

    </g>

    <g id="line2d_40">

     <path d="M 380.599125 166.972 

L 400.599125 166.972 

" style="fill:none;stroke:#17becf;stroke-linecap:square;stroke-width:1.5;"/>

    </g>

    <g id="line2d_41"/>

    <g id="text_21">

     <!-- $\phi_{10}(x)$ -->

     <g transform="translate(408.599125 170.472)scale(0.1 -0.1)">

      <use transform="translate(0 0.015625)" xlink:href="#DejaVuSans-Oblique-3d5"/>

      <use transform="translate(65.966797 -16.390625)scale(0.7)" xlink:href="#DejaVuSans-31"/>

      <use transform="translate(110.50293 -16.390625)scale(0.7)" xlink:href="#DejaVuSans-30"/>

      <use transform="translate(157.773438 0.015625)" xlink:href="#DejaVuSans-28"/>

      <use transform="translate(196.787109 0.015625)" xlink:href="#DejaVuSans-Oblique-78"/>

      <use transform="translate(255.966797 0.015625)" xlink:href="#DejaVuSans-29"/>

     </g>

    </g>

   </g>

  </g>

 </g>

 <defs>

  <clipPath id="pfc45c40d52">

   <rect height="217.44" width="334.8" x="30.103125" y="10.7"/>

  </clipPath>

 </defs>

</svg>
