<?xml version="1.0" encoding="utf-8" standalone="no"?>

<!DOCTYPE svg PUBLIC "-//W3C//DTD SVG 1.1//EN"

  "http://www.w3.org/Graphics/SVG/1.1/DTD/svg11.dtd">

<!-- Created with matplotlib (http://matplotlib.org/) -->

<svg height="265pt" version="1.1" viewBox="0 0 396 265" width="396pt" xmlns="http://www.w3.org/2000/svg" xmlns:xlink="http://www.w3.org/1999/xlink">

 <defs>

  <style type="text/css">

*{stroke-linecap:butt;stroke-linejoin:round;}

  </style>

 </defs>

 <g id="figure_1">

  <g id="patch_1">

   <path d="M 0 265.69625 

L 396.878125 265.69625 

L 396.878125 0 

L 0 0 

z

" style="fill:none;"/>

  </g>

  <g id="axes_1">

   <g id="patch_2">

    <path d="M 51.378125 228.14 

L 386.178125 228.14 

L 386.178125 10.7 

L 51.378125 10.7 

z

" style="fill:#ffffff;"/>

   </g>

   <g id="matplotlib.axis_1">

    <g id="xtick_1">

     <g id="line2d_1">

      <defs>

       <path d="M 0 0 

L 0 3.5 

" id="m7da23f7b93" style="stroke:#000000;stroke-width:0.8;"/>

      </defs>

      <g>

       <use style="stroke:#000000;stroke-width:0.8;" x="66.596307" xlink:href="#m7da23f7b93" y="228.14"/>

      </g>

     </g>

     <g id="text_1">

      <!-- 0 -->

      <defs>

       <path d="M 31.78125 66.40625 

Q 24.171875 66.40625 20.328125 58.90625 

Q 16.5 51.421875 16.5 36.375 

Q 16.5 21.390625 20.328125 13.890625 

Q 24.171875 6.390625 31.78125 6.390625 

Q 39.453125 6.390625 43.28125 13.890625 

Q 47.125 21.390625 47.125 36.375 

Q 47.125 51.421875 43.28125 58.90625 

Q 39.453125 66.40625 31.78125 66.40625 

z

M 31.78125 74.21875 

Q 44.046875 74.21875 50.515625 64.515625 

Q 56.984375 54.828125 56.984375 36.375 

Q 56.984375 17.96875 50.515625 8.265625 

Q 44.046875 -1.421875 31.78125 -1.421875 

Q 19.53125 -1.421875 13.0625 8.265625 

Q 6.59375 17.96875 6.59375 36.375 

Q 6.59375 54.828125 13.0625 64.515625 

Q 19.53125 74.21875 31.78125 74.21875 

z

" id="DejaVuSans-30"/>

      </defs>

      <g transform="translate(63.415057 242.738437)scale(0.1 -0.1)">

       <use xlink:href="#DejaVuSans-30"/>

      </g>

     </g>

    </g>

    <g id="xtick_2">

     <g id="line2d_2">

      <g>

       <use style="stroke:#000000;stroke-width:0.8;" x="128.711335" xlink:href="#m7da23f7b93" y="228.14"/>

      </g>

     </g>

     <g id="text_2">

      <!-- 10 -->

      <defs>

       <path d="M 12.40625 8.296875 

L 28.515625 8.296875 

L 28.515625 63.921875 

L 10.984375 60.40625 

L 10.984375 69.390625 

L 28.421875 72.90625 

L 38.28125 72.90625 

L 38.28125 8.296875 

L 54.390625 8.296875 

L 54.390625 0 

L 12.40625 0 

z

" id="DejaVuSans-31"/>

      </defs>

      <g transform="translate(122.348835 242.738437)scale(0.1 -0.1)">

       <use xlink:href="#DejaVuSans-31"/>

       <use x="63.623047" xlink:href="#DejaVuSans-30"/>

      </g>

     </g>

    </g>

    <g id="xtick_3">

     <g id="line2d_3">

      <g>

       <use style="stroke:#000000;stroke-width:0.8;" x="190.826362" xlink:href="#m7da23f7b93" y="228.14"/>

      </g>

     </g>

     <g id="text_3">

      <!-- 20 -->

      <defs>

       <path d="M 19.1875 8.296875 

L 53.609375 8.296875 

L 53.609375 0 

L 7.328125 0 

L 7.328125 8.296875 

Q 12.9375 14.109375 22.625 23.890625 

Q 32.328125 33.6875 34.8125 36.53125 

Q 39.546875 41.84375 41.421875 45.53125 

Q 43.3125 49.21875 43.3125 52.78125 

Q 43.3125 58.59375 39.234375 62.25 

Q 35.15625 65.921875 28.609375 65.921875 

Q 23.96875 65.921875 18.8125 64.3125 

Q 13.671875 62.703125 7.8125 59.421875 

L 7.8125 69.390625 

Q 13.765625 71.78125 18.9375 73 

Q 24.125 74.21875 28.421875 74.21875 

Q 39.75 74.21875 46.484375 68.546875 

Q 53.21875 62.890625 53.21875 53.421875 

Q 53.21875 48.921875 51.53125 44.890625 

Q 49.859375 40.875 45.40625 35.40625 

Q 44.1875 33.984375 37.640625 27.21875 

Q 31.109375 20.453125 19.1875 8.296875 

z

" id="DejaVuSans-32"/>

      </defs>

      <g transform="translate(184.463862 242.738437)scale(0.1 -0.1)">

       <use xlink:href="#DejaVuSans-32"/>

       <use x="63.623047" xlink:href="#DejaVuSans-30"/>

      </g>

     </g>

    </g>

    <g id="xtick_4">

     <g id="line2d_4">

      <g>

       <use style="stroke:#000000;stroke-width:0.8;" x="252.94139" xlink:href="#m7da23f7b93" y="228.14"/>

      </g>

     </g>

     <g id="text_4">

      <!-- 30 -->

      <defs>

       <path d="M 40.578125 39.3125 

Q 47.65625 37.796875 51.625 33 

Q 55.609375 28.21875 55.609375 21.1875 

Q 55.609375 10.40625 48.1875 4.484375 

Q 40.765625 -1.421875 27.09375 -1.421875 

Q 22.515625 -1.421875 17.65625 -0.515625 

Q 12.796875 0.390625 7.625 2.203125 

L 7.625 11.71875 

Q 11.71875 9.328125 16.59375 8.109375 

Q 21.484375 6.890625 26.8125 6.890625 

Q 36.078125 6.890625 40.9375 10.546875 

Q 45.796875 14.203125 45.796875 21.1875 

Q 45.796875 27.640625 41.28125 31.265625 

Q 36.765625 34.90625 28.71875 34.90625 

L 20.21875 34.90625 

L 20.21875 43.015625 

L 29.109375 43.015625 

Q 36.375 43.015625 40.234375 45.921875 

Q 44.09375 48.828125 44.09375 54.296875 

Q 44.09375 59.90625 40.109375 62.90625 

Q 36.140625 65.921875 28.71875 65.921875 

Q 24.65625 65.921875 20.015625 65.03125 

Q 15.375 64.15625 9.8125 62.3125 

L 9.8125 71.09375 

Q 15.4375 72.65625 20.34375 73.4375 

Q 25.25 74.21875 29.59375 74.21875 

Q 40.828125 74.21875 47.359375 69.109375 

Q 53.90625 64.015625 53.90625 55.328125 

Q 53.90625 49.265625 50.4375 45.09375 

Q 46.96875 40.921875 40.578125 39.3125 

z

" id="DejaVuSans-33"/>

      </defs>

      <g transform="translate(246.57889 242.738437)scale(0.1 -0.1)">

       <use xlink:href="#DejaVuSans-33"/>

       <use x="63.623047" xlink:href="#DejaVuSans-30"/>

      </g>

     </g>

    </g>

    <g id="xtick_5">

     <g id="line2d_5">

      <g>

       <use style="stroke:#000000;stroke-width:0.8;" x="315.056418" xlink:href="#m7da23f7b93" y="228.14"/>

      </g>

     </g>

     <g id="text_5">

      <!-- 40 -->

      <defs>

       <path d="M 37.796875 64.3125 

L 12.890625 25.390625 

L 37.796875 25.390625 

z

M 35.203125 72.90625 

L 47.609375 72.90625 

L 47.609375 25.390625 

L 58.015625 25.390625 

L 58.015625 17.1875 

L 47.609375 17.1875 

L 47.609375 0 

L 37.796875 0 

L 37.796875 17.1875 

L 4.890625 17.1875 

L 4.890625 26.703125 

z

" id="DejaVuSans-34"/>

      </defs>

      <g transform="translate(308.693918 242.738437)scale(0.1 -0.1)">

       <use xlink:href="#DejaVuSans-34"/>

       <use x="63.623047" xlink:href="#DejaVuSans-30"/>

      </g>

     </g>

    </g>

    <g id="xtick_6">

     <g id="line2d_6">

      <g>

       <use style="stroke:#000000;stroke-width:0.8;" x="377.171446" xlink:href="#m7da23f7b93" y="228.14"/>

      </g>

     </g>

     <g id="text_6">

      <!-- 50 -->

      <defs>

       <path d="M 10.796875 72.90625 

L 49.515625 72.90625 

L 49.515625 64.59375 

L 19.828125 64.59375 

L 19.828125 46.734375 

Q 21.96875 47.46875 24.109375 47.828125 

Q 26.265625 48.1875 28.421875 48.1875 

Q 40.625 48.1875 47.75 41.5 

Q 54.890625 34.8125 54.890625 23.390625 

Q 54.890625 11.625 47.5625 5.09375 

Q 40.234375 -1.421875 26.90625 -1.421875 

Q 22.3125 -1.421875 17.546875 -0.640625 

Q 12.796875 0.140625 7.71875 1.703125 

L 7.71875 11.625 

Q 12.109375 9.234375 16.796875 8.0625 

Q 21.484375 6.890625 26.703125 6.890625 

Q 35.15625 6.890625 40.078125 11.328125 

Q 45.015625 15.765625 45.015625 23.390625 

Q 45.015625 31 40.078125 35.4375 

Q 35.15625 39.890625 26.703125 39.890625 

Q 22.75 39.890625 18.8125 39.015625 

Q 14.890625 38.140625 10.796875 36.28125 

z

" id="DejaVuSans-35"/>

      </defs>

      <g transform="translate(370.808946 242.738437)scale(0.1 -0.1)">

       <use xlink:href="#DejaVuSans-35"/>

       <use x="63.623047" xlink:href="#DejaVuSans-30"/>

      </g>

     </g>

    </g>

    <g id="text_7">

     <!-- Polynomial degree -->

     <defs>

      <path d="M 19.671875 64.796875 

L 19.671875 37.40625 

L 32.078125 37.40625 

Q 38.96875 37.40625 42.71875 40.96875 

Q 46.484375 44.53125 46.484375 51.125 

Q 46.484375 57.671875 42.71875 61.234375 

Q 38.96875 64.796875 32.078125 64.796875 

z

M 9.8125 72.90625 

L 32.078125 72.90625 

Q 44.34375 72.90625 50.609375 67.359375 

Q 56.890625 61.8125 56.890625 51.125 

Q 56.890625 40.328125 50.609375 34.8125 

Q 44.34375 29.296875 32.078125 29.296875 

L 19.671875 29.296875 

L 19.671875 0 

L 9.8125 0 

z

" id="DejaVuSans-50"/>

      <path d="M 30.609375 48.390625 

Q 23.390625 48.390625 19.1875 42.75 

Q 14.984375 37.109375 14.984375 27.296875 

Q 14.984375 17.484375 19.15625 11.84375 

Q 23.34375 6.203125 30.609375 6.203125 

Q 37.796875 6.203125 41.984375 11.859375 

Q 46.1875 17.53125 46.1875 27.296875 

Q 46.1875 37.015625 41.984375 42.703125 

Q 37.796875 48.390625 30.609375 48.390625 

z

M 30.609375 56 

Q 42.328125 56 49.015625 48.375 

Q 55.71875 40.765625 55.71875 27.296875 

Q 55.71875 13.875 49.015625 6.21875 

Q 42.328125 -1.421875 30.609375 -1.421875 

Q 18.84375 -1.421875 12.171875 6.21875 

Q 5.515625 13.875 5.515625 27.296875 

Q 5.515625 40.765625 12.171875 48.375 

Q 18.84375 56 30.609375 56 

z

" id="DejaVuSans-6f"/>

      <path d="M 9.421875 75.984375 

L 18.40625 75.984375 

L 18.40625 0 

L 9.421875 0 

z

" id="DejaVuSans-6c"/>

      <path d="M 32.171875 -5.078125 

Q 28.375 -14.84375 24.75 -17.8125 

Q 21.140625 -20.796875 15.09375 -20.796875 

L 7.90625 -20.796875 

L 7.90625 -13.28125 

L 13.1875 -13.28125 

Q 16.890625 -13.28125 18.9375 -11.515625 

Q 21 -9.765625 23.484375 -3.21875 

L 25.09375 0.875 

L 2.984375 54.6875 

L 12.5 54.6875 

L 29.59375 11.921875 

L 46.6875 54.6875 

L 56.203125 54.6875 

z

" id="DejaVuSans-79"/>

      <path d="M 54.890625 33.015625 

L 54.890625 0 

L 45.90625 0 

L 45.90625 32.71875 

Q 45.90625 40.484375 42.875 44.328125 

Q 39.84375 48.1875 33.796875 48.1875 

Q 26.515625 48.1875 22.3125 43.546875 

Q 18.109375 38.921875 18.109375 30.90625 

L 18.109375 0 

L 9.078125 0 

L 9.078125 54.6875 

L 18.109375 54.6875 

L 18.109375 46.1875 

Q 21.34375 51.125 25.703125 53.5625 

Q 30.078125 56 35.796875 56 

Q 45.21875 56 50.046875 50.171875 

Q 54.890625 44.34375 54.890625 33.015625 

z

" id="DejaVuSans-6e"/>

      <path d="M 52 44.1875 

Q 55.375 50.25 60.0625 53.125 

Q 64.75 56 71.09375 56 

Q 79.640625 56 84.28125 50.015625 

Q 88.921875 44.046875 88.921875 33.015625 

L 88.921875 0 

L 79.890625 0 

L 79.890625 32.71875 

Q 79.890625 40.578125 77.09375 44.375 

Q 74.3125 48.1875 68.609375 48.1875 

Q 61.625 48.1875 57.5625 43.546875 

Q 53.515625 38.921875 53.515625 30.90625 

L 53.515625 0 

L 44.484375 0 

L 44.484375 32.71875 

Q 44.484375 40.625 41.703125 44.40625 

Q 38.921875 48.1875 33.109375 48.1875 

Q 26.21875 48.1875 22.15625 43.53125 

Q 18.109375 38.875 18.109375 30.90625 

L 18.109375 0 

L 9.078125 0 

L 9.078125 54.6875 

L 18.109375 54.6875 

L 18.109375 46.1875 

Q 21.1875 51.21875 25.484375 53.609375 

Q 29.78125 56 35.6875 56 

Q 41.65625 56 45.828125 52.96875 

Q 50 49.953125 52 44.1875 

z

" id="DejaVuSans-6d"/>

      <path d="M 9.421875 54.6875 

L 18.40625 54.6875 

L 18.40625 0 

L 9.421875 0 

z

M 9.421875 75.984375 

L 18.40625 75.984375 

L 18.40625 64.59375 

L 9.421875 64.59375 

z

" id="DejaVuSans-69"/>

      <path d="M 34.28125 27.484375 

Q 23.390625 27.484375 19.1875 25 

Q 14.984375 22.515625 14.984375 16.5 

Q 14.984375 11.71875 18.140625 8.90625 

Q 21.296875 6.109375 26.703125 6.109375 

Q 34.1875 6.109375 38.703125 11.40625 

Q 43.21875 16.703125 43.21875 25.484375 

L 43.21875 27.484375 

z

M 52.203125 31.203125 

L 52.203125 0 

L 43.21875 0 

L 43.21875 8.296875 

Q 40.140625 3.328125 35.546875 0.953125 

Q 30.953125 -1.421875 24.3125 -1.421875 

Q 15.921875 -1.421875 10.953125 3.296875 

Q 6 8.015625 6 15.921875 

Q 6 25.140625 12.171875 29.828125 

Q 18.359375 34.515625 30.609375 34.515625 

L 43.21875 34.515625 

L 43.21875 35.40625 

Q 43.21875 41.609375 39.140625 45 

Q 35.0625 48.390625 27.6875 48.390625 

Q 23 48.390625 18.546875 47.265625 

Q 14.109375 46.140625 10.015625 43.890625 

L 10.015625 52.203125 

Q 14.9375 54.109375 19.578125 55.046875 

Q 24.21875 56 28.609375 56 

Q 40.484375 56 46.34375 49.84375 

Q 52.203125 43.703125 52.203125 31.203125 

z

" id="DejaVuSans-61"/>

      <path id="DejaVuSans-20"/>

      <path d="M 45.40625 46.390625 

L 45.40625 75.984375 

L 54.390625 75.984375 

L 54.390625 0 

L 45.40625 0 

L 45.40625 8.203125 

Q 42.578125 3.328125 38.25 0.953125 

Q 33.9375 -1.421875 27.875 -1.421875 

Q 17.96875 -1.421875 11.734375 6.484375 

Q 5.515625 14.40625 5.515625 27.296875 

Q 5.515625 40.1875 11.734375 48.09375 

Q 17.96875 56 27.875 56 

Q 33.9375 56 38.25 53.625 

Q 42.578125 51.265625 45.40625 46.390625 

z

M 14.796875 27.296875 

Q 14.796875 17.390625 18.875 11.75 

Q 22.953125 6.109375 30.078125 6.109375 

Q 37.203125 6.109375 41.296875 11.75 

Q 45.40625 17.390625 45.40625 27.296875 

Q 45.40625 37.203125 41.296875 42.84375 

Q 37.203125 48.484375 30.078125 48.484375 

Q 22.953125 48.484375 18.875 42.84375 

Q 14.796875 37.203125 14.796875 27.296875 

z

" id="DejaVuSans-64"/>

      <path d="M 56.203125 29.59375 

L 56.203125 25.203125 

L 14.890625 25.203125 

Q 15.484375 15.921875 20.484375 11.0625 

Q 25.484375 6.203125 34.421875 6.203125 

Q 39.59375 6.203125 44.453125 7.46875 

Q 49.3125 8.734375 54.109375 11.28125 

L 54.109375 2.78125 

Q 49.265625 0.734375 44.1875 -0.34375 

Q 39.109375 -1.421875 33.890625 -1.421875 

Q 20.796875 -1.421875 13.15625 6.1875 

Q 5.515625 13.8125 5.515625 26.8125 

Q 5.515625 40.234375 12.765625 48.109375 

Q 20.015625 56 32.328125 56 

Q 43.359375 56 49.78125 48.890625 

Q 56.203125 41.796875 56.203125 29.59375 

z

M 47.21875 32.234375 

Q 47.125 39.59375 43.09375 43.984375 

Q 39.0625 48.390625 32.421875 48.390625 

Q 24.90625 48.390625 20.390625 44.140625 

Q 15.875 39.890625 15.1875 32.171875 

z

" id="DejaVuSans-65"/>

      <path d="M 45.40625 27.984375 

Q 45.40625 37.75 41.375 43.109375 

Q 37.359375 48.484375 30.078125 48.484375 

Q 22.859375 48.484375 18.828125 43.109375 

Q 14.796875 37.75 14.796875 27.984375 

Q 14.796875 18.265625 18.828125 12.890625 

Q 22.859375 7.515625 30.078125 7.515625 

Q 37.359375 7.515625 41.375 12.890625 

Q 45.40625 18.265625 45.40625 27.984375 

z

M 54.390625 6.78125 

Q 54.390625 -7.171875 48.1875 -13.984375 

Q 42 -20.796875 29.203125 -20.796875 

Q 24.46875 -20.796875 20.265625 -20.09375 

Q 16.0625 -19.390625 12.109375 -17.921875 

L 12.109375 -9.1875 

Q 16.0625 -11.328125 19.921875 -12.34375 

Q 23.78125 -13.375 27.78125 -13.375 

Q 36.625 -13.375 41.015625 -8.765625 

Q 45.40625 -4.15625 45.40625 5.171875 

L 45.40625 9.625 

Q 42.625 4.78125 38.28125 2.390625 

Q 33.9375 0 27.875 0 

Q 17.828125 0 11.671875 7.65625 

Q 5.515625 15.328125 5.515625 27.984375 

Q 5.515625 40.671875 11.671875 48.328125 

Q 17.828125 56 27.875 56 

Q 33.9375 56 38.28125 53.609375 

Q 42.625 51.21875 45.40625 46.390625 

L 45.40625 54.6875 

L 54.390625 54.6875 

z

" id="DejaVuSans-67"/>

      <path d="M 41.109375 46.296875 

Q 39.59375 47.171875 37.8125 47.578125 

Q 36.03125 48 33.890625 48 

Q 26.265625 48 22.1875 43.046875 

Q 18.109375 38.09375 18.109375 28.8125 

L 18.109375 0 

L 9.078125 0 

L 9.078125 54.6875 

L 18.109375 54.6875 

L 18.109375 46.1875 

Q 20.953125 51.171875 25.484375 53.578125 

Q 30.03125 56 36.53125 56 

Q 37.453125 56 38.578125 55.875 

Q 39.703125 55.765625 41.0625 55.515625 

z

" id="DejaVuSans-72"/>

     </defs>

     <g transform="translate(172.196094 256.416562)scale(0.1 -0.1)">

      <use xlink:href="#DejaVuSans-50"/>

      <use x="60.255859" xlink:href="#DejaVuSans-6f"/>

      <use x="121.4375" xlink:href="#DejaVuSans-6c"/>

      <use x="149.220703" xlink:href="#DejaVuSans-79"/>

      <use x="208.400391" xlink:href="#DejaVuSans-6e"/>

      <use x="271.779297" xlink:href="#DejaVuSans-6f"/>

      <use x="332.960938" xlink:href="#DejaVuSans-6d"/>

      <use x="430.373047" xlink:href="#DejaVuSans-69"/>

      <use x="458.15625" xlink:href="#DejaVuSans-61"/>

      <use x="519.435547" xlink:href="#DejaVuSans-6c"/>

      <use x="547.21875" xlink:href="#DejaVuSans-20"/>

      <use x="579.005859" xlink:href="#DejaVuSans-64"/>

      <use x="642.482422" xlink:href="#DejaVuSans-65"/>

      <use x="704.005859" xlink:href="#DejaVuSans-67"/>

      <use x="767.482422" xlink:href="#DejaVuSans-72"/>

      <use x="808.564453" xlink:href="#DejaVuSans-65"/>

      <use x="870.087891" xlink:href="#DejaVuSans-65"/>

     </g>

    </g>

   </g>

   <g id="matplotlib.axis_2">

    <g id="ytick_1">

     <g id="line2d_7">

      <defs>

       <path d="M 0 0 

L -3.5 0 

" id="m4942bbcd63" style="stroke:#000000;stroke-width:0.8;"/>

      </defs>

      <g>

       <use style="stroke:#000000;stroke-width:0.8;" x="51.378125" xlink:href="#m4942bbcd63" y="227.943648"/>

      </g>

     </g>

     <g id="text_8">

      <!-- $\mathdefault{10^{-2}}$ -->

      <defs>

       <path d="M 10.59375 35.5 

L 73.1875 35.5 

L 73.1875 27.203125 

L 10.59375 27.203125 

z

" id="DejaVuSans-2212"/>

      </defs>

      <g transform="translate(20.878125 231.742867)scale(0.1 -0.1)">

       <use transform="translate(0 0.765625)" xlink:href="#DejaVuSans-31"/>

       <use transform="translate(63.623047 0.765625)" xlink:href="#DejaVuSans-30"/>

       <use transform="translate(128.203125 39.046875)scale(0.7)" xlink:href="#DejaVuSans-2212"/>

       <use transform="translate(186.855469 39.046875)scale(0.7)" xlink:href="#DejaVuSans-32"/>

      </g>

     </g>

    </g>

    <g id="ytick_2">

     <g id="line2d_8">

      <g>

       <use style="stroke:#000000;stroke-width:0.8;" x="51.378125" xlink:href="#m4942bbcd63" y="201.389144"/>

      </g>

     </g>

     <g id="text_9">

      <!-- $\mathdefault{10^{-1}}$ -->

      <g transform="translate(20.878125 205.188363)scale(0.1 -0.1)">

       <use transform="translate(0 0.684375)" xlink:href="#DejaVuSans-31"/>

       <use transform="translate(63.623047 0.684375)" xlink:href="#DejaVuSans-30"/>

       <use transform="translate(128.203125 38.965625)scale(0.7)" xlink:href="#DejaVuSans-2212"/>

       <use transform="translate(186.855469 38.965625)scale(0.7)" xlink:href="#DejaVuSans-31"/>

      </g>

     </g>

    </g>

    <g id="ytick_3">

     <g id="line2d_9">

      <g>

       <use style="stroke:#000000;stroke-width:0.8;" x="51.378125" xlink:href="#m4942bbcd63" y="174.83464"/>

      </g>

     </g>

     <g id="text_10">

      <!-- $\mathdefault{10^{0}}$ -->

      <g transform="translate(26.778125 178.633858)scale(0.1 -0.1)">

       <use transform="translate(0 0.765625)" xlink:href="#DejaVuSans-31"/>

       <use transform="translate(63.623047 0.765625)" xlink:href="#DejaVuSans-30"/>

       <use transform="translate(128.203125 39.046875)scale(0.7)" xlink:href="#DejaVuSans-30"/>

      </g>

     </g>

    </g>

    <g id="ytick_4">

     <g id="line2d_10">

      <g>

       <use style="stroke:#000000;stroke-width:0.8;" x="51.378125" xlink:href="#m4942bbcd63" y="148.280135"/>

      </g>

     </g>

     <g id="text_11">

      <!-- $\mathdefault{10^{1}}$ -->

      <g transform="translate(26.778125 152.079354)scale(0.1 -0.1)">

       <use transform="translate(0 0.684375)" xlink:href="#DejaVuSans-31"/>

       <use transform="translate(63.623047 0.684375)" xlink:href="#DejaVuSans-30"/>

       <use transform="translate(128.203125 38.965625)scale(0.7)" xlink:href="#DejaVuSans-31"/>

      </g>

     </g>

    </g>

    <g id="ytick_5">

     <g id="line2d_11">

      <g>

       <use style="stroke:#000000;stroke-width:0.8;" x="51.378125" xlink:href="#m4942bbcd63" y="121.725631"/>

      </g>

     </g>

     <g id="text_12">

      <!-- $\mathdefault{10^{2}}$ -->

      <g transform="translate(26.778125 125.52485)scale(0.1 -0.1)">

       <use transform="translate(0 0.765625)" xlink:href="#DejaVuSans-31"/>

       <use transform="translate(63.623047 0.765625)" xlink:href="#DejaVuSans-30"/>

       <use transform="translate(128.203125 39.046875)scale(0.7)" xlink:href="#DejaVuSans-32"/>

      </g>

     </g>

    </g>

    <g id="ytick_6">

     <g id="line2d_12">

      <g>

       <use style="stroke:#000000;stroke-width:0.8;" x="51.378125" xlink:href="#m4942bbcd63" y="95.171127"/>

      </g>

     </g>

     <g id="text_13">

      <!-- $\mathdefault{10^{3}}$ -->

      <g transform="translate(26.778125 98.970346)scale(0.1 -0.1)">

       <use transform="translate(0 0.765625)" xlink:href="#DejaVuSans-31"/>

       <use transform="translate(63.623047 0.765625)" xlink:href="#DejaVuSans-30"/>

       <use transform="translate(128.203125 39.046875)scale(0.7)" xlink:href="#DejaVuSans-33"/>

      </g>

     </g>

    </g>

    <g id="ytick_7">

     <g id="line2d_13">

      <g>

       <use style="stroke:#000000;stroke-width:0.8;" x="51.378125" xlink:href="#m4942bbcd63" y="68.616623"/>

      </g>

     </g>

     <g id="text_14">

      <!-- $\mathdefault{10^{4}}$ -->

      <g transform="translate(26.778125 72.415842)scale(0.1 -0.1)">

       <use transform="translate(0 0.684375)" xlink:href="#DejaVuSans-31"/>

       <use transform="translate(63.623047 0.684375)" xlink:href="#DejaVuSans-30"/>

       <use transform="translate(128.203125 38.965625)scale(0.7)" xlink:href="#DejaVuSans-34"/>

      </g>

     </g>

    </g>

    <g id="ytick_8">

     <g id="line2d_14">

      <g>

       <use style="stroke:#000000;stroke-width:0.8;" x="51.378125" xlink:href="#m4942bbcd63" y="42.062119"/>

      </g>

     </g>

     <g id="text_15">

      <!-- $\mathdefault{10^{5}}$ -->

      <g transform="translate(26.778125 45.861338)scale(0.1 -0.1)">

       <use transform="translate(0 0.684375)" xlink:href="#DejaVuSans-31"/>

       <use transform="translate(63.623047 0.684375)" xlink:href="#DejaVuSans-30"/>

       <use transform="translate(128.203125 38.965625)scale(0.7)" xlink:href="#DejaVuSans-35"/>

      </g>

     </g>

    </g>

    <g id="ytick_9">

     <g id="line2d_15">

      <g>

       <use style="stroke:#000000;stroke-width:0.8;" x="51.378125" xlink:href="#m4942bbcd63" y="15.507615"/>

      </g>

     </g>

     <g id="text_16">

      <!-- $\mathdefault{10^{6}}$ -->

      <defs>

       <path d="M 33.015625 40.375 

Q 26.375 40.375 22.484375 35.828125 

Q 18.609375 31.296875 18.609375 23.390625 

Q 18.609375 15.53125 22.484375 10.953125 

Q 26.375 6.390625 33.015625 6.390625 

Q 39.65625 6.390625 43.53125 10.953125 

Q 47.40625 15.53125 47.40625 23.390625 

Q 47.40625 31.296875 43.53125 35.828125 

Q 39.65625 40.375 33.015625 40.375 

z

M 52.59375 71.296875 

L 52.59375 62.3125 

Q 48.875 64.0625 45.09375 64.984375 

Q 41.3125 65.921875 37.59375 65.921875 

Q 27.828125 65.921875 22.671875 59.328125 

Q 17.53125 52.734375 16.796875 39.40625 

Q 19.671875 43.65625 24.015625 45.921875 

Q 28.375 48.1875 33.59375 48.1875 

Q 44.578125 48.1875 50.953125 41.515625 

Q 57.328125 34.859375 57.328125 23.390625 

Q 57.328125 12.15625 50.6875 5.359375 

Q 44.046875 -1.421875 33.015625 -1.421875 

Q 20.359375 -1.421875 13.671875 8.265625 

Q 6.984375 17.96875 6.984375 36.375 

Q 6.984375 53.65625 15.1875 63.9375 

Q 23.390625 74.21875 37.203125 74.21875 

Q 40.921875 74.21875 44.703125 73.484375 

Q 48.484375 72.75 52.59375 71.296875 

z

" id="DejaVuSans-36"/>

      </defs>

      <g transform="translate(26.778125 19.306833)scale(0.1 -0.1)">

       <use transform="translate(0 0.765625)" xlink:href="#DejaVuSans-31"/>

       <use transform="translate(63.623047 0.765625)" xlink:href="#DejaVuSans-30"/>

       <use transform="translate(128.203125 39.046875)scale(0.7)" xlink:href="#DejaVuSans-36"/>

      </g>

     </g>

    </g>

    <g id="ytick_10">

     <g id="line2d_16">

      <defs>

       <path d="M 0 0 

L -2 0 

" id="m0a1f99f8ca" style="stroke:#000000;stroke-width:0.6;"/>

      </defs>

      <g>

       <use style="stroke:#000000;stroke-width:0.6;" x="51.378125" xlink:href="#m0a1f99f8ca" y="219.949946"/>

      </g>

     </g>

    </g>

    <g id="ytick_11">

     <g id="line2d_17">

      <g>

       <use style="stroke:#000000;stroke-width:0.6;" x="51.378125" xlink:href="#m0a1f99f8ca" y="215.27393"/>

      </g>

     </g>

    </g>

    <g id="ytick_12">

     <g id="line2d_18">

      <g>

       <use style="stroke:#000000;stroke-width:0.6;" x="51.378125" xlink:href="#m0a1f99f8ca" y="211.956243"/>

      </g>

     </g>

    </g>

    <g id="ytick_13">

     <g id="line2d_19">

      <g>

       <use style="stroke:#000000;stroke-width:0.6;" x="51.378125" xlink:href="#m0a1f99f8ca" y="209.382846"/>

      </g>

     </g>

    </g>

    <g id="ytick_14">

     <g id="line2d_20">

      <g>

       <use style="stroke:#000000;stroke-width:0.6;" x="51.378125" xlink:href="#m0a1f99f8ca" y="207.280227"/>

      </g>

     </g>

    </g>

    <g id="ytick_15">

     <g id="line2d_21">

      <g>

       <use style="stroke:#000000;stroke-width:0.6;" x="51.378125" xlink:href="#m0a1f99f8ca" y="205.502489"/>

      </g>

     </g>

    </g>

    <g id="ytick_16">

     <g id="line2d_22">

      <g>

       <use style="stroke:#000000;stroke-width:0.6;" x="51.378125" xlink:href="#m0a1f99f8ca" y="203.962541"/>

      </g>

     </g>

    </g>

    <g id="ytick_17">

     <g id="line2d_23">

      <g>

       <use style="stroke:#000000;stroke-width:0.6;" x="51.378125" xlink:href="#m0a1f99f8ca" y="202.604211"/>

      </g>

     </g>

    </g>

    <g id="ytick_18">

     <g id="line2d_24">

      <g>

       <use style="stroke:#000000;stroke-width:0.6;" x="51.378125" xlink:href="#m0a1f99f8ca" y="193.395441"/>

      </g>

     </g>

    </g>

    <g id="ytick_19">

     <g id="line2d_25">

      <g>

       <use style="stroke:#000000;stroke-width:0.6;" x="51.378125" xlink:href="#m0a1f99f8ca" y="188.719425"/>

      </g>

     </g>

    </g>

    <g id="ytick_20">

     <g id="line2d_26">

      <g>

       <use style="stroke:#000000;stroke-width:0.6;" x="51.378125" xlink:href="#m0a1f99f8ca" y="185.401739"/>

      </g>

     </g>

    </g>

    <g id="ytick_21">

     <g id="line2d_27">

      <g>

       <use style="stroke:#000000;stroke-width:0.6;" x="51.378125" xlink:href="#m0a1f99f8ca" y="182.828342"/>

      </g>

     </g>

    </g>

    <g id="ytick_22">

     <g id="line2d_28">

      <g>

       <use style="stroke:#000000;stroke-width:0.6;" x="51.378125" xlink:href="#m0a1f99f8ca" y="180.725723"/>

      </g>

     </g>

    </g>

    <g id="ytick_23">

     <g id="line2d_29">

      <g>

       <use style="stroke:#000000;stroke-width:0.6;" x="51.378125" xlink:href="#m0a1f99f8ca" y="178.947984"/>

      </g>

     </g>

    </g>

    <g id="ytick_24">

     <g id="line2d_30">

      <g>

       <use style="stroke:#000000;stroke-width:0.6;" x="51.378125" xlink:href="#m0a1f99f8ca" y="177.408037"/>

      </g>

     </g>

    </g>

    <g id="ytick_25">

     <g id="line2d_31">

      <g>

       <use style="stroke:#000000;stroke-width:0.6;" x="51.378125" xlink:href="#m0a1f99f8ca" y="176.049707"/>

      </g>

     </g>

    </g>

    <g id="ytick_26">

     <g id="line2d_32">

      <g>

       <use style="stroke:#000000;stroke-width:0.6;" x="51.378125" xlink:href="#m0a1f99f8ca" y="166.840937"/>

      </g>

     </g>

    </g>

    <g id="ytick_27">

     <g id="line2d_33">

      <g>

       <use style="stroke:#000000;stroke-width:0.6;" x="51.378125" xlink:href="#m0a1f99f8ca" y="162.164921"/>

      </g>

     </g>

    </g>

    <g id="ytick_28">

     <g id="line2d_34">

      <g>

       <use style="stroke:#000000;stroke-width:0.6;" x="51.378125" xlink:href="#m0a1f99f8ca" y="158.847235"/>

      </g>

     </g>

    </g>

    <g id="ytick_29">

     <g id="line2d_35">

      <g>

       <use style="stroke:#000000;stroke-width:0.6;" x="51.378125" xlink:href="#m0a1f99f8ca" y="156.273838"/>

      </g>

     </g>

    </g>

    <g id="ytick_30">

     <g id="line2d_36">

      <g>

       <use style="stroke:#000000;stroke-width:0.6;" x="51.378125" xlink:href="#m0a1f99f8ca" y="154.171219"/>

      </g>

     </g>

    </g>

    <g id="ytick_31">

     <g id="line2d_37">

      <g>

       <use style="stroke:#000000;stroke-width:0.6;" x="51.378125" xlink:href="#m0a1f99f8ca" y="152.39348"/>

      </g>

     </g>

    </g>

    <g id="ytick_32">

     <g id="line2d_38">

      <g>

       <use style="stroke:#000000;stroke-width:0.6;" x="51.378125" xlink:href="#m0a1f99f8ca" y="150.853533"/>

      </g>

     </g>

    </g>

    <g id="ytick_33">

     <g id="line2d_39">

      <g>

       <use style="stroke:#000000;stroke-width:0.6;" x="51.378125" xlink:href="#m0a1f99f8ca" y="149.495203"/>

      </g>

     </g>

    </g>

    <g id="ytick_34">

     <g id="line2d_40">

      <g>

       <use style="stroke:#000000;stroke-width:0.6;" x="51.378125" xlink:href="#m0a1f99f8ca" y="140.286433"/>

      </g>

     </g>

    </g>

    <g id="ytick_35">

     <g id="line2d_41">

      <g>

       <use style="stroke:#000000;stroke-width:0.6;" x="51.378125" xlink:href="#m0a1f99f8ca" y="135.610417"/>

      </g>

     </g>

    </g>

    <g id="ytick_36">

     <g id="line2d_42">

      <g>

       <use style="stroke:#000000;stroke-width:0.6;" x="51.378125" xlink:href="#m0a1f99f8ca" y="132.292731"/>

      </g>

     </g>

    </g>

    <g id="ytick_37">

     <g id="line2d_43">

      <g>

       <use style="stroke:#000000;stroke-width:0.6;" x="51.378125" xlink:href="#m0a1f99f8ca" y="129.719334"/>

      </g>

     </g>

    </g>

    <g id="ytick_38">

     <g id="line2d_44">

      <g>

       <use style="stroke:#000000;stroke-width:0.6;" x="51.378125" xlink:href="#m0a1f99f8ca" y="127.616715"/>

      </g>

     </g>

    </g>

    <g id="ytick_39">

     <g id="line2d_45">

      <g>

       <use style="stroke:#000000;stroke-width:0.6;" x="51.378125" xlink:href="#m0a1f99f8ca" y="125.838976"/>

      </g>

     </g>

    </g>

    <g id="ytick_40">

     <g id="line2d_46">

      <g>

       <use style="stroke:#000000;stroke-width:0.6;" x="51.378125" xlink:href="#m0a1f99f8ca" y="124.299029"/>

      </g>

     </g>

    </g>

    <g id="ytick_41">

     <g id="line2d_47">

      <g>

       <use style="stroke:#000000;stroke-width:0.6;" x="51.378125" xlink:href="#m0a1f99f8ca" y="122.940699"/>

      </g>

     </g>

    </g>

    <g id="ytick_42">

     <g id="line2d_48">

      <g>

       <use style="stroke:#000000;stroke-width:0.6;" x="51.378125" xlink:href="#m0a1f99f8ca" y="113.731929"/>

      </g>

     </g>

    </g>

    <g id="ytick_43">

     <g id="line2d_49">

      <g>

       <use style="stroke:#000000;stroke-width:0.6;" x="51.378125" xlink:href="#m0a1f99f8ca" y="109.055913"/>

      </g>

     </g>

    </g>

    <g id="ytick_44">

     <g id="line2d_50">

      <g>

       <use style="stroke:#000000;stroke-width:0.6;" x="51.378125" xlink:href="#m0a1f99f8ca" y="105.738227"/>

      </g>

     </g>

    </g>

    <g id="ytick_45">

     <g id="line2d_51">

      <g>

       <use style="stroke:#000000;stroke-width:0.6;" x="51.378125" xlink:href="#m0a1f99f8ca" y="103.164829"/>

      </g>

     </g>

    </g>

    <g id="ytick_46">

     <g id="line2d_52">

      <g>

       <use style="stroke:#000000;stroke-width:0.6;" x="51.378125" xlink:href="#m0a1f99f8ca" y="101.062211"/>

      </g>

     </g>

    </g>

    <g id="ytick_47">

     <g id="line2d_53">

      <g>

       <use style="stroke:#000000;stroke-width:0.6;" x="51.378125" xlink:href="#m0a1f99f8ca" y="99.284472"/>

      </g>

     </g>

    </g>

    <g id="ytick_48">

     <g id="line2d_54">

      <g>

       <use style="stroke:#000000;stroke-width:0.6;" x="51.378125" xlink:href="#m0a1f99f8ca" y="97.744525"/>

      </g>

     </g>

    </g>

    <g id="ytick_49">

     <g id="line2d_55">

      <g>

       <use style="stroke:#000000;stroke-width:0.6;" x="51.378125" xlink:href="#m0a1f99f8ca" y="96.386195"/>

      </g>

     </g>

    </g>

    <g id="ytick_50">

     <g id="line2d_56">

      <g>

       <use style="stroke:#000000;stroke-width:0.6;" x="51.378125" xlink:href="#m0a1f99f8ca" y="87.177425"/>

      </g>

     </g>

    </g>

    <g id="ytick_51">

     <g id="line2d_57">

      <g>

       <use style="stroke:#000000;stroke-width:0.6;" x="51.378125" xlink:href="#m0a1f99f8ca" y="82.501409"/>

      </g>

     </g>

    </g>

    <g id="ytick_52">

     <g id="line2d_58">

      <g>

       <use style="stroke:#000000;stroke-width:0.6;" x="51.378125" xlink:href="#m0a1f99f8ca" y="79.183723"/>

      </g>

     </g>

    </g>

    <g id="ytick_53">

     <g id="line2d_59">

      <g>

       <use style="stroke:#000000;stroke-width:0.6;" x="51.378125" xlink:href="#m0a1f99f8ca" y="76.610325"/>

      </g>

     </g>

    </g>

    <g id="ytick_54">

     <g id="line2d_60">

      <g>

       <use style="stroke:#000000;stroke-width:0.6;" x="51.378125" xlink:href="#m0a1f99f8ca" y="74.507707"/>

      </g>

     </g>

    </g>

    <g id="ytick_55">

     <g id="line2d_61">

      <g>

       <use style="stroke:#000000;stroke-width:0.6;" x="51.378125" xlink:href="#m0a1f99f8ca" y="72.729968"/>

      </g>

     </g>

    </g>

    <g id="ytick_56">

     <g id="line2d_62">

      <g>

       <use style="stroke:#000000;stroke-width:0.6;" x="51.378125" xlink:href="#m0a1f99f8ca" y="71.19002"/>

      </g>

     </g>

    </g>

    <g id="ytick_57">

     <g id="line2d_63">

      <g>

       <use style="stroke:#000000;stroke-width:0.6;" x="51.378125" xlink:href="#m0a1f99f8ca" y="69.83169"/>

      </g>

     </g>

    </g>

    <g id="ytick_58">

     <g id="line2d_64">

      <g>

       <use style="stroke:#000000;stroke-width:0.6;" x="51.378125" xlink:href="#m0a1f99f8ca" y="60.622921"/>

      </g>

     </g>

    </g>

    <g id="ytick_59">

     <g id="line2d_65">

      <g>

       <use style="stroke:#000000;stroke-width:0.6;" x="51.378125" xlink:href="#m0a1f99f8ca" y="55.946905"/>

      </g>

     </g>

    </g>

    <g id="ytick_60">

     <g id="line2d_66">

      <g>

       <use style="stroke:#000000;stroke-width:0.6;" x="51.378125" xlink:href="#m0a1f99f8ca" y="52.629218"/>

      </g>

     </g>

    </g>

    <g id="ytick_61">

     <g id="line2d_67">

      <g>

       <use style="stroke:#000000;stroke-width:0.6;" x="51.378125" xlink:href="#m0a1f99f8ca" y="50.055821"/>

      </g>

     </g>

    </g>

    <g id="ytick_62">

     <g id="line2d_68">

      <g>

       <use style="stroke:#000000;stroke-width:0.6;" x="51.378125" xlink:href="#m0a1f99f8ca" y="47.953202"/>

      </g>

     </g>

    </g>

    <g id="ytick_63">

     <g id="line2d_69">

      <g>

       <use style="stroke:#000000;stroke-width:0.6;" x="51.378125" xlink:href="#m0a1f99f8ca" y="46.175464"/>

      </g>

     </g>

    </g>

    <g id="ytick_64">

     <g id="line2d_70">

      <g>

       <use style="stroke:#000000;stroke-width:0.6;" x="51.378125" xlink:href="#m0a1f99f8ca" y="44.635516"/>

      </g>

     </g>

    </g>

    <g id="ytick_65">

     <g id="line2d_71">

      <g>

       <use style="stroke:#000000;stroke-width:0.6;" x="51.378125" xlink:href="#m0a1f99f8ca" y="43.277186"/>

      </g>

     </g>

    </g>

    <g id="ytick_66">

     <g id="line2d_72">

      <g>

       <use style="stroke:#000000;stroke-width:0.6;" x="51.378125" xlink:href="#m0a1f99f8ca" y="34.068417"/>

      </g>

     </g>

    </g>

    <g id="ytick_67">

     <g id="line2d_73">

      <g>

       <use style="stroke:#000000;stroke-width:0.6;" x="51.378125" xlink:href="#m0a1f99f8ca" y="29.392401"/>

      </g>

     </g>

    </g>

    <g id="ytick_68">

     <g id="line2d_74">

      <g>

       <use style="stroke:#000000;stroke-width:0.6;" x="51.378125" xlink:href="#m0a1f99f8ca" y="26.074714"/>

      </g>

     </g>

    </g>

    <g id="ytick_69">

     <g id="line2d_75">

      <g>

       <use style="stroke:#000000;stroke-width:0.6;" x="51.378125" xlink:href="#m0a1f99f8ca" y="23.501317"/>

      </g>

     </g>

    </g>

    <g id="ytick_70">

     <g id="line2d_76">

      <g>

       <use style="stroke:#000000;stroke-width:0.6;" x="51.378125" xlink:href="#m0a1f99f8ca" y="21.398698"/>

      </g>

     </g>

    </g>

    <g id="ytick_71">

     <g id="line2d_77">

      <g>

       <use style="stroke:#000000;stroke-width:0.6;" x="51.378125" xlink:href="#m0a1f99f8ca" y="19.620959"/>

      </g>

     </g>

    </g>

    <g id="ytick_72">

     <g id="line2d_78">

      <g>

       <use style="stroke:#000000;stroke-width:0.6;" x="51.378125" xlink:href="#m0a1f99f8ca" y="18.081012"/>

      </g>

     </g>

    </g>

    <g id="ytick_73">

     <g id="line2d_79">

      <g>

       <use style="stroke:#000000;stroke-width:0.6;" x="51.378125" xlink:href="#m0a1f99f8ca" y="16.722682"/>

      </g>

     </g>

    </g>

    <g id="text_17">

     <!-- Mean squared error -->

     <defs>

      <path d="M 9.8125 72.90625 

L 24.515625 72.90625 

L 43.109375 23.296875 

L 61.8125 72.90625 

L 76.515625 72.90625 

L 76.515625 0 

L 66.890625 0 

L 66.890625 64.015625 

L 48.09375 14.015625 

L 38.1875 14.015625 

L 19.390625 64.015625 

L 19.390625 0 

L 9.8125 0 

z

" id="DejaVuSans-4d"/>

      <path d="M 44.28125 53.078125 

L 44.28125 44.578125 

Q 40.484375 46.53125 36.375 47.5 

Q 32.28125 48.484375 27.875 48.484375 

Q 21.1875 48.484375 17.84375 46.4375 

Q 14.5 44.390625 14.5 40.28125 

Q 14.5 37.15625 16.890625 35.375 

Q 19.28125 33.59375 26.515625 31.984375 

L 29.59375 31.296875 

Q 39.15625 29.25 43.1875 25.515625 

Q 47.21875 21.78125 47.21875 15.09375 

Q 47.21875 7.46875 41.1875 3.015625 

Q 35.15625 -1.421875 24.609375 -1.421875 

Q 20.21875 -1.421875 15.453125 -0.5625 

Q 10.6875 0.296875 5.421875 2 

L 5.421875 11.28125 

Q 10.40625 8.6875 15.234375 7.390625 

Q 20.0625 6.109375 24.8125 6.109375 

Q 31.15625 6.109375 34.5625 8.28125 

Q 37.984375 10.453125 37.984375 14.40625 

Q 37.984375 18.0625 35.515625 20.015625 

Q 33.0625 21.96875 24.703125 23.78125 

L 21.578125 24.515625 

Q 13.234375 26.265625 9.515625 29.90625 

Q 5.8125 33.546875 5.8125 39.890625 

Q 5.8125 47.609375 11.28125 51.796875 

Q 16.75 56 26.8125 56 

Q 31.78125 56 36.171875 55.265625 

Q 40.578125 54.546875 44.28125 53.078125 

z

" id="DejaVuSans-73"/>

      <path d="M 14.796875 27.296875 

Q 14.796875 17.390625 18.875 11.75 

Q 22.953125 6.109375 30.078125 6.109375 

Q 37.203125 6.109375 41.296875 11.75 

Q 45.40625 17.390625 45.40625 27.296875 

Q 45.40625 37.203125 41.296875 42.84375 

Q 37.203125 48.484375 30.078125 48.484375 

Q 22.953125 48.484375 18.875 42.84375 

Q 14.796875 37.203125 14.796875 27.296875 

z

M 45.40625 8.203125 

Q 42.578125 3.328125 38.25 0.953125 

Q 33.9375 -1.421875 27.875 -1.421875 

Q 17.96875 -1.421875 11.734375 6.484375 

Q 5.515625 14.40625 5.515625 27.296875 

Q 5.515625 40.1875 11.734375 48.09375 

Q 17.96875 56 27.875 56 

Q 33.9375 56 38.25 53.625 

Q 42.578125 51.265625 45.40625 46.390625 

L 45.40625 54.6875 

L 54.390625 54.6875 

L 54.390625 -20.796875 

L 45.40625 -20.796875 

z

" id="DejaVuSans-71"/>

      <path d="M 8.5 21.578125 

L 8.5 54.6875 

L 17.484375 54.6875 

L 17.484375 21.921875 

Q 17.484375 14.15625 20.5 10.265625 

Q 23.53125 6.390625 29.59375 6.390625 

Q 36.859375 6.390625 41.078125 11.03125 

Q 45.3125 15.671875 45.3125 23.6875 

L 45.3125 54.6875 

L 54.296875 54.6875 

L 54.296875 0 

L 45.3125 0 

L 45.3125 8.40625 

Q 42.046875 3.421875 37.71875 1 

Q 33.40625 -1.421875 27.6875 -1.421875 

Q 18.265625 -1.421875 13.375 4.4375 

Q 8.5 10.296875 8.5 21.578125 

z

M 31.109375 56 

z

" id="DejaVuSans-75"/>

     </defs>

     <g transform="translate(14.798438 168.837969)rotate(-90)scale(0.1 -0.1)">

      <use xlink:href="#DejaVuSans-4d"/>

      <use x="86.279297" xlink:href="#DejaVuSans-65"/>

      <use x="147.802734" xlink:href="#DejaVuSans-61"/>

      <use x="209.082031" xlink:href="#DejaVuSans-6e"/>

      <use x="272.460938" xlink:href="#DejaVuSans-20"/>

      <use x="304.248047" xlink:href="#DejaVuSans-73"/>

      <use x="356.347656" xlink:href="#DejaVuSans-71"/>

      <use x="419.824219" xlink:href="#DejaVuSans-75"/>

      <use x="483.203125" xlink:href="#DejaVuSans-61"/>

      <use x="544.482422" xlink:href="#DejaVuSans-72"/>

      <use x="585.564453" xlink:href="#DejaVuSans-65"/>

      <use x="647.087891" xlink:href="#DejaVuSans-64"/>

      <use x="710.564453" xlink:href="#DejaVuSans-20"/>

      <use x="742.351562" xlink:href="#DejaVuSans-65"/>

      <use x="803.875" xlink:href="#DejaVuSans-72"/>

      <use x="844.972656" xlink:href="#DejaVuSans-72"/>

      <use x="886.054688" xlink:href="#DejaVuSans-6f"/>

      <use x="947.236328" xlink:href="#DejaVuSans-72"/>

     </g>

    </g>

   </g>

   <g id="line2d_80">

    <path clip-path="url(#p7ee4287387)" d="M 66.596307 201.131536 

L 72.80781 202.522616 

L 79.019312 212.964254 

L 85.230815 217.525932 

L 91.442318 217.66183 

L 97.653821 217.823861 

L 103.865324 218.040567 

L 110.076826 218.097093 

L 116.288329 218.101522 

L 122.499832 218.118822 

L 128.711335 218.127319 

L 134.922837 218.138328 

L 141.13434 218.154144 

L 147.345843 218.157719 

L 153.557346 218.158469 

L 159.768849 218.159887 

L 165.980351 218.165884 

L 172.191854 218.166097 

L 178.403357 218.182719 

L 184.61486 218.182719 

L 190.826362 218.182965 

L 197.037865 218.185422 

L 203.249368 218.18578 

L 209.460871 218.186185 

L 215.672374 218.187033 

L 221.883876 218.186596 

L 228.095379 218.186088 

L 234.306882 218.203683 

L 240.518385 218.17114 

L 246.729888 218.222001 

L 252.94139 218.23735 

L 259.152893 218.242501 

L 265.364396 218.212347 

L 271.575899 218.229614 

L 277.787401 218.221027 

L 283.998904 218.148733 

L 290.210407 218.227946 

L 296.42191 218.237837 

L 302.633413 216.797897 

L 308.844915 218.21951 

L 315.056418 218.251902 

L 321.267921 218.248009 

L 327.479424 218.245568 

L 333.690926 217.724573 

L 339.902429 218.204163 

L 346.113932 218.256364 

L 352.325435 218.238451 

L 358.536938 218.232383 

L 364.74844 218.25199 

L 370.959943 203.163316 

" style="fill:none;stroke:#1f77b4;stroke-linecap:square;stroke-width:1.5;"/>

   </g>

   <g id="line2d_81">

    <path clip-path="url(#p7ee4287387)" d="M 66.596307 202.781435 

L 72.80781 203.236844 

L 79.019312 212.973044 

L 85.230815 216.286179 

L 91.442318 216.525197 

L 97.653821 216.692058 

L 103.865324 216.866559 

L 110.076826 216.945308 

L 116.288329 216.944527 

L 122.499832 216.950081 

L 128.711335 216.846439 

L 134.922837 216.724336 

L 141.13434 216.464018 

L 147.345843 216.283072 

L 153.557346 216.379657 

L 159.768849 216.533429 

L 165.980351 216.809478 

L 172.191854 216.861799 

L 178.403357 215.462025 

L 184.61486 215.45744 

L 190.826362 215.871236 

L 197.037865 213.839929 

L 203.249368 214.889827 

L 209.460871 216.201711 

L 215.672374 214.624426 

L 221.883876 213.965484 

L 228.095379 206.996442 

L 234.306882 213.887451 

L 240.518385 202.331312 

L 246.729888 182.573431 

L 252.94139 200.748984 

L 259.152893 193.212239 

L 265.364396 163.145427 

L 271.575899 175.951455 

L 277.787401 201.489047 

L 283.998904 161.757662 

L 290.210407 177.767876 

L 296.42191 132.135427 

L 302.633413 88.152416 

L 308.844915 198.165803 

L 315.056418 129.718776 

L 321.267921 131.350429 

L 327.479424 123.2691 

L 333.690926 116.418686 

L 339.902429 129.251424 

L 346.113932 112.914194 

L 352.325435 104.909914 

L 358.536938 126.244748 

L 364.74844 100.31371 

L 370.959943 20.583636 

" style="fill:none;stroke:#ff7f0e;stroke-linecap:square;stroke-width:1.5;"/>

   </g>

   <g id="patch_3">

    <path d="M 51.378125 228.14 

L 51.378125 10.7 

" style="fill:none;stroke:#000000;stroke-linecap:square;stroke-linejoin:miter;stroke-width:0.8;"/>

   </g>

   <g id="patch_4">

    <path d="M 386.178125 228.14 

L 386.178125 10.7 

" style="fill:none;stroke:#000000;stroke-linecap:square;stroke-linejoin:miter;stroke-width:0.8;"/>

   </g>

   <g id="patch_5">

    <path d="M 51.378125 228.14 

L 386.178125 228.14 

" style="fill:none;stroke:#000000;stroke-linecap:square;stroke-linejoin:miter;stroke-width:0.8;"/>

   </g>

   <g id="patch_6">

    <path d="M 51.378125 10.7 

L 386.178125 10.7 

" style="fill:none;stroke:#000000;stroke-linecap:square;stroke-linejoin:miter;stroke-width:0.8;"/>

   </g>

   <g id="legend_1">

    <g id="patch_7">

     <path d="M 58.378125 48.05625 

L 140.523438 48.05625 

Q 142.523438 48.05625 142.523438 46.05625 

L 142.523438 17.7 

Q 142.523438 15.7 140.523438 15.7 

L 58.378125 15.7 

Q 56.378125 15.7 56.378125 17.7 

L 56.378125 46.05625 

Q 56.378125 48.05625 58.378125 48.05625 

z

" style="fill:#ffffff;opacity:0.8;stroke:#cccccc;stroke-linejoin:miter;"/>

    </g>

    <g id="line2d_82">

     <path d="M 60.378125 23.798437 

L 80.378125 23.798437 

" style="fill:none;stroke:#1f77b4;stroke-linecap:square;stroke-width:1.5;"/>

    </g>

    <g id="line2d_83"/>

    <g id="text_18">

     <!-- Training -->

     <defs>

      <path d="M -0.296875 72.90625 

L 61.375 72.90625 

L 61.375 64.59375 

L 35.5 64.59375 

L 35.5 0 

L 25.59375 0 

L 25.59375 64.59375 

L -0.296875 64.59375 

z

" id="DejaVuSans-54"/>

     </defs>

     <g transform="translate(88.378125 27.298437)scale(0.1 -0.1)">

      <use xlink:href="#DejaVuSans-54"/>

      <use x="60.865234" xlink:href="#DejaVuSans-72"/>

      <use x="101.978516" xlink:href="#DejaVuSans-61"/>

      <use x="163.257812" xlink:href="#DejaVuSans-69"/>

      <use x="191.041016" xlink:href="#DejaVuSans-6e"/>

      <use x="254.419922" xlink:href="#DejaVuSans-69"/>

      <use x="282.203125" xlink:href="#DejaVuSans-6e"/>

      <use x="345.582031" xlink:href="#DejaVuSans-67"/>

     </g>

    </g>

    <g id="line2d_84">

     <path d="M 60.378125 38.476562 

L 80.378125 38.476562 

" style="fill:none;stroke:#ff7f0e;stroke-linecap:square;stroke-width:1.5;"/>

    </g>

    <g id="line2d_85"/>

    <g id="text_19">

     <!-- Validation -->

     <defs>

      <path d="M 28.609375 0 

L 0.78125 72.90625 

L 11.078125 72.90625 

L 34.1875 11.53125 

L 57.328125 72.90625 

L 67.578125 72.90625 

L 39.796875 0 

z

" id="DejaVuSans-56"/>

      <path d="M 18.3125 70.21875 

L 18.3125 54.6875 

L 36.8125 54.6875 

L 36.8125 47.703125 

L 18.3125 47.703125 

L 18.3125 18.015625 

Q 18.3125 11.328125 20.140625 9.421875 

Q 21.96875 7.515625 27.59375 7.515625 

L 36.8125 7.515625 

L 36.8125 0 

L 27.59375 0 

Q 17.1875 0 13.234375 3.875 

Q 9.28125 7.765625 9.28125 18.015625 

L 9.28125 47.703125 

L 2.6875 47.703125 

L 2.6875 54.6875 

L 9.28125 54.6875 

L 9.28125 70.21875 

z

" id="DejaVuSans-74"/>

     </defs>

     <g transform="translate(88.378125 41.976562)scale(0.1 -0.1)">

      <use xlink:href="#DejaVuSans-56"/>

      <use x="68.298828" xlink:href="#DejaVuSans-61"/>

      <use x="129.578125" xlink:href="#DejaVuSans-6c"/>

      <use x="157.361328" xlink:href="#DejaVuSans-69"/>

      <use x="185.144531" xlink:href="#DejaVuSans-64"/>

      <use x="248.621094" xlink:href="#DejaVuSans-61"/>

      <use x="309.900391" xlink:href="#DejaVuSans-74"/>

      <use x="349.109375" xlink:href="#DejaVuSans-69"/>

      <use x="376.892578" xlink:href="#DejaVuSans-6f"/>

      <use x="438.074219" xlink:href="#DejaVuSans-6e"/>

     </g>

    </g>

   </g>

  </g>

 </g>

 <defs>

  <clipPath id="p7ee4287387">

   <rect height="217.44" width="334.8" x="51.378125" y="10.7"/>

  </clipPath>

 </defs>

</svg>
