<?xml version="1.0" encoding="utf-8" standalone="no"?>

<!DOCTYPE svg PUBLIC "-//W3C//DTD SVG 1.1//EN"

  "http://www.w3.org/Graphics/SVG/1.1/DTD/svg11.dtd">

<!-- Created with matplotlib (http://matplotlib.org/) -->

<svg height="252pt" version="1.1" viewBox="0 0 449 252" width="449pt" xmlns="http://www.w3.org/2000/svg" xmlns:xlink="http://www.w3.org/1999/xlink">

 <defs>

  <style type="text/css">

*{stroke-linecap:butt;stroke-linejoin:round;}

  </style>

 </defs>

 <g id="figure_1">

  <g id="patch_1">

   <path d="M 0 252.018125 

L 449.299125 252.018125 

L 449.299125 0 

L 0 0 

z

" style="fill:none;"/>

  </g>

  <g id="axes_1">

   <g id="patch_2">

    <path d="M 30.103125 228.14 

L 364.903125 228.14 

L 364.903125 10.7 

L 30.103125 10.7 

z

" style="fill:#ffffff;"/>

   </g>

   <g id="matplotlib.axis_1">

    <g id="xtick_1">

     <g id="line2d_1">

      <defs>

       <path d="M 0 0 

L 0 3.5 

" id="m08b38d127e" style="stroke:#000000;stroke-width:0.8;"/>

      </defs>

      <g>

       <use style="stroke:#000000;stroke-width:0.8;" x="63.583125" xlink:href="#m08b38d127e" y="228.14"/>

      </g>

     </g>

     <g id="text_1">

      <!-- 0 -->

      <defs>

       <path d="M 31.78125 66.40625 

Q 24.171875 66.40625 20.328125 58.90625 

Q 16.5 51.421875 16.5 36.375 

Q 16.5 21.390625 20.328125 13.890625 

Q 24.171875 6.390625 31.78125 6.390625 

Q 39.453125 6.390625 43.28125 13.890625 

Q 47.125 21.390625 47.125 36.375 

Q 47.125 51.421875 43.28125 58.90625 

Q 39.453125 66.40625 31.78125 66.40625 

z

M 31.78125 74.21875 

Q 44.046875 74.21875 50.515625 64.515625 

Q 56.984375 54.828125 56.984375 36.375 

Q 56.984375 17.96875 50.515625 8.265625 

Q 44.046875 -1.421875 31.78125 -1.421875 

Q 19.53125 -1.421875 13.0625 8.265625 

Q 6.59375 17.96875 6.59375 36.375 

Q 6.59375 54.828125 13.0625 64.515625 

Q 19.53125 74.21875 31.78125 74.21875 

z

" id="DejaVuSans-30"/>

      </defs>

      <g transform="translate(60.401875 242.738437)scale(0.1 -0.1)">

       <use xlink:href="#DejaVuSans-30"/>

      </g>

     </g>

    </g>

    <g id="xtick_2">

     <g id="line2d_2">

      <g>

       <use style="stroke:#000000;stroke-width:0.8;" x="130.543125" xlink:href="#m08b38d127e" y="228.14"/>

      </g>

     </g>

     <g id="text_2">

      <!-- 1 -->

      <defs>

       <path d="M 12.40625 8.296875 

L 28.515625 8.296875 

L 28.515625 63.921875 

L 10.984375 60.40625 

L 10.984375 69.390625 

L 28.421875 72.90625 

L 38.28125 72.90625 

L 38.28125 8.296875 

L 54.390625 8.296875 

L 54.390625 0 

L 12.40625 0 

z

" id="DejaVuSans-31"/>

      </defs>

      <g transform="translate(127.361875 242.738437)scale(0.1 -0.1)">

       <use xlink:href="#DejaVuSans-31"/>

      </g>

     </g>

    </g>

    <g id="xtick_3">

     <g id="line2d_3">

      <g>

       <use style="stroke:#000000;stroke-width:0.8;" x="197.503125" xlink:href="#m08b38d127e" y="228.14"/>

      </g>

     </g>

     <g id="text_3">

      <!-- 2 -->

      <defs>

       <path d="M 19.1875 8.296875 

L 53.609375 8.296875 

L 53.609375 0 

L 7.328125 0 

L 7.328125 8.296875 

Q 12.9375 14.109375 22.625 23.890625 

Q 32.328125 33.6875 34.8125 36.53125 

Q 39.546875 41.84375 41.421875 45.53125 

Q 43.3125 49.21875 43.3125 52.78125 

Q 43.3125 58.59375 39.234375 62.25 

Q 35.15625 65.921875 28.609375 65.921875 

Q 23.96875 65.921875 18.8125 64.3125 

Q 13.671875 62.703125 7.8125 59.421875 

L 7.8125 69.390625 

Q 13.765625 71.78125 18.9375 73 

Q 24.125 74.21875 28.421875 74.21875 

Q 39.75 74.21875 46.484375 68.546875 

Q 53.21875 62.890625 53.21875 53.421875 

Q 53.21875 48.921875 51.53125 44.890625 

Q 49.859375 40.875 45.40625 35.40625 

Q 44.1875 33.984375 37.640625 27.21875 

Q 31.109375 20.453125 19.1875 8.296875 

z

" id="DejaVuSans-32"/>

      </defs>

      <g transform="translate(194.321875 242.738437)scale(0.1 -0.1)">

       <use xlink:href="#DejaVuSans-32"/>

      </g>

     </g>

    </g>

    <g id="xtick_4">

     <g id="line2d_4">

      <g>

       <use style="stroke:#000000;stroke-width:0.8;" x="264.463125" xlink:href="#m08b38d127e" y="228.14"/>

      </g>

     </g>

     <g id="text_4">

      <!-- 3 -->

      <defs>

       <path d="M 40.578125 39.3125 

Q 47.65625 37.796875 51.625 33 

Q 55.609375 28.21875 55.609375 21.1875 

Q 55.609375 10.40625 48.1875 4.484375 

Q 40.765625 -1.421875 27.09375 -1.421875 

Q 22.515625 -1.421875 17.65625 -0.515625 

Q 12.796875 0.390625 7.625 2.203125 

L 7.625 11.71875 

Q 11.71875 9.328125 16.59375 8.109375 

Q 21.484375 6.890625 26.8125 6.890625 

Q 36.078125 6.890625 40.9375 10.546875 

Q 45.796875 14.203125 45.796875 21.1875 

Q 45.796875 27.640625 41.28125 31.265625 

Q 36.765625 34.90625 28.71875 34.90625 

L 20.21875 34.90625 

L 20.21875 43.015625 

L 29.109375 43.015625 

Q 36.375 43.015625 40.234375 45.921875 

Q 44.09375 48.828125 44.09375 54.296875 

Q 44.09375 59.90625 40.109375 62.90625 

Q 36.140625 65.921875 28.71875 65.921875 

Q 24.65625 65.921875 20.015625 65.03125 

Q 15.375 64.15625 9.8125 62.3125 

L 9.8125 71.09375 

Q 15.4375 72.65625 20.34375 73.4375 

Q 25.25 74.21875 29.59375 74.21875 

Q 40.828125 74.21875 47.359375 69.109375 

Q 53.90625 64.015625 53.90625 55.328125 

Q 53.90625 49.265625 50.4375 45.09375 

Q 46.96875 40.921875 40.578125 39.3125 

z

" id="DejaVuSans-33"/>

      </defs>

      <g transform="translate(261.281875 242.738437)scale(0.1 -0.1)">

       <use xlink:href="#DejaVuSans-33"/>

      </g>

     </g>

    </g>

    <g id="xtick_5">

     <g id="line2d_5">

      <g>

       <use style="stroke:#000000;stroke-width:0.8;" x="331.423125" xlink:href="#m08b38d127e" y="228.14"/>

      </g>

     </g>

     <g id="text_5">

      <!-- 4 -->

      <defs>

       <path d="M 37.796875 64.3125 

L 12.890625 25.390625 

L 37.796875 25.390625 

z

M 35.203125 72.90625 

L 47.609375 72.90625 

L 47.609375 25.390625 

L 58.015625 25.390625 

L 58.015625 17.1875 

L 47.609375 17.1875 

L 47.609375 0 

L 37.796875 0 

L 37.796875 17.1875 

L 4.890625 17.1875 

L 4.890625 26.703125 

z

" id="DejaVuSans-34"/>

      </defs>

      <g transform="translate(328.241875 242.738437)scale(0.1 -0.1)">

       <use xlink:href="#DejaVuSans-34"/>

      </g>

     </g>

    </g>

   </g>

   <g id="matplotlib.axis_2">

    <g id="ytick_1">

     <g id="line2d_6">

      <defs>

       <path d="M 0 0 

L -3.5 0 

" id="ma4baee25a1" style="stroke:#000000;stroke-width:0.8;"/>

      </defs>

      <g>

       <use style="stroke:#000000;stroke-width:0.8;" x="30.103125" xlink:href="#ma4baee25a1" y="218.264284"/>

      </g>

     </g>

     <g id="text_6">

      <!-- 0.0 -->

      <defs>

       <path d="M 10.6875 12.40625 

L 21 12.40625 

L 21 0 

L 10.6875 0 

z

" id="DejaVuSans-2e"/>

      </defs>

      <g transform="translate(7.2 222.063503)scale(0.1 -0.1)">

       <use xlink:href="#DejaVuSans-30"/>

       <use x="63.623047" xlink:href="#DejaVuSans-2e"/>

       <use x="95.410156" xlink:href="#DejaVuSans-30"/>

      </g>

     </g>

    </g>

    <g id="ytick_2">

     <g id="line2d_7">

      <g>

       <use style="stroke:#000000;stroke-width:0.8;" x="30.103125" xlink:href="#ma4baee25a1" y="178.728154"/>

      </g>

     </g>

     <g id="text_7">

      <!-- 0.2 -->

      <g transform="translate(7.2 182.527373)scale(0.1 -0.1)">

       <use xlink:href="#DejaVuSans-30"/>

       <use x="63.623047" xlink:href="#DejaVuSans-2e"/>

       <use x="95.410156" xlink:href="#DejaVuSans-32"/>

      </g>

     </g>

    </g>

    <g id="ytick_3">

     <g id="line2d_8">

      <g>

       <use style="stroke:#000000;stroke-width:0.8;" x="30.103125" xlink:href="#ma4baee25a1" y="139.192025"/>

      </g>

     </g>

     <g id="text_8">

      <!-- 0.4 -->

      <g transform="translate(7.2 142.991244)scale(0.1 -0.1)">

       <use xlink:href="#DejaVuSans-30"/>

       <use x="63.623047" xlink:href="#DejaVuSans-2e"/>

       <use x="95.410156" xlink:href="#DejaVuSans-34"/>

      </g>

     </g>

    </g>

    <g id="ytick_4">

     <g id="line2d_9">

      <g>

       <use style="stroke:#000000;stroke-width:0.8;" x="30.103125" xlink:href="#ma4baee25a1" y="99.655895"/>

      </g>

     </g>

     <g id="text_9">

      <!-- 0.6 -->

      <defs>

       <path d="M 33.015625 40.375 

Q 26.375 40.375 22.484375 35.828125 

Q 18.609375 31.296875 18.609375 23.390625 

Q 18.609375 15.53125 22.484375 10.953125 

Q 26.375 6.390625 33.015625 6.390625 

Q 39.65625 6.390625 43.53125 10.953125 

Q 47.40625 15.53125 47.40625 23.390625 

Q 47.40625 31.296875 43.53125 35.828125 

Q 39.65625 40.375 33.015625 40.375 

z

M 52.59375 71.296875 

L 52.59375 62.3125 

Q 48.875 64.0625 45.09375 64.984375 

Q 41.3125 65.921875 37.59375 65.921875 

Q 27.828125 65.921875 22.671875 59.328125 

Q 17.53125 52.734375 16.796875 39.40625 

Q 19.671875 43.65625 24.015625 45.921875 

Q 28.375 48.1875 33.59375 48.1875 

Q 44.578125 48.1875 50.953125 41.515625 

Q 57.328125 34.859375 57.328125 23.390625 

Q 57.328125 12.15625 50.6875 5.359375 

Q 44.046875 -1.421875 33.015625 -1.421875 

Q 20.359375 -1.421875 13.671875 8.265625 

Q 6.984375 17.96875 6.984375 36.375 

Q 6.984375 53.65625 15.1875 63.9375 

Q 23.390625 74.21875 37.203125 74.21875 

Q 40.921875 74.21875 44.703125 73.484375 

Q 48.484375 72.75 52.59375 71.296875 

z

" id="DejaVuSans-36"/>

      </defs>

      <g transform="translate(7.2 103.455114)scale(0.1 -0.1)">

       <use xlink:href="#DejaVuSans-30"/>

       <use x="63.623047" xlink:href="#DejaVuSans-2e"/>

       <use x="95.410156" xlink:href="#DejaVuSans-36"/>

      </g>

     </g>

    </g>

    <g id="ytick_5">

     <g id="line2d_10">

      <g>

       <use style="stroke:#000000;stroke-width:0.8;" x="30.103125" xlink:href="#ma4baee25a1" y="60.119766"/>

      </g>

     </g>

     <g id="text_10">

      <!-- 0.8 -->

      <defs>

       <path d="M 31.78125 34.625 

Q 24.75 34.625 20.71875 30.859375 

Q 16.703125 27.09375 16.703125 20.515625 

Q 16.703125 13.921875 20.71875 10.15625 

Q 24.75 6.390625 31.78125 6.390625 

Q 38.8125 6.390625 42.859375 10.171875 

Q 46.921875 13.96875 46.921875 20.515625 

Q 46.921875 27.09375 42.890625 30.859375 

Q 38.875 34.625 31.78125 34.625 

z

M 21.921875 38.8125 

Q 15.578125 40.375 12.03125 44.71875 

Q 8.5 49.078125 8.5 55.328125 

Q 8.5 64.0625 14.71875 69.140625 

Q 20.953125 74.21875 31.78125 74.21875 

Q 42.671875 74.21875 48.875 69.140625 

Q 55.078125 64.0625 55.078125 55.328125 

Q 55.078125 49.078125 51.53125 44.71875 

Q 48 40.375 41.703125 38.8125 

Q 48.828125 37.15625 52.796875 32.3125 

Q 56.78125 27.484375 56.78125 20.515625 

Q 56.78125 9.90625 50.3125 4.234375 

Q 43.84375 -1.421875 31.78125 -1.421875 

Q 19.734375 -1.421875 13.25 4.234375 

Q 6.78125 9.90625 6.78125 20.515625 

Q 6.78125 27.484375 10.78125 32.3125 

Q 14.796875 37.15625 21.921875 38.8125 

z

M 18.3125 54.390625 

Q 18.3125 48.734375 21.84375 45.5625 

Q 25.390625 42.390625 31.78125 42.390625 

Q 38.140625 42.390625 41.71875 45.5625 

Q 45.3125 48.734375 45.3125 54.390625 

Q 45.3125 60.0625 41.71875 63.234375 

Q 38.140625 66.40625 31.78125 66.40625 

Q 25.390625 66.40625 21.84375 63.234375 

Q 18.3125 60.0625 18.3125 54.390625 

z

" id="DejaVuSans-38"/>

      </defs>

      <g transform="translate(7.2 63.918985)scale(0.1 -0.1)">

       <use xlink:href="#DejaVuSans-30"/>

       <use x="63.623047" xlink:href="#DejaVuSans-2e"/>

       <use x="95.410156" xlink:href="#DejaVuSans-38"/>

      </g>

     </g>

    </g>

    <g id="ytick_6">

     <g id="line2d_11">

      <g>

       <use style="stroke:#000000;stroke-width:0.8;" x="30.103125" xlink:href="#ma4baee25a1" y="20.583636"/>

      </g>

     </g>

     <g id="text_11">

      <!-- 1.0 -->

      <g transform="translate(7.2 24.382855)scale(0.1 -0.1)">

       <use xlink:href="#DejaVuSans-31"/>

       <use x="63.623047" xlink:href="#DejaVuSans-2e"/>

       <use x="95.410156" xlink:href="#DejaVuSans-30"/>

      </g>

     </g>

    </g>

   </g>

   <g id="line2d_12">

    <path clip-path="url(#pe4376f4967)" d="M 30.103125 43.811725 

L 33.484943 39.5783 

L 36.866761 35.708395 

L 40.24858 32.229811 

L 43.630398 29.167899 

L 47.012216 26.545245 

L 50.394034 24.381396 

L 53.775852 22.692618 

L 57.15767 21.49169 

L 60.539489 20.787746 

L 63.921307 20.586158 

L 67.303125 20.888464 

L 70.684943 21.692356 

L 74.066761 22.991703 

L 77.44858 24.776632 

L 80.830398 27.033651 

L 84.212216 29.745822 

L 87.594034 32.892968 

L 90.975852 36.451927 

L 94.35767 40.396833 

L 97.739489 44.699432 

L 101.121307 49.329413 

L 104.503125 54.254769 

L 107.884943 59.442159 

L 111.266761 64.857283 

L 114.64858 70.465256 

L 118.030398 76.230979 

L 121.412216 82.119494 

L 124.794034 88.096329 

L 128.175852 94.127825 

L 131.55767 100.181429 

L 134.939489 106.225972 

L 138.321307 112.23191 

L 141.703125 118.171531 

L 145.084943 124.019136 

L 148.466761 129.751177 

L 151.84858 135.346365 

L 155.230398 140.785746 

L 158.612216 146.052735 

L 161.994034 151.133129 

L 165.375852 156.01508 

L 168.75767 160.689051 

L 172.139489 165.147739 

L 175.521307 169.385976 

L 178.903125 173.400622 

L 182.284943 177.190426 

L 185.666761 180.755888 

L 189.04858 184.099105 

L 192.430398 187.223611 

L 195.812216 190.134216 

L 199.194034 192.836843 

L 202.575852 195.338365 

L 205.95767 197.646449 

L 209.339489 199.769401 

L 212.721307 201.716024 

L 216.103125 203.495481 

L 219.484943 205.117168 

L 222.866761 206.590601 

L 226.24858 207.925308 

L 229.630398 209.130739 

L 233.012216 210.216183 

L 236.394034 211.190697 

L 239.775852 212.063049 

L 243.15767 212.841667 

L 246.539489 213.534603 

L 249.921307 214.1495 

L 253.303125 214.693576 

L 256.684943 215.173604 

L 260.066761 215.595916 

L 263.44858 215.966391 

L 266.830398 216.290471 

L 270.212216 216.573163 

L 273.594034 216.81906 

L 276.975852 217.032348 

L 280.35767 217.216834 

L 283.739489 217.375961 

L 287.121307 217.512834 

L 290.503125 217.630236 

L 293.884943 217.730659 

L 297.266761 217.816321 

L 300.64858 217.889189 

L 304.030398 217.951005 

L 307.412216 218.0033 

L 310.794034 218.047419 

L 314.175852 218.084539 

L 317.55767 218.115685 

L 320.939489 218.141747 

L 324.321307 218.163495 

L 327.703125 218.181595 

L 331.084943 218.196617 

L 334.466761 218.209051 

L 337.84858 218.219315 

L 341.230398 218.227765 

L 344.612216 218.234703 

L 347.994034 218.240384 

L 351.375852 218.245023 

L 354.75767 218.248801 

L 358.139489 218.251869 

L 361.521307 218.254355 

L 364.903125 218.256364 

" style="fill:none;stroke:#1f77b4;stroke-linecap:square;stroke-width:1.5;"/>

   </g>

   <g id="line2d_13">

    <path clip-path="url(#pe4376f4967)" d="M 30.103125 98.36491 

L 33.484943 92.314598 

L 36.866761 86.296027 

L 40.24858 80.34211 

L 43.630398 74.486785 

L 47.012216 68.764703 

L 50.394034 63.210902 

L 53.775852 57.860455 

L 57.15767 52.74811 

L 60.539489 47.907919 

L 63.921307 43.372862 

L 67.303125 39.174475 

L 70.684943 35.342488 

L 74.066761 31.904475 

L 77.44858 28.88552 

L 80.830398 26.307919 

L 84.212216 24.190901 

L 87.594034 22.550392 

L 90.975852 21.398813 

L 94.35767 20.744926 

L 97.739489 20.593721 

L 101.121307 20.946353 

L 104.503125 21.800129 

L 107.884943 23.148539 

L 111.266761 24.981342 

L 114.64858 27.284695 

L 118.030398 30.041322 

L 121.412216 33.230739 

L 124.794034 36.829498 

L 128.175852 40.811482 

L 131.55767 45.148214 

L 134.939489 49.809198 

L 138.321307 54.762276 

L 141.703125 59.973996 

L 145.084943 65.409981 

L 148.466761 71.035309 

L 151.84858 76.814879 

L 155.230398 82.713766 

L 158.612216 88.697566 

L 161.994034 94.732716 

L 165.375852 100.786792 

L 168.75767 106.828776 

L 172.139489 112.829297 

L 175.521307 118.760838 

L 178.903125 124.59791 

L 182.284943 130.317185 

L 185.666761 135.897607 

L 189.04858 141.320456 

L 192.430398 146.569385 

L 195.812216 151.630429 

L 199.194034 156.491974 

L 202.575852 161.144709 

L 205.95767 165.58155 

L 209.339489 169.797538 

L 212.721307 173.789726 

L 216.103125 177.557045 

L 219.484943 181.100164 

L 222.866761 184.421328 

L 226.24858 187.524207 

L 229.630398 190.413731 

L 233.012216 193.095924 

L 236.394034 195.577746 

L 239.775852 197.866933 

L 243.15767 199.971849 

L 246.539489 201.901339 

L 249.921307 203.664593 

L 253.303125 205.271026 

L 256.684943 206.730158 

L 260.066761 208.051514 

L 263.44858 209.244532 

L 266.830398 210.318479 

L 270.212216 211.282388 

L 273.594034 212.144993 

L 276.975852 212.914687 

L 280.35767 213.599482 

L 283.739489 214.20698 

L 287.121307 214.744353 

L 290.503125 215.218332 

L 293.884943 215.635202 

L 297.266761 216.000801 

L 300.64858 216.320523 

L 304.030398 216.599337 

L 307.412216 216.84179 

L 310.794034 217.052033 

L 314.175852 217.233834 

L 317.55767 217.390602 

L 320.939489 217.525407 

L 324.321307 217.641004 

L 327.703125 217.739855 

L 331.084943 217.824153 

L 334.466761 217.895841 

L 337.84858 217.956639 

L 341.230398 218.008059 

L 344.612216 218.051428 

L 347.994034 218.087907 

L 351.375852 218.118506 

L 354.75767 218.144104 

L 358.139489 218.165459 

L 361.521307 218.183227 

L 364.903125 218.197969 

" style="fill:none;stroke:#ff7f0e;stroke-linecap:square;stroke-width:1.5;"/>

   </g>

   <g id="line2d_14">

    <path clip-path="url(#pe4376f4967)" d="M 30.103125 154.086774 

L 33.484943 149.124173 

L 36.866761 143.967589 

L 40.24858 138.629805 

L 43.630398 133.125978 

L 47.012216 127.473642 

L 50.394034 121.692693 

L 53.775852 115.805332 

L 57.15767 109.835984 

L 60.539489 103.811172 

L 63.921307 97.759363 

L 67.303125 91.710779 

L 70.684943 85.697173 

L 74.066761 79.751574 

L 77.44858 73.908005 

L 80.830398 68.201171 

L 84.212216 62.666129 

L 87.594034 57.337937 

L 90.975852 52.25129 

L 94.35767 47.440149 

L 97.739489 42.937367 

L 101.121307 38.774315 

L 104.503125 34.980524 

L 107.884943 31.583331 

L 111.266761 28.607557 

L 114.64858 26.075201 

L 118.030398 24.005174 

L 121.412216 22.413059 

L 124.794034 21.310916 

L 128.175852 20.707136 

L 131.55767 20.606326 

L 134.939489 21.009257 

L 138.321307 21.912851 

L 141.703125 23.310222 

L 145.084943 25.190762 

L 148.466761 27.540273 

L 151.84858 30.341153 

L 155.230398 33.572605 

L 158.612216 37.210904 

L 161.994034 41.22968 

L 165.375852 45.60024 

L 168.75767 50.291905 

L 172.139489 55.272371 

L 175.521307 60.508075 

L 178.903125 65.964572 

L 182.284943 71.606904 

L 185.666761 77.399971 

L 189.04858 83.308886 

L 192.430398 89.299315 

L 195.812216 95.337796 

L 199.194034 101.392033 

L 202.575852 107.431163 

L 205.95767 113.425992 

L 209.339489 119.349199 

L 212.721307 125.175504 

L 216.103125 130.881803 

L 219.484943 136.447271 

L 222.866761 141.853424 

L 226.24858 147.084154 

L 229.630398 152.125732 

L 233.012216 156.966778 

L 236.394034 161.598207 

L 239.775852 166.013151 

L 243.15767 170.206859 

L 246.539489 174.176579 

L 249.921307 177.921421 

L 253.303125 181.442218 

L 256.684943 184.741366 

L 260.066761 187.822669 

L 263.44858 190.691172 

L 266.830398 193.353001 

L 270.212216 195.8152 

L 273.594034 198.085575 

L 276.975852 200.172543 

L 280.35767 202.084991 

L 283.739489 203.832137 

L 287.121307 205.42341 

L 290.503125 206.868337 

L 293.884943 208.176437 

L 297.266761 209.357134 

L 300.64858 210.419675 

L 304.030398 211.373066 

L 307.412216 212.226008 

L 310.794034 212.986858 

L 314.175852 213.663588 

L 317.55767 214.263758 

L 320.939489 214.794496 

L 324.321307 215.262489 

L 327.703125 215.673977 

L 331.084943 216.034752 

L 334.466761 216.350167 

L 337.84858 216.625147 

L 341.230398 216.864199 

L 344.612216 217.071434 

L 347.994034 217.250584 

L 351.375852 217.405023 

L 354.75767 217.537788 

L 358.139489 217.651604 

L 361.521307 217.748906 

L 364.903125 217.831859 

" style="fill:none;stroke:#2ca02c;stroke-linecap:square;stroke-width:1.5;"/>

   </g>

   <g id="line2d_15">

    <path clip-path="url(#pe4376f4967)" d="M 30.103125 191.511117 

L 33.484943 188.705305 

L 36.866761 185.688424 

L 40.24858 182.455088 

L 43.630398 179.001105 

L 47.012216 175.323638 

L 50.394034 171.421369 

L 53.775852 167.294656 

L 57.15767 162.945677 

L 60.539489 158.378571 

L 63.921307 153.599559 

L 67.303125 148.617052 

L 70.684943 143.441733 

L 74.066761 138.086624 

L 77.44858 132.567118 

L 80.830398 126.900986 

L 84.212216 121.108359 

L 87.594034 115.211665 

L 90.975852 109.235544 

L 94.35767 103.206721 

L 97.739489 97.153847 

L 101.121307 91.107308 

L 104.503125 85.098998 

L 107.884943 79.162057 

L 111.266761 73.330591 

L 114.64858 67.639356 

L 118.030398 62.123425 

L 121.412216 56.817836 

L 124.794034 51.757226 

L 128.175852 46.975465 

L 131.55767 42.505271 

L 134.939489 38.37785 

L 138.321307 34.622527 

L 141.703125 31.266404 

L 145.084943 28.33403 

L 148.466761 25.84711 

L 151.84858 23.82423 

L 155.230398 22.280628 

L 158.612216 21.228006 

L 161.994034 20.674378 

L 165.375852 20.623971 

L 168.75767 21.07717 

L 172.139489 22.030515 

L 175.521307 23.47674 

L 178.903125 25.404874 

L 182.284943 27.800369 

L 185.666761 30.645292 

L 189.04858 33.918542 

L 192.430398 37.596116 

L 195.812216 41.651397 

L 199.194034 46.055478 

L 202.575852 50.7775 

L 205.95767 55.785018 

L 209.339489 61.044363 

L 212.721307 66.521022 

L 216.103125 72.180006 

L 219.484943 77.986221 

L 222.866761 83.904821 

L 226.24858 89.901544 

L 229.630398 95.943032 

L 233.012216 101.997121 

L 236.394034 108.033105 

L 239.775852 114.021969 

L 243.15767 119.936589 

L 246.539489 125.751896 

L 249.921307 131.445011 

L 253.303125 136.99534 

L 256.684943 142.384636 

L 260.066761 147.59703 

L 263.44858 152.619028 

L 266.830398 157.439484 

L 270.212216 162.049538 

L 273.594034 166.442538 

L 276.975852 170.61394 

L 280.35767 174.561182 

L 283.739489 178.283555 

L 287.121307 181.782055 

L 290.503125 185.059226 

L 293.884943 188.119002 

L 297.266761 190.966546 

L 300.64858 193.608081 

L 304.030398 196.050735 

L 307.412216 198.302381 

L 310.794034 200.371492 

L 314.175852 202.26699 

L 317.55767 203.998121 

L 320.939489 205.574331 

L 324.321307 207.005147 

L 327.703125 208.300085 

L 331.084943 209.468554 

L 334.466761 210.51978 

L 337.84858 211.462739 

L 341.230398 212.306103 

L 344.612216 213.058189 

L 347.994034 213.726929 

L 351.375852 214.319842 

L 354.75767 214.844012 

L 358.139489 215.306082 

L 361.521307 215.712245 

L 364.903125 216.06825 

" style="fill:none;stroke:#d62728;stroke-linecap:square;stroke-width:1.5;"/>

   </g>

   <g id="line2d_16">

    <path clip-path="url(#pe4376f4967)" d="M 30.103125 209.578802 

L 33.484943 208.422469 

L 36.866761 207.140599 

L 40.24858 205.723798 

L 43.630398 204.162557 

L 47.012216 202.447345 

L 50.394034 200.568703 

L 53.775852 198.517362 

L 57.15767 196.284359 

L 60.539489 193.861171 

L 63.921307 191.239859 

L 67.303125 188.413212 

L 70.684943 185.37491 

L 74.066761 182.119677 

L 77.44858 178.643449 

L 80.830398 174.943535 

L 84.212216 171.018777 

L 87.594034 166.869708 

L 90.975852 162.498696 

L 94.35767 157.910084 

L 97.739489 153.110307 

L 101.121307 148.108 

L 104.503125 142.914077 

L 107.884943 137.541797 

L 111.266761 132.006789 

L 114.64858 126.327064 

L 118.030398 120.522983 

L 121.412216 114.617202 

L 124.794034 108.634575 

L 128.175852 102.602027 

L 131.55767 96.548393 

L 134.939489 90.504219 

L 138.321307 84.501536 

L 141.703125 78.573595 

L 145.084943 72.75458 

L 148.466761 67.079295 

L 151.84858 61.582825 

L 155.230398 56.300184 

L 158.612216 51.265952 

L 161.994034 46.513897 

L 165.375852 42.076605 

L 168.75767 37.985108 

L 172.139489 34.268525 

L 175.521307 30.953716 

L 178.903125 28.064961 

L 182.284943 25.623662 

L 185.666761 23.64808 

L 189.04858 22.15311 

L 192.430398 21.150089 

L 195.812216 20.646656 

L 199.194034 20.646656 

L 202.575852 21.150089 

L 205.95767 22.15311 

L 209.339489 23.64808 

L 212.721307 25.623662 

L 216.103125 28.064961 

L 219.484943 30.953716 

L 222.866761 34.268525 

L 226.24858 37.985108 

L 229.630398 42.076605 

L 233.012216 46.513897 

L 236.394034 51.265952 

L 239.775852 56.300184 

L 243.15767 61.582825 

L 246.539489 67.079295 

L 249.921307 72.75458 

L 253.303125 78.573595 

L 256.684943 84.501536 

L 260.066761 90.504219 

L 263.44858 96.548393 

L 266.830398 102.602027 

L 270.212216 108.634575 

L 273.594034 114.617202 

L 276.975852 120.522983 

L 280.35767 126.327064 

L 283.739489 132.006789 

L 287.121307 137.541797 

L 290.503125 142.914077 

L 293.884943 148.108 

L 297.266761 153.110307 

L 300.64858 157.910084 

L 304.030398 162.498696 

L 307.412216 166.869708 

L 310.794034 171.018777 

L 314.175852 174.943535 

L 317.55767 178.643449 

L 320.939489 182.119677 

L 324.321307 185.37491 

L 327.703125 188.413212 

L 331.084943 191.239859 

L 334.466761 193.861171 

L 337.84858 196.284359 

L 341.230398 198.517362 

L 344.612216 200.568703 

L 347.994034 202.447345 

L 351.375852 204.162557 

L 354.75767 205.723798 

L 358.139489 207.140599 

L 361.521307 208.422469 

L 364.903125 209.578802 

" style="fill:none;stroke:#9467bd;stroke-linecap:square;stroke-width:1.5;"/>

   </g>

   <g id="line2d_17">

    <path clip-path="url(#pe4376f4967)" d="M 30.103125 216.06825 

L 33.484943 215.712245 

L 36.866761 215.306082 

L 40.24858 214.844012 

L 43.630398 214.319842 

L 47.012216 213.726929 

L 50.394034 213.058189 

L 53.775852 212.306103 

L 57.15767 211.462739 

L 60.539489 210.51978 

L 63.921307 209.468554 

L 67.303125 208.300085 

L 70.684943 207.005147 

L 74.066761 205.574331 

L 77.44858 203.998121 

L 80.830398 202.26699 

L 84.212216 200.371492 

L 87.594034 198.302381 

L 90.975852 196.050735 

L 94.35767 193.608081 

L 97.739489 190.966546 

L 101.121307 188.119002 

L 104.503125 185.059226 

L 107.884943 181.782055 

L 111.266761 178.283555 

L 114.64858 174.561182 

L 118.030398 170.61394 

L 121.412216 166.442538 

L 124.794034 162.049538 

L 128.175852 157.439484 

L 131.55767 152.619028 

L 134.939489 147.59703 

L 138.321307 142.384636 

L 141.703125 136.99534 

L 145.084943 131.445011 

L 148.466761 125.751896 

L 151.84858 119.936589 

L 155.230398 114.021969 

L 158.612216 108.033105 

L 161.994034 101.997121 

L 165.375852 95.943032 

L 168.75767 89.901544 

L 172.139489 83.904821 

L 175.521307 77.986221 

L 178.903125 72.180006 

L 182.284943 66.521022 

L 185.666761 61.044363 

L 189.04858 55.785018 

L 192.430398 50.7775 

L 195.812216 46.055478 

L 199.194034 41.651397 

L 202.575852 37.596116 

L 205.95767 33.918542 

L 209.339489 30.645292 

L 212.721307 27.800369 

L 216.103125 25.404874 

L 219.484943 23.47674 

L 222.866761 22.030515 

L 226.24858 21.07717 

L 229.630398 20.623971 

L 233.012216 20.674378 

L 236.394034 21.228006 

L 239.775852 22.280628 

L 243.15767 23.82423 

L 246.539489 25.84711 

L 249.921307 28.33403 

L 253.303125 31.266404 

L 256.684943 34.622527 

L 260.066761 38.37785 

L 263.44858 42.505271 

L 266.830398 46.975465 

L 270.212216 51.757226 

L 273.594034 56.817836 

L 276.975852 62.123425 

L 280.35767 67.639356 

L 283.739489 73.330591 

L 287.121307 79.162057 

L 290.503125 85.098998 

L 293.884943 91.107308 

L 297.266761 97.153847 

L 300.64858 103.206721 

L 304.030398 109.235544 

L 307.412216 115.211665 

L 310.794034 121.108359 

L 314.175852 126.900986 

L 317.55767 132.567118 

L 320.939489 138.086624 

L 324.321307 143.441733 

L 327.703125 148.617052 

L 331.084943 153.599559 

L 334.466761 158.378571 

L 337.84858 162.945677 

L 341.230398 167.294656 

L 344.612216 171.421369 

L 347.994034 175.323638 

L 351.375852 179.001105 

L 354.75767 182.455088 

L 358.139489 185.688424 

L 361.521307 188.705305 

L 364.903125 191.511117 

" style="fill:none;stroke:#8c564b;stroke-linecap:square;stroke-width:1.5;"/>

   </g>

   <g id="line2d_18">

    <path clip-path="url(#pe4376f4967)" d="M 30.103125 217.831859 

L 33.484943 217.748906 

L 36.866761 217.651604 

L 40.24858 217.537788 

L 43.630398 217.405023 

L 47.012216 217.250584 

L 50.394034 217.071434 

L 53.775852 216.864199 

L 57.15767 216.625147 

L 60.539489 216.350167 

L 63.921307 216.034752 

L 67.303125 215.673977 

L 70.684943 215.262489 

L 74.066761 214.794496 

L 77.44858 214.263758 

L 80.830398 213.663588 

L 84.212216 212.986858 

L 87.594034 212.226008 

L 90.975852 211.373066 

L 94.35767 210.419675 

L 97.739489 209.357134 

L 101.121307 208.176437 

L 104.503125 206.868337 

L 107.884943 205.42341 

L 111.266761 203.832137 

L 114.64858 202.084991 

L 118.030398 200.172543 

L 121.412216 198.085575 

L 124.794034 195.8152 

L 128.175852 193.353001 

L 131.55767 190.691172 

L 134.939489 187.822669 

L 138.321307 184.741366 

L 141.703125 181.442218 

L 145.084943 177.921421 

L 148.466761 174.176579 

L 151.84858 170.206859 

L 155.230398 166.013151 

L 158.612216 161.598207 

L 161.994034 156.966778 

L 165.375852 152.125732 

L 168.75767 147.084154 

L 172.139489 141.853424 

L 175.521307 136.447271 

L 178.903125 130.881803 

L 182.284943 125.175504 

L 185.666761 119.349199 

L 189.04858 113.425992 

L 192.430398 107.431163 

L 195.812216 101.392033 

L 199.194034 95.337796 

L 202.575852 89.299315 

L 205.95767 83.308886 

L 209.339489 77.399971 

L 212.721307 71.606904 

L 216.103125 65.964572 

L 219.484943 60.508075 

L 222.866761 55.272371 

L 226.24858 50.291905 

L 229.630398 45.60024 

L 233.012216 41.22968 

L 236.394034 37.210904 

L 239.775852 33.572605 

L 243.15767 30.341153 

L 246.539489 27.540273 

L 249.921307 25.190762 

L 253.303125 23.310222 

L 256.684943 21.912851 

L 260.066761 21.009257 

L 263.44858 20.606326 

L 266.830398 20.707136 

L 270.212216 21.310916 

L 273.594034 22.413059 

L 276.975852 24.005174 

L 280.35767 26.075201 

L 283.739489 28.607557 

L 287.121307 31.583331 

L 290.503125 34.980524 

L 293.884943 38.774315 

L 297.266761 42.937367 

L 300.64858 47.440149 

L 304.030398 52.25129 

L 307.412216 57.337937 

L 310.794034 62.666129 

L 314.175852 68.201171 

L 317.55767 73.908005 

L 320.939489 79.751574 

L 324.321307 85.697173 

L 327.703125 91.710779 

L 331.084943 97.759363 

L 334.466761 103.811172 

L 337.84858 109.835984 

L 341.230398 115.805332 

L 344.612216 121.692693 

L 347.994034 127.473642 

L 351.375852 133.125978 

L 354.75767 138.629805 

L 358.139489 143.967589 

L 361.521307 149.124173 

L 364.903125 154.086774 

" style="fill:none;stroke:#e377c2;stroke-linecap:square;stroke-width:1.5;"/>

   </g>

   <g id="line2d_19">

    <path clip-path="url(#pe4376f4967)" d="M 30.103125 218.197969 

L 33.484943 218.183227 

L 36.866761 218.165459 

L 40.24858 218.144104 

L 43.630398 218.118506 

L 47.012216 218.087907 

L 50.394034 218.051428 

L 53.775852 218.008059 

L 57.15767 217.956639 

L 60.539489 217.895841 

L 63.921307 217.824153 

L 67.303125 217.739855 

L 70.684943 217.641004 

L 74.066761 217.525407 

L 77.44858 217.390602 

L 80.830398 217.233834 

L 84.212216 217.052033 

L 87.594034 216.84179 

L 90.975852 216.599337 

L 94.35767 216.320523 

L 97.739489 216.000801 

L 101.121307 215.635202 

L 104.503125 215.218332 

L 107.884943 214.744353 

L 111.266761 214.20698 

L 114.64858 213.599482 

L 118.030398 212.914687 

L 121.412216 212.144993 

L 124.794034 211.282388 

L 128.175852 210.318479 

L 131.55767 209.244532 

L 134.939489 208.051514 

L 138.321307 206.730158 

L 141.703125 205.271026 

L 145.084943 203.664593 

L 148.466761 201.901339 

L 151.84858 199.971849 

L 155.230398 197.866933 

L 158.612216 195.577746 

L 161.994034 193.095924 

L 165.375852 190.413731 

L 168.75767 187.524207 

L 172.139489 184.421328 

L 175.521307 181.100164 

L 178.903125 177.557045 

L 182.284943 173.789726 

L 185.666761 169.797538 

L 189.04858 165.58155 

L 192.430398 161.144709 

L 195.812216 156.491974 

L 199.194034 151.630429 

L 202.575852 146.569385 

L 205.95767 141.320456 

L 209.339489 135.897607 

L 212.721307 130.317185 

L 216.103125 124.59791 

L 219.484943 118.760838 

L 222.866761 112.829297 

L 226.24858 106.828776 

L 229.630398 100.786792 

L 233.012216 94.732716 

L 236.394034 88.697566 

L 239.775852 82.713766 

L 243.15767 76.814879 

L 246.539489 71.035309 

L 249.921307 65.409981 

L 253.303125 59.973996 

L 256.684943 54.762276 

L 260.066761 49.809198 

L 263.44858 45.148214 

L 266.830398 40.811482 

L 270.212216 36.829498 

L 273.594034 33.230739 

L 276.975852 30.041322 

L 280.35767 27.284695 

L 283.739489 24.981342 

L 287.121307 23.148539 

L 290.503125 21.800129 

L 293.884943 20.946353 

L 297.266761 20.593721 

L 300.64858 20.744926 

L 304.030398 21.398813 

L 307.412216 22.550392 

L 310.794034 24.190901 

L 314.175852 26.307919 

L 317.55767 28.88552 

L 320.939489 31.904475 

L 324.321307 35.342488 

L 327.703125 39.174475 

L 331.084943 43.372862 

L 334.466761 47.907919 

L 337.84858 52.74811 

L 341.230398 57.860455 

L 344.612216 63.210902 

L 347.994034 68.764703 

L 351.375852 74.486785 

L 354.75767 80.34211 

L 358.139489 86.296027 

L 361.521307 92.314598 

L 364.903125 98.36491 

" style="fill:none;stroke:#7f7f7f;stroke-linecap:square;stroke-width:1.5;"/>

   </g>

   <g id="line2d_20">

    <path clip-path="url(#pe4376f4967)" d="M 30.103125 218.256364 

L 33.484943 218.254355 

L 36.866761 218.251869 

L 40.24858 218.248801 

L 43.630398 218.245023 

L 47.012216 218.240384 

L 50.394034 218.234703 

L 53.775852 218.227765 

L 57.15767 218.219315 

L 60.539489 218.209051 

L 63.921307 218.196617 

L 67.303125 218.181595 

L 70.684943 218.163495 

L 74.066761 218.141747 

L 77.44858 218.115685 

L 80.830398 218.084539 

L 84.212216 218.047419 

L 87.594034 218.0033 

L 90.975852 217.951005 

L 94.35767 217.889189 

L 97.739489 217.816321 

L 101.121307 217.730659 

L 104.503125 217.630236 

L 107.884943 217.512834 

L 111.266761 217.375961 

L 114.64858 217.216834 

L 118.030398 217.032348 

L 121.412216 216.81906 

L 124.794034 216.573163 

L 128.175852 216.290471 

L 131.55767 215.966391 

L 134.939489 215.595916 

L 138.321307 215.173604 

L 141.703125 214.693576 

L 145.084943 214.1495 

L 148.466761 213.534603 

L 151.84858 212.841667 

L 155.230398 212.063049 

L 158.612216 211.190697 

L 161.994034 210.216183 

L 165.375852 209.130739 

L 168.75767 207.925308 

L 172.139489 206.590601 

L 175.521307 205.117168 

L 178.903125 203.495481 

L 182.284943 201.716024 

L 185.666761 199.769401 

L 189.04858 197.646449 

L 192.430398 195.338365 

L 195.812216 192.836843 

L 199.194034 190.134216 

L 202.575852 187.223611 

L 205.95767 184.099105 

L 209.339489 180.755888 

L 212.721307 177.190426 

L 216.103125 173.400622 

L 219.484943 169.385976 

L 222.866761 165.147739 

L 226.24858 160.689051 

L 229.630398 156.01508 

L 233.012216 151.133129 

L 236.394034 146.052735 

L 239.775852 140.785746 

L 243.15767 135.346365 

L 246.539489 129.751177 

L 249.921307 124.019136 

L 253.303125 118.171531 

L 256.684943 112.23191 

L 260.066761 106.225972 

L 263.44858 100.181429 

L 266.830398 94.127825 

L 270.212216 88.096329 

L 273.594034 82.119494 

L 276.975852 76.230979 

L 280.35767 70.465256 

L 283.739489 64.857283 

L 287.121307 59.442159 

L 290.503125 54.254769 

L 293.884943 49.329413 

L 297.266761 44.699432 

L 300.64858 40.396833 

L 304.030398 36.451927 

L 307.412216 32.892968 

L 310.794034 29.745822 

L 314.175852 27.033651 

L 317.55767 24.776632 

L 320.939489 22.991703 

L 324.321307 21.692356 

L 327.703125 20.888464 

L 331.084943 20.586158 

L 334.466761 20.787746 

L 337.84858 21.49169 

L 341.230398 22.692618 

L 344.612216 24.381396 

L 347.994034 26.545245 

L 351.375852 29.167899 

L 354.75767 32.229811 

L 358.139489 35.708395 

L 361.521307 39.5783 

L 364.903125 43.811725 

" style="fill:none;stroke:#bcbd22;stroke-linecap:square;stroke-width:1.5;"/>

   </g>

   <g id="line2d_21">

    <path clip-path="url(#pe4376f4967)" d="M 30.103125 20.583636 

L 364.903125 20.583636 

" style="fill:none;stroke:#17becf;stroke-linecap:square;stroke-width:1.5;"/>

   </g>

   <g id="patch_3">

    <path d="M 30.103125 228.14 

L 30.103125 10.7 

" style="fill:none;stroke:#000000;stroke-linecap:square;stroke-linejoin:miter;stroke-width:0.8;"/>

   </g>

   <g id="patch_4">

    <path d="M 364.903125 228.14 

L 364.903125 10.7 

" style="fill:none;stroke:#000000;stroke-linecap:square;stroke-linejoin:miter;stroke-width:0.8;"/>

   </g>

   <g id="patch_5">

    <path d="M 30.103125 228.14 

L 364.903125 228.14 

" style="fill:none;stroke:#000000;stroke-linecap:square;stroke-linejoin:miter;stroke-width:0.8;"/>

   </g>

   <g id="patch_6">

    <path d="M 30.103125 10.7 

L 364.903125 10.7 

" style="fill:none;stroke:#000000;stroke-linecap:square;stroke-linejoin:miter;stroke-width:0.8;"/>

   </g>

   <g id="legend_1">

    <g id="patch_7">

     <path d="M 378.599125 176.572 

L 440.099125 176.572 

Q 442.099125 176.572 442.099125 174.572 

L 442.099125 28.572 

Q 442.099125 26.572 440.099125 26.572 

L 378.599125 26.572 

Q 376.599125 26.572 376.599125 28.572 

L 376.599125 174.572 

Q 376.599125 176.572 378.599125 176.572 

z

" style="fill:#ffffff;opacity:0.8;stroke:#cccccc;stroke-linejoin:miter;"/>

    </g>

    <g id="line2d_22">

     <path d="M 380.599125 34.672 

L 400.599125 34.672 

" style="fill:none;stroke:#1f77b4;stroke-linecap:square;stroke-width:1.5;"/>

    </g>

    <g id="line2d_23"/>

    <g id="text_12">

     <!-- $\phi_{1}(x)$ -->

     <defs>

      <path d="M 46.734375 75.984375 

L 42.78125 55.8125 

Q 52.546875 55.8125 57.5625 48.34375 

Q 62.75 40.71875 60.15625 27.296875 

Q 57.515625 13.875 49.359375 6.25 

Q 41.453125 -1.21875 31.6875 -1.21875 

L 27.875 -20.796875 

L 18.953125 -20.796875 

L 22.75 -1.21875 

Q 13.03125 -1.21875 7.953125 6.25 

Q 2.78125 13.875 5.421875 27.296875 

Q 8.015625 40.71875 16.15625 48.34375 

Q 24.125 55.8125 33.84375 55.8125 

L 37.796875 75.984375 

z

M 33.25 6.78125 

Q 38.765625 6.78125 43.5 11.8125 

Q 48.6875 17.4375 50.6875 27.296875 

Q 52.640625 37.0625 49.515625 42.78125 

Q 46.734375 47.796875 41.21875 47.796875 

z

M 24.3125 6.78125 

L 32.28125 47.796875 

Q 26.8125 47.796875 22.078125 42.78125 

Q 16.75 37.0625 14.890625 27.296875 

Q 13.03125 17.4375 16.0625 11.8125 

Q 18.796875 6.78125 24.3125 6.78125 

z

" id="DejaVuSans-Oblique-3d5"/>

      <path d="M 31 75.875 

Q 24.46875 64.65625 21.28125 53.65625 

Q 18.109375 42.671875 18.109375 31.390625 

Q 18.109375 20.125 21.3125 9.0625 

Q 24.515625 -2 31 -13.1875 

L 23.1875 -13.1875 

Q 15.875 -1.703125 12.234375 9.375 

Q 8.59375 20.453125 8.59375 31.390625 

Q 8.59375 42.28125 12.203125 53.3125 

Q 15.828125 64.359375 23.1875 75.875 

z

" id="DejaVuSans-28"/>

      <path d="M 60.015625 54.6875 

L 34.90625 27.875 

L 50.296875 0 

L 39.984375 0 

L 28.421875 21.6875 

L 8.296875 0 

L -2.59375 0 

L 24.3125 28.8125 

L 10.015625 54.6875 

L 20.3125 54.6875 

L 30.8125 34.90625 

L 49.125 54.6875 

z

" id="DejaVuSans-Oblique-78"/>

      <path d="M 8.015625 75.875 

L 15.828125 75.875 

Q 23.140625 64.359375 26.78125 53.3125 

Q 30.421875 42.28125 30.421875 31.390625 

Q 30.421875 20.453125 26.78125 9.375 

Q 23.140625 -1.703125 15.828125 -13.1875 

L 8.015625 -13.1875 

Q 14.5 -2 17.703125 9.0625 

Q 20.90625 20.125 20.90625 31.390625 

Q 20.90625 42.671875 17.703125 53.65625 

Q 14.5 64.65625 8.015625 75.875 

z

" id="DejaVuSans-29"/>

     </defs>

     <g transform="translate(408.599125 38.172)scale(0.1 -0.1)">

      <use transform="translate(0 0.015625)" xlink:href="#DejaVuSans-Oblique-3d5"/>

      <use transform="translate(65.966797 -16.390625)scale(0.7)" xlink:href="#DejaVuSans-31"/>

      <use transform="translate(113.237305 0.015625)" xlink:href="#DejaVuSans-28"/>

      <use transform="translate(152.250977 0.015625)" xlink:href="#DejaVuSans-Oblique-78"/>

      <use transform="translate(211.430664 0.015625)" xlink:href="#DejaVuSans-29"/>

     </g>

    </g>

    <g id="line2d_24">

     <path d="M 380.599125 49.372 

L 400.599125 49.372 

" style="fill:none;stroke:#ff7f0e;stroke-linecap:square;stroke-width:1.5;"/>

    </g>

    <g id="line2d_25"/>

    <g id="text_13">

     <!-- $\phi_{2}(x)$ -->

     <g transform="translate(408.599125 52.872)scale(0.1 -0.1)">

      <use transform="translate(0 0.015625)" xlink:href="#DejaVuSans-Oblique-3d5"/>

      <use transform="translate(65.966797 -16.390625)scale(0.7)" xlink:href="#DejaVuSans-32"/>

      <use transform="translate(113.237305 0.015625)" xlink:href="#DejaVuSans-28"/>

      <use transform="translate(152.250977 0.015625)" xlink:href="#DejaVuSans-Oblique-78"/>

      <use transform="translate(211.430664 0.015625)" xlink:href="#DejaVuSans-29"/>

     </g>

    </g>

    <g id="line2d_26">

     <path d="M 380.599125 64.072 

L 400.599125 64.072 

" style="fill:none;stroke:#2ca02c;stroke-linecap:square;stroke-width:1.5;"/>

    </g>

    <g id="line2d_27"/>

    <g id="text_14">

     <!-- $\phi_{3}(x)$ -->

     <g transform="translate(408.599125 67.572)scale(0.1 -0.1)">

      <use transform="translate(0 0.015625)" xlink:href="#DejaVuSans-Oblique-3d5"/>

      <use transform="translate(65.966797 -16.390625)scale(0.7)" xlink:href="#DejaVuSans-33"/>

      <use transform="translate(113.237305 0.015625)" xlink:href="#DejaVuSans-28"/>

      <use transform="translate(152.250977 0.015625)" xlink:href="#DejaVuSans-Oblique-78"/>

      <use transform="translate(211.430664 0.015625)" xlink:href="#DejaVuSans-29"/>

     </g>

    </g>

    <g id="line2d_28">

     <path d="M 380.599125 78.772 

L 400.599125 78.772 

" style="fill:none;stroke:#d62728;stroke-linecap:square;stroke-width:1.5;"/>

    </g>

    <g id="line2d_29"/>

    <g id="text_15">

     <!-- $\phi_{4}(x)$ -->

     <g transform="translate(408.599125 82.272)scale(0.1 -0.1)">

      <use transform="translate(0 0.015625)" xlink:href="#DejaVuSans-Oblique-3d5"/>

      <use transform="translate(65.966797 -16.390625)scale(0.7)" xlink:href="#DejaVuSans-34"/>

      <use transform="translate(113.237305 0.015625)" xlink:href="#DejaVuSans-28"/>

      <use transform="translate(152.250977 0.015625)" xlink:href="#DejaVuSans-Oblique-78"/>

      <use transform="translate(211.430664 0.015625)" xlink:href="#DejaVuSans-29"/>

     </g>

    </g>

    <g id="line2d_30">

     <path d="M 380.599125 93.472 

L 400.599125 93.472 

" style="fill:none;stroke:#9467bd;stroke-linecap:square;stroke-width:1.5;"/>

    </g>

    <g id="line2d_31"/>

    <g id="text_16">

     <!-- $\phi_{5}(x)$ -->

     <defs>

      <path d="M 10.796875 72.90625 

L 49.515625 72.90625 

L 49.515625 64.59375 

L 19.828125 64.59375 

L 19.828125 46.734375 

Q 21.96875 47.46875 24.109375 47.828125 

Q 26.265625 48.1875 28.421875 48.1875 

Q 40.625 48.1875 47.75 41.5 

Q 54.890625 34.8125 54.890625 23.390625 

Q 54.890625 11.625 47.5625 5.09375 

Q 40.234375 -1.421875 26.90625 -1.421875 

Q 22.3125 -1.421875 17.546875 -0.640625 

Q 12.796875 0.140625 7.71875 1.703125 

L 7.71875 11.625 

Q 12.109375 9.234375 16.796875 8.0625 

Q 21.484375 6.890625 26.703125 6.890625 

Q 35.15625 6.890625 40.078125 11.328125 

Q 45.015625 15.765625 45.015625 23.390625 

Q 45.015625 31 40.078125 35.4375 

Q 35.15625 39.890625 26.703125 39.890625 

Q 22.75 39.890625 18.8125 39.015625 

Q 14.890625 38.140625 10.796875 36.28125 

z

" id="DejaVuSans-35"/>

     </defs>

     <g transform="translate(408.599125 96.972)scale(0.1 -0.1)">

      <use transform="translate(0 0.015625)" xlink:href="#DejaVuSans-Oblique-3d5"/>

      <use transform="translate(65.966797 -16.390625)scale(0.7)" xlink:href="#DejaVuSans-35"/>

      <use transform="translate(113.237305 0.015625)" xlink:href="#DejaVuSans-28"/>

      <use transform="translate(152.250977 0.015625)" xlink:href="#DejaVuSans-Oblique-78"/>

      <use transform="translate(211.430664 0.015625)" xlink:href="#DejaVuSans-29"/>

     </g>

    </g>

    <g id="line2d_32">

     <path d="M 380.599125 108.172 

L 400.599125 108.172 

" style="fill:none;stroke:#8c564b;stroke-linecap:square;stroke-width:1.5;"/>

    </g>

    <g id="line2d_33"/>

    <g id="text_17">

     <!-- $\phi_{6}(x)$ -->

     <g transform="translate(408.599125 111.672)scale(0.1 -0.1)">

      <use transform="translate(0 0.015625)" xlink:href="#DejaVuSans-Oblique-3d5"/>

      <use transform="translate(65.966797 -16.390625)scale(0.7)" xlink:href="#DejaVuSans-36"/>

      <use transform="translate(113.237305 0.015625)" xlink:href="#DejaVuSans-28"/>

      <use transform="translate(152.250977 0.015625)" xlink:href="#DejaVuSans-Oblique-78"/>

      <use transform="translate(211.430664 0.015625)" xlink:href="#DejaVuSans-29"/>

     </g>

    </g>

    <g id="line2d_34">

     <path d="M 380.599125 122.872 

L 400.599125 122.872 

" style="fill:none;stroke:#e377c2;stroke-linecap:square;stroke-width:1.5;"/>

    </g>

    <g id="line2d_35"/>

    <g id="text_18">

     <!-- $\phi_{7}(x)$ -->

     <defs>

      <path d="M 8.203125 72.90625 

L 55.078125 72.90625 

L 55.078125 68.703125 

L 28.609375 0 

L 18.3125 0 

L 43.21875 64.59375 

L 8.203125 64.59375 

z

" id="DejaVuSans-37"/>

     </defs>

     <g transform="translate(408.599125 126.372)scale(0.1 -0.1)">

      <use transform="translate(0 0.015625)" xlink:href="#DejaVuSans-Oblique-3d5"/>

      <use transform="translate(65.966797 -16.390625)scale(0.7)" xlink:href="#DejaVuSans-37"/>

      <use transform="translate(113.237305 0.015625)" xlink:href="#DejaVuSans-28"/>

      <use transform="translate(152.250977 0.015625)" xlink:href="#DejaVuSans-Oblique-78"/>

      <use transform="translate(211.430664 0.015625)" xlink:href="#DejaVuSans-29"/>

     </g>

    </g>

    <g id="line2d_36">

     <path d="M 380.599125 137.572 

L 400.599125 137.572 

" style="fill:none;stroke:#7f7f7f;stroke-linecap:square;stroke-width:1.5;"/>

    </g>

    <g id="line2d_37"/>

    <g id="text_19">

     <!-- $\phi_{8}(x)$ -->

     <g transform="translate(408.599125 141.072)scale(0.1 -0.1)">

      <use transform="translate(0 0.015625)" xlink:href="#DejaVuSans-Oblique-3d5"/>

      <use transform="translate(65.966797 -16.390625)scale(0.7)" xlink:href="#DejaVuSans-38"/>

      <use transform="translate(113.237305 0.015625)" xlink:href="#DejaVuSans-28"/>

      <use transform="translate(152.250977 0.015625)" xlink:href="#DejaVuSans-Oblique-78"/>

      <use transform="translate(211.430664 0.015625)" xlink:href="#DejaVuSans-29"/>

     </g>

    </g>

    <g id="line2d_38">

     <path d="M 380.599125 152.272 

L 400.599125 152.272 

" style="fill:none;stroke:#bcbd22;stroke-linecap:square;stroke-width:1.5;"/>

    </g>

    <g id="line2d_39"/>

    <g id="text_20">

     <!-- $\phi_{9}(x)$ -->

     <defs>

      <path d="M 10.984375 1.515625 

L 10.984375 10.5 

Q 14.703125 8.734375 18.5 7.8125 

Q 22.3125 6.890625 25.984375 6.890625 

Q 35.75 6.890625 40.890625 13.453125 

Q 46.046875 20.015625 46.78125 33.40625 

Q 43.953125 29.203125 39.59375 26.953125 

Q 35.25 24.703125 29.984375 24.703125 

Q 19.046875 24.703125 12.671875 31.3125 

Q 6.296875 37.9375 6.296875 49.421875 

Q 6.296875 60.640625 12.9375 67.421875 

Q 19.578125 74.21875 30.609375 74.21875 

Q 43.265625 74.21875 49.921875 64.515625 

Q 56.59375 54.828125 56.59375 36.375 

Q 56.59375 19.140625 48.40625 8.859375 

Q 40.234375 -1.421875 26.421875 -1.421875 

Q 22.703125 -1.421875 18.890625 -0.6875 

Q 15.09375 0.046875 10.984375 1.515625 

z

M 30.609375 32.421875 

Q 37.25 32.421875 41.125 36.953125 

Q 45.015625 41.5 45.015625 49.421875 

Q 45.015625 57.28125 41.125 61.84375 

Q 37.25 66.40625 30.609375 66.40625 

Q 23.96875 66.40625 20.09375 61.84375 

Q 16.21875 57.28125 16.21875 49.421875 

Q 16.21875 41.5 20.09375 36.953125 

Q 23.96875 32.421875 30.609375 32.421875 

z

" id="DejaVuSans-39"/>

     </defs>

     <g transform="translate(408.599125 155.772)scale(0.1 -0.1)">

      <use transform="translate(0 0.015625)" xlink:href="#DejaVuSans-Oblique-3d5"/>

      <use transform="translate(65.966797 -16.390625)scale(0.7)" xlink:href="#DejaVuSans-39"/>

      <use transform="translate(113.237305 0.015625)" xlink:href="#DejaVuSans-28"/>

      <use transform="translate(152.250977 0.015625)" xlink:href="#DejaVuSans-Oblique-78"/>

      <use transform="translate(211.430664 0.015625)" xlink:href="#DejaVuSans-29"/>

     </g>

    </g>

    <g id="line2d_40">

     <path d="M 380.599125 166.972 

L 400.599125 166.972 

" style="fill:none;stroke:#17becf;stroke-linecap:square;stroke-width:1.5;"/>

    </g>

    <g id="line2d_41"/>

    <g id="text_21">

     <!-- $\phi_{10}(x)$ -->

     <g transform="translate(408.599125 170.472)scale(0.1 -0.1)">

      <use transform="translate(0 0.015625)" xlink:href="#DejaVuSans-Oblique-3d5"/>

      <use transform="translate(65.966797 -16.390625)scale(0.7)" xlink:href="#DejaVuSans-31"/>

      <use transform="translate(110.50293 -16.390625)scale(0.7)" xlink:href="#DejaVuSans-30"/>

      <use transform="translate(157.773438 0.015625)" xlink:href="#DejaVuSans-28"/>

      <use transform="translate(196.787109 0.015625)" xlink:href="#DejaVuSans-Oblique-78"/>

      <use transform="translate(255.966797 0.015625)" xlink:href="#DejaVuSans-29"/>

     </g>

    </g>

   </g>

  </g>

 </g>

 <defs>

  <clipPath id="pe4376f4967">

   <rect height="217.44" width="334.8" x="30.103125" y="10.7"/>

  </clipPath>

 </defs>

</svg>
