<?xml version="1.0" encoding="utf-8" standalone="no"?>

<!DOCTYPE svg PUBLIC "-//W3C//DTD SVG 1.1//EN"

  "http://www.w3.org/Graphics/SVG/1.1/DTD/svg11.dtd">

<!-- Created with matplotlib (http://matplotlib.org/) -->

<svg height="266pt" version="1.1" viewBox="0 0 379 266" width="379pt" xmlns="http://www.w3.org/2000/svg" xmlns:xlink="http://www.w3.org/1999/xlink">

 <defs>

  <style type="text/css">

*{stroke-linecap:butt;stroke-linejoin:round;}

  </style>

 </defs>

 <g id="figure_1">

  <g id="patch_1">

   <path d="M 0 266.017344 

L 379.740625 266.017344 

L 379.740625 0 

L 0 0 

z

" style="fill:none;"/>

  </g>

  <g id="axes_1">

   <g id="patch_2">

    <path d="M 34.240625 228.439219 

L 369.040625 228.439219 

L 369.040625 10.999219 

L 34.240625 10.999219 

z

" style="fill:#ffffff;"/>

   </g>

   <g id="matplotlib.axis_1">

    <g id="xtick_1">

     <g id="line2d_1">

      <defs>

       <path d="M 0 0 

L 0 3.5 

" id="m1abf08c658" style="stroke:#000000;stroke-width:0.8;"/>

      </defs>

      <g>

       <use style="stroke:#000000;stroke-width:0.8;" x="34.240625" xlink:href="#m1abf08c658" y="228.439219"/>

      </g>

     </g>

     <g id="text_1">

      <!-- −3 -->

      <defs>

       <path d="M 10.59375 35.5 

L 73.1875 35.5 

L 73.1875 27.203125 

L 10.59375 27.203125 

z

" id="DejaVuSans-2212"/>

       <path d="M 40.578125 39.3125 

Q 47.65625 37.796875 51.625 33 

Q 55.609375 28.21875 55.609375 21.1875 

Q 55.609375 10.40625 48.1875 4.484375 

Q 40.765625 -1.421875 27.09375 -1.421875 

Q 22.515625 -1.421875 17.65625 -0.515625 

Q 12.796875 0.390625 7.625 2.203125 

L 7.625 11.71875 

Q 11.71875 9.328125 16.59375 8.109375 

Q 21.484375 6.890625 26.8125 6.890625 

Q 36.078125 6.890625 40.9375 10.546875 

Q 45.796875 14.203125 45.796875 21.1875 

Q 45.796875 27.640625 41.28125 31.265625 

Q 36.765625 34.90625 28.71875 34.90625 

L 20.21875 34.90625 

L 20.21875 43.015625 

L 29.109375 43.015625 

Q 36.375 43.015625 40.234375 45.921875 

Q 44.09375 48.828125 44.09375 54.296875 

Q 44.09375 59.90625 40.109375 62.90625 

Q 36.140625 65.921875 28.71875 65.921875 

Q 24.65625 65.921875 20.015625 65.03125 

Q 15.375 64.15625 9.8125 62.3125 

L 9.8125 71.09375 

Q 15.4375 72.65625 20.34375 73.4375 

Q 25.25 74.21875 29.59375 74.21875 

Q 40.828125 74.21875 47.359375 69.109375 

Q 53.90625 64.015625 53.90625 55.328125 

Q 53.90625 49.265625 50.4375 45.09375 

Q 46.96875 40.921875 40.578125 39.3125 

z

" id="DejaVuSans-33"/>

      </defs>

      <g transform="translate(26.869531 243.037656)scale(0.1 -0.1)">

       <use xlink:href="#DejaVuSans-2212"/>

       <use x="83.789062" xlink:href="#DejaVuSans-33"/>

      </g>

     </g>

    </g>

    <g id="xtick_2">

     <g id="line2d_2">

      <g>

       <use style="stroke:#000000;stroke-width:0.8;" x="90.040625" xlink:href="#m1abf08c658" y="228.439219"/>

      </g>

     </g>

     <g id="text_2">

      <!-- −2 -->

      <defs>

       <path d="M 19.1875 8.296875 

L 53.609375 8.296875 

L 53.609375 0 

L 7.328125 0 

L 7.328125 8.296875 

Q 12.9375 14.109375 22.625 23.890625 

Q 32.328125 33.6875 34.8125 36.53125 

Q 39.546875 41.84375 41.421875 45.53125 

Q 43.3125 49.21875 43.3125 52.78125 

Q 43.3125 58.59375 39.234375 62.25 

Q 35.15625 65.921875 28.609375 65.921875 

Q 23.96875 65.921875 18.8125 64.3125 

Q 13.671875 62.703125 7.8125 59.421875 

L 7.8125 69.390625 

Q 13.765625 71.78125 18.9375 73 

Q 24.125 74.21875 28.421875 74.21875 

Q 39.75 74.21875 46.484375 68.546875 

Q 53.21875 62.890625 53.21875 53.421875 

Q 53.21875 48.921875 51.53125 44.890625 

Q 49.859375 40.875 45.40625 35.40625 

Q 44.1875 33.984375 37.640625 27.21875 

Q 31.109375 20.453125 19.1875 8.296875 

z

" id="DejaVuSans-32"/>

      </defs>

      <g transform="translate(82.669531 243.037656)scale(0.1 -0.1)">

       <use xlink:href="#DejaVuSans-2212"/>

       <use x="83.789062" xlink:href="#DejaVuSans-32"/>

      </g>

     </g>

    </g>

    <g id="xtick_3">

     <g id="line2d_3">

      <g>

       <use style="stroke:#000000;stroke-width:0.8;" x="145.840625" xlink:href="#m1abf08c658" y="228.439219"/>

      </g>

     </g>

     <g id="text_3">

      <!-- −1 -->

      <defs>

       <path d="M 12.40625 8.296875 

L 28.515625 8.296875 

L 28.515625 63.921875 

L 10.984375 60.40625 

L 10.984375 69.390625 

L 28.421875 72.90625 

L 38.28125 72.90625 

L 38.28125 8.296875 

L 54.390625 8.296875 

L 54.390625 0 

L 12.40625 0 

z

" id="DejaVuSans-31"/>

      </defs>

      <g transform="translate(138.469531 243.037656)scale(0.1 -0.1)">

       <use xlink:href="#DejaVuSans-2212"/>

       <use x="83.789062" xlink:href="#DejaVuSans-31"/>

      </g>

     </g>

    </g>

    <g id="xtick_4">

     <g id="line2d_4">

      <g>

       <use style="stroke:#000000;stroke-width:0.8;" x="201.640625" xlink:href="#m1abf08c658" y="228.439219"/>

      </g>

     </g>

     <g id="text_4">

      <!-- 0 -->

      <defs>

       <path d="M 31.78125 66.40625 

Q 24.171875 66.40625 20.328125 58.90625 

Q 16.5 51.421875 16.5 36.375 

Q 16.5 21.390625 20.328125 13.890625 

Q 24.171875 6.390625 31.78125 6.390625 

Q 39.453125 6.390625 43.28125 13.890625 

Q 47.125 21.390625 47.125 36.375 

Q 47.125 51.421875 43.28125 58.90625 

Q 39.453125 66.40625 31.78125 66.40625 

z

M 31.78125 74.21875 

Q 44.046875 74.21875 50.515625 64.515625 

Q 56.984375 54.828125 56.984375 36.375 

Q 56.984375 17.96875 50.515625 8.265625 

Q 44.046875 -1.421875 31.78125 -1.421875 

Q 19.53125 -1.421875 13.0625 8.265625 

Q 6.59375 17.96875 6.59375 36.375 

Q 6.59375 54.828125 13.0625 64.515625 

Q 19.53125 74.21875 31.78125 74.21875 

z

" id="DejaVuSans-30"/>

      </defs>

      <g transform="translate(198.459375 243.037656)scale(0.1 -0.1)">

       <use xlink:href="#DejaVuSans-30"/>

      </g>

     </g>

    </g>

    <g id="xtick_5">

     <g id="line2d_5">

      <g>

       <use style="stroke:#000000;stroke-width:0.8;" x="257.440625" xlink:href="#m1abf08c658" y="228.439219"/>

      </g>

     </g>

     <g id="text_5">

      <!-- 1 -->

      <g transform="translate(254.259375 243.037656)scale(0.1 -0.1)">

       <use xlink:href="#DejaVuSans-31"/>

      </g>

     </g>

    </g>

    <g id="xtick_6">

     <g id="line2d_6">

      <g>

       <use style="stroke:#000000;stroke-width:0.8;" x="313.240625" xlink:href="#m1abf08c658" y="228.439219"/>

      </g>

     </g>

     <g id="text_6">

      <!-- 2 -->

      <g transform="translate(310.059375 243.037656)scale(0.1 -0.1)">

       <use xlink:href="#DejaVuSans-32"/>

      </g>

     </g>

    </g>

    <g id="xtick_7">

     <g id="line2d_7">

      <g>

       <use style="stroke:#000000;stroke-width:0.8;" x="369.040625" xlink:href="#m1abf08c658" y="228.439219"/>

      </g>

     </g>

     <g id="text_7">

      <!-- 3 -->

      <g transform="translate(365.859375 243.037656)scale(0.1 -0.1)">

       <use xlink:href="#DejaVuSans-33"/>

      </g>

     </g>

    </g>

    <g id="text_8">

     <!-- $h_θ(x) \cdot y$ -->

     <defs>

      <path d="M 55.71875 33.015625 

L 49.3125 0 

L 40.28125 0 

L 46.6875 32.671875 

Q 47.125 34.96875 47.359375 36.71875 

Q 47.609375 38.484375 47.609375 39.5 

Q 47.609375 43.609375 45.015625 45.890625 

Q 42.4375 48.1875 37.796875 48.1875 

Q 30.5625 48.1875 25.265625 43.296875 

Q 19.96875 38.421875 18.40625 30.328125 

L 12.5 0 

L 3.515625 0 

L 18.3125 75.984375 

L 27.296875 75.984375 

L 21.484375 46.09375 

Q 24.90625 50.6875 30.21875 53.34375 

Q 35.546875 56 41.40625 56 

Q 48.640625 56 52.609375 52.09375 

Q 56.59375 48.1875 56.59375 41.109375 

Q 56.59375 39.359375 56.375 37.359375 

Q 56.15625 35.359375 55.71875 33.015625 

z

" id="DejaVuSans-Oblique-68"/>

      <path d="M 45.515625 34.671875 

L 14.453125 34.671875 

Q 12.359375 20.0625 14.5 13.875 

Q 17.1875 6.25 24.46875 6.25 

Q 31.78125 6.25 37.359375 13.921875 

Q 42.234375 20.65625 45.515625 34.671875 

z

M 47.015625 42.96875 

Q 48.34375 56.84375 46.625 61.71875 

Q 43.953125 69.4375 36.765625 69.4375 

Q 29.296875 69.4375 23.828125 61.8125 

Q 19.53125 55.671875 16.15625 42.96875 

z

M 38.1875 76.765625 

Q 49.90625 76.765625 54.59375 66.40625 

Q 59.28125 56.109375 55.71875 37.84375 

Q 52.203125 19.625 43.453125 9.28125 

Q 34.765625 -1.125 23.046875 -1.125 

Q 11.28125 -1.125 6.640625 9.28125 

Q 2 19.625 5.515625 37.84375 

Q 9.078125 56.109375 17.71875 66.40625 

Q 26.421875 76.765625 38.1875 76.765625 

z

" id="DejaVuSans-Oblique-3b8"/>

      <path d="M 31 75.875 

Q 24.46875 64.65625 21.28125 53.65625 

Q 18.109375 42.671875 18.109375 31.390625 

Q 18.109375 20.125 21.3125 9.0625 

Q 24.515625 -2 31 -13.1875 

L 23.1875 -13.1875 

Q 15.875 -1.703125 12.234375 9.375 

Q 8.59375 20.453125 8.59375 31.390625 

Q 8.59375 42.28125 12.203125 53.3125 

Q 15.828125 64.359375 23.1875 75.875 

z

" id="DejaVuSans-28"/>

      <path d="M 60.015625 54.6875 

L 34.90625 27.875 

L 50.296875 0 

L 39.984375 0 

L 28.421875 21.6875 

L 8.296875 0 

L -2.59375 0 

L 24.3125 28.8125 

L 10.015625 54.6875 

L 20.3125 54.6875 

L 30.8125 34.90625 

L 49.125 54.6875 

z

" id="DejaVuSans-Oblique-78"/>

      <path d="M 8.015625 75.875 

L 15.828125 75.875 

Q 23.140625 64.359375 26.78125 53.3125 

Q 30.421875 42.28125 30.421875 31.390625 

Q 30.421875 20.453125 26.78125 9.375 

Q 23.140625 -1.703125 15.828125 -13.1875 

L 8.015625 -13.1875 

Q 14.5 -2 17.703125 9.0625 

Q 20.90625 20.125 20.90625 31.390625 

Q 20.90625 42.671875 17.703125 53.65625 

Q 14.5 64.65625 8.015625 75.875 

z

" id="DejaVuSans-29"/>

      <path d="M 10.6875 40.921875 

L 21 40.921875 

L 21 28.515625 

L 10.6875 28.515625 

z

" id="DejaVuSans-22c5"/>

      <path d="M 24.8125 -5.078125 

Q 18.5625 -15.578125 14.625 -18.1875 

Q 10.6875 -20.796875 4.59375 -20.796875 

L -2.484375 -20.796875 

L -0.984375 -13.28125 

L 4.203125 -13.28125 

Q 7.953125 -13.28125 10.59375 -11.234375 

Q 13.234375 -9.1875 16.5 -3.21875 

L 19.28125 2 

L 7.171875 54.6875 

L 16.703125 54.6875 

L 25.78125 12.796875 

L 50.875 54.6875 

L 60.296875 54.6875 

z

" id="DejaVuSans-Oblique-79"/>

     </defs>

     <g transform="translate(182.790625 256.717344)scale(0.1 -0.1)">

      <use transform="translate(0 0.015625)" xlink:href="#DejaVuSans-Oblique-68"/>

      <use transform="translate(63.378906 -16.390625)scale(0.7)" xlink:href="#DejaVuSans-Oblique-3b8"/>

      <use transform="translate(108.94043 0.015625)" xlink:href="#DejaVuSans-28"/>

      <use transform="translate(147.954102 0.015625)" xlink:href="#DejaVuSans-Oblique-78"/>

      <use transform="translate(207.133789 0.015625)" xlink:href="#DejaVuSans-29"/>

      <use transform="translate(265.629883 0.015625)" xlink:href="#DejaVuSans-22c5"/>

      <use transform="translate(316.899414 0.015625)" xlink:href="#DejaVuSans-Oblique-79"/>

     </g>

    </g>

   </g>

   <g id="matplotlib.axis_2">

    <g id="ytick_1">

     <g id="line2d_8">

      <defs>

       <path d="M 0 0 

L -3.5 0 

" id="mbb4429878c" style="stroke:#000000;stroke-width:0.8;"/>

      </defs>

      <g>

       <use style="stroke:#000000;stroke-width:0.8;" x="34.240625" xlink:href="#mbb4429878c" y="226.286347"/>

      </g>

     </g>

     <g id="text_9">

      <!-- 0 -->

      <g transform="translate(20.878125 230.085566)scale(0.1 -0.1)">

       <use xlink:href="#DejaVuSans-30"/>

      </g>

     </g>

    </g>

    <g id="ytick_2">

     <g id="line2d_9">

      <g>

       <use style="stroke:#000000;stroke-width:0.8;" x="34.240625" xlink:href="#mbb4429878c" y="183.228922"/>

      </g>

     </g>

     <g id="text_10">

      <!-- 1 -->

      <g transform="translate(20.878125 187.02814)scale(0.1 -0.1)">

       <use xlink:href="#DejaVuSans-31"/>

      </g>

     </g>

    </g>

    <g id="ytick_3">

     <g id="line2d_10">

      <g>

       <use style="stroke:#000000;stroke-width:0.8;" x="34.240625" xlink:href="#mbb4429878c" y="140.171496"/>

      </g>

     </g>

     <g id="text_11">

      <!-- 2 -->

      <g transform="translate(20.878125 143.970715)scale(0.1 -0.1)">

       <use xlink:href="#DejaVuSans-32"/>

      </g>

     </g>

    </g>

    <g id="ytick_4">

     <g id="line2d_11">

      <g>

       <use style="stroke:#000000;stroke-width:0.8;" x="34.240625" xlink:href="#mbb4429878c" y="97.11407"/>

      </g>

     </g>

     <g id="text_12">

      <!-- 3 -->

      <g transform="translate(20.878125 100.913289)scale(0.1 -0.1)">

       <use xlink:href="#DejaVuSans-33"/>

      </g>

     </g>

    </g>

    <g id="ytick_5">

     <g id="line2d_12">

      <g>

       <use style="stroke:#000000;stroke-width:0.8;" x="34.240625" xlink:href="#mbb4429878c" y="54.056644"/>

      </g>

     </g>

     <g id="text_13">

      <!-- 4 -->

      <defs>

       <path d="M 37.796875 64.3125 

L 12.890625 25.390625 

L 37.796875 25.390625 

z

M 35.203125 72.90625 

L 47.609375 72.90625 

L 47.609375 25.390625 

L 58.015625 25.390625 

L 58.015625 17.1875 

L 47.609375 17.1875 

L 47.609375 0 

L 37.796875 0 

L 37.796875 17.1875 

L 4.890625 17.1875 

L 4.890625 26.703125 

z

" id="DejaVuSans-34"/>

      </defs>

      <g transform="translate(20.878125 57.855863)scale(0.1 -0.1)">

       <use xlink:href="#DejaVuSans-34"/>

      </g>

     </g>

    </g>

    <g id="ytick_6">

     <g id="line2d_13">

      <g>

       <use style="stroke:#000000;stroke-width:0.8;" x="34.240625" xlink:href="#mbb4429878c" y="10.999219"/>

      </g>

     </g>

     <g id="text_14">

      <!-- 5 -->

      <defs>

       <path d="M 10.796875 72.90625 

L 49.515625 72.90625 

L 49.515625 64.59375 

L 19.828125 64.59375 

L 19.828125 46.734375 

Q 21.96875 47.46875 24.109375 47.828125 

Q 26.265625 48.1875 28.421875 48.1875 

Q 40.625 48.1875 47.75 41.5 

Q 54.890625 34.8125 54.890625 23.390625 

Q 54.890625 11.625 47.5625 5.09375 

Q 40.234375 -1.421875 26.90625 -1.421875 

Q 22.3125 -1.421875 17.546875 -0.640625 

Q 12.796875 0.140625 7.71875 1.703125 

L 7.71875 11.625 

Q 12.109375 9.234375 16.796875 8.0625 

Q 21.484375 6.890625 26.703125 6.890625 

Q 35.15625 6.890625 40.078125 11.328125 

Q 45.015625 15.765625 45.015625 23.390625 

Q 45.015625 31 40.078125 35.4375 

Q 35.15625 39.890625 26.703125 39.890625 

Q 22.75 39.890625 18.8125 39.015625 

Q 14.890625 38.140625 10.796875 36.28125 

z

" id="DejaVuSans-35"/>

      </defs>

      <g transform="translate(20.878125 14.798438)scale(0.1 -0.1)">

       <use xlink:href="#DejaVuSans-35"/>

      </g>

     </g>

    </g>

    <g id="text_15">

     <!-- Loss -->

     <defs>

      <path d="M 9.8125 72.90625 

L 19.671875 72.90625 

L 19.671875 8.296875 

L 55.171875 8.296875 

L 55.171875 0 

L 9.8125 0 

z

" id="DejaVuSans-4c"/>

      <path d="M 30.609375 48.390625 

Q 23.390625 48.390625 19.1875 42.75 

Q 14.984375 37.109375 14.984375 27.296875 

Q 14.984375 17.484375 19.15625 11.84375 

Q 23.34375 6.203125 30.609375 6.203125 

Q 37.796875 6.203125 41.984375 11.859375 

Q 46.1875 17.53125 46.1875 27.296875 

Q 46.1875 37.015625 41.984375 42.703125 

Q 37.796875 48.390625 30.609375 48.390625 

z

M 30.609375 56 

Q 42.328125 56 49.015625 48.375 

Q 55.71875 40.765625 55.71875 27.296875 

Q 55.71875 13.875 49.015625 6.21875 

Q 42.328125 -1.421875 30.609375 -1.421875 

Q 18.84375 -1.421875 12.171875 6.21875 

Q 5.515625 13.875 5.515625 27.296875 

Q 5.515625 40.765625 12.171875 48.375 

Q 18.84375 56 30.609375 56 

z

" id="DejaVuSans-6f"/>

      <path d="M 44.28125 53.078125 

L 44.28125 44.578125 

Q 40.484375 46.53125 36.375 47.5 

Q 32.28125 48.484375 27.875 48.484375 

Q 21.1875 48.484375 17.84375 46.4375 

Q 14.5 44.390625 14.5 40.28125 

Q 14.5 37.15625 16.890625 35.375 

Q 19.28125 33.59375 26.515625 31.984375 

L 29.59375 31.296875 

Q 39.15625 29.25 43.1875 25.515625 

Q 47.21875 21.78125 47.21875 15.09375 

Q 47.21875 7.46875 41.1875 3.015625 

Q 35.15625 -1.421875 24.609375 -1.421875 

Q 20.21875 -1.421875 15.453125 -0.5625 

Q 10.6875 0.296875 5.421875 2 

L 5.421875 11.28125 

Q 10.40625 8.6875 15.234375 7.390625 

Q 20.0625 6.109375 24.8125 6.109375 

Q 31.15625 6.109375 34.5625 8.28125 

Q 37.984375 10.453125 37.984375 14.40625 

Q 37.984375 18.0625 35.515625 20.015625 

Q 33.0625 21.96875 24.703125 23.78125 

L 21.578125 24.515625 

Q 13.234375 26.265625 9.515625 29.90625 

Q 5.8125 33.546875 5.8125 39.890625 

Q 5.8125 47.609375 11.28125 51.796875 

Q 16.75 56 26.8125 56 

Q 31.78125 56 36.171875 55.265625 

Q 40.578125 54.546875 44.28125 53.078125 

z

" id="DejaVuSans-73"/>

     </defs>

     <g transform="translate(14.798437 130.773125)rotate(-90)scale(0.1 -0.1)">

      <use xlink:href="#DejaVuSans-4c"/>

      <use x="55.697266" xlink:href="#DejaVuSans-6f"/>

      <use x="116.878906" xlink:href="#DejaVuSans-73"/>

      <use x="168.978516" xlink:href="#DejaVuSans-73"/>

     </g>

    </g>

   </g>

   <g id="line2d_14">

    <path clip-path="url(#p143fdb4f72)" d="M 34.240625 54.056644 

L 257.440625 226.286347 

L 369.040625 226.286347 

L 369.040625 226.286347 

" style="fill:none;stroke:#1f77b4;stroke-linecap:square;stroke-width:1.5;"/>

   </g>

   <g id="patch_3">

    <path d="M 34.240625 228.439219 

L 34.240625 10.999219 

" style="fill:none;stroke:#000000;stroke-linecap:square;stroke-linejoin:miter;stroke-width:0.8;"/>

   </g>

   <g id="patch_4">

    <path d="M 369.040625 228.439219 

L 369.040625 10.999219 

" style="fill:none;stroke:#000000;stroke-linecap:square;stroke-linejoin:miter;stroke-width:0.8;"/>

   </g>

   <g id="patch_5">

    <path d="M 34.240625 228.439219 

L 369.040625 228.439219 

" style="fill:none;stroke:#000000;stroke-linecap:square;stroke-linejoin:miter;stroke-width:0.8;"/>

   </g>

   <g id="patch_6">

    <path d="M 34.240625 10.999219 

L 369.040625 10.999219 

" style="fill:none;stroke:#000000;stroke-linecap:square;stroke-linejoin:miter;stroke-width:0.8;"/>

   </g>

  </g>

 </g>

 <defs>

  <clipPath id="p143fdb4f72">

   <rect height="217.44" width="334.8" x="34.240625" y="10.999219"/>

  </clipPath>

 </defs>

</svg>
