<?xml version="1.0" encoding="utf-8" standalone="no"?>

<!DOCTYPE svg PUBLIC "-//W3C//DTD SVG 1.1//EN"

  "http://www.w3.org/Graphics/SVG/1.1/DTD/svg11.dtd">

<!-- Created with matplotlib (http://matplotlib.org/) -->

<svg height="252pt" version="1.1" viewBox="0 0 374 252" width="374pt" xmlns="http://www.w3.org/2000/svg" xmlns:xlink="http://www.w3.org/1999/xlink">

 <defs>

  <style type="text/css">

*{stroke-linecap:butt;stroke-linejoin:round;}

  </style>

 </defs>

 <g id="figure_1">

  <g id="patch_1">

   <path d="M 0 252.317344 

L 374.442187 252.317344 

L 374.442187 0 

L 0 0 

z

" style="fill:none;"/>

  </g>

  <g id="axes_1">

   <g id="patch_2">

    <path d="M 28.942188 228.439219 

L 363.742188 228.439219 

L 363.742188 10.999219 

L 28.942188 10.999219 

z

" style="fill:#ffffff;"/>

   </g>

   <g id="PathCollection_1">

    <defs>

     <path d="M 0 3 

C 0.795609 3 1.55874 2.683901 2.12132 2.12132 

C 2.683901 1.55874 3 0.795609 3 0 

C 3 -0.795609 2.683901 -1.55874 2.12132 -2.12132 

C 1.55874 -2.683901 0.795609 -3 0 -3 

C -0.795609 -3 -1.55874 -2.683901 -2.12132 -2.12132 

C -2.683901 -1.55874 -3 -0.795609 -3 0 

C -3 0.795609 -2.683901 1.55874 -2.12132 2.12132 

C -1.55874 2.683901 -0.795609 3 0 3 

z

" id="m1c55edc6de" style="stroke:#1f77b4;"/>

    </defs>

    <g clip-path="url(#p36b35759ed)">

     <use style="fill:#1f77b4;stroke:#1f77b4;" x="161.859248" xlink:href="#m1c55edc6de" y="105.217522"/>

     <use style="fill:#1f77b4;stroke:#1f77b4;" x="139.948977" xlink:href="#m1c55edc6de" y="38.509249"/>

     <use style="fill:#1f77b4;stroke:#1f77b4;" x="164.747055" xlink:href="#m1c55edc6de" y="155.135769"/>

     <use style="fill:#1f77b4;stroke:#1f77b4;" x="139.149654" xlink:href="#m1c55edc6de" y="125.204404"/>

     <use style="fill:#1f77b4;stroke:#1f77b4;" x="109.762382" xlink:href="#m1c55edc6de" y="104.839129"/>

     <use style="fill:#1f77b4;stroke:#1f77b4;" x="116.661003" xlink:href="#m1c55edc6de" y="67.016347"/>

     <use style="fill:#1f77b4;stroke:#1f77b4;" x="133.87514" xlink:href="#m1c55edc6de" y="115.309716"/>

     <use style="fill:#1f77b4;stroke:#1f77b4;" x="125.025972" xlink:href="#m1c55edc6de" y="107.626861"/>

     <use style="fill:#1f77b4;stroke:#1f77b4;" x="154.326994" xlink:href="#m1c55edc6de" y="127.154154"/>

     <use style="fill:#1f77b4;stroke:#1f77b4;" x="121.376776" xlink:href="#m1c55edc6de" y="150.671648"/>

     <use style="fill:#1f77b4;stroke:#1f77b4;" x="41.413772" xlink:href="#m1c55edc6de" y="96.032081"/>

     <use style="fill:#1f77b4;stroke:#1f77b4;" x="136.759957" xlink:href="#m1c55edc6de" y="146.615279"/>

     <use style="fill:#1f77b4;stroke:#1f77b4;" x="175.968342" xlink:href="#m1c55edc6de" y="172.425431"/>

     <use style="fill:#1f77b4;stroke:#1f77b4;" x="113.91885" xlink:href="#m1c55edc6de" y="126.502761"/>

     <use style="fill:#1f77b4;stroke:#1f77b4;" x="155.406728" xlink:href="#m1c55edc6de" y="66.469657"/>

     <use style="fill:#1f77b4;stroke:#1f77b4;" x="116.965221" xlink:href="#m1c55edc6de" y="106.014609"/>

     <use style="fill:#1f77b4;stroke:#1f77b4;" x="87.872965" xlink:href="#m1c55edc6de" y="191.503283"/>

     <use style="fill:#1f77b4;stroke:#1f77b4;" x="102.935439" xlink:href="#m1c55edc6de" y="114.053132"/>

     <use style="fill:#1f77b4;stroke:#1f77b4;" x="146.967297" xlink:href="#m1c55edc6de" y="76.144973"/>

     <use style="fill:#1f77b4;stroke:#1f77b4;" x="101.835769" xlink:href="#m1c55edc6de" y="130.67467"/>

     <use style="fill:#1f77b4;stroke:#1f77b4;" x="83.38756" xlink:href="#m1c55edc6de" y="171.180669"/>

     <use style="fill:#1f77b4;stroke:#1f77b4;" x="65.037249" xlink:href="#m1c55edc6de" y="49.023118"/>

     <use style="fill:#1f77b4;stroke:#1f77b4;" x="98.422892" xlink:href="#m1c55edc6de" y="135.595031"/>

     <use style="fill:#1f77b4;stroke:#1f77b4;" x="77.689197" xlink:href="#m1c55edc6de" y="91.542968"/>

     <use style="fill:#1f77b4;stroke:#1f77b4;" x="67.614438" xlink:href="#m1c55edc6de" y="127.428927"/>

     <use style="fill:#1f77b4;stroke:#1f77b4;" x="87.65867" xlink:href="#m1c55edc6de" y="105.697872"/>

     <use style="fill:#1f77b4;stroke:#1f77b4;" x="98.390724" xlink:href="#m1c55edc6de" y="162.505329"/>

     <use style="fill:#1f77b4;stroke:#1f77b4;" x="111.855903" xlink:href="#m1c55edc6de" y="104.196472"/>

     <use style="fill:#1f77b4;stroke:#1f77b4;" x="114.498018" xlink:href="#m1c55edc6de" y="108.757637"/>

     <use style="fill:#1f77b4;stroke:#1f77b4;" x="94.944601" xlink:href="#m1c55edc6de" y="132.864959"/>

     <use style="fill:#1f77b4;stroke:#1f77b4;" x="93.880541" xlink:href="#m1c55edc6de" y="132.749425"/>

     <use style="fill:#1f77b4;stroke:#1f77b4;" x="89.955406" xlink:href="#m1c55edc6de" y="182.2797"/>

     <use style="fill:#1f77b4;stroke:#1f77b4;" x="117.592377" xlink:href="#m1c55edc6de" y="134.27976"/>

     <use style="fill:#1f77b4;stroke:#1f77b4;" x="67.159654" xlink:href="#m1c55edc6de" y="102.94799"/>

     <use style="fill:#1f77b4;stroke:#1f77b4;" x="87.328563" xlink:href="#m1c55edc6de" y="117.836718"/>

     <use style="fill:#1f77b4;stroke:#1f77b4;" x="132.983814" xlink:href="#m1c55edc6de" y="115.044878"/>

     <use style="fill:#1f77b4;stroke:#1f77b4;" x="144.431467" xlink:href="#m1c55edc6de" y="164.469306"/>

     <use style="fill:#1f77b4;stroke:#1f77b4;" x="123.867519" xlink:href="#m1c55edc6de" y="144.536736"/>

     <use style="fill:#1f77b4;stroke:#1f77b4;" x="88.346947" xlink:href="#m1c55edc6de" y="140.696731"/>

     <use style="fill:#1f77b4;stroke:#1f77b4;" x="103.949872" xlink:href="#m1c55edc6de" y="117.683787"/>

     <use style="fill:#1f77b4;stroke:#1f77b4;" x="80.134507" xlink:href="#m1c55edc6de" y="87.073267"/>

     <use style="fill:#1f77b4;stroke:#1f77b4;" x="125.63417" xlink:href="#m1c55edc6de" y="175.39269"/>

     <use style="fill:#1f77b4;stroke:#1f77b4;" x="154.164424" xlink:href="#m1c55edc6de" y="51.012195"/>

     <use style="fill:#1f77b4;stroke:#1f77b4;" x="145.530138" xlink:href="#m1c55edc6de" y="126.239695"/>

     <use style="fill:#1f77b4;stroke:#1f77b4;" x="82.768189" xlink:href="#m1c55edc6de" y="81.505888"/>

     <use style="fill:#1f77b4;stroke:#1f77b4;" x="101.393551" xlink:href="#m1c55edc6de" y="75.417809"/>

     <use style="fill:#1f77b4;stroke:#1f77b4;" x="118.453059" xlink:href="#m1c55edc6de" y="84.32582"/>

     <use style="fill:#1f77b4;stroke:#1f77b4;" x="122.58481" xlink:href="#m1c55edc6de" y="94.113007"/>

     <use style="fill:#1f77b4;stroke:#1f77b4;" x="112.935138" xlink:href="#m1c55edc6de" y="54.999272"/>

     <use style="fill:#1f77b4;stroke:#1f77b4;" x="116.183035" xlink:href="#m1c55edc6de" y="105.151124"/>

    </g>

   </g>

   <g id="PathCollection_2">

    <defs>

     <path d="M 0 3 

C 0.795609 3 1.55874 2.683901 2.12132 2.12132 

C 2.683901 1.55874 3 0.795609 3 0 

C 3 -0.795609 2.683901 -1.55874 2.12132 -2.12132 

C 1.55874 -2.683901 0.795609 -3 0 -3 

C -0.795609 -3 -1.55874 -2.683901 -2.12132 -2.12132 

C -2.683901 -1.55874 -3 -0.795609 -3 0 

C -3 0.795609 -2.683901 1.55874 -2.12132 2.12132 

C -1.55874 2.683901 -0.795609 3 0 3 

z

" id="m2abe2b4298" style="stroke:#ff7f0e;"/>

    </defs>

    <g clip-path="url(#p36b35759ed)">

     <use style="fill:#ff7f0e;stroke:#ff7f0e;" x="332.582092" xlink:href="#m2abe2b4298" y="168.562007"/>

     <use style="fill:#ff7f0e;stroke:#ff7f0e;" x="244.595656" xlink:href="#m2abe2b4298" y="84.588282"/>

     <use style="fill:#ff7f0e;stroke:#ff7f0e;" x="247.312044" xlink:href="#m2abe2b4298" y="49.282387"/>

     <use style="fill:#ff7f0e;stroke:#ff7f0e;" x="268.502218" xlink:href="#m2abe2b4298" y="146.806981"/>

     <use style="fill:#ff7f0e;stroke:#ff7f0e;" x="333.69227" xlink:href="#m2abe2b4298" y="66.065363"/>

     <use style="fill:#ff7f0e;stroke:#ff7f0e;" x="332.147082" xlink:href="#m2abe2b4298" y="86.88416"/>

     <use style="fill:#ff7f0e;stroke:#ff7f0e;" x="256.013991" xlink:href="#m2abe2b4298" y="50.498465"/>

     <use style="fill:#ff7f0e;stroke:#ff7f0e;" x="272.564893" xlink:href="#m2abe2b4298" y="90.638199"/>

     <use style="fill:#ff7f0e;stroke:#ff7f0e;" x="306.470517" xlink:href="#m2abe2b4298" y="125.336785"/>

     <use style="fill:#ff7f0e;stroke:#ff7f0e;" x="297.175002" xlink:href="#m2abe2b4298" y="86.298449"/>

     <use style="fill:#ff7f0e;stroke:#ff7f0e;" x="290.54446" xlink:href="#m2abe2b4298" y="159.561503"/>

     <use style="fill:#ff7f0e;stroke:#ff7f0e;" x="288.363033" xlink:href="#m2abe2b4298" y="71.650994"/>

     <use style="fill:#ff7f0e;stroke:#ff7f0e;" x="260.663744" xlink:href="#m2abe2b4298" y="125.141974"/>

     <use style="fill:#ff7f0e;stroke:#ff7f0e;" x="267.901403" xlink:href="#m2abe2b4298" y="52.701901"/>

     <use style="fill:#ff7f0e;stroke:#ff7f0e;" x="298.799211" xlink:href="#m2abe2b4298" y="104.952802"/>

     <use style="fill:#ff7f0e;stroke:#ff7f0e;" x="258.561529" xlink:href="#m2abe2b4298" y="100.176828"/>

     <use style="fill:#ff7f0e;stroke:#ff7f0e;" x="261.228306" xlink:href="#m2abe2b4298" y="118.565679"/>

     <use style="fill:#ff7f0e;stroke:#ff7f0e;" x="262.302082" xlink:href="#m2abe2b4298" y="95.205276"/>

     <use style="fill:#ff7f0e;stroke:#ff7f0e;" x="296.129071" xlink:href="#m2abe2b4298" y="127.267966"/>

     <use style="fill:#ff7f0e;stroke:#ff7f0e;" x="291.090775" xlink:href="#m2abe2b4298" y="159.331768"/>

     <use style="fill:#ff7f0e;stroke:#ff7f0e;" x="238.436101" xlink:href="#m2abe2b4298" y="103.795663"/>

     <use style="fill:#ff7f0e;stroke:#ff7f0e;" x="284.692378" xlink:href="#m2abe2b4298" y="96.705679"/>

     <use style="fill:#ff7f0e;stroke:#ff7f0e;" x="346.531927" xlink:href="#m2abe2b4298" y="85.491282"/>

     <use style="fill:#ff7f0e;stroke:#ff7f0e;" x="254.574447" xlink:href="#m2abe2b4298" y="79.238548"/>

     <use style="fill:#ff7f0e;stroke:#ff7f0e;" x="243.328371" xlink:href="#m2abe2b4298" y="136.447045"/>

     <use style="fill:#ff7f0e;stroke:#ff7f0e;" x="278.138247" xlink:href="#m2abe2b4298" y="57.627679"/>

     <use style="fill:#ff7f0e;stroke:#ff7f0e;" x="259.263528" xlink:href="#m2abe2b4298" y="149.669351"/>

     <use style="fill:#ff7f0e;stroke:#ff7f0e;" x="277.295362" xlink:href="#m2abe2b4298" y="143.763672"/>

     <use style="fill:#ff7f0e;stroke:#ff7f0e;" x="311.47533" xlink:href="#m2abe2b4298" y="158.855937"/>

     <use style="fill:#ff7f0e;stroke:#ff7f0e;" x="248.027812" xlink:href="#m2abe2b4298" y="135.585817"/>

     <use style="fill:#ff7f0e;stroke:#ff7f0e;" x="266.147082" xlink:href="#m2abe2b4298" y="49.792977"/>

     <use style="fill:#ff7f0e;stroke:#ff7f0e;" x="306.531028" xlink:href="#m2abe2b4298" y="116.546362"/>

     <use style="fill:#ff7f0e;stroke:#ff7f0e;" x="245.852537" xlink:href="#m2abe2b4298" y="89.119504"/>

     <use style="fill:#ff7f0e;stroke:#ff7f0e;" x="252.136179" xlink:href="#m2abe2b4298" y="175.701723"/>

     <use style="fill:#ff7f0e;stroke:#ff7f0e;" x="313.188219" xlink:href="#m2abe2b4298" y="108.233218"/>

     <use style="fill:#ff7f0e;stroke:#ff7f0e;" x="305.734149" xlink:href="#m2abe2b4298" y="108.168529"/>

     <use style="fill:#ff7f0e;stroke:#ff7f0e;" x="303.947762" xlink:href="#m2abe2b4298" y="143.312386"/>

     <use style="fill:#ff7f0e;stroke:#ff7f0e;" x="251.186812" xlink:href="#m2abe2b4298" y="95.018233"/>

     <use style="fill:#ff7f0e;stroke:#ff7f0e;" x="257.627058" xlink:href="#m2abe2b4298" y="144.708503"/>

     <use style="fill:#ff7f0e;stroke:#ff7f0e;" x="267.332831" xlink:href="#m2abe2b4298" y="119.085774"/>

     <use style="fill:#ff7f0e;stroke:#ff7f0e;" x="270.165757" xlink:href="#m2abe2b4298" y="169.547454"/>

     <use style="fill:#ff7f0e;stroke:#ff7f0e;" x="262.085234" xlink:href="#m2abe2b4298" y="200.295349"/>

     <use style="fill:#ff7f0e;stroke:#ff7f0e;" x="297.486145" xlink:href="#m2abe2b4298" y="177.777788"/>

     <use style="fill:#ff7f0e;stroke:#ff7f0e;" x="249.229892" xlink:href="#m2abe2b4298" y="117.828756"/>

     <use style="fill:#ff7f0e;stroke:#ff7f0e;" x="259.40838" xlink:href="#m2abe2b4298" y="63.80037"/>

     <use style="fill:#ff7f0e;stroke:#ff7f0e;" x="243.97148" xlink:href="#m2abe2b4298" y="110.041295"/>

     <use style="fill:#ff7f0e;stroke:#ff7f0e;" x="278.946197" xlink:href="#m2abe2b4298" y="162.050927"/>

     <use style="fill:#ff7f0e;stroke:#ff7f0e;" x="294.641606" xlink:href="#m2abe2b4298" y="125.936058"/>

     <use style="fill:#ff7f0e;stroke:#ff7f0e;" x="301.575144" xlink:href="#m2abe2b4298" y="89.875428"/>

     <use style="fill:#ff7f0e;stroke:#ff7f0e;" x="340.39647" xlink:href="#m2abe2b4298" y="71.283446"/>

    </g>

   </g>

   <g id="PathCollection_3">

    <defs>

     <path d="M 0 3 

C 0.795609 3 1.55874 2.683901 2.12132 2.12132 

C 2.683901 1.55874 3 0.795609 3 0 

C 3 -0.795609 2.683901 -1.55874 2.12132 -2.12132 

C 1.55874 -2.683901 0.795609 -3 0 -3 

C -0.795609 -3 -1.55874 -2.683901 -2.12132 -2.12132 

C -2.683901 -1.55874 -3 -0.795609 -3 0 

C -3 0.795609 -2.683901 1.55874 -2.12132 2.12132 

C -1.55874 2.683901 -0.795609 3 0 3 

z

" id="m846d6796fb" style="stroke:#000000;"/>

    </defs>

    <g clip-path="url(#p36b35759ed)">

     <use style="stroke:#000000;" x="113.111079" xlink:href="#m846d6796fb" y="115.993389"/>

    </g>

   </g>

   <g id="PathCollection_4">

    <g clip-path="url(#p36b35759ed)">

     <use style="stroke:#000000;" x="279.519857" xlink:href="#m846d6796fb" y="113.09645"/>

    </g>

   </g>

   <g id="matplotlib.axis_1">

    <g id="xtick_1">

     <g id="line2d_1">

      <defs>

       <path d="M 0 0 

L 0 3.5 

" id="m748b829452" style="stroke:#000000;stroke-width:0.8;"/>

      </defs>

      <g>

       <use style="stroke:#000000;stroke-width:0.8;" x="28.942188" xlink:href="#m748b829452" y="228.439219"/>

      </g>

     </g>

     <g id="text_1">

      <!-- −6 -->

      <defs>

       <path d="M 10.59375 35.5 

L 73.1875 35.5 

L 73.1875 27.203125 

L 10.59375 27.203125 

z

" id="DejaVuSans-2212"/>

       <path d="M 33.015625 40.375 

Q 26.375 40.375 22.484375 35.828125 

Q 18.609375 31.296875 18.609375 23.390625 

Q 18.609375 15.53125 22.484375 10.953125 

Q 26.375 6.390625 33.015625 6.390625 

Q 39.65625 6.390625 43.53125 10.953125 

Q 47.40625 15.53125 47.40625 23.390625 

Q 47.40625 31.296875 43.53125 35.828125 

Q 39.65625 40.375 33.015625 40.375 

z

M 52.59375 71.296875 

L 52.59375 62.3125 

Q 48.875 64.0625 45.09375 64.984375 

Q 41.3125 65.921875 37.59375 65.921875 

Q 27.828125 65.921875 22.671875 59.328125 

Q 17.53125 52.734375 16.796875 39.40625 

Q 19.671875 43.65625 24.015625 45.921875 

Q 28.375 48.1875 33.59375 48.1875 

Q 44.578125 48.1875 50.953125 41.515625 

Q 57.328125 34.859375 57.328125 23.390625 

Q 57.328125 12.15625 50.6875 5.359375 

Q 44.046875 -1.421875 33.015625 -1.421875 

Q 20.359375 -1.421875 13.671875 8.265625 

Q 6.984375 17.96875 6.984375 36.375 

Q 6.984375 53.65625 15.1875 63.9375 

Q 23.390625 74.21875 37.203125 74.21875 

Q 40.921875 74.21875 44.703125 73.484375 

Q 48.484375 72.75 52.59375 71.296875 

z

" id="DejaVuSans-36"/>

      </defs>

      <g transform="translate(21.571094 243.037656)scale(0.1 -0.1)">

       <use xlink:href="#DejaVuSans-2212"/>

       <use x="83.789062" xlink:href="#DejaVuSans-36"/>

      </g>

     </g>

    </g>

    <g id="xtick_2">

     <g id="line2d_2">

      <g>

       <use style="stroke:#000000;stroke-width:0.8;" x="84.742188" xlink:href="#m748b829452" y="228.439219"/>

      </g>

     </g>

     <g id="text_2">

      <!-- −4 -->

      <defs>

       <path d="M 37.796875 64.3125 

L 12.890625 25.390625 

L 37.796875 25.390625 

z

M 35.203125 72.90625 

L 47.609375 72.90625 

L 47.609375 25.390625 

L 58.015625 25.390625 

L 58.015625 17.1875 

L 47.609375 17.1875 

L 47.609375 0 

L 37.796875 0 

L 37.796875 17.1875 

L 4.890625 17.1875 

L 4.890625 26.703125 

z

" id="DejaVuSans-34"/>

      </defs>

      <g transform="translate(77.371094 243.037656)scale(0.1 -0.1)">

       <use xlink:href="#DejaVuSans-2212"/>

       <use x="83.789062" xlink:href="#DejaVuSans-34"/>

      </g>

     </g>

    </g>

    <g id="xtick_3">

     <g id="line2d_3">

      <g>

       <use style="stroke:#000000;stroke-width:0.8;" x="140.542188" xlink:href="#m748b829452" y="228.439219"/>

      </g>

     </g>

     <g id="text_3">

      <!-- −2 -->

      <defs>

       <path d="M 19.1875 8.296875 

L 53.609375 8.296875 

L 53.609375 0 

L 7.328125 0 

L 7.328125 8.296875 

Q 12.9375 14.109375 22.625 23.890625 

Q 32.328125 33.6875 34.8125 36.53125 

Q 39.546875 41.84375 41.421875 45.53125 

Q 43.3125 49.21875 43.3125 52.78125 

Q 43.3125 58.59375 39.234375 62.25 

Q 35.15625 65.921875 28.609375 65.921875 

Q 23.96875 65.921875 18.8125 64.3125 

Q 13.671875 62.703125 7.8125 59.421875 

L 7.8125 69.390625 

Q 13.765625 71.78125 18.9375 73 

Q 24.125 74.21875 28.421875 74.21875 

Q 39.75 74.21875 46.484375 68.546875 

Q 53.21875 62.890625 53.21875 53.421875 

Q 53.21875 48.921875 51.53125 44.890625 

Q 49.859375 40.875 45.40625 35.40625 

Q 44.1875 33.984375 37.640625 27.21875 

Q 31.109375 20.453125 19.1875 8.296875 

z

" id="DejaVuSans-32"/>

      </defs>

      <g transform="translate(133.171094 243.037656)scale(0.1 -0.1)">

       <use xlink:href="#DejaVuSans-2212"/>

       <use x="83.789062" xlink:href="#DejaVuSans-32"/>

      </g>

     </g>

    </g>

    <g id="xtick_4">

     <g id="line2d_4">

      <g>

       <use style="stroke:#000000;stroke-width:0.8;" x="196.342188" xlink:href="#m748b829452" y="228.439219"/>

      </g>

     </g>

     <g id="text_4">

      <!-- 0 -->

      <defs>

       <path d="M 31.78125 66.40625 

Q 24.171875 66.40625 20.328125 58.90625 

Q 16.5 51.421875 16.5 36.375 

Q 16.5 21.390625 20.328125 13.890625 

Q 24.171875 6.390625 31.78125 6.390625 

Q 39.453125 6.390625 43.28125 13.890625 

Q 47.125 21.390625 47.125 36.375 

Q 47.125 51.421875 43.28125 58.90625 

Q 39.453125 66.40625 31.78125 66.40625 

z

M 31.78125 74.21875 

Q 44.046875 74.21875 50.515625 64.515625 

Q 56.984375 54.828125 56.984375 36.375 

Q 56.984375 17.96875 50.515625 8.265625 

Q 44.046875 -1.421875 31.78125 -1.421875 

Q 19.53125 -1.421875 13.0625 8.265625 

Q 6.59375 17.96875 6.59375 36.375 

Q 6.59375 54.828125 13.0625 64.515625 

Q 19.53125 74.21875 31.78125 74.21875 

z

" id="DejaVuSans-30"/>

      </defs>

      <g transform="translate(193.160938 243.037656)scale(0.1 -0.1)">

       <use xlink:href="#DejaVuSans-30"/>

      </g>

     </g>

    </g>

    <g id="xtick_5">

     <g id="line2d_5">

      <g>

       <use style="stroke:#000000;stroke-width:0.8;" x="252.142188" xlink:href="#m748b829452" y="228.439219"/>

      </g>

     </g>

     <g id="text_5">

      <!-- 2 -->

      <g transform="translate(248.960938 243.037656)scale(0.1 -0.1)">

       <use xlink:href="#DejaVuSans-32"/>

      </g>

     </g>

    </g>

    <g id="xtick_6">

     <g id="line2d_6">

      <g>

       <use style="stroke:#000000;stroke-width:0.8;" x="307.942188" xlink:href="#m748b829452" y="228.439219"/>

      </g>

     </g>

     <g id="text_6">

      <!-- 4 -->

      <g transform="translate(304.760938 243.037656)scale(0.1 -0.1)">

       <use xlink:href="#DejaVuSans-34"/>

      </g>

     </g>

    </g>

    <g id="xtick_7">

     <g id="line2d_7">

      <g>

       <use style="stroke:#000000;stroke-width:0.8;" x="363.742188" xlink:href="#m748b829452" y="228.439219"/>

      </g>

     </g>

     <g id="text_7">

      <!-- 6 -->

      <g transform="translate(360.560938 243.037656)scale(0.1 -0.1)">

       <use xlink:href="#DejaVuSans-36"/>

      </g>

     </g>

    </g>

   </g>

   <g id="matplotlib.axis_2">

    <g id="ytick_1">

     <g id="line2d_8">

      <defs>

       <path d="M 0 0 

L -3.5 0 

" id="m7777cd5c32" style="stroke:#000000;stroke-width:0.8;"/>

      </defs>

      <g>

       <use style="stroke:#000000;stroke-width:0.8;" x="28.942188" xlink:href="#m7777cd5c32" y="228.439219"/>

      </g>

     </g>

     <g id="text_8">

      <!-- −3 -->

      <defs>

       <path d="M 40.578125 39.3125 

Q 47.65625 37.796875 51.625 33 

Q 55.609375 28.21875 55.609375 21.1875 

Q 55.609375 10.40625 48.1875 4.484375 

Q 40.765625 -1.421875 27.09375 -1.421875 

Q 22.515625 -1.421875 17.65625 -0.515625 

Q 12.796875 0.390625 7.625 2.203125 

L 7.625 11.71875 

Q 11.71875 9.328125 16.59375 8.109375 

Q 21.484375 6.890625 26.8125 6.890625 

Q 36.078125 6.890625 40.9375 10.546875 

Q 45.796875 14.203125 45.796875 21.1875 

Q 45.796875 27.640625 41.28125 31.265625 

Q 36.765625 34.90625 28.71875 34.90625 

L 20.21875 34.90625 

L 20.21875 43.015625 

L 29.109375 43.015625 

Q 36.375 43.015625 40.234375 45.921875 

Q 44.09375 48.828125 44.09375 54.296875 

Q 44.09375 59.90625 40.109375 62.90625 

Q 36.140625 65.921875 28.71875 65.921875 

Q 24.65625 65.921875 20.015625 65.03125 

Q 15.375 64.15625 9.8125 62.3125 

L 9.8125 71.09375 

Q 15.4375 72.65625 20.34375 73.4375 

Q 25.25 74.21875 29.59375 74.21875 

Q 40.828125 74.21875 47.359375 69.109375 

Q 53.90625 64.015625 53.90625 55.328125 

Q 53.90625 49.265625 50.4375 45.09375 

Q 46.96875 40.921875 40.578125 39.3125 

z

" id="DejaVuSans-33"/>

      </defs>

      <g transform="translate(7.2 232.238437)scale(0.1 -0.1)">

       <use xlink:href="#DejaVuSans-2212"/>

       <use x="83.789062" xlink:href="#DejaVuSans-33"/>

      </g>

     </g>

    </g>

    <g id="ytick_2">

     <g id="line2d_9">

      <g>

       <use style="stroke:#000000;stroke-width:0.8;" x="28.942188" xlink:href="#m7777cd5c32" y="192.199219"/>

      </g>

     </g>

     <g id="text_9">

      <!-- −2 -->

      <g transform="translate(7.2 195.998437)scale(0.1 -0.1)">

       <use xlink:href="#DejaVuSans-2212"/>

       <use x="83.789062" xlink:href="#DejaVuSans-32"/>

      </g>

     </g>

    </g>

    <g id="ytick_3">

     <g id="line2d_10">

      <g>

       <use style="stroke:#000000;stroke-width:0.8;" x="28.942188" xlink:href="#m7777cd5c32" y="155.959219"/>

      </g>

     </g>

     <g id="text_10">

      <!-- −1 -->

      <defs>

       <path d="M 12.40625 8.296875 

L 28.515625 8.296875 

L 28.515625 63.921875 

L 10.984375 60.40625 

L 10.984375 69.390625 

L 28.421875 72.90625 

L 38.28125 72.90625 

L 38.28125 8.296875 

L 54.390625 8.296875 

L 54.390625 0 

L 12.40625 0 

z

" id="DejaVuSans-31"/>

      </defs>

      <g transform="translate(7.2 159.758437)scale(0.1 -0.1)">

       <use xlink:href="#DejaVuSans-2212"/>

       <use x="83.789062" xlink:href="#DejaVuSans-31"/>

      </g>

     </g>

    </g>

    <g id="ytick_4">

     <g id="line2d_11">

      <g>

       <use style="stroke:#000000;stroke-width:0.8;" x="28.942188" xlink:href="#m7777cd5c32" y="119.719219"/>

      </g>

     </g>

     <g id="text_11">

      <!-- 0 -->

      <g transform="translate(15.579688 123.518437)scale(0.1 -0.1)">

       <use xlink:href="#DejaVuSans-30"/>

      </g>

     </g>

    </g>

    <g id="ytick_5">

     <g id="line2d_12">

      <g>

       <use style="stroke:#000000;stroke-width:0.8;" x="28.942188" xlink:href="#m7777cd5c32" y="83.479219"/>

      </g>

     </g>

     <g id="text_12">

      <!-- 1 -->

      <g transform="translate(15.579688 87.278437)scale(0.1 -0.1)">

       <use xlink:href="#DejaVuSans-31"/>

      </g>

     </g>

    </g>

    <g id="ytick_6">

     <g id="line2d_13">

      <g>

       <use style="stroke:#000000;stroke-width:0.8;" x="28.942188" xlink:href="#m7777cd5c32" y="47.239219"/>

      </g>

     </g>

     <g id="text_13">

      <!-- 2 -->

      <g transform="translate(15.579688 51.038437)scale(0.1 -0.1)">

       <use xlink:href="#DejaVuSans-32"/>

      </g>

     </g>

    </g>

    <g id="ytick_7">

     <g id="line2d_14">

      <g>

       <use style="stroke:#000000;stroke-width:0.8;" x="28.942188" xlink:href="#m7777cd5c32" y="10.999219"/>

      </g>

     </g>

     <g id="text_14">

      <!-- 3 -->

      <g transform="translate(15.579688 14.798437)scale(0.1 -0.1)">

       <use xlink:href="#DejaVuSans-33"/>

      </g>

     </g>

    </g>

   </g>

   <g id="patch_3">

    <path d="M 28.942188 228.439219 

L 28.942188 10.999219 

" style="fill:none;stroke:#000000;stroke-linecap:square;stroke-linejoin:miter;stroke-width:0.8;"/>

   </g>

   <g id="patch_4">

    <path d="M 363.742188 228.439219 

L 363.742188 10.999219 

" style="fill:none;stroke:#000000;stroke-linecap:square;stroke-linejoin:miter;stroke-width:0.8;"/>

   </g>

   <g id="patch_5">

    <path d="M 28.942188 228.439219 

L 363.742188 228.439219 

" style="fill:none;stroke:#000000;stroke-linecap:square;stroke-linejoin:miter;stroke-width:0.8;"/>

   </g>

   <g id="patch_6">

    <path d="M 28.942188 10.999219 

L 363.742188 10.999219 

" style="fill:none;stroke:#000000;stroke-linecap:square;stroke-linejoin:miter;stroke-width:0.8;"/>

   </g>

   <g id="text_15">

    <!-- $\mu^{(1)}$ -->

    <defs>

     <path d="M -1.3125 -20.796875 

L 13.375 54.6875 

L 22.40625 54.6875 

L 15.765625 20.65625 

Q 15.578125 19.625 15.421875 18.359375 

Q 15.28125 17.09375 15.28125 15.828125 

Q 15.28125 11.28125 18.140625 8.828125 

Q 21 6.390625 26.3125 6.390625 

Q 33.546875 6.390625 37.984375 10.484375 

Q 42.4375 14.59375 44 22.796875 

L 50.203125 54.6875 

L 59.1875 54.6875 

L 51.03125 12.640625 

Q 50.828125 11.71875 50.75 11.03125 

Q 50.6875 10.359375 50.6875 9.8125 

Q 50.6875 8.296875 51.296875 7.59375 

Q 51.90625 6.890625 53.21875 6.890625 

Q 53.71875 6.890625 54.5625 7.125 

Q 55.421875 7.375 56.984375 8.015625 

L 55.609375 0.78125 

Q 53.46875 -0.296875 51.515625 -0.859375 

Q 49.5625 -1.421875 47.703125 -1.421875 

Q 44.484375 -1.421875 42.65625 0.625 

Q 40.828125 2.6875 40.828125 6.296875 

Q 38.09375 2.390625 34.296875 0.484375 

Q 30.515625 -1.421875 25.390625 -1.421875 

Q 20.84375 -1.421875 17.453125 0.671875 

Q 14.0625 2.78125 12.984375 6.203125 

L 7.71875 -20.796875 

z

" id="DejaVuSans-Oblique-3bc"/>

     <path d="M 31 75.875 

Q 24.46875 64.65625 21.28125 53.65625 

Q 18.109375 42.671875 18.109375 31.390625 

Q 18.109375 20.125 21.3125 9.0625 

Q 24.515625 -2 31 -13.1875 

L 23.1875 -13.1875 

Q 15.875 -1.703125 12.234375 9.375 

Q 8.59375 20.453125 8.59375 31.390625 

Q 8.59375 42.28125 12.203125 53.3125 

Q 15.828125 64.359375 23.1875 75.875 

z

" id="DejaVuSans-28"/>

     <path d="M 8.015625 75.875 

L 15.828125 75.875 

Q 23.140625 64.359375 26.78125 53.3125 

Q 30.421875 42.28125 30.421875 31.390625 

Q 30.421875 20.453125 26.78125 9.375 

Q 23.140625 -1.703125 15.828125 -13.1875 

L 8.015625 -13.1875 

Q 14.5 -2 17.703125 9.0625 

Q 20.90625 20.125 20.90625 31.390625 

Q 20.90625 42.671875 17.703125 53.65625 

Q 14.5 64.65625 8.015625 75.875 

z

" id="DejaVuSans-29"/>

    </defs>

    <g transform="translate(117.296079 121.429389)scale(0.1 -0.1)">

     <use transform="translate(0 0.60625)" xlink:href="#DejaVuSans-Oblique-3bc"/>

     <use transform="translate(68.089193 38.8875)scale(0.7)" xlink:href="#DejaVuSans-28"/>

     <use transform="translate(95.398763 38.8875)scale(0.7)" xlink:href="#DejaVuSans-31"/>

     <use transform="translate(139.934896 38.8875)scale(0.7)" xlink:href="#DejaVuSans-29"/>

    </g>

   </g>

   <g id="text_16">

    <!-- $\mu^{(2)}$ -->

    <g transform="translate(283.704857 118.53245)scale(0.1 -0.1)">

     <use transform="translate(0 0.60625)" xlink:href="#DejaVuSans-Oblique-3bc"/>

     <use transform="translate(68.089193 38.8875)scale(0.7)" xlink:href="#DejaVuSans-28"/>

     <use transform="translate(95.398763 38.8875)scale(0.7)" xlink:href="#DejaVuSans-32"/>

     <use transform="translate(139.934896 38.8875)scale(0.7)" xlink:href="#DejaVuSans-29"/>

    </g>

   </g>

  </g>

 </g>

 <defs>

  <clipPath id="p36b35759ed">

   <rect height="217.44" width="334.8" x="28.942188" y="10.999219"/>

  </clipPath>

 </defs>

</svg>
