<?xml version="1.0" encoding="utf-8" standalone="no"?>

<!DOCTYPE svg PUBLIC "-//W3C//DTD SVG 1.1//EN"

  "http://www.w3.org/Graphics/SVG/1.1/DTD/svg11.dtd">

<!-- Created with matplotlib (http://matplotlib.org/) -->

<svg height="252pt" version="1.1" viewBox="0 0 390 252" width="390pt" xmlns="http://www.w3.org/2000/svg" xmlns:xlink="http://www.w3.org/1999/xlink">

 <defs>

  <style type="text/css">

*{stroke-linecap:butt;stroke-linejoin:round;}

  </style>

 </defs>

 <g id="figure_1">

  <g id="patch_1">

   <path d="M 0 252.018125 

L 390.345312 252.018125 

L 390.345312 0 

L 0 0 

z

" style="fill:none;"/>

  </g>

  <g id="axes_1">

   <g id="patch_2">

    <path d="M 44.845313 228.14 

L 379.645313 228.14 

L 379.645313 10.7 

L 44.845313 10.7 

z

" style="fill:#ffffff;"/>

   </g>

   <g id="matplotlib.axis_1">

    <g id="xtick_1">

     <g id="line2d_1">

      <defs>

       <path d="M 0 0 

L 0 3.5 

" id="mae77968aa5" style="stroke:#000000;stroke-width:0.8;"/>

      </defs>

      <g>

       <use style="stroke:#000000;stroke-width:0.8;" x="60.063494" xlink:href="#mae77968aa5" y="228.14"/>

      </g>

     </g>

     <g id="text_1">

      <!-- 0 -->

      <defs>

       <path d="M 31.78125 66.40625 

Q 24.171875 66.40625 20.328125 58.90625 

Q 16.5 51.421875 16.5 36.375 

Q 16.5 21.390625 20.328125 13.890625 

Q 24.171875 6.390625 31.78125 6.390625 

Q 39.453125 6.390625 43.28125 13.890625 

Q 47.125 21.390625 47.125 36.375 

Q 47.125 51.421875 43.28125 58.90625 

Q 39.453125 66.40625 31.78125 66.40625 

z

M 31.78125 74.21875 

Q 44.046875 74.21875 50.515625 64.515625 

Q 56.984375 54.828125 56.984375 36.375 

Q 56.984375 17.96875 50.515625 8.265625 

Q 44.046875 -1.421875 31.78125 -1.421875 

Q 19.53125 -1.421875 13.0625 8.265625 

Q 6.59375 17.96875 6.59375 36.375 

Q 6.59375 54.828125 13.0625 64.515625 

Q 19.53125 74.21875 31.78125 74.21875 

z

" id="DejaVuSans-30"/>

      </defs>

      <g transform="translate(56.882244 242.738437)scale(0.1 -0.1)">

       <use xlink:href="#DejaVuSans-30"/>

      </g>

     </g>

    </g>

    <g id="xtick_2">

     <g id="line2d_2">

      <g>

       <use style="stroke:#000000;stroke-width:0.8;" x="120.936222" xlink:href="#mae77968aa5" y="228.14"/>

      </g>

     </g>

     <g id="text_2">

      <!-- 2 -->

      <defs>

       <path d="M 19.1875 8.296875 

L 53.609375 8.296875 

L 53.609375 0 

L 7.328125 0 

L 7.328125 8.296875 

Q 12.9375 14.109375 22.625 23.890625 

Q 32.328125 33.6875 34.8125 36.53125 

Q 39.546875 41.84375 41.421875 45.53125 

Q 43.3125 49.21875 43.3125 52.78125 

Q 43.3125 58.59375 39.234375 62.25 

Q 35.15625 65.921875 28.609375 65.921875 

Q 23.96875 65.921875 18.8125 64.3125 

Q 13.671875 62.703125 7.8125 59.421875 

L 7.8125 69.390625 

Q 13.765625 71.78125 18.9375 73 

Q 24.125 74.21875 28.421875 74.21875 

Q 39.75 74.21875 46.484375 68.546875 

Q 53.21875 62.890625 53.21875 53.421875 

Q 53.21875 48.921875 51.53125 44.890625 

Q 49.859375 40.875 45.40625 35.40625 

Q 44.1875 33.984375 37.640625 27.21875 

Q 31.109375 20.453125 19.1875 8.296875 

z

" id="DejaVuSans-32"/>

      </defs>

      <g transform="translate(117.754972 242.738437)scale(0.1 -0.1)">

       <use xlink:href="#DejaVuSans-32"/>

      </g>

     </g>

    </g>

    <g id="xtick_3">

     <g id="line2d_3">

      <g>

       <use style="stroke:#000000;stroke-width:0.8;" x="181.808949" xlink:href="#mae77968aa5" y="228.14"/>

      </g>

     </g>

     <g id="text_3">

      <!-- 4 -->

      <defs>

       <path d="M 37.796875 64.3125 

L 12.890625 25.390625 

L 37.796875 25.390625 

z

M 35.203125 72.90625 

L 47.609375 72.90625 

L 47.609375 25.390625 

L 58.015625 25.390625 

L 58.015625 17.1875 

L 47.609375 17.1875 

L 47.609375 0 

L 37.796875 0 

L 37.796875 17.1875 

L 4.890625 17.1875 

L 4.890625 26.703125 

z

" id="DejaVuSans-34"/>

      </defs>

      <g transform="translate(178.627699 242.738437)scale(0.1 -0.1)">

       <use xlink:href="#DejaVuSans-34"/>

      </g>

     </g>

    </g>

    <g id="xtick_4">

     <g id="line2d_4">

      <g>

       <use style="stroke:#000000;stroke-width:0.8;" x="242.681676" xlink:href="#mae77968aa5" y="228.14"/>

      </g>

     </g>

     <g id="text_4">

      <!-- 6 -->

      <defs>

       <path d="M 33.015625 40.375 

Q 26.375 40.375 22.484375 35.828125 

Q 18.609375 31.296875 18.609375 23.390625 

Q 18.609375 15.53125 22.484375 10.953125 

Q 26.375 6.390625 33.015625 6.390625 

Q 39.65625 6.390625 43.53125 10.953125 

Q 47.40625 15.53125 47.40625 23.390625 

Q 47.40625 31.296875 43.53125 35.828125 

Q 39.65625 40.375 33.015625 40.375 

z

M 52.59375 71.296875 

L 52.59375 62.3125 

Q 48.875 64.0625 45.09375 64.984375 

Q 41.3125 65.921875 37.59375 65.921875 

Q 27.828125 65.921875 22.671875 59.328125 

Q 17.53125 52.734375 16.796875 39.40625 

Q 19.671875 43.65625 24.015625 45.921875 

Q 28.375 48.1875 33.59375 48.1875 

Q 44.578125 48.1875 50.953125 41.515625 

Q 57.328125 34.859375 57.328125 23.390625 

Q 57.328125 12.15625 50.6875 5.359375 

Q 44.046875 -1.421875 33.015625 -1.421875 

Q 20.359375 -1.421875 13.671875 8.265625 

Q 6.984375 17.96875 6.984375 36.375 

Q 6.984375 53.65625 15.1875 63.9375 

Q 23.390625 74.21875 37.203125 74.21875 

Q 40.921875 74.21875 44.703125 73.484375 

Q 48.484375 72.75 52.59375 71.296875 

z

" id="DejaVuSans-36"/>

      </defs>

      <g transform="translate(239.500426 242.738437)scale(0.1 -0.1)">

       <use xlink:href="#DejaVuSans-36"/>

      </g>

     </g>

    </g>

    <g id="xtick_5">

     <g id="line2d_5">

      <g>

       <use style="stroke:#000000;stroke-width:0.8;" x="303.554403" xlink:href="#mae77968aa5" y="228.14"/>

      </g>

     </g>

     <g id="text_5">

      <!-- 8 -->

      <defs>

       <path d="M 31.78125 34.625 

Q 24.75 34.625 20.71875 30.859375 

Q 16.703125 27.09375 16.703125 20.515625 

Q 16.703125 13.921875 20.71875 10.15625 

Q 24.75 6.390625 31.78125 6.390625 

Q 38.8125 6.390625 42.859375 10.171875 

Q 46.921875 13.96875 46.921875 20.515625 

Q 46.921875 27.09375 42.890625 30.859375 

Q 38.875 34.625 31.78125 34.625 

z

M 21.921875 38.8125 

Q 15.578125 40.375 12.03125 44.71875 

Q 8.5 49.078125 8.5 55.328125 

Q 8.5 64.0625 14.71875 69.140625 

Q 20.953125 74.21875 31.78125 74.21875 

Q 42.671875 74.21875 48.875 69.140625 

Q 55.078125 64.0625 55.078125 55.328125 

Q 55.078125 49.078125 51.53125 44.71875 

Q 48 40.375 41.703125 38.8125 

Q 48.828125 37.15625 52.796875 32.3125 

Q 56.78125 27.484375 56.78125 20.515625 

Q 56.78125 9.90625 50.3125 4.234375 

Q 43.84375 -1.421875 31.78125 -1.421875 

Q 19.734375 -1.421875 13.25 4.234375 

Q 6.78125 9.90625 6.78125 20.515625 

Q 6.78125 27.484375 10.78125 32.3125 

Q 14.796875 37.15625 21.921875 38.8125 

z

M 18.3125 54.390625 

Q 18.3125 48.734375 21.84375 45.5625 

Q 25.390625 42.390625 31.78125 42.390625 

Q 38.140625 42.390625 41.71875 45.5625 

Q 45.3125 48.734375 45.3125 54.390625 

Q 45.3125 60.0625 41.71875 63.234375 

Q 38.140625 66.40625 31.78125 66.40625 

Q 25.390625 66.40625 21.84375 63.234375 

Q 18.3125 60.0625 18.3125 54.390625 

z

" id="DejaVuSans-38"/>

      </defs>

      <g transform="translate(300.373153 242.738437)scale(0.1 -0.1)">

       <use xlink:href="#DejaVuSans-38"/>

      </g>

     </g>

    </g>

    <g id="xtick_6">

     <g id="line2d_6">

      <g>

       <use style="stroke:#000000;stroke-width:0.8;" x="364.427131" xlink:href="#mae77968aa5" y="228.14"/>

      </g>

     </g>

     <g id="text_6">

      <!-- 10 -->

      <defs>

       <path d="M 12.40625 8.296875 

L 28.515625 8.296875 

L 28.515625 63.921875 

L 10.984375 60.40625 

L 10.984375 69.390625 

L 28.421875 72.90625 

L 38.28125 72.90625 

L 38.28125 8.296875 

L 54.390625 8.296875 

L 54.390625 0 

L 12.40625 0 

z

" id="DejaVuSans-31"/>

      </defs>

      <g transform="translate(358.064631 242.738437)scale(0.1 -0.1)">

       <use xlink:href="#DejaVuSans-31"/>

       <use x="63.623047" xlink:href="#DejaVuSans-30"/>

      </g>

     </g>

    </g>

   </g>

   <g id="matplotlib.axis_2">

    <g id="ytick_1">

     <g id="line2d_7">

      <defs>

       <path d="M 0 0 

L -3.5 0 

" id="m01db669c34" style="stroke:#000000;stroke-width:0.8;"/>

      </defs>

      <g>

       <use style="stroke:#000000;stroke-width:0.8;" x="44.845313" xlink:href="#m01db669c34" y="218.242915"/>

      </g>

     </g>

     <g id="text_7">

      <!-- −0.15 -->

      <defs>

       <path d="M 10.59375 35.5 

L 73.1875 35.5 

L 73.1875 27.203125 

L 10.59375 27.203125 

z

" id="DejaVuSans-2212"/>

       <path d="M 10.6875 12.40625 

L 21 12.40625 

L 21 0 

L 10.6875 0 

z

" id="DejaVuSans-2e"/>

       <path d="M 10.796875 72.90625 

L 49.515625 72.90625 

L 49.515625 64.59375 

L 19.828125 64.59375 

L 19.828125 46.734375 

Q 21.96875 47.46875 24.109375 47.828125 

Q 26.265625 48.1875 28.421875 48.1875 

Q 40.625 48.1875 47.75 41.5 

Q 54.890625 34.8125 54.890625 23.390625 

Q 54.890625 11.625 47.5625 5.09375 

Q 40.234375 -1.421875 26.90625 -1.421875 

Q 22.3125 -1.421875 17.546875 -0.640625 

Q 12.796875 0.140625 7.71875 1.703125 

L 7.71875 11.625 

Q 12.109375 9.234375 16.796875 8.0625 

Q 21.484375 6.890625 26.703125 6.890625 

Q 35.15625 6.890625 40.078125 11.328125 

Q 45.015625 15.765625 45.015625 23.390625 

Q 45.015625 31 40.078125 35.4375 

Q 35.15625 39.890625 26.703125 39.890625 

Q 22.75 39.890625 18.8125 39.015625 

Q 14.890625 38.140625 10.796875 36.28125 

z

" id="DejaVuSans-35"/>

      </defs>

      <g transform="translate(7.2 222.042134)scale(0.1 -0.1)">

       <use xlink:href="#DejaVuSans-2212"/>

       <use x="83.789062" xlink:href="#DejaVuSans-30"/>

       <use x="147.412109" xlink:href="#DejaVuSans-2e"/>

       <use x="179.199219" xlink:href="#DejaVuSans-31"/>

       <use x="242.822266" xlink:href="#DejaVuSans-35"/>

      </g>

     </g>

    </g>

    <g id="ytick_2">

     <g id="line2d_8">

      <g>

       <use style="stroke:#000000;stroke-width:0.8;" x="44.845313" xlink:href="#m01db669c34" y="194.046924"/>

      </g>

     </g>

     <g id="text_8">

      <!-- −0.10 -->

      <g transform="translate(7.2 197.846142)scale(0.1 -0.1)">

       <use xlink:href="#DejaVuSans-2212"/>

       <use x="83.789062" xlink:href="#DejaVuSans-30"/>

       <use x="147.412109" xlink:href="#DejaVuSans-2e"/>

       <use x="179.199219" xlink:href="#DejaVuSans-31"/>

       <use x="242.822266" xlink:href="#DejaVuSans-30"/>

      </g>

     </g>

    </g>

    <g id="ytick_3">

     <g id="line2d_9">

      <g>

       <use style="stroke:#000000;stroke-width:0.8;" x="44.845313" xlink:href="#m01db669c34" y="169.850932"/>

      </g>

     </g>

     <g id="text_9">

      <!-- −0.05 -->

      <g transform="translate(7.2 173.650151)scale(0.1 -0.1)">

       <use xlink:href="#DejaVuSans-2212"/>

       <use x="83.789062" xlink:href="#DejaVuSans-30"/>

       <use x="147.412109" xlink:href="#DejaVuSans-2e"/>

       <use x="179.199219" xlink:href="#DejaVuSans-30"/>

       <use x="242.822266" xlink:href="#DejaVuSans-35"/>

      </g>

     </g>

    </g>

    <g id="ytick_4">

     <g id="line2d_10">

      <g>

       <use style="stroke:#000000;stroke-width:0.8;" x="44.845313" xlink:href="#m01db669c34" y="145.65494"/>

      </g>

     </g>

     <g id="text_10">

      <!-- 0.00 -->

      <g transform="translate(15.579688 149.454159)scale(0.1 -0.1)">

       <use xlink:href="#DejaVuSans-30"/>

       <use x="63.623047" xlink:href="#DejaVuSans-2e"/>

       <use x="95.410156" xlink:href="#DejaVuSans-30"/>

       <use x="159.033203" xlink:href="#DejaVuSans-30"/>

      </g>

     </g>

    </g>

    <g id="ytick_5">

     <g id="line2d_11">

      <g>

       <use style="stroke:#000000;stroke-width:0.8;" x="44.845313" xlink:href="#m01db669c34" y="121.458948"/>

      </g>

     </g>

     <g id="text_11">

      <!-- 0.05 -->

      <g transform="translate(15.579688 125.258167)scale(0.1 -0.1)">

       <use xlink:href="#DejaVuSans-30"/>

       <use x="63.623047" xlink:href="#DejaVuSans-2e"/>

       <use x="95.410156" xlink:href="#DejaVuSans-30"/>

       <use x="159.033203" xlink:href="#DejaVuSans-35"/>

      </g>

     </g>

    </g>

    <g id="ytick_6">

     <g id="line2d_12">

      <g>

       <use style="stroke:#000000;stroke-width:0.8;" x="44.845313" xlink:href="#m01db669c34" y="97.262957"/>

      </g>

     </g>

     <g id="text_12">

      <!-- 0.10 -->

      <g transform="translate(15.579688 101.062175)scale(0.1 -0.1)">

       <use xlink:href="#DejaVuSans-30"/>

       <use x="63.623047" xlink:href="#DejaVuSans-2e"/>

       <use x="95.410156" xlink:href="#DejaVuSans-31"/>

       <use x="159.033203" xlink:href="#DejaVuSans-30"/>

      </g>

     </g>

    </g>

    <g id="ytick_7">

     <g id="line2d_13">

      <g>

       <use style="stroke:#000000;stroke-width:0.8;" x="44.845313" xlink:href="#m01db669c34" y="73.066965"/>

      </g>

     </g>

     <g id="text_13">

      <!-- 0.15 -->

      <g transform="translate(15.579688 76.866184)scale(0.1 -0.1)">

       <use xlink:href="#DejaVuSans-30"/>

       <use x="63.623047" xlink:href="#DejaVuSans-2e"/>

       <use x="95.410156" xlink:href="#DejaVuSans-31"/>

       <use x="159.033203" xlink:href="#DejaVuSans-35"/>

      </g>

     </g>

    </g>

    <g id="ytick_8">

     <g id="line2d_14">

      <g>

       <use style="stroke:#000000;stroke-width:0.8;" x="44.845313" xlink:href="#m01db669c34" y="48.870973"/>

      </g>

     </g>

     <g id="text_14">

      <!-- 0.20 -->

      <g transform="translate(15.579688 52.670192)scale(0.1 -0.1)">

       <use xlink:href="#DejaVuSans-30"/>

       <use x="63.623047" xlink:href="#DejaVuSans-2e"/>

       <use x="95.410156" xlink:href="#DejaVuSans-32"/>

       <use x="159.033203" xlink:href="#DejaVuSans-30"/>

      </g>

     </g>

    </g>

    <g id="ytick_9">

     <g id="line2d_15">

      <g>

       <use style="stroke:#000000;stroke-width:0.8;" x="44.845313" xlink:href="#m01db669c34" y="24.674981"/>

      </g>

     </g>

     <g id="text_15">

      <!-- 0.25 -->

      <g transform="translate(15.579688 28.4742)scale(0.1 -0.1)">

       <use xlink:href="#DejaVuSans-30"/>

       <use x="63.623047" xlink:href="#DejaVuSans-2e"/>

       <use x="95.410156" xlink:href="#DejaVuSans-32"/>

       <use x="159.033203" xlink:href="#DejaVuSans-35"/>

      </g>

     </g>

    </g>

   </g>

   <g id="line2d_16">

    <path clip-path="url(#pb8f8770469)" d="M 60.063494 145.994289 

L 60.672831 165.026975 

L 60.977499 161.44092 

L 61.586836 150.520573 

L 62.196172 132.640703 

L 62.500841 130.620417 

L 63.110177 124.00384 

L 63.414846 125.203505 

L 63.719514 128.70304 

L 64.024182 133.882011 

L 64.328851 135.510012 

L 64.633519 136.057779 

L 64.938187 130.299883 

L 65.242855 128.398321 

L 65.547524 133.191494 

L 65.852192 126.776256 

L 66.15686 133.913068 

L 66.461529 129.880945 

L 66.766197 131.6965 

L 67.070865 134.393545 

L 67.375534 126.231992 

L 67.680202 124.096962 

L 67.98487 124.704677 

L 68.289539 112.437236 

L 68.594207 112.717941 

L 69.203543 122.803111 

L 69.508212 117.680306 

L 69.81288 109.747589 

L 70.117548 112.232907 

L 70.422217 109.425558 

L 70.726885 109.690781 

L 71.031553 114.270994 

L 71.336222 113.812781 

L 71.64089 117.253171 

L 71.945558 119.080369 

L 72.250227 115.729767 

L 72.554895 116.293162 

L 72.859563 116.426023 

L 73.164231 111.821949 

L 73.4689 113.942926 

L 73.773568 119.733272 

L 74.078236 113.670209 

L 74.382905 112.227855 

L 74.687573 105.602079 

L 74.992241 105.76466 

L 75.29691 108.286078 

L 75.601578 108.593409 

L 75.906246 111.660326 

L 76.210914 109.561043 

L 76.515583 109.195628 

L 76.820251 103.890768 

L 77.429588 125.61781 

L 77.734256 127.645558 

L 78.038924 133.427365 

L 78.343593 129.72399 

L 78.648261 129.107821 

L 78.952929 124.922823 

L 79.257598 124.434693 

L 79.562266 137.52389 

L 79.866934 142.126189 

L 80.171602 149.252588 

L 80.476271 149.04108 

L 80.780939 148.641223 

L 81.085607 138.910453 

L 81.390276 142.238132 

L 81.694944 137.058362 

L 81.999612 135.167714 

L 82.304281 132.536773 

L 82.608949 127.958159 

L 82.913617 125.949809 

L 83.218285 132.010451 

L 83.827622 127.863908 

L 84.13229 127.287184 

L 84.436959 128.340461 

L 84.741627 125.280301 

L 85.046295 119.447315 

L 85.350964 130.741574 

L 85.655632 133.989792 

L 85.9603 135.39434 

L 86.264969 130.662165 

L 86.569637 136.617314 

L 86.874305 133.528928 

L 87.178973 126.556445 

L 87.483642 133.405056 

L 87.78831 129.670561 

L 88.092978 124.416457 

L 88.397647 124.76569 

L 88.702315 116.101017 

L 89.006983 115.029042 

L 89.61632 111.143541 

L 89.920988 108.254753 

L 90.225656 93.744181 

L 90.530325 100.114782 

L 90.834993 101.716312 

L 91.139661 102.298282 

L 91.44433 108.797389 

L 91.748998 110.705665 

L 92.053666 111.788496 

L 92.358335 116.686915 

L 92.663003 111.395705 

L 92.967671 100.766228 

L 93.27234 105.423402 

L 93.577008 103.433109 

L 93.881676 106.893681 

L 94.186344 108.28218 

L 94.491013 106.963715 

L 95.100349 111.361686 

L 95.405018 108.331028 

L 95.709686 112.581992 

L 96.319023 129.543114 

L 96.623691 127.908653 

L 96.928359 131.708584 

L 97.233027 137.679801 

L 97.842364 144.325082 

L 98.147032 146.483584 

L 98.451701 136.525406 

L 98.756369 140.511855 

L 99.061037 146.127183 

L 99.365706 143.897992 

L 99.670374 140.242154 

L 99.975042 142.273573 

L 100.279711 150.531296 

L 100.584379 152.79942 

L 100.889047 157.066562 

L 101.193715 155.679011 

L 101.498384 149.611365 

L 102.10772 151.540059 

L 102.412389 159.103959 

L 102.717057 156.920699 

L 103.021725 153.912188 

L 103.326394 153.548993 

L 103.631062 151.650021 

L 103.93573 153.466735 

L 104.240398 139.622585 

L 104.545067 132.106944 

L 104.849735 131.901124 

L 105.154403 132.799254 

L 105.459072 126.452646 

L 105.76374 136.121168 

L 106.068408 136.795175 

L 106.373077 139.571334 

L 107.287082 156.896627 

L 107.59175 148.734795 

L 107.896418 149.408678 

L 108.201086 142.446064 

L 108.505755 149.581255 

L 109.115091 150.630424 

L 109.41976 142.969947 

L 109.724428 140.37546 

L 110.029096 145.78834 

L 110.333765 145.158603 

L 110.638433 145.799208 

L 111.24777 150.930848 

L 111.552438 157.631674 

L 111.857106 151.190936 

L 112.161774 164.279203 

L 112.466443 164.257196 

L 112.771111 160.091877 

L 113.075779 165.533678 

L 113.685116 154.566111 

L 113.989784 164.242255 

L 114.294453 159.950915 

L 114.599121 163.344584 

L 114.903789 161.222218 

L 115.513126 181.80446 

L 116.122462 192.722876 

L 116.427131 195.002663 

L 116.731799 190.183401 

L 117.036467 193.904605 

L 117.341136 191.793217 

L 117.645804 193.606498 

L 117.950472 197.710432 

L 118.255141 191.640724 

L 118.559809 190.355164 

L 118.864477 179.598273 

L 119.169145 188.366738 

L 119.473814 192.90168 

L 119.778482 199.803764 

L 120.08315 198.895504 

L 120.387819 203.796104 

L 120.692487 213.813588 

L 120.997155 214.202289 

L 121.301824 218.055706 

L 121.606492 218.256364 

L 122.215828 204.215747 

L 122.520497 208.146022 

L 122.825165 208.942489 

L 123.129833 204.49796 

L 123.434502 209.396779 

L 123.73917 211.217803 

L 124.043838 211.924598 

L 124.348507 210.854367 

L 124.653175 205.433539 

L 124.957843 205.526041 

L 125.262512 202.097094 

L 125.56718 194.888011 

L 125.871848 195.221608 

L 126.176516 184.796642 

L 126.481185 182.378592 

L 126.785853 184.710998 

L 127.090521 190.649064 

L 127.699858 180.706743 

L 128.004526 179.941585 

L 128.613863 171.190757 

L 128.918531 171.020701 

L 129.223199 180.614148 

L 129.527868 179.288288 

L 129.832536 173.312422 

L 130.137204 169.573861 

L 130.441873 168.328437 

L 130.746541 165.439686 

L 131.051209 164.103387 

L 131.355878 169.052258 

L 131.660546 160.373597 

L 131.965214 159.677166 

L 132.269883 155.052782 

L 132.879219 137.914897 

L 133.183887 135.943765 

L 133.488556 131.79797 

L 134.402561 139.800665 

L 134.707229 124.400568 

L 135.011897 125.449458 

L 135.316566 124.296673 

L 135.621234 125.26404 

L 135.925902 117.802162 

L 136.23057 114.921286 

L 136.535239 117.553181 

L 136.839907 123.44928 

L 137.144575 118.456184 

L 137.449244 120.061065 

L 138.05858 128.650561 

L 138.363249 128.701396 

L 138.667917 145.011608 

L 138.972585 142.683797 

L 139.277254 151.946266 

L 139.581922 150.03468 

L 139.88659 142.084351 

L 140.191258 137.987752 

L 140.800595 133.694971 

L 141.105263 130.570672 

L 141.409932 131.122927 

L 142.019268 126.86999 

L 142.323937 121.401277 

L 142.628605 121.999081 

L 142.933273 124.655022 

L 143.237941 121.923023 

L 143.847278 119.07829 

L 144.151946 115.721817 

L 144.456615 116.955321 

L 144.761283 109.279296 

L 145.065951 114.093204 

L 145.37062 110.645242 

L 145.675288 112.063765 

L 145.979956 106.714368 

L 146.284625 94.766425 

L 146.589293 90.722079 

L 146.893961 90.658815 

L 147.503298 74.954743 

L 147.807966 66.66857 

L 148.112634 63.224995 

L 148.417303 62.834653 

L 149.026639 75.183489 

L 149.635976 81.005294 

L 150.245313 75.639422 

L 150.549981 76.387729 

L 150.854649 76.193231 

L 151.159317 78.532342 

L 151.463986 74.666239 

L 151.768654 77.217273 

L 152.073322 66.143387 

L 152.377991 61.518427 

L 152.682659 72.15346 

L 153.291996 80.486937 

L 153.596664 80.495801 

L 153.901332 79.787323 

L 154.206 85.736676 

L 154.815337 74.766188 

L 155.120005 82.209203 

L 155.424674 86.538057 

L 155.729342 84.221419 

L 156.03401 94.942252 

L 156.338679 92.529663 

L 156.643347 94.008429 

L 156.948015 92.543261 

L 157.252684 88.964907 

L 157.86202 98.942005 

L 158.166688 98.875801 

L 158.471357 97.837976 

L 158.776025 97.246514 

L 159.080693 87.253041 

L 159.385362 93.863075 

L 159.69003 97.114091 

L 159.994698 99.01429 

L 160.604035 81.018724 

L 161.213371 76.148602 

L 161.51804 84.374986 

L 162.432045 98.095693 

L 163.041381 96.407604 

L 163.34605 99.209987 

L 163.650718 104.754953 

L 163.955386 96.733041 

L 164.260055 97.119242 

L 164.564723 99.693692 

L 165.174059 87.91437 

L 165.478728 92.623816 

L 165.783396 100.464158 

L 166.392733 104.684109 

L 166.697401 105.118413 

L 167.002069 101.357817 

L 167.306738 94.304634 

L 167.611406 100.881441 

L 167.916074 102.053586 

L 168.220742 102.400779 

L 168.525411 110.053298 

L 168.830079 108.1516 

L 169.134747 111.107311 

L 169.744084 101.672315 

L 170.048752 100.515039 

L 170.353421 104.12266 

L 170.658089 91.822183 

L 170.962757 92.226821 

L 171.267426 91.905488 

L 171.572094 101.689129 

L 171.876762 101.368385 

L 172.18143 97.394443 

L 172.486099 100.099218 

L 172.790767 99.098444 

L 173.095435 98.788655 

L 173.400104 94.017505 

L 173.704772 98.375829 

L 174.00944 94.398232 

L 174.314109 93.727603 

L 174.618777 89.108471 

L 174.923445 89.363086 

L 175.228113 88.027745 

L 175.532782 82.218209 

L 176.142118 95.056445 

L 176.446787 94.715127 

L 177.056123 86.502948 

L 177.360792 90.549449 

L 177.66546 90.57669 

L 178.274797 72.983275 

L 178.579465 84.591116 

L 178.884133 78.167391 

L 179.188801 78.136079 

L 179.49347 81.273892 

L 179.798138 76.50583 

L 180.102806 83.052422 

L 180.407475 78.619966 

L 180.712143 77.188033 

L 181.32148 62.609212 

L 181.626148 62.632148 

L 181.930816 64.072787 

L 182.235484 68.945162 

L 182.540153 67.366253 

L 182.844821 68.480982 

L 183.149489 67.031536 

L 183.454158 68.561523 

L 183.758826 68.27728 

L 184.063494 57.74862 

L 184.368163 53.983699 

L 184.977499 60.181319 

L 185.282168 69.397521 

L 185.586836 64.475713 

L 185.891504 65.613204 

L 186.196172 61.653646 

L 186.500841 65.570009 

L 187.110177 51.338729 

L 187.414846 45.374416 

L 187.719514 47.779532 

L 188.024182 56.491848 

L 188.328851 56.225925 

L 188.633519 60.369964 

L 188.938187 51.020833 

L 189.852192 33.493499 

L 190.15686 35.27351 

L 190.461529 38.182572 

L 190.766197 33.66702 

L 191.070865 31.584084 

L 191.680202 23.14327 

L 191.98487 20.583636 

L 192.594207 21.742828 

L 192.898875 27.322063 

L 193.203543 28.899301 

L 193.508212 32.690113 

L 193.81288 26.021703 

L 194.117548 30.187964 

L 194.422217 30.963463 

L 194.726885 31.253706 

L 195.031553 38.486757 

L 195.336222 37.176375 

L 195.64089 39.683075 

L 195.945558 35.809514 

L 196.250227 41.643028 

L 196.554895 39.221484 

L 196.859563 48.247089 

L 197.164231 45.743085 

L 197.4689 50.577382 

L 198.078236 47.307044 

L 198.382905 45.566083 

L 198.687573 36.724408 

L 198.992241 34.403136 

L 199.601578 49.365483 

L 199.906246 49.998597 

L 200.210914 54.285853 

L 200.515583 56.303741 

L 200.820251 55.735294 

L 201.124919 66.951772 

L 201.429588 73.570673 

L 201.734256 72.090876 

L 202.038924 69.890434 

L 202.648261 72.912186 

L 202.952929 72.856442 

L 203.257598 78.614978 

L 203.562266 82.190707 

L 203.866934 76.485493 

L 204.171602 80.596021 

L 204.476271 73.313895 

L 204.780939 80.436455 

L 205.085607 80.056616 

L 205.694944 87.921711 

L 205.999612 95.945044 

L 206.304281 97.53924 

L 206.608949 110.266366 

L 206.913617 112.616629 

L 207.218285 113.930888 

L 207.827622 110.96181 

L 208.13229 115.939616 

L 208.436959 118.049261 

L 208.741627 122.227584 

L 209.046295 113.807349 

L 209.655632 121.29022 

L 210.264969 142.447756 

L 210.569637 143.705912 

L 211.178973 128.507732 

L 211.483642 132.550229 

L 211.78831 127.954482 

L 212.092978 133.452865 

L 212.397647 120.069169 

L 212.702315 121.659226 

L 213.006983 121.136181 

L 213.311652 122.854348 

L 213.61632 120.264775 

L 213.920988 119.96136 

L 214.225656 124.504183 

L 214.530325 126.166454 

L 215.139661 119.647941 

L 215.44433 127.684416 

L 215.748998 130.731937 

L 216.053666 126.880584 

L 216.663003 124.573689 

L 216.967671 117.139788 

L 217.27234 116.814174 

L 217.577008 115.109779 

L 217.881676 118.091887 

L 218.186344 126.471101 

L 218.491013 126.939557 

L 218.795681 120.34396 

L 219.100349 120.162061 

L 219.405018 126.248942 

L 219.709686 124.048698 

L 220.014354 134.708077 

L 220.319023 138.128742 

L 220.623691 137.457786 

L 220.928359 139.976465 

L 221.233027 136.094126 

L 221.537696 135.38521 

L 221.842364 140.578402 

L 222.147032 140.711658 

L 222.451701 138.776049 

L 223.061037 132.260658 

L 223.365706 123.229907 

L 223.670374 120.919693 

L 223.975042 126.112482 

L 224.584379 116.709584 

L 224.889047 119.140941 

L 225.193715 115.384722 

L 225.498384 115.559505 

L 225.803052 112.233143 

L 226.10772 120.10412 

L 226.412389 119.765525 

L 226.717057 117.941888 

L 227.021725 122.45336 

L 227.326394 122.222246 

L 227.631062 117.503478 

L 227.93573 127.137196 

L 228.240398 126.558607 

L 228.849735 122.916346 

L 229.154403 117.317932 

L 229.459072 123.263032 

L 229.76374 124.463043 

L 230.068408 124.506389 

L 230.373077 120.732903 

L 230.677745 119.136354 

L 230.982413 114.620322 

L 231.896418 120.162212 

L 232.810423 102.502423 

L 233.41976 100.317572 

L 233.724428 101.40993 

L 234.029096 106.530652 

L 234.333765 103.914548 

L 234.638433 97.949263 

L 234.943101 96.185304 

L 235.24777 100.752979 

L 235.552438 103.305112 

L 235.857106 103.772323 

L 236.161774 107.19102 

L 236.466443 100.851019 

L 236.771111 103.872499 

L 237.075779 101.297519 

L 237.380448 96.946411 

L 237.685116 97.354838 

L 237.989784 101.846285 

L 238.294453 102.105983 

L 238.599121 93.331153 

L 238.903789 96.442632 

L 239.208457 95.419977 

L 239.513126 96.582388 

L 239.817794 91.67705 

L 240.122462 89.822955 

L 240.427131 94.689512 

L 240.731799 91.659041 

L 241.036467 92.082163 

L 241.341136 85.589737 

L 241.645804 87.578309 

L 241.950472 87.646656 

L 242.255141 91.233303 

L 242.559809 81.160385 

L 242.864477 84.887839 

L 243.169145 86.816516 

L 243.473814 90.084225 

L 243.778482 94.729378 

L 244.08315 96.382648 

L 244.387819 102.931253 

L 244.692487 93.900581 

L 245.301824 92.618765 

L 245.606492 95.437087 

L 245.91116 87.021808 

L 246.215828 82.167607 

L 246.520497 87.415258 

L 246.825165 89.782891 

L 247.434502 83.504318 

L 248.043838 97.93299 

L 248.348507 97.327394 

L 248.653175 98.107151 

L 248.957843 91.830026 

L 249.262512 94.196659 

L 249.871848 96.770159 

L 250.176516 104.136368 

L 250.785853 87.175893 

L 252.004526 97.826699 

L 252.309195 87.125065 

L 252.918531 90.093649 

L 253.223199 83.508993 

L 253.527868 84.217466 

L 254.137204 94.517443 

L 254.441873 95.630847 

L 255.051209 108.711923 

L 255.355878 108.454077 

L 255.660546 111.684876 

L 255.965214 106.076379 

L 256.574551 107.952026 

L 256.879219 101.913235 

L 257.183887 100.71168 

L 257.488556 94.046031 

L 257.793224 98.014661 

L 258.097892 94.478215 

L 258.402561 92.616724 

L 258.707229 99.360598 

L 259.011897 101.824263 

L 259.316566 100.916411 

L 259.621234 94.770893 

L 259.925902 94.499831 

L 260.23057 90.369512 

L 260.535239 87.808072 

L 260.839907 94.193657 

L 261.144575 95.972319 

L 261.449244 98.54021 

L 261.753912 105.135511 

L 262.05858 102.856502 

L 262.363249 105.062754 

L 262.667917 106.199586 

L 262.972585 110.879576 

L 263.277254 118.121597 

L 263.581922 116.233468 

L 263.88659 111.229629 

L 264.191258 111.777829 

L 264.495927 115.820104 

L 264.800595 117.261082 

L 265.105263 115.07699 

L 266.019268 102.598057 

L 266.323937 104.151557 

L 266.628605 101.185787 

L 267.237941 84.994696 

L 267.54261 85.338455 

L 267.847278 87.322765 

L 268.151946 93.191638 

L 268.456615 89.297297 

L 268.761283 97.817102 

L 269.065951 83.724919 

L 269.37062 78.925457 

L 269.675288 81.68196 

L 269.979956 76.048918 

L 270.284625 77.868277 

L 270.589293 75.279968 

L 270.893961 71.115765 

L 271.198629 73.207407 

L 271.503298 77.210561 

L 271.807966 72.868132 

L 272.112634 77.683292 

L 272.417303 77.953034 

L 273.026639 67.216805 

L 273.331308 68.391098 

L 273.940644 72.341836 

L 274.245313 62.87598 

L 274.549981 67.429555 

L 274.854649 68.15177 

L 275.463986 83.540208 

L 276.073322 67.777678 

L 276.377991 71.068794 

L 276.987327 62.503539 

L 277.291996 56.585091 

L 277.596664 60.835799 

L 277.901332 71.892914 

L 278.206 74.6793 

L 278.510669 70.188335 

L 278.815337 73.864174 

L 279.120005 73.579923 

L 279.729342 75.409576 

L 280.03401 74.232179 

L 280.338679 73.962217 

L 280.643347 79.651985 

L 280.948015 80.532069 

L 281.252684 81.811842 

L 281.86202 91.162211 

L 282.166688 97.640915 

L 282.471357 97.858914 

L 282.776025 101.219366 

L 283.385362 110.196401 

L 283.69003 107.12314 

L 283.994698 110.665103 

L 284.299367 118.455123 

L 284.604035 120.81402 

L 284.908703 126.648311 

L 285.213371 128.552145 

L 285.822708 139.111071 

L 286.127376 135.563135 

L 286.432045 136.07701 

L 286.736713 137.304504 

L 287.041381 139.675235 

L 287.34605 138.547886 

L 287.650718 142.896608 

L 287.955386 141.476091 

L 288.260055 144.853963 

L 288.564723 152.34409 

L 288.869391 155.413234 

L 289.174059 147.169259 

L 289.478728 146.671361 

L 289.783396 150.491482 

L 290.088064 151.145642 

L 290.392733 148.392422 

L 290.697401 153.538081 

L 291.002069 153.579786 

L 291.306738 145.332735 

L 291.611406 148.292883 

L 291.916074 142.26882 

L 292.220742 145.548753 

L 292.525411 146.684331 

L 292.830079 156.099846 

L 293.134747 156.248377 

L 293.439416 146.039345 

L 293.744084 157.094101 

L 294.048752 156.74163 

L 294.353421 150.725972 

L 294.658089 153.493444 

L 295.267426 163.557283 

L 295.572094 161.460639 

L 295.876762 164.763574 

L 296.18143 160.613817 

L 296.486099 154.248663 

L 296.790767 144.72992 

L 297.095435 151.491621 

L 297.400104 152.390665 

L 297.704772 151.800689 

L 298.00944 154.597389 

L 298.314109 151.644789 

L 299.228113 148.080075 

L 299.532782 157.972458 

L 299.83745 161.315509 

L 300.142118 160.085657 

L 300.446787 151.273948 

L 300.751455 154.918496 

L 301.056123 150.749836 

L 301.360792 143.011574 

L 301.66546 139.090472 

L 301.970128 142.121521 

L 302.274797 141.639668 

L 302.579465 140.317875 

L 302.884133 136.793588 

L 303.188801 136.738088 

L 303.49347 138.922853 

L 303.798138 136.721995 

L 304.102806 145.101007 

L 304.407475 140.447072 

L 304.712143 139.403555 

L 305.016811 126.826183 

L 305.32148 131.098436 

L 305.626148 131.653968 

L 305.930816 131.033506 

L 306.235484 128.760997 

L 306.540153 131.245627 

L 306.844821 138.576419 

L 307.149489 130.549959 

L 307.454158 135.49467 

L 307.758826 135.61586 

L 308.063494 136.768889 

L 308.368163 135.636226 

L 308.672831 139.298181 

L 309.282168 142.368422 

L 309.586836 138.333119 

L 309.891504 137.554541 

L 310.196172 135.427099 

L 310.500841 144.494664 

L 310.805509 137.995919 

L 311.110177 144.497656 

L 311.414846 139.170079 

L 311.719514 129.209567 

L 312.024182 133.758658 

L 312.328851 130.035232 

L 312.938187 117.392937 

L 313.242855 119.697998 

L 313.547524 125.149363 

L 313.852192 123.047942 

L 314.15686 128.256866 

L 314.766197 126.303907 

L 315.070865 124.232889 

L 315.375534 123.139077 

L 315.680202 127.902573 

L 315.98487 124.640708 

L 316.289539 128.749514 

L 316.594207 130.316345 

L 316.898875 132.572843 

L 317.203543 131.733306 

L 317.508212 138.715359 

L 317.81288 135.422543 

L 318.726885 149.999138 

L 319.031553 147.985838 

L 319.336222 153.212305 

L 319.64089 151.608106 

L 319.945558 161.965249 

L 320.250227 155.975236 

L 320.554895 159.798182 

L 320.859563 160.301991 

L 321.164231 150.601548 

L 321.773568 154.985131 

L 322.078236 154.368785 

L 322.687573 140.786691 

L 322.992241 137.902829 

L 323.601578 135.191243 

L 323.906246 140.039895 

L 324.210914 137.240569 

L 324.515583 136.02178 

L 324.820251 132.673553 

L 325.124919 125.228588 

L 325.734256 127.870712 

L 326.343593 115.816099 

L 326.648261 122.707179 

L 326.952929 119.320782 

L 327.257598 123.266677 

L 327.562266 124.901548 

L 327.866934 133.725414 

L 328.171602 130.420306 

L 328.476271 136.257427 

L 328.780939 128.456568 

L 329.085607 131.853113 

L 329.390276 142.55928 

L 329.694944 138.423541 

L 330.304281 142.386954 

L 330.913617 145.626389 

L 331.218285 142.287347 

L 331.522954 145.246994 

L 331.827622 139.151695 

L 332.13229 138.067322 

L 332.436959 125.12639 

L 332.741627 127.970338 

L 333.046295 120.393028 

L 333.350964 117.080257 

L 333.655632 111.901603 

L 333.9603 113.66909 

L 334.264969 114.683559 

L 334.569637 112.848763 

L 334.874305 105.43724 

L 335.178973 106.148394 

L 335.483642 113.73344 

L 335.78831 109.892451 

L 336.092978 117.197124 

L 337.006983 122.976671 

L 337.311652 121.429039 

L 337.920988 132.082546 

L 338.530325 118.97559 

L 338.834993 120.998567 

L 339.139661 120.214245 

L 339.44433 121.588124 

L 339.748998 112.994141 

L 340.358335 120.141859 

L 340.663003 122.68321 

L 340.967671 121.04632 

L 341.27234 128.346922 

L 341.577008 129.995128 

L 341.881676 138.711628 

L 342.186344 139.134169 

L 342.491013 141.961328 

L 342.795681 136.057989 

L 343.100349 142.932162 

L 343.405018 144.368563 

L 343.709686 150.876665 

L 344.319023 143.855851 

L 344.623691 144.955569 

L 344.928359 144.700149 

L 345.233027 139.962373 

L 345.537696 146.662082 

L 346.147032 153.882511 

L 346.451701 155.442348 

L 346.756369 147.796226 

L 347.061037 152.710308 

L 347.365706 150.810795 

L 347.670374 148.163092 

L 347.975042 146.972257 

L 348.279711 146.303497 

L 348.584379 153.027531 

L 348.889047 143.604869 

L 349.498384 155.90981 

L 349.803052 154.3009 

L 350.10772 162.466275 

L 350.412389 163.496568 

L 350.717057 156.358757 

L 351.021725 163.386811 

L 351.326394 178.480703 

L 351.631062 184.635385 

L 351.93573 172.81602 

L 352.240398 168.000854 

L 352.545067 168.241082 

L 352.849735 163.480281 

L 353.154403 153.88608 

L 353.459072 150.432283 

L 353.76374 148.820816 

L 354.068408 148.337282 

L 354.373077 154.462521 

L 354.677745 156.818939 

L 355.287082 146.907602 

L 355.896418 150.477448 

L 356.201086 149.225633 

L 356.505755 146.847084 

L 356.810423 152.39231 

L 357.115091 148.373744 

L 357.724428 150.568956 

L 358.029096 153.252261 

L 358.333765 153.264556 

L 358.638433 152.583533 

L 358.943101 150.366051 

L 359.24777 152.64581 

L 359.552438 154.059309 

L 359.857106 150.895239 

L 360.771111 128.857485 

L 361.075779 129.494015 

L 361.380448 129.048337 

L 361.685116 136.261178 

L 361.989784 130.308389 

L 362.294453 132.447934 

L 362.903789 139.659484 

L 363.208457 139.352416 

L 363.513126 145.574457 

L 363.817794 145.268765 

L 364.122462 145.685677 

L 364.427131 144.311668 

L 364.427131 144.311668 

" style="fill:none;stroke:#1f77b4;stroke-linecap:square;stroke-width:1.5;"/>

   </g>

   <g id="patch_3">

    <path d="M 44.845313 228.14 

L 44.845313 10.7 

" style="fill:none;stroke:#000000;stroke-linecap:square;stroke-linejoin:miter;stroke-width:0.8;"/>

   </g>

   <g id="patch_4">

    <path d="M 379.645313 228.14 

L 379.645313 10.7 

" style="fill:none;stroke:#000000;stroke-linecap:square;stroke-linejoin:miter;stroke-width:0.8;"/>

   </g>

   <g id="patch_5">

    <path d="M 44.845313 228.14 

L 379.645313 228.14 

" style="fill:none;stroke:#000000;stroke-linecap:square;stroke-linejoin:miter;stroke-width:0.8;"/>

   </g>

   <g id="patch_6">

    <path d="M 44.845313 10.7 

L 379.645313 10.7 

" style="fill:none;stroke:#000000;stroke-linecap:square;stroke-linejoin:miter;stroke-width:0.8;"/>

   </g>

  </g>

 </g>

 <defs>

  <clipPath id="pb8f8770469">

   <rect height="217.44" width="334.8" x="44.845313" y="10.7"/>

  </clipPath>

 </defs>

</svg>
