<?xml version="1.0" encoding="utf-8" standalone="no"?>

<!DOCTYPE svg PUBLIC "-//W3C//DTD SVG 1.1//EN"

  "http://www.w3.org/Graphics/SVG/1.1/DTD/svg11.dtd">

<!-- Created with matplotlib (http://matplotlib.org/) -->

<svg height="252pt" version="1.1" viewBox="0 0 389 252" width="389pt" xmlns="http://www.w3.org/2000/svg" xmlns:xlink="http://www.w3.org/1999/xlink">

 <defs>

  <style type="text/css">

*{stroke-linecap:butt;stroke-linejoin:round;}

  </style>

 </defs>

 <g id="figure_1">

  <g id="patch_1">

   <path d="M 0 252.018125 

L 389.85625 252.018125 

L 389.85625 0 

L 0 0 

z

" style="fill:none;"/>

  </g>

  <g id="axes_1">

   <g id="patch_2">

    <path d="M 44.35625 228.14 

L 379.15625 228.14 

L 379.15625 10.7 

L 44.35625 10.7 

z

" style="fill:#ffffff;"/>

   </g>

   <g id="PathCollection_1">

    <path clip-path="url(#paa33066a81)" d="M 68.713128 223.954825 

C 74.362328 223.954825 79.780911 221.710374 83.775498 217.715786 

C 87.770086 213.721199 90.014537 208.302616 90.014537 202.653416 

C 90.014537 197.004217 87.770086 191.585633 83.775498 187.591046 

C 79.780911 183.596458 74.362328 181.352008 68.713128 181.352008 

C 63.063929 181.352008 57.645345 183.596458 53.650758 187.591046 

C 49.65617 191.585633 47.41172 197.004217 47.41172 202.653416 

C 47.41172 208.302616 49.65617 213.721199 53.650758 217.715786 

C 57.645345 221.710374 63.063929 223.954825 68.713128 223.954825 

z

" style="fill:#1f77b4;stroke:#1f77b4;"/>

    <path clip-path="url(#paa33066a81)" d="M 68.713128 61.85498 

C 73.612213 61.85498 78.311303 59.908553 81.775479 56.444377 

C 85.239654 52.980201 87.186081 48.281111 87.186081 43.382027 

C 87.186081 38.482942 85.239654 33.783852 81.775479 30.319676 

C 78.311303 26.8555 73.612213 24.909074 68.713128 24.909074 

C 63.814044 24.909074 59.114953 26.8555 55.650778 30.319676 

C 52.186602 33.783852 50.240175 38.482942 50.240175 43.382027 

C 50.240175 48.281111 52.186602 52.980201 55.650778 56.444377 

C 59.114953 59.908553 63.814044 61.85498 68.713128 61.85498 

z

" style="fill:#1f77b4;stroke:#1f77b4;"/>

    <path clip-path="url(#paa33066a81)" d="M 212.348491 218.464804 

C 216.54172 218.464804 220.56377 216.798817 223.528831 213.833756 

C 226.493892 210.868695 228.159879 206.846645 228.159879 202.653416 

C 228.159879 198.460187 226.493892 194.438137 223.528831 191.473076 

C 220.56377 188.508015 216.54172 186.842028 212.348491 186.842028 

C 208.155262 186.842028 204.133212 188.508015 201.168151 191.473076 

C 198.20309 194.438137 196.537103 198.460187 196.537103 202.653416 

C 196.537103 206.846645 198.20309 210.868695 201.168151 213.833756 

C 204.133212 216.798817 208.155262 218.464804 212.348491 218.464804 

z

" style="fill:#1f77b4;stroke:#1f77b4;"/>

    <path clip-path="url(#paa33066a81)" d="M 212.348491 74.506776 

C 220.602871 74.506776 228.520284 71.227276 234.357012 65.390548 

C 240.19374 59.55382 243.47324 51.636407 243.47324 43.382027 

C 243.47324 35.127647 240.19374 27.210234 234.357012 21.373506 

C 228.520284 15.536778 220.602871 12.257278 212.348491 12.257278 

C 204.094111 12.257278 196.176698 15.536778 190.33997 21.373506 

C 184.503242 27.210234 181.223742 35.127647 181.223742 43.382027 

C 181.223742 51.636407 184.503242 59.55382 190.33997 65.390548 

C 196.176698 71.227276 204.094111 74.506776 212.348491 74.506776 

z

" style="fill:#1f77b4;stroke:#1f77b4;"/>

    <path clip-path="url(#paa33066a81)" d="M 355.983854 221.193912 

C 360.900851 221.193912 365.617123 219.240369 369.093965 215.763527 

C 372.570807 212.286685 374.52435 207.570413 374.52435 202.653416 

C 374.52435 197.736419 372.570807 193.020147 369.093965 189.543306 

C 365.617123 186.066464 360.900851 184.11292 355.983854 184.11292 

C 351.066857 184.11292 346.350585 186.066464 342.873743 189.543306 

C 339.396901 193.020147 337.443358 197.736419 337.443358 202.653416 

C 337.443358 207.570413 339.396901 212.286685 342.873743 215.763527 

C 346.350585 219.240369 351.066857 221.193912 355.983854 221.193912 

z

" style="fill:#1f77b4;stroke:#1f77b4;"/>

    <path clip-path="url(#paa33066a81)" d="M 355.983854 55.319363 

C 359.149673 55.319363 362.186254 54.06157 364.424826 51.822998 

C 366.663397 49.584426 367.92119 46.547845 367.92119 43.382027 

C 367.92119 40.216208 366.663397 37.179627 364.424826 34.941055 

C 362.186254 32.702483 359.149673 31.44469 355.983854 31.44469 

C 352.818035 31.44469 349.781454 32.702483 347.542883 34.941055 

C 345.304311 37.179627 344.046518 40.216208 344.046518 43.382027 

C 344.046518 46.547845 345.304311 49.584426 347.542883 51.822998 

C 349.781454 54.06157 352.818035 55.319363 355.983854 55.319363 

z

" style="fill:#1f77b4;stroke:#1f77b4;"/>

   </g>

   <g id="matplotlib.axis_1">

    <g id="xtick_1">

     <g id="line2d_1">

      <defs>

       <path d="M 0 0 

L 0 3.5 

" id="mfc5e334d99" style="stroke:#000000;stroke-width:0.8;"/>

      </defs>

      <g>

       <use style="stroke:#000000;stroke-width:0.8;" x="68.713128" xlink:href="#mfc5e334d99" y="228.14"/>

      </g>

     </g>

     <g id="text_1">

      <!-- cat -->

      <defs>

       <path d="M 48.78125 52.59375 

L 48.78125 44.1875 

Q 44.96875 46.296875 41.140625 47.34375 

Q 37.3125 48.390625 33.40625 48.390625 

Q 24.65625 48.390625 19.8125 42.84375 

Q 14.984375 37.3125 14.984375 27.296875 

Q 14.984375 17.28125 19.8125 11.734375 

Q 24.65625 6.203125 33.40625 6.203125 

Q 37.3125 6.203125 41.140625 7.25 

Q 44.96875 8.296875 48.78125 10.40625 

L 48.78125 2.09375 

Q 45.015625 0.34375 40.984375 -0.53125 

Q 36.96875 -1.421875 32.421875 -1.421875 

Q 20.0625 -1.421875 12.78125 6.34375 

Q 5.515625 14.109375 5.515625 27.296875 

Q 5.515625 40.671875 12.859375 48.328125 

Q 20.21875 56 33.015625 56 

Q 37.15625 56 41.109375 55.140625 

Q 45.0625 54.296875 48.78125 52.59375 

z

" id="DejaVuSans-63"/>

       <path d="M 34.28125 27.484375 

Q 23.390625 27.484375 19.1875 25 

Q 14.984375 22.515625 14.984375 16.5 

Q 14.984375 11.71875 18.140625 8.90625 

Q 21.296875 6.109375 26.703125 6.109375 

Q 34.1875 6.109375 38.703125 11.40625 

Q 43.21875 16.703125 43.21875 25.484375 

L 43.21875 27.484375 

z

M 52.203125 31.203125 

L 52.203125 0 

L 43.21875 0 

L 43.21875 8.296875 

Q 40.140625 3.328125 35.546875 0.953125 

Q 30.953125 -1.421875 24.3125 -1.421875 

Q 15.921875 -1.421875 10.953125 3.296875 

Q 6 8.015625 6 15.921875 

Q 6 25.140625 12.171875 29.828125 

Q 18.359375 34.515625 30.609375 34.515625 

L 43.21875 34.515625 

L 43.21875 35.40625 

Q 43.21875 41.609375 39.140625 45 

Q 35.0625 48.390625 27.6875 48.390625 

Q 23 48.390625 18.546875 47.265625 

Q 14.109375 46.140625 10.015625 43.890625 

L 10.015625 52.203125 

Q 14.9375 54.109375 19.578125 55.046875 

Q 24.21875 56 28.609375 56 

Q 40.484375 56 46.34375 49.84375 

Q 52.203125 43.703125 52.203125 31.203125 

z

" id="DejaVuSans-61"/>

       <path d="M 18.3125 70.21875 

L 18.3125 54.6875 

L 36.8125 54.6875 

L 36.8125 47.703125 

L 18.3125 47.703125 

L 18.3125 18.015625 

Q 18.3125 11.328125 20.140625 9.421875 

Q 21.96875 7.515625 27.59375 7.515625 

L 36.8125 7.515625 

L 36.8125 0 

L 27.59375 0 

Q 17.1875 0 13.234375 3.875 

Q 9.28125 7.765625 9.28125 18.015625 

L 9.28125 47.703125 

L 2.6875 47.703125 

L 2.6875 54.6875 

L 9.28125 54.6875 

L 9.28125 70.21875 

z

" id="DejaVuSans-74"/>

      </defs>

      <g transform="translate(60.939691 242.738437)scale(0.1 -0.1)">

       <use xlink:href="#DejaVuSans-63"/>

       <use x="54.980469" xlink:href="#DejaVuSans-61"/>

       <use x="116.259766" xlink:href="#DejaVuSans-74"/>

      </g>

     </g>

    </g>

    <g id="xtick_2">

     <g id="line2d_2">

      <g>

       <use style="stroke:#000000;stroke-width:0.8;" x="212.348491" xlink:href="#mfc5e334d99" y="228.14"/>

      </g>

     </g>

     <g id="text_2">

      <!-- dog -->

      <defs>

       <path d="M 45.40625 46.390625 

L 45.40625 75.984375 

L 54.390625 75.984375 

L 54.390625 0 

L 45.40625 0 

L 45.40625 8.203125 

Q 42.578125 3.328125 38.25 0.953125 

Q 33.9375 -1.421875 27.875 -1.421875 

Q 17.96875 -1.421875 11.734375 6.484375 

Q 5.515625 14.40625 5.515625 27.296875 

Q 5.515625 40.1875 11.734375 48.09375 

Q 17.96875 56 27.875 56 

Q 33.9375 56 38.25 53.625 

Q 42.578125 51.265625 45.40625 46.390625 

z

M 14.796875 27.296875 

Q 14.796875 17.390625 18.875 11.75 

Q 22.953125 6.109375 30.078125 6.109375 

Q 37.203125 6.109375 41.296875 11.75 

Q 45.40625 17.390625 45.40625 27.296875 

Q 45.40625 37.203125 41.296875 42.84375 

Q 37.203125 48.484375 30.078125 48.484375 

Q 22.953125 48.484375 18.875 42.84375 

Q 14.796875 37.203125 14.796875 27.296875 

z

" id="DejaVuSans-64"/>

       <path d="M 30.609375 48.390625 

Q 23.390625 48.390625 19.1875 42.75 

Q 14.984375 37.109375 14.984375 27.296875 

Q 14.984375 17.484375 19.15625 11.84375 

Q 23.34375 6.203125 30.609375 6.203125 

Q 37.796875 6.203125 41.984375 11.859375 

Q 46.1875 17.53125 46.1875 27.296875 

Q 46.1875 37.015625 41.984375 42.703125 

Q 37.796875 48.390625 30.609375 48.390625 

z

M 30.609375 56 

Q 42.328125 56 49.015625 48.375 

Q 55.71875 40.765625 55.71875 27.296875 

Q 55.71875 13.875 49.015625 6.21875 

Q 42.328125 -1.421875 30.609375 -1.421875 

Q 18.84375 -1.421875 12.171875 6.21875 

Q 5.515625 13.875 5.515625 27.296875 

Q 5.515625 40.765625 12.171875 48.375 

Q 18.84375 56 30.609375 56 

z

" id="DejaVuSans-6f"/>

       <path d="M 45.40625 27.984375 

Q 45.40625 37.75 41.375 43.109375 

Q 37.359375 48.484375 30.078125 48.484375 

Q 22.859375 48.484375 18.828125 43.109375 

Q 14.796875 37.75 14.796875 27.984375 

Q 14.796875 18.265625 18.828125 12.890625 

Q 22.859375 7.515625 30.078125 7.515625 

Q 37.359375 7.515625 41.375 12.890625 

Q 45.40625 18.265625 45.40625 27.984375 

z

M 54.390625 6.78125 

Q 54.390625 -7.171875 48.1875 -13.984375 

Q 42 -20.796875 29.203125 -20.796875 

Q 24.46875 -20.796875 20.265625 -20.09375 

Q 16.0625 -19.390625 12.109375 -17.921875 

L 12.109375 -9.1875 

Q 16.0625 -11.328125 19.921875 -12.34375 

Q 23.78125 -13.375 27.78125 -13.375 

Q 36.625 -13.375 41.015625 -8.765625 

Q 45.40625 -4.15625 45.40625 5.171875 

L 45.40625 9.625 

Q 42.625 4.78125 38.28125 2.390625 

Q 33.9375 0 27.875 0 

Q 17.828125 0 11.671875 7.65625 

Q 5.515625 15.328125 5.515625 27.984375 

Q 5.515625 40.671875 11.671875 48.328125 

Q 17.828125 56 27.875 56 

Q 33.9375 56 38.28125 53.609375 

Q 42.625 51.21875 45.40625 46.390625 

L 45.40625 54.6875 

L 54.390625 54.6875 

z

" id="DejaVuSans-67"/>

      </defs>

      <g transform="translate(202.940679 242.738437)scale(0.1 -0.1)">

       <use xlink:href="#DejaVuSans-64"/>

       <use x="63.476562" xlink:href="#DejaVuSans-6f"/>

       <use x="124.658203" xlink:href="#DejaVuSans-67"/>

      </g>

     </g>

    </g>

    <g id="xtick_3">

     <g id="line2d_3">

      <g>

       <use style="stroke:#000000;stroke-width:0.8;" x="355.983854" xlink:href="#mfc5e334d99" y="228.14"/>

      </g>

     </g>

     <g id="text_3">

      <!-- rabbit -->

      <defs>

       <path d="M 41.109375 46.296875 

Q 39.59375 47.171875 37.8125 47.578125 

Q 36.03125 48 33.890625 48 

Q 26.265625 48 22.1875 43.046875 

Q 18.109375 38.09375 18.109375 28.8125 

L 18.109375 0 

L 9.078125 0 

L 9.078125 54.6875 

L 18.109375 54.6875 

L 18.109375 46.1875 

Q 20.953125 51.171875 25.484375 53.578125 

Q 30.03125 56 36.53125 56 

Q 37.453125 56 38.578125 55.875 

Q 39.703125 55.765625 41.0625 55.515625 

z

" id="DejaVuSans-72"/>

       <path d="M 48.6875 27.296875 

Q 48.6875 37.203125 44.609375 42.84375 

Q 40.53125 48.484375 33.40625 48.484375 

Q 26.265625 48.484375 22.1875 42.84375 

Q 18.109375 37.203125 18.109375 27.296875 

Q 18.109375 17.390625 22.1875 11.75 

Q 26.265625 6.109375 33.40625 6.109375 

Q 40.53125 6.109375 44.609375 11.75 

Q 48.6875 17.390625 48.6875 27.296875 

z

M 18.109375 46.390625 

Q 20.953125 51.265625 25.265625 53.625 

Q 29.59375 56 35.59375 56 

Q 45.5625 56 51.78125 48.09375 

Q 58.015625 40.1875 58.015625 27.296875 

Q 58.015625 14.40625 51.78125 6.484375 

Q 45.5625 -1.421875 35.59375 -1.421875 

Q 29.59375 -1.421875 25.265625 0.953125 

Q 20.953125 3.328125 18.109375 8.203125 

L 18.109375 0 

L 9.078125 0 

L 9.078125 75.984375 

L 18.109375 75.984375 

z

" id="DejaVuSans-62"/>

       <path d="M 9.421875 54.6875 

L 18.40625 54.6875 

L 18.40625 0 

L 9.421875 0 

z

M 9.421875 75.984375 

L 18.40625 75.984375 

L 18.40625 64.59375 

L 9.421875 64.59375 

z

" id="DejaVuSans-69"/>

      </defs>

      <g transform="translate(341.166667 242.738437)scale(0.1 -0.1)">

       <use xlink:href="#DejaVuSans-72"/>

       <use x="41.113281" xlink:href="#DejaVuSans-61"/>

       <use x="102.392578" xlink:href="#DejaVuSans-62"/>

       <use x="165.869141" xlink:href="#DejaVuSans-62"/>

       <use x="229.345703" xlink:href="#DejaVuSans-69"/>

       <use x="257.128906" xlink:href="#DejaVuSans-74"/>

      </g>

     </g>

    </g>

   </g>

   <g id="matplotlib.axis_2">

    <g id="ytick_1">

     <g id="line2d_4">

      <defs>

       <path d="M 0 0 

L -3.5 0 

" id="m933d2ea80c" style="stroke:#000000;stroke-width:0.8;"/>

      </defs>

      <g>

       <use style="stroke:#000000;stroke-width:0.8;" x="44.35625" xlink:href="#m933d2ea80c" y="202.653416"/>

      </g>

     </g>

     <g id="text_4">

      <!-- appt -->

      <defs>

       <path d="M 18.109375 8.203125 

L 18.109375 -20.796875 

L 9.078125 -20.796875 

L 9.078125 54.6875 

L 18.109375 54.6875 

L 18.109375 46.390625 

Q 20.953125 51.265625 25.265625 53.625 

Q 29.59375 56 35.59375 56 

Q 45.5625 56 51.78125 48.09375 

Q 58.015625 40.1875 58.015625 27.296875 

Q 58.015625 14.40625 51.78125 6.484375 

Q 45.5625 -1.421875 35.59375 -1.421875 

Q 29.59375 -1.421875 25.265625 0.953125 

Q 20.953125 3.328125 18.109375 8.203125 

z

M 48.6875 27.296875 

Q 48.6875 37.203125 44.609375 42.84375 

Q 40.53125 48.484375 33.40625 48.484375 

Q 26.265625 48.484375 22.1875 42.84375 

Q 18.109375 37.203125 18.109375 27.296875 

Q 18.109375 17.390625 22.1875 11.75 

Q 26.265625 6.109375 33.40625 6.109375 

Q 40.53125 6.109375 44.609375 11.75 

Q 48.6875 17.390625 48.6875 27.296875 

z

" id="DejaVuSans-70"/>

      </defs>

      <g transform="translate(14.610938 206.452635)scale(0.1 -0.1)">

       <use xlink:href="#DejaVuSans-61"/>

       <use x="61.279297" xlink:href="#DejaVuSans-70"/>

       <use x="124.755859" xlink:href="#DejaVuSans-70"/>

       <use x="188.232422" xlink:href="#DejaVuSans-74"/>

      </g>

     </g>

    </g>

    <g id="ytick_2">

     <g id="line2d_5">

      <g>

       <use style="stroke:#000000;stroke-width:0.8;" x="44.35625" xlink:href="#m933d2ea80c" y="43.382027"/>

      </g>

     </g>

     <g id="text_5">

      <!-- house -->

      <defs>

       <path d="M 54.890625 33.015625 

L 54.890625 0 

L 45.90625 0 

L 45.90625 32.71875 

Q 45.90625 40.484375 42.875 44.328125 

Q 39.84375 48.1875 33.796875 48.1875 

Q 26.515625 48.1875 22.3125 43.546875 

Q 18.109375 38.921875 18.109375 30.90625 

L 18.109375 0 

L 9.078125 0 

L 9.078125 75.984375 

L 18.109375 75.984375 

L 18.109375 46.1875 

Q 21.34375 51.125 25.703125 53.5625 

Q 30.078125 56 35.796875 56 

Q 45.21875 56 50.046875 50.171875 

Q 54.890625 44.34375 54.890625 33.015625 

z

" id="DejaVuSans-68"/>

       <path d="M 8.5 21.578125 

L 8.5 54.6875 

L 17.484375 54.6875 

L 17.484375 21.921875 

Q 17.484375 14.15625 20.5 10.265625 

Q 23.53125 6.390625 29.59375 6.390625 

Q 36.859375 6.390625 41.078125 11.03125 

Q 45.3125 15.671875 45.3125 23.6875 

L 45.3125 54.6875 

L 54.296875 54.6875 

L 54.296875 0 

L 45.3125 0 

L 45.3125 8.40625 

Q 42.046875 3.421875 37.71875 1 

Q 33.40625 -1.421875 27.6875 -1.421875 

Q 18.265625 -1.421875 13.375 4.4375 

Q 8.5 10.296875 8.5 21.578125 

z

M 31.109375 56 

z

" id="DejaVuSans-75"/>

       <path d="M 44.28125 53.078125 

L 44.28125 44.578125 

Q 40.484375 46.53125 36.375 47.5 

Q 32.28125 48.484375 27.875 48.484375 

Q 21.1875 48.484375 17.84375 46.4375 

Q 14.5 44.390625 14.5 40.28125 

Q 14.5 37.15625 16.890625 35.375 

Q 19.28125 33.59375 26.515625 31.984375 

L 29.59375 31.296875 

Q 39.15625 29.25 43.1875 25.515625 

Q 47.21875 21.78125 47.21875 15.09375 

Q 47.21875 7.46875 41.1875 3.015625 

Q 35.15625 -1.421875 24.609375 -1.421875 

Q 20.21875 -1.421875 15.453125 -0.5625 

Q 10.6875 0.296875 5.421875 2 

L 5.421875 11.28125 

Q 10.40625 8.6875 15.234375 7.390625 

Q 20.0625 6.109375 24.8125 6.109375 

Q 31.15625 6.109375 34.5625 8.28125 

Q 37.984375 10.453125 37.984375 14.40625 

Q 37.984375 18.0625 35.515625 20.015625 

Q 33.0625 21.96875 24.703125 23.78125 

L 21.578125 24.515625 

Q 13.234375 26.265625 9.515625 29.90625 

Q 5.8125 33.546875 5.8125 39.890625 

Q 5.8125 47.609375 11.28125 51.796875 

Q 16.75 56 26.8125 56 

Q 31.78125 56 36.171875 55.265625 

Q 40.578125 54.546875 44.28125 53.078125 

z

" id="DejaVuSans-73"/>

       <path d="M 56.203125 29.59375 

L 56.203125 25.203125 

L 14.890625 25.203125 

Q 15.484375 15.921875 20.484375 11.0625 

Q 25.484375 6.203125 34.421875 6.203125 

Q 39.59375 6.203125 44.453125 7.46875 

Q 49.3125 8.734375 54.109375 11.28125 

L 54.109375 2.78125 

Q 49.265625 0.734375 44.1875 -0.34375 

Q 39.109375 -1.421875 33.890625 -1.421875 

Q 20.796875 -1.421875 13.15625 6.1875 

Q 5.515625 13.8125 5.515625 26.8125 

Q 5.515625 40.234375 12.765625 48.109375 

Q 20.015625 56 32.328125 56 

Q 43.359375 56 49.78125 48.890625 

Q 56.203125 41.796875 56.203125 29.59375 

z

M 47.21875 32.234375 

Q 47.125 39.59375 43.09375 43.984375 

Q 39.0625 48.390625 32.421875 48.390625 

Q 24.90625 48.390625 20.390625 44.140625 

Q 15.875 39.890625 15.1875 32.171875 

z

" id="DejaVuSans-65"/>

      </defs>

      <g transform="translate(7.2 47.181246)scale(0.1 -0.1)">

       <use xlink:href="#DejaVuSans-68"/>

       <use x="63.378906" xlink:href="#DejaVuSans-6f"/>

       <use x="124.560547" xlink:href="#DejaVuSans-75"/>

       <use x="187.939453" xlink:href="#DejaVuSans-73"/>

       <use x="240.039062" xlink:href="#DejaVuSans-65"/>

      </g>

     </g>

    </g>

   </g>

   <g id="patch_3">

    <path d="M 44.35625 228.14 

L 44.35625 10.7 

" style="fill:none;stroke:#000000;stroke-linecap:square;stroke-linejoin:miter;stroke-width:0.8;"/>

   </g>

   <g id="patch_4">

    <path d="M 379.15625 228.14 

L 379.15625 10.7 

" style="fill:none;stroke:#000000;stroke-linecap:square;stroke-linejoin:miter;stroke-width:0.8;"/>

   </g>

   <g id="patch_5">

    <path d="M 44.35625 228.14 

L 379.15625 228.14 

" style="fill:none;stroke:#000000;stroke-linecap:square;stroke-linejoin:miter;stroke-width:0.8;"/>

   </g>

   <g id="patch_6">

    <path d="M 44.35625 10.7 

L 379.15625 10.7 

" style="fill:none;stroke:#000000;stroke-linecap:square;stroke-linejoin:miter;stroke-width:0.8;"/>

   </g>

  </g>

 </g>

 <defs>

  <clipPath id="paa33066a81">

   <rect height="217.44" width="334.8" x="44.35625" y="10.7"/>

  </clipPath>

 </defs>

</svg>
