<?xml version="1.0" encoding="utf-8" standalone="no"?>

<!DOCTYPE svg PUBLIC "-//W3C//DTD SVG 1.1//EN"

  "http://www.w3.org/Graphics/SVG/1.1/DTD/svg11.dtd">

<!-- Created with matplotlib (http://matplotlib.org/) -->

<svg height="252pt" version="1.1" viewBox="0 0 381 252" width="381pt" xmlns="http://www.w3.org/2000/svg" xmlns:xlink="http://www.w3.org/1999/xlink">

 <defs>

  <style type="text/css">

*{stroke-linecap:butt;stroke-linejoin:round;}

  </style>

 </defs>

 <g id="figure_1">

  <g id="patch_1">

   <path d="M 0 252.018125 

L 381.965625 252.018125 

L 381.965625 0 

L 0 0 

z

" style="fill:none;"/>

  </g>

  <g id="axes_1">

   <g id="patch_2">

    <path d="M 36.465625 228.14 

L 371.265625 228.14 

L 371.265625 10.7 

L 36.465625 10.7 

z

" style="fill:#ffffff;"/>

   </g>

   <g id="matplotlib.axis_1">

    <g id="xtick_1">

     <g id="line2d_1">

      <defs>

       <path d="M 0 0 

L 0 3.5 

" id="mc8b3bbe337" style="stroke:#000000;stroke-width:0.8;"/>

      </defs>

      <g>

       <use style="stroke:#000000;stroke-width:0.8;" x="51.683807" xlink:href="#mc8b3bbe337" y="228.14"/>

      </g>

     </g>

     <g id="text_1">

      <!-- 0 -->

      <defs>

       <path d="M 31.78125 66.40625 

Q 24.171875 66.40625 20.328125 58.90625 

Q 16.5 51.421875 16.5 36.375 

Q 16.5 21.390625 20.328125 13.890625 

Q 24.171875 6.390625 31.78125 6.390625 

Q 39.453125 6.390625 43.28125 13.890625 

Q 47.125 21.390625 47.125 36.375 

Q 47.125 51.421875 43.28125 58.90625 

Q 39.453125 66.40625 31.78125 66.40625 

z

M 31.78125 74.21875 

Q 44.046875 74.21875 50.515625 64.515625 

Q 56.984375 54.828125 56.984375 36.375 

Q 56.984375 17.96875 50.515625 8.265625 

Q 44.046875 -1.421875 31.78125 -1.421875 

Q 19.53125 -1.421875 13.0625 8.265625 

Q 6.59375 17.96875 6.59375 36.375 

Q 6.59375 54.828125 13.0625 64.515625 

Q 19.53125 74.21875 31.78125 74.21875 

z

" id="DejaVuSans-30"/>

      </defs>

      <g transform="translate(48.502557 242.738437)scale(0.1 -0.1)">

       <use xlink:href="#DejaVuSans-30"/>

      </g>

     </g>

    </g>

    <g id="xtick_2">

     <g id="line2d_2">

      <g>

       <use style="stroke:#000000;stroke-width:0.8;" x="112.801003" xlink:href="#mc8b3bbe337" y="228.14"/>

      </g>

     </g>

     <g id="text_2">

      <!-- 100 -->

      <defs>

       <path d="M 12.40625 8.296875 

L 28.515625 8.296875 

L 28.515625 63.921875 

L 10.984375 60.40625 

L 10.984375 69.390625 

L 28.421875 72.90625 

L 38.28125 72.90625 

L 38.28125 8.296875 

L 54.390625 8.296875 

L 54.390625 0 

L 12.40625 0 

z

" id="DejaVuSans-31"/>

      </defs>

      <g transform="translate(103.257253 242.738437)scale(0.1 -0.1)">

       <use xlink:href="#DejaVuSans-31"/>

       <use x="63.623047" xlink:href="#DejaVuSans-30"/>

       <use x="127.246094" xlink:href="#DejaVuSans-30"/>

      </g>

     </g>

    </g>

    <g id="xtick_3">

     <g id="line2d_3">

      <g>

       <use style="stroke:#000000;stroke-width:0.8;" x="173.918199" xlink:href="#mc8b3bbe337" y="228.14"/>

      </g>

     </g>

     <g id="text_3">

      <!-- 200 -->

      <defs>

       <path d="M 19.1875 8.296875 

L 53.609375 8.296875 

L 53.609375 0 

L 7.328125 0 

L 7.328125 8.296875 

Q 12.9375 14.109375 22.625 23.890625 

Q 32.328125 33.6875 34.8125 36.53125 

Q 39.546875 41.84375 41.421875 45.53125 

Q 43.3125 49.21875 43.3125 52.78125 

Q 43.3125 58.59375 39.234375 62.25 

Q 35.15625 65.921875 28.609375 65.921875 

Q 23.96875 65.921875 18.8125 64.3125 

Q 13.671875 62.703125 7.8125 59.421875 

L 7.8125 69.390625 

Q 13.765625 71.78125 18.9375 73 

Q 24.125 74.21875 28.421875 74.21875 

Q 39.75 74.21875 46.484375 68.546875 

Q 53.21875 62.890625 53.21875 53.421875 

Q 53.21875 48.921875 51.53125 44.890625 

Q 49.859375 40.875 45.40625 35.40625 

Q 44.1875 33.984375 37.640625 27.21875 

Q 31.109375 20.453125 19.1875 8.296875 

z

" id="DejaVuSans-32"/>

      </defs>

      <g transform="translate(164.374449 242.738437)scale(0.1 -0.1)">

       <use xlink:href="#DejaVuSans-32"/>

       <use x="63.623047" xlink:href="#DejaVuSans-30"/>

       <use x="127.246094" xlink:href="#DejaVuSans-30"/>

      </g>

     </g>

    </g>

    <g id="xtick_4">

     <g id="line2d_4">

      <g>

       <use style="stroke:#000000;stroke-width:0.8;" x="235.035395" xlink:href="#mc8b3bbe337" y="228.14"/>

      </g>

     </g>

     <g id="text_4">

      <!-- 300 -->

      <defs>

       <path d="M 40.578125 39.3125 

Q 47.65625 37.796875 51.625 33 

Q 55.609375 28.21875 55.609375 21.1875 

Q 55.609375 10.40625 48.1875 4.484375 

Q 40.765625 -1.421875 27.09375 -1.421875 

Q 22.515625 -1.421875 17.65625 -0.515625 

Q 12.796875 0.390625 7.625 2.203125 

L 7.625 11.71875 

Q 11.71875 9.328125 16.59375 8.109375 

Q 21.484375 6.890625 26.8125 6.890625 

Q 36.078125 6.890625 40.9375 10.546875 

Q 45.796875 14.203125 45.796875 21.1875 

Q 45.796875 27.640625 41.28125 31.265625 

Q 36.765625 34.90625 28.71875 34.90625 

L 20.21875 34.90625 

L 20.21875 43.015625 

L 29.109375 43.015625 

Q 36.375 43.015625 40.234375 45.921875 

Q 44.09375 48.828125 44.09375 54.296875 

Q 44.09375 59.90625 40.109375 62.90625 

Q 36.140625 65.921875 28.71875 65.921875 

Q 24.65625 65.921875 20.015625 65.03125 

Q 15.375 64.15625 9.8125 62.3125 

L 9.8125 71.09375 

Q 15.4375 72.65625 20.34375 73.4375 

Q 25.25 74.21875 29.59375 74.21875 

Q 40.828125 74.21875 47.359375 69.109375 

Q 53.90625 64.015625 53.90625 55.328125 

Q 53.90625 49.265625 50.4375 45.09375 

Q 46.96875 40.921875 40.578125 39.3125 

z

" id="DejaVuSans-33"/>

      </defs>

      <g transform="translate(225.491645 242.738437)scale(0.1 -0.1)">

       <use xlink:href="#DejaVuSans-33"/>

       <use x="63.623047" xlink:href="#DejaVuSans-30"/>

       <use x="127.246094" xlink:href="#DejaVuSans-30"/>

      </g>

     </g>

    </g>

    <g id="xtick_5">

     <g id="line2d_5">

      <g>

       <use style="stroke:#000000;stroke-width:0.8;" x="296.152591" xlink:href="#mc8b3bbe337" y="228.14"/>

      </g>

     </g>

     <g id="text_5">

      <!-- 400 -->

      <defs>

       <path d="M 37.796875 64.3125 

L 12.890625 25.390625 

L 37.796875 25.390625 

z

M 35.203125 72.90625 

L 47.609375 72.90625 

L 47.609375 25.390625 

L 58.015625 25.390625 

L 58.015625 17.1875 

L 47.609375 17.1875 

L 47.609375 0 

L 37.796875 0 

L 37.796875 17.1875 

L 4.890625 17.1875 

L 4.890625 26.703125 

z

" id="DejaVuSans-34"/>

      </defs>

      <g transform="translate(286.608841 242.738437)scale(0.1 -0.1)">

       <use xlink:href="#DejaVuSans-34"/>

       <use x="63.623047" xlink:href="#DejaVuSans-30"/>

       <use x="127.246094" xlink:href="#DejaVuSans-30"/>

      </g>

     </g>

    </g>

    <g id="xtick_6">

     <g id="line2d_6">

      <g>

       <use style="stroke:#000000;stroke-width:0.8;" x="357.269787" xlink:href="#mc8b3bbe337" y="228.14"/>

      </g>

     </g>

     <g id="text_6">

      <!-- 500 -->

      <defs>

       <path d="M 10.796875 72.90625 

L 49.515625 72.90625 

L 49.515625 64.59375 

L 19.828125 64.59375 

L 19.828125 46.734375 

Q 21.96875 47.46875 24.109375 47.828125 

Q 26.265625 48.1875 28.421875 48.1875 

Q 40.625 48.1875 47.75 41.5 

Q 54.890625 34.8125 54.890625 23.390625 

Q 54.890625 11.625 47.5625 5.09375 

Q 40.234375 -1.421875 26.90625 -1.421875 

Q 22.3125 -1.421875 17.546875 -0.640625 

Q 12.796875 0.140625 7.71875 1.703125 

L 7.71875 11.625 

Q 12.109375 9.234375 16.796875 8.0625 

Q 21.484375 6.890625 26.703125 6.890625 

Q 35.15625 6.890625 40.078125 11.328125 

Q 45.015625 15.765625 45.015625 23.390625 

Q 45.015625 31 40.078125 35.4375 

Q 35.15625 39.890625 26.703125 39.890625 

Q 22.75 39.890625 18.8125 39.015625 

Q 14.890625 38.140625 10.796875 36.28125 

z

" id="DejaVuSans-35"/>

      </defs>

      <g transform="translate(347.726037 242.738437)scale(0.1 -0.1)">

       <use xlink:href="#DejaVuSans-35"/>

       <use x="63.623047" xlink:href="#DejaVuSans-30"/>

       <use x="127.246094" xlink:href="#DejaVuSans-30"/>

      </g>

     </g>

    </g>

   </g>

   <g id="matplotlib.axis_2">

    <g id="ytick_1">

     <g id="line2d_7">

      <defs>

       <path d="M 0 0 

L -3.5 0 

" id="ma41977aae1" style="stroke:#000000;stroke-width:0.8;"/>

      </defs>

      <g>

       <use style="stroke:#000000;stroke-width:0.8;" x="36.465625" xlink:href="#ma41977aae1" y="207.529002"/>

      </g>

     </g>

     <g id="text_7">

      <!-- 0.10 -->

      <defs>

       <path d="M 10.6875 12.40625 

L 21 12.40625 

L 21 0 

L 10.6875 0 

z

" id="DejaVuSans-2e"/>

      </defs>

      <g transform="translate(7.2 211.328221)scale(0.1 -0.1)">

       <use xlink:href="#DejaVuSans-30"/>

       <use x="63.623047" xlink:href="#DejaVuSans-2e"/>

       <use x="95.410156" xlink:href="#DejaVuSans-31"/>

       <use x="159.033203" xlink:href="#DejaVuSans-30"/>

      </g>

     </g>

    </g>

    <g id="ytick_2">

     <g id="line2d_8">

      <g>

       <use style="stroke:#000000;stroke-width:0.8;" x="36.465625" xlink:href="#ma41977aae1" y="173.237605"/>

      </g>

     </g>

     <g id="text_8">

      <!-- 0.15 -->

      <g transform="translate(7.2 177.036824)scale(0.1 -0.1)">

       <use xlink:href="#DejaVuSans-30"/>

       <use x="63.623047" xlink:href="#DejaVuSans-2e"/>

       <use x="95.410156" xlink:href="#DejaVuSans-31"/>

       <use x="159.033203" xlink:href="#DejaVuSans-35"/>

      </g>

     </g>

    </g>

    <g id="ytick_3">

     <g id="line2d_9">

      <g>

       <use style="stroke:#000000;stroke-width:0.8;" x="36.465625" xlink:href="#ma41977aae1" y="138.946208"/>

      </g>

     </g>

     <g id="text_9">

      <!-- 0.20 -->

      <g transform="translate(7.2 142.745427)scale(0.1 -0.1)">

       <use xlink:href="#DejaVuSans-30"/>

       <use x="63.623047" xlink:href="#DejaVuSans-2e"/>

       <use x="95.410156" xlink:href="#DejaVuSans-32"/>

       <use x="159.033203" xlink:href="#DejaVuSans-30"/>

      </g>

     </g>

    </g>

    <g id="ytick_4">

     <g id="line2d_10">

      <g>

       <use style="stroke:#000000;stroke-width:0.8;" x="36.465625" xlink:href="#ma41977aae1" y="104.654812"/>

      </g>

     </g>

     <g id="text_10">

      <!-- 0.25 -->

      <g transform="translate(7.2 108.45403)scale(0.1 -0.1)">

       <use xlink:href="#DejaVuSans-30"/>

       <use x="63.623047" xlink:href="#DejaVuSans-2e"/>

       <use x="95.410156" xlink:href="#DejaVuSans-32"/>

       <use x="159.033203" xlink:href="#DejaVuSans-35"/>

      </g>

     </g>

    </g>

    <g id="ytick_5">

     <g id="line2d_11">

      <g>

       <use style="stroke:#000000;stroke-width:0.8;" x="36.465625" xlink:href="#ma41977aae1" y="70.363415"/>

      </g>

     </g>

     <g id="text_11">

      <!-- 0.30 -->

      <g transform="translate(7.2 74.162633)scale(0.1 -0.1)">

       <use xlink:href="#DejaVuSans-30"/>

       <use x="63.623047" xlink:href="#DejaVuSans-2e"/>

       <use x="95.410156" xlink:href="#DejaVuSans-33"/>

       <use x="159.033203" xlink:href="#DejaVuSans-30"/>

      </g>

     </g>

    </g>

    <g id="ytick_6">

     <g id="line2d_12">

      <g>

       <use style="stroke:#000000;stroke-width:0.8;" x="36.465625" xlink:href="#ma41977aae1" y="36.072018"/>

      </g>

     </g>

     <g id="text_12">

      <!-- 0.35 -->

      <g transform="translate(7.2 39.871236)scale(0.1 -0.1)">

       <use xlink:href="#DejaVuSans-30"/>

       <use x="63.623047" xlink:href="#DejaVuSans-2e"/>

       <use x="95.410156" xlink:href="#DejaVuSans-33"/>

       <use x="159.033203" xlink:href="#DejaVuSans-35"/>

      </g>

     </g>

    </g>

   </g>

   <g id="line2d_13">

    <path clip-path="url(#p94b9b70fb4)" d="M 51.683807 20.583636 

L 55.350839 20.583636 

L 55.962011 24.199601 

L 56.573183 22.994279 

L 57.184354 43.484745 

L 57.795526 31.43153 

L 58.406698 49.511353 

L 59.01787 43.484745 

L 59.629042 72.412461 

L 60.240214 60.359246 

L 60.851386 92.902927 

L 61.462558 76.028426 

L 62.07373 110.982749 

L 62.684902 104.956142 

L 63.296074 124.241286 

L 63.907246 124.241286 

L 64.518418 133.883858 

L 65.12959 135.08918 

L 65.740762 147.142395 

L 66.351934 154.374324 

L 66.963106 159.19561 

L 67.574278 162.811574 

L 68.796622 178.480754 

L 69.407794 180.891397 

L 70.018966 188.123326 

L 70.630138 188.123326 

L 71.852482 190.533969 

L 72.463653 195.355255 

L 73.074825 196.560576 

L 73.685997 200.176541 

L 74.297169 200.176541 

L 74.908341 198.97122 

L 76.130685 203.792506 

L 77.353029 206.203149 

L 77.964201 209.819113 

L 81.631233 209.819113 

L 82.242405 211.024435 

L 82.853577 209.819113 

L 83.464749 211.024435 

L 85.909437 211.024435 

L 86.520609 212.229756 

L 87.742952 212.229756 

L 88.965296 214.640399 

L 89.576468 214.640399 

L 90.18764 215.845721 

L 90.798812 214.640399 

L 93.854672 214.640399 

L 94.465844 215.845721 

L 96.29936 215.845721 

L 97.521704 213.435078 

L 99.35522 213.435078 

L 100.577564 215.845721 

L 103.633423 215.845721 

L 104.244595 214.640399 

L 104.855767 215.845721 

L 111.578659 215.845721 

L 112.189831 214.640399 

L 114.023347 214.640399 

L 114.634519 213.435078 

L 116.468035 213.435078 

L 117.079207 214.640399 

L 117.690379 214.640399 

L 118.912722 212.229756 

L 120.746238 212.229756 

L 121.35741 213.435078 

L 121.968582 212.229756 

L 122.579754 212.229756 

L 123.190926 214.640399 

L 136.025537 214.640399 

L 136.636709 213.435078 

L 137.247881 214.640399 

L 137.859053 213.435078 

L 138.470225 214.640399 

L 142.137257 214.640399 

L 142.748429 213.435078 

L 143.359601 213.435078 

L 143.970773 214.640399 

L 147.026633 214.640399 

L 147.637805 215.845721 

L 148.248977 215.845721 

L 148.860149 217.051042 

L 150.693664 217.051042 

L 151.304836 215.845721 

L 153.138352 215.845721 

L 153.749524 214.640399 

L 154.360696 215.845721 

L 155.58304 215.845721 

L 156.194212 217.051042 

L 176.362887 217.051042 

L 176.974059 218.256364 

L 183.085778 218.256364 

L 183.69695 217.051042 

L 190.419842 217.051042 

L 191.031014 218.256364 

L 191.642186 217.051042 

L 192.253358 218.256364 

L 192.86453 217.051042 

L 213.644376 217.051042 

L 214.255548 215.845721 

L 215.477892 215.845721 

L 216.089064 217.051042 

L 217.311408 217.051042 

L 217.92258 215.845721 

L 218.533752 215.845721 

L 219.144924 217.051042 

L 219.756096 215.845721 

L 222.811956 215.845721 

L 223.423128 217.051042 

L 224.0343 215.845721 

L 225.256644 215.845721 

L 225.867816 217.051042 

L 249.09235 217.051042 

L 249.703522 215.845721 

L 250.314694 217.051042 

L 250.925866 217.051042 

L 251.537038 215.845721 

L 268.649853 215.845721 

L 269.261025 217.051042 

L 272.316885 217.051042 

L 272.928057 215.845721 

L 273.539229 215.845721 

L 274.1504 217.051042 

L 356.047443 217.051042 

L 356.047443 217.051042 

" style="fill:none;stroke:#1f77b4;stroke-linecap:square;stroke-width:1.5;"/>

   </g>

   <g id="patch_3">

    <path d="M 36.465625 228.14 

L 36.465625 10.7 

" style="fill:none;stroke:#000000;stroke-linecap:square;stroke-linejoin:miter;stroke-width:0.8;"/>

   </g>

   <g id="patch_4">

    <path d="M 371.265625 228.14 

L 371.265625 10.7 

" style="fill:none;stroke:#000000;stroke-linecap:square;stroke-linejoin:miter;stroke-width:0.8;"/>

   </g>

   <g id="patch_5">

    <path d="M 36.465625 228.14 

L 371.265625 228.14 

" style="fill:none;stroke:#000000;stroke-linecap:square;stroke-linejoin:miter;stroke-width:0.8;"/>

   </g>

   <g id="patch_6">

    <path d="M 36.465625 10.7 

L 371.265625 10.7 

" style="fill:none;stroke:#000000;stroke-linecap:square;stroke-linejoin:miter;stroke-width:0.8;"/>

   </g>

  </g>

 </g>

 <defs>

  <clipPath id="p94b9b70fb4">

   <rect height="217.44" width="334.8" x="36.465625" y="10.7"/>

  </clipPath>

 </defs>

</svg>
