<?xml version="1.0" encoding="utf-8" standalone="no"?>

<!DOCTYPE svg PUBLIC "-//W3C//DTD SVG 1.1//EN"

  "http://www.w3.org/Graphics/SVG/1.1/DTD/svg11.dtd">

<!-- Created with matplotlib (https://matplotlib.org/) -->

<svg height="265.995469pt" version="1.1" viewBox="0 0 395.665625 265.995469" width="395.665625pt" xmlns="http://www.w3.org/2000/svg" xmlns:xlink="http://www.w3.org/1999/xlink">

 <defs>

  <style type="text/css">

*{stroke-linecap:butt;stroke-linejoin:round;}

  </style>

 </defs>

 <g id="figure_1">

  <g id="patch_1">

   <path d="M -0 265.995469 

L 395.665625 265.995469 

L 395.665625 0 

L -0 0 

z

" style="fill:none;"/>

  </g>

  <g id="axes_1">

   <g id="patch_2">

    <path d="M 50.165625 228.439219 

L 384.965625 228.439219 

L 384.965625 10.999219 

L 50.165625 10.999219 

z

" style="fill:#ffffff;"/>

   </g>

   <g id="PolyCollection_1">

    <path clip-path="url(#p6dcffe884b)" d="M 50.165625 228.439219 

L 50.165625 226.29775 

L 53.513625 225.880025 

L 56.861625 225.391809 

L 60.209625 224.823495 

L 63.557625 224.164612 

L 66.905625 223.403823 

L 70.253625 222.528945 

L 73.601625 221.52699 

L 76.949625 220.384226 

L 80.297625 219.086266 

L 83.645625 217.618182 

L 86.993625 215.964649 

L 90.341625 214.110123 

L 93.689625 212.039042 

L 97.037625 209.736066 

L 100.385625 207.186345 

L 103.733625 204.375816 

L 107.081625 201.291525 

L 110.429625 197.921968 

L 113.777625 194.257461 

L 117.125625 190.290502 

L 120.473625 186.016157 

L 123.821625 181.432426 

L 127.169625 176.540603 

L 130.517625 171.345614 

L 133.865625 165.856317 

L 137.213625 160.085764 

L 140.561625 154.051407 

L 143.909625 147.77524 

L 147.257625 141.283873 

L 150.605625 134.608517 

L 153.953625 127.784895 

L 157.301625 120.853048 

L 160.649625 113.85706 

L 163.997625 106.844673 

L 167.345625 99.866826 

L 170.693625 92.977089 

L 174.041625 86.231028 

L 177.389625 79.68549 

L 180.737625 73.397829 

L 184.085625 67.425091 

L 187.433625 61.82316 

L 190.781625 56.645901 

L 194.129625 51.944295 

L 197.477625 47.765614 

L 200.825625 44.152626 

L 204.173625 41.14287 

L 207.521625 38.768006 

L 210.869625 37.05326 

L 214.217625 36.016981 

L 217.565625 35.670309 

L 220.913625 36.016981 

L 224.261625 37.05326 

L 227.609625 38.768006 

L 230.957625 41.14287 

L 234.305625 44.152626 

L 237.653625 47.765614 

L 241.001625 51.944295 

L 244.349625 56.645901 

L 247.697625 61.82316 

L 251.045625 67.425091 

L 254.393625 73.397829 

L 257.741625 79.68549 

L 261.089625 86.231028 

L 264.437625 92.977089 

L 267.785625 99.866826 

L 271.133625 106.844673 

L 274.481625 113.85706 

L 277.829625 120.853048 

L 281.177625 127.784895 

L 284.525625 134.608517 

L 287.873625 141.283873 

L 291.221625 147.77524 

L 294.569625 154.051407 

L 297.917625 160.085764 

L 301.265625 165.856317 

L 304.613625 171.345614 

L 307.961625 176.540603 

L 311.309625 181.432426 

L 314.657625 186.016157 

L 318.005625 190.290502 

L 321.353625 194.257461 

L 324.701625 197.921968 

L 328.049625 201.291525 

L 331.397625 204.375816 

L 334.745625 207.186345 

L 338.093625 209.736066 

L 341.441625 212.039042 

L 344.789625 214.110123 

L 348.137625 215.964649 

L 351.485625 217.618182 

L 354.833625 219.086266 

L 358.181625 220.384226 

L 361.529625 221.52699 

L 364.877625 222.528945 

L 368.225625 223.403823 

L 371.573625 224.164612 

L 374.921625 224.823495 

L 378.269625 225.391809 

L 381.617625 225.880025 

L 384.965625 226.29775 

L 384.965625 228.439219 

L 384.965625 228.439219 

L 381.617625 228.439219 

L 378.269625 228.439219 

L 374.921625 228.439219 

L 371.573625 228.439219 

L 368.225625 228.439219 

L 364.877625 228.439219 

L 361.529625 228.439219 

L 358.181625 228.439219 

L 354.833625 228.439219 

L 351.485625 228.439219 

L 348.137625 228.439219 

L 344.789625 228.439219 

L 341.441625 228.439219 

L 338.093625 228.439219 

L 334.745625 228.439219 

L 331.397625 228.439219 

L 328.049625 228.439219 

L 324.701625 228.439219 

L 321.353625 228.439219 

L 318.005625 228.439219 

L 314.657625 228.439219 

L 311.309625 228.439219 

L 307.961625 228.439219 

L 304.613625 228.439219 

L 301.265625 228.439219 

L 297.917625 228.439219 

L 294.569625 228.439219 

L 291.221625 228.439219 

L 287.873625 228.439219 

L 284.525625 228.439219 

L 281.177625 228.439219 

L 277.829625 228.439219 

L 274.481625 228.439219 

L 271.133625 228.439219 

L 267.785625 228.439219 

L 264.437625 228.439219 

L 261.089625 228.439219 

L 257.741625 228.439219 

L 254.393625 228.439219 

L 251.045625 228.439219 

L 247.697625 228.439219 

L 244.349625 228.439219 

L 241.001625 228.439219 

L 237.653625 228.439219 

L 234.305625 228.439219 

L 230.957625 228.439219 

L 227.609625 228.439219 

L 224.261625 228.439219 

L 220.913625 228.439219 

L 217.565625 228.439219 

L 214.217625 228.439219 

L 210.869625 228.439219 

L 207.521625 228.439219 

L 204.173625 228.439219 

L 200.825625 228.439219 

L 197.477625 228.439219 

L 194.129625 228.439219 

L 190.781625 228.439219 

L 187.433625 228.439219 

L 184.085625 228.439219 

L 180.737625 228.439219 

L 177.389625 228.439219 

L 174.041625 228.439219 

L 170.693625 228.439219 

L 167.345625 228.439219 

L 163.997625 228.439219 

L 160.649625 228.439219 

L 157.301625 228.439219 

L 153.953625 228.439219 

L 150.605625 228.439219 

L 147.257625 228.439219 

L 143.909625 228.439219 

L 140.561625 228.439219 

L 137.213625 228.439219 

L 133.865625 228.439219 

L 130.517625 228.439219 

L 127.169625 228.439219 

L 123.821625 228.439219 

L 120.473625 228.439219 

L 117.125625 228.439219 

L 113.777625 228.439219 

L 110.429625 228.439219 

L 107.081625 228.439219 

L 103.733625 228.439219 

L 100.385625 228.439219 

L 97.037625 228.439219 

L 93.689625 228.439219 

L 90.341625 228.439219 

L 86.993625 228.439219 

L 83.645625 228.439219 

L 80.297625 228.439219 

L 76.949625 228.439219 

L 73.601625 228.439219 

L 70.253625 228.439219 

L 66.905625 228.439219 

L 63.557625 228.439219 

L 60.209625 228.439219 

L 56.861625 228.439219 

L 53.513625 228.439219 

L 50.165625 228.439219 

z

" style="fill:#1f77b4;"/>

   </g>

   <g id="matplotlib.axis_1">

    <g id="xtick_1">

     <g id="line2d_1">

      <defs>

       <path d="M 0 0 

L 0 3.5 

" id="m25430b1f2a" style="stroke:#000000;stroke-width:0.8;"/>

      </defs>

      <g>

       <use style="stroke:#000000;stroke-width:0.8;" x="50.165625" xlink:href="#m25430b1f2a" y="228.439219"/>

      </g>

     </g>

     <g id="text_1">

      <!-- −3 -->

      <defs>

       <path d="M 10.59375 35.5 

L 73.1875 35.5 

L 73.1875 27.203125 

L 10.59375 27.203125 

z

" id="DejaVuSans-8722"/>

       <path d="M 40.578125 39.3125 

Q 47.65625 37.796875 51.625 33 

Q 55.609375 28.21875 55.609375 21.1875 

Q 55.609375 10.40625 48.1875 4.484375 

Q 40.765625 -1.421875 27.09375 -1.421875 

Q 22.515625 -1.421875 17.65625 -0.515625 

Q 12.796875 0.390625 7.625 2.203125 

L 7.625 11.71875 

Q 11.71875 9.328125 16.59375 8.109375 

Q 21.484375 6.890625 26.8125 6.890625 

Q 36.078125 6.890625 40.9375 10.546875 

Q 45.796875 14.203125 45.796875 21.1875 

Q 45.796875 27.640625 41.28125 31.265625 

Q 36.765625 34.90625 28.71875 34.90625 

L 20.21875 34.90625 

L 20.21875 43.015625 

L 29.109375 43.015625 

Q 36.375 43.015625 40.234375 45.921875 

Q 44.09375 48.828125 44.09375 54.296875 

Q 44.09375 59.90625 40.109375 62.90625 

Q 36.140625 65.921875 28.71875 65.921875 

Q 24.65625 65.921875 20.015625 65.03125 

Q 15.375 64.15625 9.8125 62.3125 

L 9.8125 71.09375 

Q 15.4375 72.65625 20.34375 73.4375 

Q 25.25 74.21875 29.59375 74.21875 

Q 40.828125 74.21875 47.359375 69.109375 

Q 53.90625 64.015625 53.90625 55.328125 

Q 53.90625 49.265625 50.4375 45.09375 

Q 46.96875 40.921875 40.578125 39.3125 

z

" id="DejaVuSans-51"/>

      </defs>

      <g transform="translate(42.794531 243.037656)scale(0.1 -0.1)">

       <use xlink:href="#DejaVuSans-8722"/>

       <use x="83.789062" xlink:href="#DejaVuSans-51"/>

      </g>

     </g>

    </g>

    <g id="xtick_2">

     <g id="line2d_2">

      <g>

       <use style="stroke:#000000;stroke-width:0.8;" x="105.965625" xlink:href="#m25430b1f2a" y="228.439219"/>

      </g>

     </g>

     <g id="text_2">

      <!-- −2 -->

      <defs>

       <path d="M 19.1875 8.296875 

L 53.609375 8.296875 

L 53.609375 0 

L 7.328125 0 

L 7.328125 8.296875 

Q 12.9375 14.109375 22.625 23.890625 

Q 32.328125 33.6875 34.8125 36.53125 

Q 39.546875 41.84375 41.421875 45.53125 

Q 43.3125 49.21875 43.3125 52.78125 

Q 43.3125 58.59375 39.234375 62.25 

Q 35.15625 65.921875 28.609375 65.921875 

Q 23.96875 65.921875 18.8125 64.3125 

Q 13.671875 62.703125 7.8125 59.421875 

L 7.8125 69.390625 

Q 13.765625 71.78125 18.9375 73 

Q 24.125 74.21875 28.421875 74.21875 

Q 39.75 74.21875 46.484375 68.546875 

Q 53.21875 62.890625 53.21875 53.421875 

Q 53.21875 48.921875 51.53125 44.890625 

Q 49.859375 40.875 45.40625 35.40625 

Q 44.1875 33.984375 37.640625 27.21875 

Q 31.109375 20.453125 19.1875 8.296875 

z

" id="DejaVuSans-50"/>

      </defs>

      <g transform="translate(98.594531 243.037656)scale(0.1 -0.1)">

       <use xlink:href="#DejaVuSans-8722"/>

       <use x="83.789062" xlink:href="#DejaVuSans-50"/>

      </g>

     </g>

    </g>

    <g id="xtick_3">

     <g id="line2d_3">

      <g>

       <use style="stroke:#000000;stroke-width:0.8;" x="161.765625" xlink:href="#m25430b1f2a" y="228.439219"/>

      </g>

     </g>

     <g id="text_3">

      <!-- −1 -->

      <defs>

       <path d="M 12.40625 8.296875 

L 28.515625 8.296875 

L 28.515625 63.921875 

L 10.984375 60.40625 

L 10.984375 69.390625 

L 28.421875 72.90625 

L 38.28125 72.90625 

L 38.28125 8.296875 

L 54.390625 8.296875 

L 54.390625 0 

L 12.40625 0 

z

" id="DejaVuSans-49"/>

      </defs>

      <g transform="translate(154.394531 243.037656)scale(0.1 -0.1)">

       <use xlink:href="#DejaVuSans-8722"/>

       <use x="83.789062" xlink:href="#DejaVuSans-49"/>

      </g>

     </g>

    </g>

    <g id="xtick_4">

     <g id="line2d_4">

      <g>

       <use style="stroke:#000000;stroke-width:0.8;" x="217.565625" xlink:href="#m25430b1f2a" y="228.439219"/>

      </g>

     </g>

     <g id="text_4">

      <!-- 0 -->

      <defs>

       <path d="M 31.78125 66.40625 

Q 24.171875 66.40625 20.328125 58.90625 

Q 16.5 51.421875 16.5 36.375 

Q 16.5 21.390625 20.328125 13.890625 

Q 24.171875 6.390625 31.78125 6.390625 

Q 39.453125 6.390625 43.28125 13.890625 

Q 47.125 21.390625 47.125 36.375 

Q 47.125 51.421875 43.28125 58.90625 

Q 39.453125 66.40625 31.78125 66.40625 

z

M 31.78125 74.21875 

Q 44.046875 74.21875 50.515625 64.515625 

Q 56.984375 54.828125 56.984375 36.375 

Q 56.984375 17.96875 50.515625 8.265625 

Q 44.046875 -1.421875 31.78125 -1.421875 

Q 19.53125 -1.421875 13.0625 8.265625 

Q 6.59375 17.96875 6.59375 36.375 

Q 6.59375 54.828125 13.0625 64.515625 

Q 19.53125 74.21875 31.78125 74.21875 

z

" id="DejaVuSans-48"/>

      </defs>

      <g transform="translate(214.384375 243.037656)scale(0.1 -0.1)">

       <use xlink:href="#DejaVuSans-48"/>

      </g>

     </g>

    </g>

    <g id="xtick_5">

     <g id="line2d_5">

      <g>

       <use style="stroke:#000000;stroke-width:0.8;" x="273.365625" xlink:href="#m25430b1f2a" y="228.439219"/>

      </g>

     </g>

     <g id="text_5">

      <!-- 1 -->

      <g transform="translate(270.184375 243.037656)scale(0.1 -0.1)">

       <use xlink:href="#DejaVuSans-49"/>

      </g>

     </g>

    </g>

    <g id="xtick_6">

     <g id="line2d_6">

      <g>

       <use style="stroke:#000000;stroke-width:0.8;" x="329.165625" xlink:href="#m25430b1f2a" y="228.439219"/>

      </g>

     </g>

     <g id="text_6">

      <!-- 2 -->

      <g transform="translate(325.984375 243.037656)scale(0.1 -0.1)">

       <use xlink:href="#DejaVuSans-50"/>

      </g>

     </g>

    </g>

    <g id="xtick_7">

     <g id="line2d_7">

      <g>

       <use style="stroke:#000000;stroke-width:0.8;" x="384.965625" xlink:href="#m25430b1f2a" y="228.439219"/>

      </g>

     </g>

     <g id="text_7">

      <!-- 3 -->

      <g transform="translate(381.784375 243.037656)scale(0.1 -0.1)">

       <use xlink:href="#DejaVuSans-51"/>

      </g>

     </g>

    </g>

    <g id="text_8">

     <!-- $x$ -->

     <defs>

      <path d="M 60.015625 54.6875 

L 34.90625 27.875 

L 50.296875 0 

L 39.984375 0 

L 28.421875 21.6875 

L 8.296875 0 

L -2.59375 0 

L 24.3125 28.8125 

L 10.015625 54.6875 

L 20.3125 54.6875 

L 30.8125 34.90625 

L 49.125 54.6875 

z

" id="DejaVuSans-Oblique-120"/>

     </defs>

     <g transform="translate(214.565625 256.715781)scale(0.1 -0.1)">

      <use transform="translate(0 0.3125)" xlink:href="#DejaVuSans-Oblique-120"/>

     </g>

    </g>

   </g>

   <g id="matplotlib.axis_2">

    <g id="ytick_1">

     <g id="line2d_8">

      <defs>

       <path d="M 0 0 

L -3.5 0 

" id="m9e3cab3be7" style="stroke:#000000;stroke-width:0.8;"/>

      </defs>

      <g>

       <use style="stroke:#000000;stroke-width:0.8;" x="50.165625" xlink:href="#m9e3cab3be7" y="228.439219"/>

      </g>

     </g>

     <g id="text_9">

      <!-- 0.00 -->

      <defs>

       <path d="M 10.6875 12.40625 

L 21 12.40625 

L 21 0 

L 10.6875 0 

z

" id="DejaVuSans-46"/>

      </defs>

      <g transform="translate(20.9 232.238437)scale(0.1 -0.1)">

       <use xlink:href="#DejaVuSans-48"/>

       <use x="63.623047" xlink:href="#DejaVuSans-46"/>

       <use x="95.410156" xlink:href="#DejaVuSans-48"/>

       <use x="159.033203" xlink:href="#DejaVuSans-48"/>

      </g>

     </g>

    </g>

    <g id="ytick_2">

     <g id="line2d_9">

      <g>

       <use style="stroke:#000000;stroke-width:0.8;" x="50.165625" xlink:href="#m9e3cab3be7" y="204.279219"/>

      </g>

     </g>

     <g id="text_10">

      <!-- 0.05 -->

      <defs>

       <path d="M 10.796875 72.90625 

L 49.515625 72.90625 

L 49.515625 64.59375 

L 19.828125 64.59375 

L 19.828125 46.734375 

Q 21.96875 47.46875 24.109375 47.828125 

Q 26.265625 48.1875 28.421875 48.1875 

Q 40.625 48.1875 47.75 41.5 

Q 54.890625 34.8125 54.890625 23.390625 

Q 54.890625 11.625 47.5625 5.09375 

Q 40.234375 -1.421875 26.90625 -1.421875 

Q 22.3125 -1.421875 17.546875 -0.640625 

Q 12.796875 0.140625 7.71875 1.703125 

L 7.71875 11.625 

Q 12.109375 9.234375 16.796875 8.0625 

Q 21.484375 6.890625 26.703125 6.890625 

Q 35.15625 6.890625 40.078125 11.328125 

Q 45.015625 15.765625 45.015625 23.390625 

Q 45.015625 31 40.078125 35.4375 

Q 35.15625 39.890625 26.703125 39.890625 

Q 22.75 39.890625 18.8125 39.015625 

Q 14.890625 38.140625 10.796875 36.28125 

z

" id="DejaVuSans-53"/>

      </defs>

      <g transform="translate(20.9 208.078437)scale(0.1 -0.1)">

       <use xlink:href="#DejaVuSans-48"/>

       <use x="63.623047" xlink:href="#DejaVuSans-46"/>

       <use x="95.410156" xlink:href="#DejaVuSans-48"/>

       <use x="159.033203" xlink:href="#DejaVuSans-53"/>

      </g>

     </g>

    </g>

    <g id="ytick_3">

     <g id="line2d_10">

      <g>

       <use style="stroke:#000000;stroke-width:0.8;" x="50.165625" xlink:href="#m9e3cab3be7" y="180.119219"/>

      </g>

     </g>

     <g id="text_11">

      <!-- 0.10 -->

      <g transform="translate(20.9 183.918437)scale(0.1 -0.1)">

       <use xlink:href="#DejaVuSans-48"/>

       <use x="63.623047" xlink:href="#DejaVuSans-46"/>

       <use x="95.410156" xlink:href="#DejaVuSans-49"/>

       <use x="159.033203" xlink:href="#DejaVuSans-48"/>

      </g>

     </g>

    </g>

    <g id="ytick_4">

     <g id="line2d_11">

      <g>

       <use style="stroke:#000000;stroke-width:0.8;" x="50.165625" xlink:href="#m9e3cab3be7" y="155.959219"/>

      </g>

     </g>

     <g id="text_12">

      <!-- 0.15 -->

      <g transform="translate(20.9 159.758437)scale(0.1 -0.1)">

       <use xlink:href="#DejaVuSans-48"/>

       <use x="63.623047" xlink:href="#DejaVuSans-46"/>

       <use x="95.410156" xlink:href="#DejaVuSans-49"/>

       <use x="159.033203" xlink:href="#DejaVuSans-53"/>

      </g>

     </g>

    </g>

    <g id="ytick_5">

     <g id="line2d_12">

      <g>

       <use style="stroke:#000000;stroke-width:0.8;" x="50.165625" xlink:href="#m9e3cab3be7" y="131.799219"/>

      </g>

     </g>

     <g id="text_13">

      <!-- 0.20 -->

      <g transform="translate(20.9 135.598437)scale(0.1 -0.1)">

       <use xlink:href="#DejaVuSans-48"/>

       <use x="63.623047" xlink:href="#DejaVuSans-46"/>

       <use x="95.410156" xlink:href="#DejaVuSans-50"/>

       <use x="159.033203" xlink:href="#DejaVuSans-48"/>

      </g>

     </g>

    </g>

    <g id="ytick_6">

     <g id="line2d_13">

      <g>

       <use style="stroke:#000000;stroke-width:0.8;" x="50.165625" xlink:href="#m9e3cab3be7" y="107.639219"/>

      </g>

     </g>

     <g id="text_14">

      <!-- 0.25 -->

      <g transform="translate(20.9 111.438437)scale(0.1 -0.1)">

       <use xlink:href="#DejaVuSans-48"/>

       <use x="63.623047" xlink:href="#DejaVuSans-46"/>

       <use x="95.410156" xlink:href="#DejaVuSans-50"/>

       <use x="159.033203" xlink:href="#DejaVuSans-53"/>

      </g>

     </g>

    </g>

    <g id="ytick_7">

     <g id="line2d_14">

      <g>

       <use style="stroke:#000000;stroke-width:0.8;" x="50.165625" xlink:href="#m9e3cab3be7" y="83.479219"/>

      </g>

     </g>

     <g id="text_15">

      <!-- 0.30 -->

      <g transform="translate(20.9 87.278437)scale(0.1 -0.1)">

       <use xlink:href="#DejaVuSans-48"/>

       <use x="63.623047" xlink:href="#DejaVuSans-46"/>

       <use x="95.410156" xlink:href="#DejaVuSans-51"/>

       <use x="159.033203" xlink:href="#DejaVuSans-48"/>

      </g>

     </g>

    </g>

    <g id="ytick_8">

     <g id="line2d_15">

      <g>

       <use style="stroke:#000000;stroke-width:0.8;" x="50.165625" xlink:href="#m9e3cab3be7" y="59.319219"/>

      </g>

     </g>

     <g id="text_16">

      <!-- 0.35 -->

      <g transform="translate(20.9 63.118437)scale(0.1 -0.1)">

       <use xlink:href="#DejaVuSans-48"/>

       <use x="63.623047" xlink:href="#DejaVuSans-46"/>

       <use x="95.410156" xlink:href="#DejaVuSans-51"/>

       <use x="159.033203" xlink:href="#DejaVuSans-53"/>

      </g>

     </g>

    </g>

    <g id="ytick_9">

     <g id="line2d_16">

      <g>

       <use style="stroke:#000000;stroke-width:0.8;" x="50.165625" xlink:href="#m9e3cab3be7" y="35.159219"/>

      </g>

     </g>

     <g id="text_17">

      <!-- 0.40 -->

      <defs>

       <path d="M 37.796875 64.3125 

L 12.890625 25.390625 

L 37.796875 25.390625 

z

M 35.203125 72.90625 

L 47.609375 72.90625 

L 47.609375 25.390625 

L 58.015625 25.390625 

L 58.015625 17.1875 

L 47.609375 17.1875 

L 47.609375 0 

L 37.796875 0 

L 37.796875 17.1875 

L 4.890625 17.1875 

L 4.890625 26.703125 

z

" id="DejaVuSans-52"/>

      </defs>

      <g transform="translate(20.9 38.958437)scale(0.1 -0.1)">

       <use xlink:href="#DejaVuSans-48"/>

       <use x="63.623047" xlink:href="#DejaVuSans-46"/>

       <use x="95.410156" xlink:href="#DejaVuSans-52"/>

       <use x="159.033203" xlink:href="#DejaVuSans-48"/>

      </g>

     </g>

    </g>

    <g id="ytick_10">

     <g id="line2d_17">

      <g>

       <use style="stroke:#000000;stroke-width:0.8;" x="50.165625" xlink:href="#m9e3cab3be7" y="10.999219"/>

      </g>

     </g>

     <g id="text_18">

      <!-- 0.45 -->

      <g transform="translate(20.9 14.798437)scale(0.1 -0.1)">

       <use xlink:href="#DejaVuSans-48"/>

       <use x="63.623047" xlink:href="#DejaVuSans-46"/>

       <use x="95.410156" xlink:href="#DejaVuSans-52"/>

       <use x="159.033203" xlink:href="#DejaVuSans-53"/>

      </g>

     </g>

    </g>

    <g id="text_19">

     <!-- $p(x)$ -->

     <defs>

      <path d="M 49.609375 33.6875 

Q 49.609375 40.875 46.484375 44.671875 

Q 43.359375 48.484375 37.5 48.484375 

Q 33.5 48.484375 29.859375 46.4375 

Q 26.21875 44.390625 23.390625 40.484375 

Q 20.609375 36.625 18.9375 31.15625 

Q 17.28125 25.6875 17.28125 20.3125 

Q 17.28125 13.484375 20.40625 9.796875 

Q 23.53125 6.109375 29.296875 6.109375 

Q 33.546875 6.109375 37.1875 8.109375 

Q 40.828125 10.109375 43.40625 13.921875 

Q 46.1875 17.921875 47.890625 23.34375 

Q 49.609375 28.765625 49.609375 33.6875 

z

M 21.78125 46.390625 

Q 25.390625 51.125 30.296875 53.5625 

Q 35.203125 56 41.21875 56 

Q 49.609375 56 54.25 50.5 

Q 58.890625 45.015625 58.890625 35.109375 

Q 58.890625 27 56 19.65625 

Q 53.125 12.3125 47.703125 6.5 

Q 44.09375 2.640625 39.546875 0.609375 

Q 35.015625 -1.421875 29.984375 -1.421875 

Q 24.171875 -1.421875 20.21875 1 

Q 16.265625 3.421875 14.3125 8.203125 

L 8.6875 -20.796875 

L -0.296875 -20.796875 

L 14.40625 54.6875 

L 23.390625 54.6875 

z

" id="DejaVuSans-Oblique-112"/>

      <path d="M 31 75.875 

Q 24.46875 64.65625 21.28125 53.65625 

Q 18.109375 42.671875 18.109375 31.390625 

Q 18.109375 20.125 21.3125 9.0625 

Q 24.515625 -2 31 -13.1875 

L 23.1875 -13.1875 

Q 15.875 -1.703125 12.234375 9.375 

Q 8.59375 20.453125 8.59375 31.390625 

Q 8.59375 42.28125 12.203125 53.3125 

Q 15.828125 64.359375 23.1875 75.875 

z

" id="DejaVuSans-40"/>

      <path d="M 8.015625 75.875 

L 15.828125 75.875 

Q 23.140625 64.359375 26.78125 53.3125 

Q 30.421875 42.28125 30.421875 31.390625 

Q 30.421875 20.453125 26.78125 9.375 

Q 23.140625 -1.703125 15.828125 -13.1875 

L 8.015625 -13.1875 

Q 14.5 -2 17.703125 9.0625 

Q 20.90625 20.125 20.90625 31.390625 

Q 20.90625 42.671875 17.703125 53.65625 

Q 14.5 64.65625 8.015625 75.875 

z

" id="DejaVuSans-41"/>

     </defs>

     <g transform="translate(14.8 129.769219)rotate(-90)scale(0.1 -0.1)">

      <use transform="translate(0 0.125)" xlink:href="#DejaVuSans-Oblique-112"/>

      <use transform="translate(63.476562 0.125)" xlink:href="#DejaVuSans-40"/>

      <use transform="translate(102.490234 0.125)" xlink:href="#DejaVuSans-Oblique-120"/>

      <use transform="translate(161.669922 0.125)" xlink:href="#DejaVuSans-41"/>

     </g>

    </g>

   </g>

   <g id="patch_3">

    <path d="M 50.165625 228.439219 

L 50.165625 10.999219 

" style="fill:none;stroke:#000000;stroke-linecap:square;stroke-linejoin:miter;stroke-width:0.8;"/>

   </g>

   <g id="patch_4">

    <path d="M 384.965625 228.439219 

L 384.965625 10.999219 

" style="fill:none;stroke:#000000;stroke-linecap:square;stroke-linejoin:miter;stroke-width:0.8;"/>

   </g>

   <g id="patch_5">

    <path d="M 50.165625 228.439219 

L 384.965625 228.439219 

" style="fill:none;stroke:#000000;stroke-linecap:square;stroke-linejoin:miter;stroke-width:0.8;"/>

   </g>

   <g id="patch_6">

    <path d="M 50.165625 10.999219 

L 384.965625 10.999219 

" style="fill:none;stroke:#000000;stroke-linecap:square;stroke-linejoin:miter;stroke-width:0.8;"/>

   </g>

  </g>

 </g>

 <defs>

  <clipPath id="p6dcffe884b">

   <rect height="217.44" width="334.8" x="50.165625" y="10.999219"/>

  </clipPath>

 </defs>

</svg>
