<?xml version="1.0" encoding="utf-8" standalone="no"?>

<!DOCTYPE svg PUBLIC "-//W3C//DTD SVG 1.1//EN"

  "http://www.w3.org/Graphics/SVG/1.1/DTD/svg11.dtd">

<!-- Created with matplotlib (http://matplotlib.org/) -->

<svg height="265pt" version="1.1" viewBox="0 0 401 265" width="401pt" xmlns="http://www.w3.org/2000/svg" xmlns:xlink="http://www.w3.org/1999/xlink">

 <defs>

  <style type="text/css">

*{stroke-linecap:butt;stroke-linejoin:round;}

  </style>

 </defs>

 <g id="figure_1">

  <g id="patch_1">

   <path d="M 0 265.718125 

L 401.384489 265.718125 

L 401.384489 0 

L 0 0 

z

" style="fill:none;"/>

  </g>

  <g id="axes_1">

   <g id="patch_2">

    <path d="M 51.378125 228.14 

L 386.178125 228.14 

L 386.178125 10.7 

L 51.378125 10.7 

z

" style="fill:#ffffff;"/>

   </g>

   <g id="matplotlib.axis_1">

    <g id="xtick_1">

     <g id="line2d_1">

      <defs>

       <path d="M 0 0 

L 0 3.5 

" id="mcec2fb47d5" style="stroke:#000000;stroke-width:0.8;"/>

      </defs>

      <g>

       <use style="stroke:#000000;stroke-width:0.8;" x="90.945398" xlink:href="#mcec2fb47d5" y="228.14"/>

      </g>

     </g>

     <g id="text_1">

      <!-- $\mathdefault{10^{-13}}$ -->

      <defs>

       <path d="M 12.40625 8.296875 

L 28.515625 8.296875 

L 28.515625 63.921875 

L 10.984375 60.40625 

L 10.984375 69.390625 

L 28.421875 72.90625 

L 38.28125 72.90625 

L 38.28125 8.296875 

L 54.390625 8.296875 

L 54.390625 0 

L 12.40625 0 

z

" id="DejaVuSans-31"/>

       <path d="M 31.78125 66.40625 

Q 24.171875 66.40625 20.328125 58.90625 

Q 16.5 51.421875 16.5 36.375 

Q 16.5 21.390625 20.328125 13.890625 

Q 24.171875 6.390625 31.78125 6.390625 

Q 39.453125 6.390625 43.28125 13.890625 

Q 47.125 21.390625 47.125 36.375 

Q 47.125 51.421875 43.28125 58.90625 

Q 39.453125 66.40625 31.78125 66.40625 

z

M 31.78125 74.21875 

Q 44.046875 74.21875 50.515625 64.515625 

Q 56.984375 54.828125 56.984375 36.375 

Q 56.984375 17.96875 50.515625 8.265625 

Q 44.046875 -1.421875 31.78125 -1.421875 

Q 19.53125 -1.421875 13.0625 8.265625 

Q 6.59375 17.96875 6.59375 36.375 

Q 6.59375 54.828125 13.0625 64.515625 

Q 19.53125 74.21875 31.78125 74.21875 

z

" id="DejaVuSans-30"/>

       <path d="M 10.59375 35.5 

L 73.1875 35.5 

L 73.1875 27.203125 

L 10.59375 27.203125 

z

" id="DejaVuSans-2212"/>

       <path d="M 40.578125 39.3125 

Q 47.65625 37.796875 51.625 33 

Q 55.609375 28.21875 55.609375 21.1875 

Q 55.609375 10.40625 48.1875 4.484375 

Q 40.765625 -1.421875 27.09375 -1.421875 

Q 22.515625 -1.421875 17.65625 -0.515625 

Q 12.796875 0.390625 7.625 2.203125 

L 7.625 11.71875 

Q 11.71875 9.328125 16.59375 8.109375 

Q 21.484375 6.890625 26.8125 6.890625 

Q 36.078125 6.890625 40.9375 10.546875 

Q 45.796875 14.203125 45.796875 21.1875 

Q 45.796875 27.640625 41.28125 31.265625 

Q 36.765625 34.90625 28.71875 34.90625 

L 20.21875 34.90625 

L 20.21875 43.015625 

L 29.109375 43.015625 

Q 36.375 43.015625 40.234375 45.921875 

Q 44.09375 48.828125 44.09375 54.296875 

Q 44.09375 59.90625 40.109375 62.90625 

Q 36.140625 65.921875 28.71875 65.921875 

Q 24.65625 65.921875 20.015625 65.03125 

Q 15.375 64.15625 9.8125 62.3125 

L 9.8125 71.09375 

Q 15.4375 72.65625 20.34375 73.4375 

Q 25.25 74.21875 29.59375 74.21875 

Q 40.828125 74.21875 47.359375 69.109375 

Q 53.90625 64.015625 53.90625 55.328125 

Q 53.90625 49.265625 50.4375 45.09375 

Q 46.96875 40.921875 40.578125 39.3125 

z

" id="DejaVuSans-33"/>

      </defs>

      <g transform="translate(76.995398 242.738437)scale(0.1 -0.1)">

       <use transform="translate(0 0.765625)" xlink:href="#DejaVuSans-31"/>

       <use transform="translate(63.623047 0.765625)" xlink:href="#DejaVuSans-30"/>

       <use transform="translate(128.203125 39.046875)scale(0.7)" xlink:href="#DejaVuSans-2212"/>

       <use transform="translate(186.855469 39.046875)scale(0.7)" xlink:href="#DejaVuSans-31"/>

       <use transform="translate(231.391602 39.046875)scale(0.7)" xlink:href="#DejaVuSans-33"/>

      </g>

     </g>

    </g>

    <g id="xtick_2">

     <g id="line2d_2">

      <g>

       <use style="stroke:#000000;stroke-width:0.8;" x="139.64358" xlink:href="#mcec2fb47d5" y="228.14"/>

      </g>

     </g>

     <g id="text_2">

      <!-- $\mathdefault{10^{-9}}$ -->

      <defs>

       <path d="M 10.984375 1.515625 

L 10.984375 10.5 

Q 14.703125 8.734375 18.5 7.8125 

Q 22.3125 6.890625 25.984375 6.890625 

Q 35.75 6.890625 40.890625 13.453125 

Q 46.046875 20.015625 46.78125 33.40625 

Q 43.953125 29.203125 39.59375 26.953125 

Q 35.25 24.703125 29.984375 24.703125 

Q 19.046875 24.703125 12.671875 31.3125 

Q 6.296875 37.9375 6.296875 49.421875 

Q 6.296875 60.640625 12.9375 67.421875 

Q 19.578125 74.21875 30.609375 74.21875 

Q 43.265625 74.21875 49.921875 64.515625 

Q 56.59375 54.828125 56.59375 36.375 

Q 56.59375 19.140625 48.40625 8.859375 

Q 40.234375 -1.421875 26.421875 -1.421875 

Q 22.703125 -1.421875 18.890625 -0.6875 

Q 15.09375 0.046875 10.984375 1.515625 

z

M 30.609375 32.421875 

Q 37.25 32.421875 41.125 36.953125 

Q 45.015625 41.5 45.015625 49.421875 

Q 45.015625 57.28125 41.125 61.84375 

Q 37.25 66.40625 30.609375 66.40625 

Q 23.96875 66.40625 20.09375 61.84375 

Q 16.21875 57.28125 16.21875 49.421875 

Q 16.21875 41.5 20.09375 36.953125 

Q 23.96875 32.421875 30.609375 32.421875 

z

" id="DejaVuSans-39"/>

      </defs>

      <g transform="translate(127.89358 242.738437)scale(0.1 -0.1)">

       <use transform="translate(0 0.765625)" xlink:href="#DejaVuSans-31"/>

       <use transform="translate(63.623047 0.765625)" xlink:href="#DejaVuSans-30"/>

       <use transform="translate(128.203125 39.046875)scale(0.7)" xlink:href="#DejaVuSans-2212"/>

       <use transform="translate(186.855469 39.046875)scale(0.7)" xlink:href="#DejaVuSans-39"/>

      </g>

     </g>

    </g>

    <g id="xtick_3">

     <g id="line2d_3">

      <g>

       <use style="stroke:#000000;stroke-width:0.8;" x="188.341761" xlink:href="#mcec2fb47d5" y="228.14"/>

      </g>

     </g>

     <g id="text_3">

      <!-- $\mathdefault{10^{-5}}$ -->

      <defs>

       <path d="M 10.796875 72.90625 

L 49.515625 72.90625 

L 49.515625 64.59375 

L 19.828125 64.59375 

L 19.828125 46.734375 

Q 21.96875 47.46875 24.109375 47.828125 

Q 26.265625 48.1875 28.421875 48.1875 

Q 40.625 48.1875 47.75 41.5 

Q 54.890625 34.8125 54.890625 23.390625 

Q 54.890625 11.625 47.5625 5.09375 

Q 40.234375 -1.421875 26.90625 -1.421875 

Q 22.3125 -1.421875 17.546875 -0.640625 

Q 12.796875 0.140625 7.71875 1.703125 

L 7.71875 11.625 

Q 12.109375 9.234375 16.796875 8.0625 

Q 21.484375 6.890625 26.703125 6.890625 

Q 35.15625 6.890625 40.078125 11.328125 

Q 45.015625 15.765625 45.015625 23.390625 

Q 45.015625 31 40.078125 35.4375 

Q 35.15625 39.890625 26.703125 39.890625 

Q 22.75 39.890625 18.8125 39.015625 

Q 14.890625 38.140625 10.796875 36.28125 

z

" id="DejaVuSans-35"/>

      </defs>

      <g transform="translate(176.591761 242.738437)scale(0.1 -0.1)">

       <use transform="translate(0 0.684375)" xlink:href="#DejaVuSans-31"/>

       <use transform="translate(63.623047 0.684375)" xlink:href="#DejaVuSans-30"/>

       <use transform="translate(128.203125 38.965625)scale(0.7)" xlink:href="#DejaVuSans-2212"/>

       <use transform="translate(186.855469 38.965625)scale(0.7)" xlink:href="#DejaVuSans-35"/>

      </g>

     </g>

    </g>

    <g id="xtick_4">

     <g id="line2d_4">

      <g>

       <use style="stroke:#000000;stroke-width:0.8;" x="237.039943" xlink:href="#mcec2fb47d5" y="228.14"/>

      </g>

     </g>

     <g id="text_4">

      <!-- $\mathdefault{10^{-1}}$ -->

      <g transform="translate(225.289943 242.738437)scale(0.1 -0.1)">

       <use transform="translate(0 0.684375)" xlink:href="#DejaVuSans-31"/>

       <use transform="translate(63.623047 0.684375)" xlink:href="#DejaVuSans-30"/>

       <use transform="translate(128.203125 38.965625)scale(0.7)" xlink:href="#DejaVuSans-2212"/>

       <use transform="translate(186.855469 38.965625)scale(0.7)" xlink:href="#DejaVuSans-31"/>

      </g>

     </g>

    </g>

    <g id="xtick_5">

     <g id="line2d_5">

      <g>

       <use style="stroke:#000000;stroke-width:0.8;" x="285.738125" xlink:href="#mcec2fb47d5" y="228.14"/>

      </g>

     </g>

     <g id="text_5">

      <!-- $\mathdefault{10^{3}}$ -->

      <g transform="translate(276.938125 242.738437)scale(0.1 -0.1)">

       <use transform="translate(0 0.765625)" xlink:href="#DejaVuSans-31"/>

       <use transform="translate(63.623047 0.765625)" xlink:href="#DejaVuSans-30"/>

       <use transform="translate(128.203125 39.046875)scale(0.7)" xlink:href="#DejaVuSans-33"/>

      </g>

     </g>

    </g>

    <g id="xtick_6">

     <g id="line2d_6">

      <g>

       <use style="stroke:#000000;stroke-width:0.8;" x="334.436307" xlink:href="#mcec2fb47d5" y="228.14"/>

      </g>

     </g>

     <g id="text_6">

      <!-- $\mathdefault{10^{7}}$ -->

      <defs>

       <path d="M 8.203125 72.90625 

L 55.078125 72.90625 

L 55.078125 68.703125 

L 28.609375 0 

L 18.3125 0 

L 43.21875 64.59375 

L 8.203125 64.59375 

z

" id="DejaVuSans-37"/>

      </defs>

      <g transform="translate(325.636307 242.738437)scale(0.1 -0.1)">

       <use transform="translate(0 0.684375)" xlink:href="#DejaVuSans-31"/>

       <use transform="translate(63.623047 0.684375)" xlink:href="#DejaVuSans-30"/>

       <use transform="translate(128.203125 38.965625)scale(0.7)" xlink:href="#DejaVuSans-37"/>

      </g>

     </g>

    </g>

    <g id="xtick_7">

     <g id="line2d_7">

      <g>

       <use style="stroke:#000000;stroke-width:0.8;" x="383.134489" xlink:href="#mcec2fb47d5" y="228.14"/>

      </g>

     </g>

     <g id="text_7">

      <!-- $\mathdefault{10^{11}}$ -->

      <g transform="translate(372.084489 242.738437)scale(0.1 -0.1)">

       <use transform="translate(0 0.684375)" xlink:href="#DejaVuSans-31"/>

       <use transform="translate(63.623047 0.684375)" xlink:href="#DejaVuSans-30"/>

       <use transform="translate(128.203125 38.965625)scale(0.7)" xlink:href="#DejaVuSans-31"/>

       <use transform="translate(172.739258 38.965625)scale(0.7)" xlink:href="#DejaVuSans-31"/>

      </g>

     </g>

    </g>

    <g id="text_8">

     <!-- Regularization parameter $\lambda$ -->

     <defs>

      <path d="M 44.390625 34.1875 

Q 47.5625 33.109375 50.5625 29.59375 

Q 53.5625 26.078125 56.59375 19.921875 

L 66.609375 0 

L 56 0 

L 46.6875 18.703125 

Q 43.0625 26.03125 39.671875 28.421875 

Q 36.28125 30.8125 30.421875 30.8125 

L 19.671875 30.8125 

L 19.671875 0 

L 9.8125 0 

L 9.8125 72.90625 

L 32.078125 72.90625 

Q 44.578125 72.90625 50.734375 67.671875 

Q 56.890625 62.453125 56.890625 51.90625 

Q 56.890625 45.015625 53.6875 40.46875 

Q 50.484375 35.9375 44.390625 34.1875 

z

M 19.671875 64.796875 

L 19.671875 38.921875 

L 32.078125 38.921875 

Q 39.203125 38.921875 42.84375 42.21875 

Q 46.484375 45.515625 46.484375 51.90625 

Q 46.484375 58.296875 42.84375 61.546875 

Q 39.203125 64.796875 32.078125 64.796875 

z

" id="DejaVuSans-52"/>

      <path d="M 56.203125 29.59375 

L 56.203125 25.203125 

L 14.890625 25.203125 

Q 15.484375 15.921875 20.484375 11.0625 

Q 25.484375 6.203125 34.421875 6.203125 

Q 39.59375 6.203125 44.453125 7.46875 

Q 49.3125 8.734375 54.109375 11.28125 

L 54.109375 2.78125 

Q 49.265625 0.734375 44.1875 -0.34375 

Q 39.109375 -1.421875 33.890625 -1.421875 

Q 20.796875 -1.421875 13.15625 6.1875 

Q 5.515625 13.8125 5.515625 26.8125 

Q 5.515625 40.234375 12.765625 48.109375 

Q 20.015625 56 32.328125 56 

Q 43.359375 56 49.78125 48.890625 

Q 56.203125 41.796875 56.203125 29.59375 

z

M 47.21875 32.234375 

Q 47.125 39.59375 43.09375 43.984375 

Q 39.0625 48.390625 32.421875 48.390625 

Q 24.90625 48.390625 20.390625 44.140625 

Q 15.875 39.890625 15.1875 32.171875 

z

" id="DejaVuSans-65"/>

      <path d="M 45.40625 27.984375 

Q 45.40625 37.75 41.375 43.109375 

Q 37.359375 48.484375 30.078125 48.484375 

Q 22.859375 48.484375 18.828125 43.109375 

Q 14.796875 37.75 14.796875 27.984375 

Q 14.796875 18.265625 18.828125 12.890625 

Q 22.859375 7.515625 30.078125 7.515625 

Q 37.359375 7.515625 41.375 12.890625 

Q 45.40625 18.265625 45.40625 27.984375 

z

M 54.390625 6.78125 

Q 54.390625 -7.171875 48.1875 -13.984375 

Q 42 -20.796875 29.203125 -20.796875 

Q 24.46875 -20.796875 20.265625 -20.09375 

Q 16.0625 -19.390625 12.109375 -17.921875 

L 12.109375 -9.1875 

Q 16.0625 -11.328125 19.921875 -12.34375 

Q 23.78125 -13.375 27.78125 -13.375 

Q 36.625 -13.375 41.015625 -8.765625 

Q 45.40625 -4.15625 45.40625 5.171875 

L 45.40625 9.625 

Q 42.625 4.78125 38.28125 2.390625 

Q 33.9375 0 27.875 0 

Q 17.828125 0 11.671875 7.65625 

Q 5.515625 15.328125 5.515625 27.984375 

Q 5.515625 40.671875 11.671875 48.328125 

Q 17.828125 56 27.875 56 

Q 33.9375 56 38.28125 53.609375 

Q 42.625 51.21875 45.40625 46.390625 

L 45.40625 54.6875 

L 54.390625 54.6875 

z

" id="DejaVuSans-67"/>

      <path d="M 8.5 21.578125 

L 8.5 54.6875 

L 17.484375 54.6875 

L 17.484375 21.921875 

Q 17.484375 14.15625 20.5 10.265625 

Q 23.53125 6.390625 29.59375 6.390625 

Q 36.859375 6.390625 41.078125 11.03125 

Q 45.3125 15.671875 45.3125 23.6875 

L 45.3125 54.6875 

L 54.296875 54.6875 

L 54.296875 0 

L 45.3125 0 

L 45.3125 8.40625 

Q 42.046875 3.421875 37.71875 1 

Q 33.40625 -1.421875 27.6875 -1.421875 

Q 18.265625 -1.421875 13.375 4.4375 

Q 8.5 10.296875 8.5 21.578125 

z

M 31.109375 56 

z

" id="DejaVuSans-75"/>

      <path d="M 9.421875 75.984375 

L 18.40625 75.984375 

L 18.40625 0 

L 9.421875 0 

z

" id="DejaVuSans-6c"/>

      <path d="M 34.28125 27.484375 

Q 23.390625 27.484375 19.1875 25 

Q 14.984375 22.515625 14.984375 16.5 

Q 14.984375 11.71875 18.140625 8.90625 

Q 21.296875 6.109375 26.703125 6.109375 

Q 34.1875 6.109375 38.703125 11.40625 

Q 43.21875 16.703125 43.21875 25.484375 

L 43.21875 27.484375 

z

M 52.203125 31.203125 

L 52.203125 0 

L 43.21875 0 

L 43.21875 8.296875 

Q 40.140625 3.328125 35.546875 0.953125 

Q 30.953125 -1.421875 24.3125 -1.421875 

Q 15.921875 -1.421875 10.953125 3.296875 

Q 6 8.015625 6 15.921875 

Q 6 25.140625 12.171875 29.828125 

Q 18.359375 34.515625 30.609375 34.515625 

L 43.21875 34.515625 

L 43.21875 35.40625 

Q 43.21875 41.609375 39.140625 45 

Q 35.0625 48.390625 27.6875 48.390625 

Q 23 48.390625 18.546875 47.265625 

Q 14.109375 46.140625 10.015625 43.890625 

L 10.015625 52.203125 

Q 14.9375 54.109375 19.578125 55.046875 

Q 24.21875 56 28.609375 56 

Q 40.484375 56 46.34375 49.84375 

Q 52.203125 43.703125 52.203125 31.203125 

z

" id="DejaVuSans-61"/>

      <path d="M 41.109375 46.296875 

Q 39.59375 47.171875 37.8125 47.578125 

Q 36.03125 48 33.890625 48 

Q 26.265625 48 22.1875 43.046875 

Q 18.109375 38.09375 18.109375 28.8125 

L 18.109375 0 

L 9.078125 0 

L 9.078125 54.6875 

L 18.109375 54.6875 

L 18.109375 46.1875 

Q 20.953125 51.171875 25.484375 53.578125 

Q 30.03125 56 36.53125 56 

Q 37.453125 56 38.578125 55.875 

Q 39.703125 55.765625 41.0625 55.515625 

z

" id="DejaVuSans-72"/>

      <path d="M 9.421875 54.6875 

L 18.40625 54.6875 

L 18.40625 0 

L 9.421875 0 

z

M 9.421875 75.984375 

L 18.40625 75.984375 

L 18.40625 64.59375 

L 9.421875 64.59375 

z

" id="DejaVuSans-69"/>

      <path d="M 5.515625 54.6875 

L 48.1875 54.6875 

L 48.1875 46.484375 

L 14.40625 7.171875 

L 48.1875 7.171875 

L 48.1875 0 

L 4.296875 0 

L 4.296875 8.203125 

L 38.09375 47.515625 

L 5.515625 47.515625 

z

" id="DejaVuSans-7a"/>

      <path d="M 18.3125 70.21875 

L 18.3125 54.6875 

L 36.8125 54.6875 

L 36.8125 47.703125 

L 18.3125 47.703125 

L 18.3125 18.015625 

Q 18.3125 11.328125 20.140625 9.421875 

Q 21.96875 7.515625 27.59375 7.515625 

L 36.8125 7.515625 

L 36.8125 0 

L 27.59375 0 

Q 17.1875 0 13.234375 3.875 

Q 9.28125 7.765625 9.28125 18.015625 

L 9.28125 47.703125 

L 2.6875 47.703125 

L 2.6875 54.6875 

L 9.28125 54.6875 

L 9.28125 70.21875 

z

" id="DejaVuSans-74"/>

      <path d="M 30.609375 48.390625 

Q 23.390625 48.390625 19.1875 42.75 

Q 14.984375 37.109375 14.984375 27.296875 

Q 14.984375 17.484375 19.15625 11.84375 

Q 23.34375 6.203125 30.609375 6.203125 

Q 37.796875 6.203125 41.984375 11.859375 

Q 46.1875 17.53125 46.1875 27.296875 

Q 46.1875 37.015625 41.984375 42.703125 

Q 37.796875 48.390625 30.609375 48.390625 

z

M 30.609375 56 

Q 42.328125 56 49.015625 48.375 

Q 55.71875 40.765625 55.71875 27.296875 

Q 55.71875 13.875 49.015625 6.21875 

Q 42.328125 -1.421875 30.609375 -1.421875 

Q 18.84375 -1.421875 12.171875 6.21875 

Q 5.515625 13.875 5.515625 27.296875 

Q 5.515625 40.765625 12.171875 48.375 

Q 18.84375 56 30.609375 56 

z

" id="DejaVuSans-6f"/>

      <path d="M 54.890625 33.015625 

L 54.890625 0 

L 45.90625 0 

L 45.90625 32.71875 

Q 45.90625 40.484375 42.875 44.328125 

Q 39.84375 48.1875 33.796875 48.1875 

Q 26.515625 48.1875 22.3125 43.546875 

Q 18.109375 38.921875 18.109375 30.90625 

L 18.109375 0 

L 9.078125 0 

L 9.078125 54.6875 

L 18.109375 54.6875 

L 18.109375 46.1875 

Q 21.34375 51.125 25.703125 53.5625 

Q 30.078125 56 35.796875 56 

Q 45.21875 56 50.046875 50.171875 

Q 54.890625 44.34375 54.890625 33.015625 

z

" id="DejaVuSans-6e"/>

      <path id="DejaVuSans-20"/>

      <path d="M 18.109375 8.203125 

L 18.109375 -20.796875 

L 9.078125 -20.796875 

L 9.078125 54.6875 

L 18.109375 54.6875 

L 18.109375 46.390625 

Q 20.953125 51.265625 25.265625 53.625 

Q 29.59375 56 35.59375 56 

Q 45.5625 56 51.78125 48.09375 

Q 58.015625 40.1875 58.015625 27.296875 

Q 58.015625 14.40625 51.78125 6.484375 

Q 45.5625 -1.421875 35.59375 -1.421875 

Q 29.59375 -1.421875 25.265625 0.953125 

Q 20.953125 3.328125 18.109375 8.203125 

z

M 48.6875 27.296875 

Q 48.6875 37.203125 44.609375 42.84375 

Q 40.53125 48.484375 33.40625 48.484375 

Q 26.265625 48.484375 22.1875 42.84375 

Q 18.109375 37.203125 18.109375 27.296875 

Q 18.109375 17.390625 22.1875 11.75 

Q 26.265625 6.109375 33.40625 6.109375 

Q 40.53125 6.109375 44.609375 11.75 

Q 48.6875 17.390625 48.6875 27.296875 

z

" id="DejaVuSans-70"/>

      <path d="M 52 44.1875 

Q 55.375 50.25 60.0625 53.125 

Q 64.75 56 71.09375 56 

Q 79.640625 56 84.28125 50.015625 

Q 88.921875 44.046875 88.921875 33.015625 

L 88.921875 0 

L 79.890625 0 

L 79.890625 32.71875 

Q 79.890625 40.578125 77.09375 44.375 

Q 74.3125 48.1875 68.609375 48.1875 

Q 61.625 48.1875 57.5625 43.546875 

Q 53.515625 38.921875 53.515625 30.90625 

L 53.515625 0 

L 44.484375 0 

L 44.484375 32.71875 

Q 44.484375 40.625 41.703125 44.40625 

Q 38.921875 48.1875 33.109375 48.1875 

Q 26.21875 48.1875 22.15625 43.53125 

Q 18.109375 38.875 18.109375 30.90625 

L 18.109375 0 

L 9.078125 0 

L 9.078125 54.6875 

L 18.109375 54.6875 

L 18.109375 46.1875 

Q 21.1875 51.21875 25.484375 53.609375 

Q 29.78125 56 35.6875 56 

Q 41.65625 56 45.828125 52.96875 

Q 50 49.953125 52 44.1875 

z

" id="DejaVuSans-6d"/>

      <path d="M 36.71875 67.4375 

L 48.828125 0 

L 39.3125 0 

L 31.84375 40.4375 

L 5.125 0 

L -4.390625 0 

L 29.734375 52.4375 

L 28.03125 62.109375 

Q 26.953125 68.265625 21.734375 68.265625 

L 17.046875 68.265625 

L 18.5 75.984375 

L 24.21875 75.875 

Q 35.203125 75.734375 36.71875 67.4375 

z

" id="DejaVuSans-Oblique-3bb"/>

     </defs>

     <g transform="translate(150.178125 256.418125)scale(0.1 -0.1)">

      <use transform="translate(0 0.015625)" xlink:href="#DejaVuSans-52"/>

      <use transform="translate(69.482422 0.015625)" xlink:href="#DejaVuSans-65"/>

      <use transform="translate(131.005859 0.015625)" xlink:href="#DejaVuSans-67"/>

      <use transform="translate(194.482422 0.015625)" xlink:href="#DejaVuSans-75"/>

      <use transform="translate(257.861328 0.015625)" xlink:href="#DejaVuSans-6c"/>

      <use transform="translate(285.644531 0.015625)" xlink:href="#DejaVuSans-61"/>

      <use transform="translate(346.923828 0.015625)" xlink:href="#DejaVuSans-72"/>

      <use transform="translate(388.037109 0.015625)" xlink:href="#DejaVuSans-69"/>

      <use transform="translate(415.820312 0.015625)" xlink:href="#DejaVuSans-7a"/>

      <use transform="translate(468.310547 0.015625)" xlink:href="#DejaVuSans-61"/>

      <use transform="translate(529.589844 0.015625)" xlink:href="#DejaVuSans-74"/>

      <use transform="translate(568.798828 0.015625)" xlink:href="#DejaVuSans-69"/>

      <use transform="translate(596.582031 0.015625)" xlink:href="#DejaVuSans-6f"/>

      <use transform="translate(657.763672 0.015625)" xlink:href="#DejaVuSans-6e"/>

      <use transform="translate(721.142578 0.015625)" xlink:href="#DejaVuSans-20"/>

      <use transform="translate(752.929688 0.015625)" xlink:href="#DejaVuSans-70"/>

      <use transform="translate(816.40625 0.015625)" xlink:href="#DejaVuSans-61"/>

      <use transform="translate(877.685547 0.015625)" xlink:href="#DejaVuSans-72"/>

      <use transform="translate(918.798828 0.015625)" xlink:href="#DejaVuSans-61"/>

      <use transform="translate(980.078125 0.015625)" xlink:href="#DejaVuSans-6d"/>

      <use transform="translate(1077.490234 0.015625)" xlink:href="#DejaVuSans-65"/>

      <use transform="translate(1139.013672 0.015625)" xlink:href="#DejaVuSans-74"/>

      <use transform="translate(1178.222656 0.015625)" xlink:href="#DejaVuSans-65"/>

      <use transform="translate(1239.746094 0.015625)" xlink:href="#DejaVuSans-72"/>

      <use transform="translate(1280.859375 0.015625)" xlink:href="#DejaVuSans-20"/>

      <use transform="translate(1312.646484 0.015625)" xlink:href="#DejaVuSans-Oblique-3bb"/>

     </g>

    </g>

   </g>

   <g id="matplotlib.axis_2">

    <g id="ytick_1">

     <g id="line2d_8">

      <defs>

       <path d="M 0 0 

L -3.5 0 

" id="m030c5775ed" style="stroke:#000000;stroke-width:0.8;"/>

      </defs>

      <g>

       <use style="stroke:#000000;stroke-width:0.8;" x="51.378125" xlink:href="#m030c5775ed" y="208.527506"/>

      </g>

     </g>

     <g id="text_9">

      <!-- $\mathdefault{10^{-1}}$ -->

      <g transform="translate(20.878125 212.326725)scale(0.1 -0.1)">

       <use transform="translate(0 0.684375)" xlink:href="#DejaVuSans-31"/>

       <use transform="translate(63.623047 0.684375)" xlink:href="#DejaVuSans-30"/>

       <use transform="translate(128.203125 38.965625)scale(0.7)" xlink:href="#DejaVuSans-2212"/>

       <use transform="translate(186.855469 38.965625)scale(0.7)" xlink:href="#DejaVuSans-31"/>

      </g>

     </g>

    </g>

    <g id="ytick_2">

     <g id="line2d_9">

      <g>

       <use style="stroke:#000000;stroke-width:0.8;" x="51.378125" xlink:href="#m030c5775ed" y="177.902279"/>

      </g>

     </g>

     <g id="text_10">

      <!-- $\mathdefault{10^{1}}$ -->

      <g transform="translate(26.778125 181.701498)scale(0.1 -0.1)">

       <use transform="translate(0 0.684375)" xlink:href="#DejaVuSans-31"/>

       <use transform="translate(63.623047 0.684375)" xlink:href="#DejaVuSans-30"/>

       <use transform="translate(128.203125 38.965625)scale(0.7)" xlink:href="#DejaVuSans-31"/>

      </g>

     </g>

    </g>

    <g id="ytick_3">

     <g id="line2d_10">

      <g>

       <use style="stroke:#000000;stroke-width:0.8;" x="51.378125" xlink:href="#m030c5775ed" y="147.277051"/>

      </g>

     </g>

     <g id="text_11">

      <!-- $\mathdefault{10^{3}}$ -->

      <g transform="translate(26.778125 151.07627)scale(0.1 -0.1)">

       <use transform="translate(0 0.765625)" xlink:href="#DejaVuSans-31"/>

       <use transform="translate(63.623047 0.765625)" xlink:href="#DejaVuSans-30"/>

       <use transform="translate(128.203125 39.046875)scale(0.7)" xlink:href="#DejaVuSans-33"/>

      </g>

     </g>

    </g>

    <g id="ytick_4">

     <g id="line2d_11">

      <g>

       <use style="stroke:#000000;stroke-width:0.8;" x="51.378125" xlink:href="#m030c5775ed" y="116.651824"/>

      </g>

     </g>

     <g id="text_12">

      <!-- $\mathdefault{10^{5}}$ -->

      <g transform="translate(26.778125 120.451043)scale(0.1 -0.1)">

       <use transform="translate(0 0.684375)" xlink:href="#DejaVuSans-31"/>

       <use transform="translate(63.623047 0.684375)" xlink:href="#DejaVuSans-30"/>

       <use transform="translate(128.203125 38.965625)scale(0.7)" xlink:href="#DejaVuSans-35"/>

      </g>

     </g>

    </g>

    <g id="ytick_5">

     <g id="line2d_12">

      <g>

       <use style="stroke:#000000;stroke-width:0.8;" x="51.378125" xlink:href="#m030c5775ed" y="86.026596"/>

      </g>

     </g>

     <g id="text_13">

      <!-- $\mathdefault{10^{7}}$ -->

      <g transform="translate(26.778125 89.825815)scale(0.1 -0.1)">

       <use transform="translate(0 0.684375)" xlink:href="#DejaVuSans-31"/>

       <use transform="translate(63.623047 0.684375)" xlink:href="#DejaVuSans-30"/>

       <use transform="translate(128.203125 38.965625)scale(0.7)" xlink:href="#DejaVuSans-37"/>

      </g>

     </g>

    </g>

    <g id="ytick_6">

     <g id="line2d_13">

      <g>

       <use style="stroke:#000000;stroke-width:0.8;" x="51.378125" xlink:href="#m030c5775ed" y="55.401369"/>

      </g>

     </g>

     <g id="text_14">

      <!-- $\mathdefault{10^{9}}$ -->

      <g transform="translate(26.778125 59.200588)scale(0.1 -0.1)">

       <use transform="translate(0 0.765625)" xlink:href="#DejaVuSans-31"/>

       <use transform="translate(63.623047 0.765625)" xlink:href="#DejaVuSans-30"/>

       <use transform="translate(128.203125 39.046875)scale(0.7)" xlink:href="#DejaVuSans-39"/>

      </g>

     </g>

    </g>

    <g id="ytick_7">

     <g id="line2d_14">

      <g>

       <use style="stroke:#000000;stroke-width:0.8;" x="51.378125" xlink:href="#m030c5775ed" y="24.776141"/>

      </g>

     </g>

     <g id="text_15">

      <!-- $\mathdefault{10^{11}}$ -->

      <g transform="translate(22.278125 28.57536)scale(0.1 -0.1)">

       <use transform="translate(0 0.684375)" xlink:href="#DejaVuSans-31"/>

       <use transform="translate(63.623047 0.684375)" xlink:href="#DejaVuSans-30"/>

       <use transform="translate(128.203125 38.965625)scale(0.7)" xlink:href="#DejaVuSans-31"/>

       <use transform="translate(172.739258 38.965625)scale(0.7)" xlink:href="#DejaVuSans-31"/>

      </g>

     </g>

    </g>

    <g id="text_16">

     <!-- Average squared loss -->

     <defs>

      <path d="M 34.1875 63.1875 

L 20.796875 26.90625 

L 47.609375 26.90625 

z

M 28.609375 72.90625 

L 39.796875 72.90625 

L 67.578125 0 

L 57.328125 0 

L 50.6875 18.703125 

L 17.828125 18.703125 

L 11.1875 0 

L 0.78125 0 

z

" id="DejaVuSans-41"/>

      <path d="M 2.984375 54.6875 

L 12.5 54.6875 

L 29.59375 8.796875 

L 46.6875 54.6875 

L 56.203125 54.6875 

L 35.6875 0 

L 23.484375 0 

z

" id="DejaVuSans-76"/>

      <path d="M 44.28125 53.078125 

L 44.28125 44.578125 

Q 40.484375 46.53125 36.375 47.5 

Q 32.28125 48.484375 27.875 48.484375 

Q 21.1875 48.484375 17.84375 46.4375 

Q 14.5 44.390625 14.5 40.28125 

Q 14.5 37.15625 16.890625 35.375 

Q 19.28125 33.59375 26.515625 31.984375 

L 29.59375 31.296875 

Q 39.15625 29.25 43.1875 25.515625 

Q 47.21875 21.78125 47.21875 15.09375 

Q 47.21875 7.46875 41.1875 3.015625 

Q 35.15625 -1.421875 24.609375 -1.421875 

Q 20.21875 -1.421875 15.453125 -0.5625 

Q 10.6875 0.296875 5.421875 2 

L 5.421875 11.28125 

Q 10.40625 8.6875 15.234375 7.390625 

Q 20.0625 6.109375 24.8125 6.109375 

Q 31.15625 6.109375 34.5625 8.28125 

Q 37.984375 10.453125 37.984375 14.40625 

Q 37.984375 18.0625 35.515625 20.015625 

Q 33.0625 21.96875 24.703125 23.78125 

L 21.578125 24.515625 

Q 13.234375 26.265625 9.515625 29.90625 

Q 5.8125 33.546875 5.8125 39.890625 

Q 5.8125 47.609375 11.28125 51.796875 

Q 16.75 56 26.8125 56 

Q 31.78125 56 36.171875 55.265625 

Q 40.578125 54.546875 44.28125 53.078125 

z

" id="DejaVuSans-73"/>

      <path d="M 14.796875 27.296875 

Q 14.796875 17.390625 18.875 11.75 

Q 22.953125 6.109375 30.078125 6.109375 

Q 37.203125 6.109375 41.296875 11.75 

Q 45.40625 17.390625 45.40625 27.296875 

Q 45.40625 37.203125 41.296875 42.84375 

Q 37.203125 48.484375 30.078125 48.484375 

Q 22.953125 48.484375 18.875 42.84375 

Q 14.796875 37.203125 14.796875 27.296875 

z

M 45.40625 8.203125 

Q 42.578125 3.328125 38.25 0.953125 

Q 33.9375 -1.421875 27.875 -1.421875 

Q 17.96875 -1.421875 11.734375 6.484375 

Q 5.515625 14.40625 5.515625 27.296875 

Q 5.515625 40.1875 11.734375 48.09375 

Q 17.96875 56 27.875 56 

Q 33.9375 56 38.25 53.625 

Q 42.578125 51.265625 45.40625 46.390625 

L 45.40625 54.6875 

L 54.390625 54.6875 

L 54.390625 -20.796875 

L 45.40625 -20.796875 

z

" id="DejaVuSans-71"/>

      <path d="M 45.40625 46.390625 

L 45.40625 75.984375 

L 54.390625 75.984375 

L 54.390625 0 

L 45.40625 0 

L 45.40625 8.203125 

Q 42.578125 3.328125 38.25 0.953125 

Q 33.9375 -1.421875 27.875 -1.421875 

Q 17.96875 -1.421875 11.734375 6.484375 

Q 5.515625 14.40625 5.515625 27.296875 

Q 5.515625 40.1875 11.734375 48.09375 

Q 17.96875 56 27.875 56 

Q 33.9375 56 38.25 53.625 

Q 42.578125 51.265625 45.40625 46.390625 

z

M 14.796875 27.296875 

Q 14.796875 17.390625 18.875 11.75 

Q 22.953125 6.109375 30.078125 6.109375 

Q 37.203125 6.109375 41.296875 11.75 

Q 45.40625 17.390625 45.40625 27.296875 

Q 45.40625 37.203125 41.296875 42.84375 

Q 37.203125 48.484375 30.078125 48.484375 

Q 22.953125 48.484375 18.875 42.84375 

Q 14.796875 37.203125 14.796875 27.296875 

z

" id="DejaVuSans-64"/>

     </defs>

     <g transform="translate(14.798438 173.395)rotate(-90)scale(0.1 -0.1)">

      <use xlink:href="#DejaVuSans-41"/>

      <use x="68.330078" xlink:href="#DejaVuSans-76"/>

      <use x="127.509766" xlink:href="#DejaVuSans-65"/>

      <use x="189.033203" xlink:href="#DejaVuSans-72"/>

      <use x="230.146484" xlink:href="#DejaVuSans-61"/>

      <use x="291.425781" xlink:href="#DejaVuSans-67"/>

      <use x="354.902344" xlink:href="#DejaVuSans-65"/>

      <use x="416.425781" xlink:href="#DejaVuSans-20"/>

      <use x="448.212891" xlink:href="#DejaVuSans-73"/>

      <use x="500.3125" xlink:href="#DejaVuSans-71"/>

      <use x="563.789062" xlink:href="#DejaVuSans-75"/>

      <use x="627.167969" xlink:href="#DejaVuSans-61"/>

      <use x="688.447266" xlink:href="#DejaVuSans-72"/>

      <use x="729.529297" xlink:href="#DejaVuSans-65"/>

      <use x="791.052734" xlink:href="#DejaVuSans-64"/>

      <use x="854.529297" xlink:href="#DejaVuSans-20"/>

      <use x="886.316406" xlink:href="#DejaVuSans-6c"/>

      <use x="914.099609" xlink:href="#DejaVuSans-6f"/>

      <use x="975.28125" xlink:href="#DejaVuSans-73"/>

      <use x="1027.380859" xlink:href="#DejaVuSans-73"/>

     </g>

    </g>

   </g>

   <g id="line2d_15">

    <path clip-path="url(#p32fce14792)" d="M 66.596307 217.215991 

L 69.670687 218.256364 

L 72.745067 218.242523 

L 75.819447 218.231674 

L 78.893827 218.251856 

L 81.968208 218.248191 

L 85.042588 218.245762 

L 88.116968 218.243909 

L 91.191348 218.242081 

L 94.265728 218.24064 

L 97.340108 218.2396 

L 100.414489 218.238913 

L 103.488869 218.238479 

L 106.563249 218.238206 

L 109.637629 218.238014 

L 112.712009 218.237842 

L 115.786389 218.237648 

L 118.86077 218.237403 

L 121.93515 218.237108 

L 125.00953 218.236797 

L 128.08391 218.236501 

L 131.15829 218.236215 

L 134.23267 218.235856 

L 137.307051 218.235238 

L 140.381431 218.234083 

L 143.455811 218.232158 

L 146.530191 218.229535 

L 149.604571 218.226626 

L 152.678951 218.223888 

L 155.753332 218.22157 

L 158.827712 218.2197 

L 161.902092 218.218176 

L 164.976472 218.216856 

L 168.050852 218.215634 

L 171.125232 218.214456 

L 174.199613 218.213262 

L 177.273993 218.211916 

L 180.348373 218.210253 

L 183.422753 218.208259 

L 186.497133 218.206172 

L 189.571513 218.204323 

L 192.645894 218.202891 

L 195.720274 218.201854 

L 198.794654 218.201075 

L 201.869034 218.200399 

L 204.943414 218.199701 

L 208.017794 218.198863 

L 211.092175 218.197686 

L 214.166555 218.19585 

L 217.240935 218.193101 

L 220.315315 218.189509 

L 223.389695 218.185361 

L 226.464075 218.180792 

L 229.538456 218.175774 

L 232.612836 218.170343 

L 235.687216 218.164337 

L 238.761596 218.156709 

L 241.835976 218.145104 

L 244.910356 218.125964 

L 247.984737 218.094552 

L 251.059117 218.043203 

L 254.133497 217.957145 

L 257.207877 217.811419 

L 260.282257 217.571663 

L 263.356637 217.188744 

L 266.431018 216.563959 

L 269.505398 215.492241 

L 272.579778 213.660327 

L 275.654158 210.789325 

L 278.728538 206.897012 

L 281.802918 202.398357 

L 284.877299 197.885253 

L 287.951679 193.878563 

L 291.026059 190.697761 

L 294.100439 188.414656 

L 297.174819 186.906681 

L 300.249199 185.970286 

L 303.32358 185.412567 

L 306.39796 185.088996 

L 309.47234 184.904207 

L 312.54672 184.799641 

L 315.6211 184.74078 

L 318.69548 184.707747 

L 321.769861 184.689238 

L 324.844241 184.678878 

L 327.918621 184.673082 

L 330.993001 184.669841 

L 334.067381 184.668028 

L 337.141761 184.667014 

L 340.216142 184.666448 

L 343.290522 184.666131 

L 346.364902 184.665954 

L 349.439282 184.665855 

L 352.513662 184.665799 

L 355.588042 184.665768 

L 358.662423 184.665751 

L 361.736803 184.665741 

L 364.811183 184.665736 

L 367.885563 184.665733 

L 370.959943 184.665731 

" style="fill:none;stroke:#1f77b4;stroke-linecap:square;stroke-width:1.5;"/>

   </g>

   <g id="line2d_16">

    <path clip-path="url(#p32fce14792)" d="M 66.596307 20.583636 

L 69.670687 52.632077 

L 72.745067 56.443173 

L 75.819447 64.838979 

L 78.893827 95.199024 

L 81.968208 113.106627 

L 85.042588 103.291586 

L 88.116968 102.169119 

L 91.191348 106.486183 

L 94.265728 112.877016 

L 97.340108 124.129388 

L 100.414489 151.776076 

L 103.488869 134.522373 

L 106.563249 126.476936 

L 109.637629 122.835679 

L 112.712009 120.91584 

L 115.786389 120.225478 

L 118.86077 120.583152 

L 121.93515 121.775472 

L 125.00953 123.508873 

L 128.08391 125.497255 

L 131.15829 127.582634 

L 134.23267 129.803958 

L 137.307051 132.422188 

L 140.381431 135.874015 

L 143.455811 140.647916 

L 146.530191 147.104786 

L 149.604571 155.193872 

L 152.678951 163.757375 

L 155.753332 169.67059 

L 158.827712 170.860511 

L 161.902092 169.905833 

L 164.976472 169.381076 

L 168.050852 169.871584 

L 171.125232 171.112492 

L 174.199613 172.834437 

L 177.273993 175.14325 

L 180.348373 178.470763 

L 183.422753 183.369246 

L 186.497133 190.609261 

L 189.571513 202.297617 

L 192.645894 216.868466 

L 195.720274 204.597888 

L 198.794654 199.982998 

L 201.869034 198.669489 

L 204.943414 199.075708 

L 208.017794 200.641824 

L 211.092175 203.242684 

L 214.166555 206.993219 

L 217.240935 211.751202 

L 220.315315 215.920622 

L 223.389695 217.407669 

L 226.464075 217.516 

L 229.538456 217.382418 

L 232.612836 216.802919 

L 235.687216 216.002006 

L 238.761596 215.362397 

L 241.835976 214.936189 

L 244.910356 214.683526 

L 247.984737 214.693144 

L 251.059117 215.063746 

L 254.133497 215.651402 

L 257.207877 216.10372 

L 260.282257 216.210537 

L 263.356637 216.032136 

L 266.431018 215.672106 

L 269.505398 214.951661 

L 272.579778 213.380937 

L 275.654158 210.646609 

L 278.728538 206.86001 

L 281.802918 202.449592 

L 284.877299 198.001779 

L 287.951679 194.043315 

L 291.026059 190.896979 

L 294.100439 188.63677 

L 297.174819 187.143041 

L 300.249199 186.215128 

L 303.32358 185.662324 

L 306.39796 185.341557 

L 309.47234 185.158353 

L 312.54672 185.054679 

L 315.6211 184.99632 

L 318.69548 184.963566 

L 321.769861 184.945215 

L 324.844241 184.934943 

L 327.918621 184.929196 

L 330.993001 184.925982 

L 334.067381 184.924185 

L 337.141761 184.92318 

L 340.216142 184.922618 

L 343.290522 184.922303 

L 346.364902 184.922128 

L 349.439282 184.92203 

L 352.513662 184.921975 

L 355.588042 184.921944 

L 358.662423 184.921927 

L 361.736803 184.921917 

L 364.811183 184.921912 

L 367.885563 184.921909 

L 370.959943 184.921907 

" style="fill:none;stroke:#ff7f0e;stroke-linecap:square;stroke-width:1.5;"/>

   </g>

   <g id="patch_3">

    <path d="M 51.378125 228.14 

L 51.378125 10.7 

" style="fill:none;stroke:#000000;stroke-linecap:square;stroke-linejoin:miter;stroke-width:0.8;"/>

   </g>

   <g id="patch_4">

    <path d="M 386.178125 228.14 

L 386.178125 10.7 

" style="fill:none;stroke:#000000;stroke-linecap:square;stroke-linejoin:miter;stroke-width:0.8;"/>

   </g>

   <g id="patch_5">

    <path d="M 51.378125 228.14 

L 386.178125 228.14 

" style="fill:none;stroke:#000000;stroke-linecap:square;stroke-linejoin:miter;stroke-width:0.8;"/>

   </g>

   <g id="patch_6">

    <path d="M 51.378125 10.7 

L 386.178125 10.7 

" style="fill:none;stroke:#000000;stroke-linecap:square;stroke-linejoin:miter;stroke-width:0.8;"/>

   </g>

   <g id="legend_1">

    <g id="patch_7">

     <path d="M 297.032813 48.05625 

L 379.178125 48.05625 

Q 381.178125 48.05625 381.178125 46.05625 

L 381.178125 17.7 

Q 381.178125 15.7 379.178125 15.7 

L 297.032813 15.7 

Q 295.032813 15.7 295.032813 17.7 

L 295.032813 46.05625 

Q 295.032813 48.05625 297.032813 48.05625 

z

" style="fill:#ffffff;opacity:0.8;stroke:#cccccc;stroke-linejoin:miter;"/>

    </g>

    <g id="line2d_17">

     <path d="M 299.032813 23.798437 

L 319.032813 23.798437 

" style="fill:none;stroke:#1f77b4;stroke-linecap:square;stroke-width:1.5;"/>

    </g>

    <g id="line2d_18"/>

    <g id="text_17">

     <!-- Training -->

     <defs>

      <path d="M -0.296875 72.90625 

L 61.375 72.90625 

L 61.375 64.59375 

L 35.5 64.59375 

L 35.5 0 

L 25.59375 0 

L 25.59375 64.59375 

L -0.296875 64.59375 

z

" id="DejaVuSans-54"/>

     </defs>

     <g transform="translate(327.032813 27.298437)scale(0.1 -0.1)">

      <use xlink:href="#DejaVuSans-54"/>

      <use x="60.865234" xlink:href="#DejaVuSans-72"/>

      <use x="101.978516" xlink:href="#DejaVuSans-61"/>

      <use x="163.257812" xlink:href="#DejaVuSans-69"/>

      <use x="191.041016" xlink:href="#DejaVuSans-6e"/>

      <use x="254.419922" xlink:href="#DejaVuSans-69"/>

      <use x="282.203125" xlink:href="#DejaVuSans-6e"/>

      <use x="345.582031" xlink:href="#DejaVuSans-67"/>

     </g>

    </g>

    <g id="line2d_19">

     <path d="M 299.032813 38.476562 

L 319.032813 38.476562 

" style="fill:none;stroke:#ff7f0e;stroke-linecap:square;stroke-width:1.5;"/>

    </g>

    <g id="line2d_20"/>

    <g id="text_18">

     <!-- Validation -->

     <defs>

      <path d="M 28.609375 0 

L 0.78125 72.90625 

L 11.078125 72.90625 

L 34.1875 11.53125 

L 57.328125 72.90625 

L 67.578125 72.90625 

L 39.796875 0 

z

" id="DejaVuSans-56"/>

     </defs>

     <g transform="translate(327.032813 41.976562)scale(0.1 -0.1)">

      <use xlink:href="#DejaVuSans-56"/>

      <use x="68.298828" xlink:href="#DejaVuSans-61"/>

      <use x="129.578125" xlink:href="#DejaVuSans-6c"/>

      <use x="157.361328" xlink:href="#DejaVuSans-69"/>

      <use x="185.144531" xlink:href="#DejaVuSans-64"/>

      <use x="248.621094" xlink:href="#DejaVuSans-61"/>

      <use x="309.900391" xlink:href="#DejaVuSans-74"/>

      <use x="349.109375" xlink:href="#DejaVuSans-69"/>

      <use x="376.892578" xlink:href="#DejaVuSans-6f"/>

      <use x="438.074219" xlink:href="#DejaVuSans-6e"/>

     </g>

    </g>

   </g>

  </g>

 </g>

 <defs>

  <clipPath id="p32fce14792">

   <rect height="217.44" width="334.8" x="51.378125" y="10.7"/>

  </clipPath>

 </defs>

</svg>
