<?xml version="1.0" encoding="utf-8" standalone="no"?>

<!DOCTYPE svg PUBLIC "-//W3C//DTD SVG 1.1//EN"

  "http://www.w3.org/Graphics/SVG/1.1/DTD/svg11.dtd">

<!-- Created with matplotlib (http://matplotlib.org/) -->

<svg height="252pt" version="1.1" viewBox="0 0 383 252" width="383pt" xmlns="http://www.w3.org/2000/svg" xmlns:xlink="http://www.w3.org/1999/xlink">

 <defs>

  <style type="text/css">

*{stroke-linecap:butt;stroke-linejoin:round;}

  </style>

 </defs>

 <g id="figure_1">

  <g id="patch_1">

   <path d="M -0 252.018125 

L 383.982812 252.018125 

L 383.982812 0 

L -0 0 

z

" style="fill:none;"/>

  </g>

  <g id="axes_1">

   <g id="patch_2">

    <path d="M 38.482813 228.14 

L 373.282813 228.14 

L 373.282813 10.7 

L 38.482813 10.7 

z

" style="fill:#ffffff;"/>

   </g>

   <g id="PathCollection_1">

    <defs>

     <path d="M 0 3 

C 0.795609 3 1.55874 2.683901 2.12132 2.12132 

C 2.683901 1.55874 3 0.795609 3 0 

C 3 -0.795609 2.683901 -1.55874 2.12132 -2.12132 

C 1.55874 -2.683901 0.795609 -3 0 -3 

C -0.795609 -3 -1.55874 -2.683901 -2.12132 -2.12132 

C -2.683901 -1.55874 -3 -0.795609 -3 0 

C -3 0.795609 -2.683901 1.55874 -2.12132 2.12132 

C -1.55874 2.683901 -0.795609 3 0 3 

z

" id="m7075872589" style="stroke:#1f77b4;"/>

    </defs>

    <g clip-path="url(#pe88a0490cf)">

     <use style="fill:#1f77b4;stroke:#1f77b4;" x="94.282813" xlink:href="#m7075872589" y="191.9"/>

     <use style="fill:#1f77b4;stroke:#1f77b4;" x="150.082812" xlink:href="#m7075872589" y="191.9"/>

     <use style="fill:#1f77b4;stroke:#1f77b4;" x="205.882812" xlink:href="#m7075872589" y="191.9"/>

     <use style="fill:#1f77b4;stroke:#1f77b4;" x="261.682812" xlink:href="#m7075872589" y="191.9"/>

     <use style="fill:#1f77b4;stroke:#1f77b4;" x="317.482813" xlink:href="#m7075872589" y="191.9"/>

     <use style="fill:#1f77b4;stroke:#1f77b4;" x="94.282813" xlink:href="#m7075872589" y="155.66"/>

     <use style="fill:#1f77b4;stroke:#1f77b4;" x="150.082812" xlink:href="#m7075872589" y="155.66"/>

     <use style="fill:#1f77b4;stroke:#1f77b4;" x="205.882812" xlink:href="#m7075872589" y="155.66"/>

     <use style="fill:#1f77b4;stroke:#1f77b4;" x="261.682812" xlink:href="#m7075872589" y="155.66"/>

     <use style="fill:#1f77b4;stroke:#1f77b4;" x="317.482813" xlink:href="#m7075872589" y="155.66"/>

     <use style="fill:#1f77b4;stroke:#1f77b4;" x="94.282813" xlink:href="#m7075872589" y="119.42"/>

     <use style="fill:#1f77b4;stroke:#1f77b4;" x="150.082812" xlink:href="#m7075872589" y="119.42"/>

     <use style="fill:#1f77b4;stroke:#1f77b4;" x="205.882812" xlink:href="#m7075872589" y="119.42"/>

     <use style="fill:#1f77b4;stroke:#1f77b4;" x="261.682812" xlink:href="#m7075872589" y="119.42"/>

     <use style="fill:#1f77b4;stroke:#1f77b4;" x="317.482813" xlink:href="#m7075872589" y="119.42"/>

     <use style="fill:#1f77b4;stroke:#1f77b4;" x="94.282813" xlink:href="#m7075872589" y="83.18"/>

     <use style="fill:#1f77b4;stroke:#1f77b4;" x="150.082812" xlink:href="#m7075872589" y="83.18"/>

     <use style="fill:#1f77b4;stroke:#1f77b4;" x="205.882812" xlink:href="#m7075872589" y="83.18"/>

     <use style="fill:#1f77b4;stroke:#1f77b4;" x="261.682812" xlink:href="#m7075872589" y="83.18"/>

     <use style="fill:#1f77b4;stroke:#1f77b4;" x="317.482813" xlink:href="#m7075872589" y="83.18"/>

     <use style="fill:#1f77b4;stroke:#1f77b4;" x="94.282813" xlink:href="#m7075872589" y="46.94"/>

     <use style="fill:#1f77b4;stroke:#1f77b4;" x="150.082812" xlink:href="#m7075872589" y="46.94"/>

     <use style="fill:#1f77b4;stroke:#1f77b4;" x="205.882812" xlink:href="#m7075872589" y="46.94"/>

     <use style="fill:#1f77b4;stroke:#1f77b4;" x="261.682812" xlink:href="#m7075872589" y="46.94"/>

     <use style="fill:#1f77b4;stroke:#1f77b4;" x="317.482813" xlink:href="#m7075872589" y="46.94"/>

    </g>

   </g>

   <g id="PathCollection_2">

    <defs>

     <path d="M 0 3 

C 0.795609 3 1.55874 2.683901 2.12132 2.12132 

C 2.683901 1.55874 3 0.795609 3 0 

C 3 -0.795609 2.683901 -1.55874 2.12132 -2.12132 

C 1.55874 -2.683901 0.795609 -3 0 -3 

C -0.795609 -3 -1.55874 -2.683901 -2.12132 -2.12132 

C -2.683901 -1.55874 -3 -0.795609 -3 0 

C -3 0.795609 -2.683901 1.55874 -2.12132 2.12132 

C -1.55874 2.683901 -0.795609 3 0 3 

z

" id="mb2e60f8f37" style="stroke:#ff7f0e;"/>

    </defs>

    <g clip-path="url(#pe88a0490cf)">

     <use style="fill:#ff7f0e;stroke:#ff7f0e;" x="94.282813" xlink:href="#mb2e60f8f37" y="191.9"/>

     <use style="fill:#ff7f0e;stroke:#ff7f0e;" x="150.082812" xlink:href="#mb2e60f8f37" y="191.9"/>

     <use style="fill:#ff7f0e;stroke:#ff7f0e;" x="205.882812" xlink:href="#mb2e60f8f37" y="191.9"/>

     <use style="fill:#ff7f0e;stroke:#ff7f0e;" x="261.682812" xlink:href="#mb2e60f8f37" y="191.9"/>

     <use style="fill:#ff7f0e;stroke:#ff7f0e;" x="317.482813" xlink:href="#mb2e60f8f37" y="191.9"/>

     <use style="fill:#ff7f0e;stroke:#ff7f0e;" x="94.282813" xlink:href="#mb2e60f8f37" y="155.66"/>

     <use style="fill:#ff7f0e;stroke:#ff7f0e;" x="150.082812" xlink:href="#mb2e60f8f37" y="155.66"/>

     <use style="fill:#ff7f0e;stroke:#ff7f0e;" x="205.882812" xlink:href="#mb2e60f8f37" y="155.66"/>

     <use style="fill:#ff7f0e;stroke:#ff7f0e;" x="261.682812" xlink:href="#mb2e60f8f37" y="155.66"/>

     <use style="fill:#ff7f0e;stroke:#ff7f0e;" x="317.482813" xlink:href="#mb2e60f8f37" y="155.66"/>

     <use style="fill:#ff7f0e;stroke:#ff7f0e;" x="94.282813" xlink:href="#mb2e60f8f37" y="119.42"/>

     <use style="fill:#ff7f0e;stroke:#ff7f0e;" x="150.082812" xlink:href="#mb2e60f8f37" y="119.42"/>

     <use style="fill:#ff7f0e;stroke:#ff7f0e;" x="205.882812" xlink:href="#mb2e60f8f37" y="119.42"/>

     <use style="fill:#ff7f0e;stroke:#ff7f0e;" x="261.682812" xlink:href="#mb2e60f8f37" y="119.42"/>

     <use style="fill:#ff7f0e;stroke:#ff7f0e;" x="317.482813" xlink:href="#mb2e60f8f37" y="119.42"/>

     <use style="fill:#ff7f0e;stroke:#ff7f0e;" x="94.282813" xlink:href="#mb2e60f8f37" y="83.18"/>

     <use style="fill:#ff7f0e;stroke:#ff7f0e;" x="150.082812" xlink:href="#mb2e60f8f37" y="83.18"/>

     <use style="fill:#ff7f0e;stroke:#ff7f0e;" x="205.882812" xlink:href="#mb2e60f8f37" y="83.18"/>

     <use style="fill:#ff7f0e;stroke:#ff7f0e;" x="261.682812" xlink:href="#mb2e60f8f37" y="83.18"/>

     <use style="fill:#ff7f0e;stroke:#ff7f0e;" x="317.482813" xlink:href="#mb2e60f8f37" y="83.18"/>

     <use style="fill:#ff7f0e;stroke:#ff7f0e;" x="94.282813" xlink:href="#mb2e60f8f37" y="46.94"/>

     <use style="fill:#ff7f0e;stroke:#ff7f0e;" x="150.082812" xlink:href="#mb2e60f8f37" y="46.94"/>

     <use style="fill:#ff7f0e;stroke:#ff7f0e;" x="205.882812" xlink:href="#mb2e60f8f37" y="46.94"/>

     <use style="fill:#ff7f0e;stroke:#ff7f0e;" x="261.682812" xlink:href="#mb2e60f8f37" y="46.94"/>

     <use style="fill:#ff7f0e;stroke:#ff7f0e;" x="317.482813" xlink:href="#mb2e60f8f37" y="46.94"/>

    </g>

   </g>

   <g id="matplotlib.axis_1">

    <g id="xtick_1">

     <g id="line2d_1">

      <defs>

       <path d="M 0 0 

L 0 3.5 

" id="mc6a2674bbf" style="stroke:#000000;stroke-width:0.8;"/>

      </defs>

      <g>

       <use style="stroke:#000000;stroke-width:0.8;" x="49.642813" xlink:href="#mc6a2674bbf" y="228.14"/>

      </g>

     </g>

     <g id="text_1">

      <!-- −0.2 -->

      <defs>

       <path d="M 10.59375 35.5 

L 73.1875 35.5 

L 73.1875 27.203125 

L 10.59375 27.203125 

z

" id="DejaVuSans-2212"/>

       <path d="M 31.78125 66.40625 

Q 24.171875 66.40625 20.328125 58.90625 

Q 16.5 51.421875 16.5 36.375 

Q 16.5 21.390625 20.328125 13.890625 

Q 24.171875 6.390625 31.78125 6.390625 

Q 39.453125 6.390625 43.28125 13.890625 

Q 47.125 21.390625 47.125 36.375 

Q 47.125 51.421875 43.28125 58.90625 

Q 39.453125 66.40625 31.78125 66.40625 

z

M 31.78125 74.21875 

Q 44.046875 74.21875 50.515625 64.515625 

Q 56.984375 54.828125 56.984375 36.375 

Q 56.984375 17.96875 50.515625 8.265625 

Q 44.046875 -1.421875 31.78125 -1.421875 

Q 19.53125 -1.421875 13.0625 8.265625 

Q 6.59375 17.96875 6.59375 36.375 

Q 6.59375 54.828125 13.0625 64.515625 

Q 19.53125 74.21875 31.78125 74.21875 

z

" id="DejaVuSans-30"/>

       <path d="M 10.6875 12.40625 

L 21 12.40625 

L 21 0 

L 10.6875 0 

z

" id="DejaVuSans-2e"/>

       <path d="M 19.1875 8.296875 

L 53.609375 8.296875 

L 53.609375 0 

L 7.328125 0 

L 7.328125 8.296875 

Q 12.9375 14.109375 22.625 23.890625 

Q 32.328125 33.6875 34.8125 36.53125 

Q 39.546875 41.84375 41.421875 45.53125 

Q 43.3125 49.21875 43.3125 52.78125 

Q 43.3125 58.59375 39.234375 62.25 

Q 35.15625 65.921875 28.609375 65.921875 

Q 23.96875 65.921875 18.8125 64.3125 

Q 13.671875 62.703125 7.8125 59.421875 

L 7.8125 69.390625 

Q 13.765625 71.78125 18.9375 73 

Q 24.125 74.21875 28.421875 74.21875 

Q 39.75 74.21875 46.484375 68.546875 

Q 53.21875 62.890625 53.21875 53.421875 

Q 53.21875 48.921875 51.53125 44.890625 

Q 49.859375 40.875 45.40625 35.40625 

Q 44.1875 33.984375 37.640625 27.21875 

Q 31.109375 20.453125 19.1875 8.296875 

z

" id="DejaVuSans-32"/>

      </defs>

      <g transform="translate(37.501406 242.738437)scale(0.1 -0.1)">

       <use xlink:href="#DejaVuSans-2212"/>

       <use x="83.789062" xlink:href="#DejaVuSans-30"/>

       <use x="147.412109" xlink:href="#DejaVuSans-2e"/>

       <use x="179.199219" xlink:href="#DejaVuSans-32"/>

      </g>

     </g>

    </g>

    <g id="xtick_2">

     <g id="line2d_2">

      <g>

       <use style="stroke:#000000;stroke-width:0.8;" x="94.282813" xlink:href="#mc6a2674bbf" y="228.14"/>

      </g>

     </g>

     <g id="text_2">

      <!-- 0.0 -->

      <g transform="translate(86.33125 242.738437)scale(0.1 -0.1)">

       <use xlink:href="#DejaVuSans-30"/>

       <use x="63.623047" xlink:href="#DejaVuSans-2e"/>

       <use x="95.410156" xlink:href="#DejaVuSans-30"/>

      </g>

     </g>

    </g>

    <g id="xtick_3">

     <g id="line2d_3">

      <g>

       <use style="stroke:#000000;stroke-width:0.8;" x="138.922813" xlink:href="#mc6a2674bbf" y="228.14"/>

      </g>

     </g>

     <g id="text_3">

      <!-- 0.2 -->

      <g transform="translate(130.97125 242.738437)scale(0.1 -0.1)">

       <use xlink:href="#DejaVuSans-30"/>

       <use x="63.623047" xlink:href="#DejaVuSans-2e"/>

       <use x="95.410156" xlink:href="#DejaVuSans-32"/>

      </g>

     </g>

    </g>

    <g id="xtick_4">

     <g id="line2d_4">

      <g>

       <use style="stroke:#000000;stroke-width:0.8;" x="183.562813" xlink:href="#mc6a2674bbf" y="228.14"/>

      </g>

     </g>

     <g id="text_4">

      <!-- 0.4 -->

      <defs>

       <path d="M 37.796875 64.3125 

L 12.890625 25.390625 

L 37.796875 25.390625 

z

M 35.203125 72.90625 

L 47.609375 72.90625 

L 47.609375 25.390625 

L 58.015625 25.390625 

L 58.015625 17.1875 

L 47.609375 17.1875 

L 47.609375 0 

L 37.796875 0 

L 37.796875 17.1875 

L 4.890625 17.1875 

L 4.890625 26.703125 

z

" id="DejaVuSans-34"/>

      </defs>

      <g transform="translate(175.61125 242.738437)scale(0.1 -0.1)">

       <use xlink:href="#DejaVuSans-30"/>

       <use x="63.623047" xlink:href="#DejaVuSans-2e"/>

       <use x="95.410156" xlink:href="#DejaVuSans-34"/>

      </g>

     </g>

    </g>

    <g id="xtick_5">

     <g id="line2d_5">

      <g>

       <use style="stroke:#000000;stroke-width:0.8;" x="228.202812" xlink:href="#mc6a2674bbf" y="228.14"/>

      </g>

     </g>

     <g id="text_5">

      <!-- 0.6 -->

      <defs>

       <path d="M 33.015625 40.375 

Q 26.375 40.375 22.484375 35.828125 

Q 18.609375 31.296875 18.609375 23.390625 

Q 18.609375 15.53125 22.484375 10.953125 

Q 26.375 6.390625 33.015625 6.390625 

Q 39.65625 6.390625 43.53125 10.953125 

Q 47.40625 15.53125 47.40625 23.390625 

Q 47.40625 31.296875 43.53125 35.828125 

Q 39.65625 40.375 33.015625 40.375 

z

M 52.59375 71.296875 

L 52.59375 62.3125 

Q 48.875 64.0625 45.09375 64.984375 

Q 41.3125 65.921875 37.59375 65.921875 

Q 27.828125 65.921875 22.671875 59.328125 

Q 17.53125 52.734375 16.796875 39.40625 

Q 19.671875 43.65625 24.015625 45.921875 

Q 28.375 48.1875 33.59375 48.1875 

Q 44.578125 48.1875 50.953125 41.515625 

Q 57.328125 34.859375 57.328125 23.390625 

Q 57.328125 12.15625 50.6875 5.359375 

Q 44.046875 -1.421875 33.015625 -1.421875 

Q 20.359375 -1.421875 13.671875 8.265625 

Q 6.984375 17.96875 6.984375 36.375 

Q 6.984375 53.65625 15.1875 63.9375 

Q 23.390625 74.21875 37.203125 74.21875 

Q 40.921875 74.21875 44.703125 73.484375 

Q 48.484375 72.75 52.59375 71.296875 

z

" id="DejaVuSans-36"/>

      </defs>

      <g transform="translate(220.25125 242.738437)scale(0.1 -0.1)">

       <use xlink:href="#DejaVuSans-30"/>

       <use x="63.623047" xlink:href="#DejaVuSans-2e"/>

       <use x="95.410156" xlink:href="#DejaVuSans-36"/>

      </g>

     </g>

    </g>

    <g id="xtick_6">

     <g id="line2d_6">

      <g>

       <use style="stroke:#000000;stroke-width:0.8;" x="272.842813" xlink:href="#mc6a2674bbf" y="228.14"/>

      </g>

     </g>

     <g id="text_6">

      <!-- 0.8 -->

      <defs>

       <path d="M 31.78125 34.625 

Q 24.75 34.625 20.71875 30.859375 

Q 16.703125 27.09375 16.703125 20.515625 

Q 16.703125 13.921875 20.71875 10.15625 

Q 24.75 6.390625 31.78125 6.390625 

Q 38.8125 6.390625 42.859375 10.171875 

Q 46.921875 13.96875 46.921875 20.515625 

Q 46.921875 27.09375 42.890625 30.859375 

Q 38.875 34.625 31.78125 34.625 

z

M 21.921875 38.8125 

Q 15.578125 40.375 12.03125 44.71875 

Q 8.5 49.078125 8.5 55.328125 

Q 8.5 64.0625 14.71875 69.140625 

Q 20.953125 74.21875 31.78125 74.21875 

Q 42.671875 74.21875 48.875 69.140625 

Q 55.078125 64.0625 55.078125 55.328125 

Q 55.078125 49.078125 51.53125 44.71875 

Q 48 40.375 41.703125 38.8125 

Q 48.828125 37.15625 52.796875 32.3125 

Q 56.78125 27.484375 56.78125 20.515625 

Q 56.78125 9.90625 50.3125 4.234375 

Q 43.84375 -1.421875 31.78125 -1.421875 

Q 19.734375 -1.421875 13.25 4.234375 

Q 6.78125 9.90625 6.78125 20.515625 

Q 6.78125 27.484375 10.78125 32.3125 

Q 14.796875 37.15625 21.921875 38.8125 

z

M 18.3125 54.390625 

Q 18.3125 48.734375 21.84375 45.5625 

Q 25.390625 42.390625 31.78125 42.390625 

Q 38.140625 42.390625 41.71875 45.5625 

Q 45.3125 48.734375 45.3125 54.390625 

Q 45.3125 60.0625 41.71875 63.234375 

Q 38.140625 66.40625 31.78125 66.40625 

Q 25.390625 66.40625 21.84375 63.234375 

Q 18.3125 60.0625 18.3125 54.390625 

z

" id="DejaVuSans-38"/>

      </defs>

      <g transform="translate(264.89125 242.738437)scale(0.1 -0.1)">

       <use xlink:href="#DejaVuSans-30"/>

       <use x="63.623047" xlink:href="#DejaVuSans-2e"/>

       <use x="95.410156" xlink:href="#DejaVuSans-38"/>

      </g>

     </g>

    </g>

    <g id="xtick_7">

     <g id="line2d_7">

      <g>

       <use style="stroke:#000000;stroke-width:0.8;" x="317.482813" xlink:href="#mc6a2674bbf" y="228.14"/>

      </g>

     </g>

     <g id="text_7">

      <!-- 1.0 -->

      <defs>

       <path d="M 12.40625 8.296875 

L 28.515625 8.296875 

L 28.515625 63.921875 

L 10.984375 60.40625 

L 10.984375 69.390625 

L 28.421875 72.90625 

L 38.28125 72.90625 

L 38.28125 8.296875 

L 54.390625 8.296875 

L 54.390625 0 

L 12.40625 0 

z

" id="DejaVuSans-31"/>

      </defs>

      <g transform="translate(309.53125 242.738437)scale(0.1 -0.1)">

       <use xlink:href="#DejaVuSans-31"/>

       <use x="63.623047" xlink:href="#DejaVuSans-2e"/>

       <use x="95.410156" xlink:href="#DejaVuSans-30"/>

      </g>

     </g>

    </g>

    <g id="xtick_8">

     <g id="line2d_8">

      <g>

       <use style="stroke:#000000;stroke-width:0.8;" x="362.122813" xlink:href="#mc6a2674bbf" y="228.14"/>

      </g>

     </g>

     <g id="text_8">

      <!-- 1.2 -->

      <g transform="translate(354.17125 242.738437)scale(0.1 -0.1)">

       <use xlink:href="#DejaVuSans-31"/>

       <use x="63.623047" xlink:href="#DejaVuSans-2e"/>

       <use x="95.410156" xlink:href="#DejaVuSans-32"/>

      </g>

     </g>

    </g>

   </g>

   <g id="matplotlib.axis_2">

    <g id="ytick_1">

     <g id="line2d_9">

      <defs>

       <path d="M 0 0 

L -3.5 0 

" id="md9fcdcf977" style="stroke:#000000;stroke-width:0.8;"/>

      </defs>

      <g>

       <use style="stroke:#000000;stroke-width:0.8;" x="38.482813" xlink:href="#md9fcdcf977" y="220.892"/>

      </g>

     </g>

     <g id="text_9">

      <!-- −0.2 -->

      <g transform="translate(7.2 224.691219)scale(0.1 -0.1)">

       <use xlink:href="#DejaVuSans-2212"/>

       <use x="83.789062" xlink:href="#DejaVuSans-30"/>

       <use x="147.412109" xlink:href="#DejaVuSans-2e"/>

       <use x="179.199219" xlink:href="#DejaVuSans-32"/>

      </g>

     </g>

    </g>

    <g id="ytick_2">

     <g id="line2d_10">

      <g>

       <use style="stroke:#000000;stroke-width:0.8;" x="38.482813" xlink:href="#md9fcdcf977" y="191.9"/>

      </g>

     </g>

     <g id="text_10">

      <!-- 0.0 -->

      <g transform="translate(15.579688 195.699219)scale(0.1 -0.1)">

       <use xlink:href="#DejaVuSans-30"/>

       <use x="63.623047" xlink:href="#DejaVuSans-2e"/>

       <use x="95.410156" xlink:href="#DejaVuSans-30"/>

      </g>

     </g>

    </g>

    <g id="ytick_3">

     <g id="line2d_11">

      <g>

       <use style="stroke:#000000;stroke-width:0.8;" x="38.482813" xlink:href="#md9fcdcf977" y="162.908"/>

      </g>

     </g>

     <g id="text_11">

      <!-- 0.2 -->

      <g transform="translate(15.579688 166.707219)scale(0.1 -0.1)">

       <use xlink:href="#DejaVuSans-30"/>

       <use x="63.623047" xlink:href="#DejaVuSans-2e"/>

       <use x="95.410156" xlink:href="#DejaVuSans-32"/>

      </g>

     </g>

    </g>

    <g id="ytick_4">

     <g id="line2d_12">

      <g>

       <use style="stroke:#000000;stroke-width:0.8;" x="38.482813" xlink:href="#md9fcdcf977" y="133.916"/>

      </g>

     </g>

     <g id="text_12">

      <!-- 0.4 -->

      <g transform="translate(15.579688 137.715219)scale(0.1 -0.1)">

       <use xlink:href="#DejaVuSans-30"/>

       <use x="63.623047" xlink:href="#DejaVuSans-2e"/>

       <use x="95.410156" xlink:href="#DejaVuSans-34"/>

      </g>

     </g>

    </g>

    <g id="ytick_5">

     <g id="line2d_13">

      <g>

       <use style="stroke:#000000;stroke-width:0.8;" x="38.482813" xlink:href="#md9fcdcf977" y="104.924"/>

      </g>

     </g>

     <g id="text_13">

      <!-- 0.6 -->

      <g transform="translate(15.579688 108.723219)scale(0.1 -0.1)">

       <use xlink:href="#DejaVuSans-30"/>

       <use x="63.623047" xlink:href="#DejaVuSans-2e"/>

       <use x="95.410156" xlink:href="#DejaVuSans-36"/>

      </g>

     </g>

    </g>

    <g id="ytick_6">

     <g id="line2d_14">

      <g>

       <use style="stroke:#000000;stroke-width:0.8;" x="38.482813" xlink:href="#md9fcdcf977" y="75.932"/>

      </g>

     </g>

     <g id="text_14">

      <!-- 0.8 -->

      <g transform="translate(15.579688 79.731219)scale(0.1 -0.1)">

       <use xlink:href="#DejaVuSans-30"/>

       <use x="63.623047" xlink:href="#DejaVuSans-2e"/>

       <use x="95.410156" xlink:href="#DejaVuSans-38"/>

      </g>

     </g>

    </g>

    <g id="ytick_7">

     <g id="line2d_15">

      <g>

       <use style="stroke:#000000;stroke-width:0.8;" x="38.482813" xlink:href="#md9fcdcf977" y="46.94"/>

      </g>

     </g>

     <g id="text_15">

      <!-- 1.0 -->

      <g transform="translate(15.579688 50.739219)scale(0.1 -0.1)">

       <use xlink:href="#DejaVuSans-31"/>

       <use x="63.623047" xlink:href="#DejaVuSans-2e"/>

       <use x="95.410156" xlink:href="#DejaVuSans-30"/>

      </g>

     </g>

    </g>

    <g id="ytick_8">

     <g id="line2d_16">

      <g>

       <use style="stroke:#000000;stroke-width:0.8;" x="38.482813" xlink:href="#md9fcdcf977" y="17.948"/>

      </g>

     </g>

     <g id="text_16">

      <!-- 1.2 -->

      <g transform="translate(15.579688 21.747219)scale(0.1 -0.1)">

       <use xlink:href="#DejaVuSans-31"/>

       <use x="63.623047" xlink:href="#DejaVuSans-2e"/>

       <use x="95.410156" xlink:href="#DejaVuSans-32"/>

      </g>

     </g>

    </g>

   </g>

   <g id="LineCollection_1">

    <path clip-path="url(#pe88a0490cf)" d="M 143.319176 226.121407 

L 146.700994 226.227676 

L 150.082812 226.262969 

L 156.846449 226.121407 

L 163.610085 225.711351 

L 170.373722 225.032733 

L 177.137358 224.039802 

L 183.900994 222.768951 

L 190.664631 221.158606 

L 197.428267 219.207134 

L 203.443057 217.158182 

L 207.573722 215.582251 

L 213.981119 212.765455 

L 217.719176 210.926559 

L 222.389202 208.372727 

L 226.019024 206.176364 

L 229.338137 203.98 

L 232.383075 201.783636 

L 235.178673 199.587273 

L 238.010085 197.159546 

L 241.391903 193.955648 

L 242.347206 192.998182 

L 246.239817 188.605455 

L 249.516567 184.212727 

L 252.23186 179.82 

L 253.41282 177.623636 

L 255.369594 173.230909 

L 256.198391 171.034545 

L 256.898444 168.838182 

L 257.943336 164.445455 

L 258.574713 160.052727 

L 258.792682 155.66 

L 258.574713 151.267273 

L 257.943336 146.874545 

L 257.477881 144.678182 

L 256.898444 142.481818 

L 256.198391 140.285455 

L 254.44276 135.892727 

L 253.41282 133.696364 

L 250.933316 129.303636 

L 249.516567 127.107273 

L 246.239817 122.714545 

L 242.347206 118.321818 

L 240.153111 116.125455 

L 237.754983 113.929091 

L 234.628267 111.292079 

L 231.246449 108.699721 

L 227.864631 106.342288 

L 224.482812 104.186649 

L 221.100994 102.209077 

L 217.719176 100.393441 

L 210.95554 97.162731 

L 204.191903 94.429888 

L 197.428267 92.112866 

L 190.664631 90.161394 

L 183.900994 88.551049 

L 177.137358 87.280198 

L 170.373722 86.287267 

L 163.610085 85.608649 

L 156.846449 85.198593 

L 150.082812 85.057031 

L 143.319176 85.198593 

L 136.55554 85.608649 

L 129.791903 86.287267 

L 123.028267 87.280198 

L 116.264631 88.551049 

L 109.500994 90.161394 

L 102.737358 92.112866 

L 96.722568 94.161818 

L 92.591903 95.737749 

L 86.184506 98.554545 

L 82.446449 100.393441 

L 77.776423 102.947273 

L 74.146601 105.143636 

L 70.827488 107.34 

L 67.78255 109.536364 

L 64.986952 111.732727 

L 62.15554 114.160454 

L 58.773722 117.364352 

L 57.818419 118.321818 

L 53.925808 122.714545 

L 50.649058 127.107273 

L 47.933765 131.5 

L 46.752805 133.696364 

L 44.796031 138.089091 

L 43.967234 140.285455 

L 43.267181 142.481818 

L 42.222289 146.874545 

L 41.590912 151.267273 

L 41.372943 155.66 

L 41.590912 160.052727 

L 42.222289 164.445455 

L 42.687744 166.641818 

L 43.267181 168.838182 

L 43.967234 171.034545 

L 45.722865 175.427273 

L 46.752805 177.623636 

L 49.232309 182.016364 

L 50.649058 184.212727 

L 53.925808 188.605455 

L 57.818419 192.998182 

L 60.012514 195.194545 

L 62.410642 197.390909 

L 65.537358 200.027921 

L 68.919176 202.620279 

L 72.300994 204.977712 

L 75.682813 207.133351 

L 79.064631 209.110923 

L 82.446449 210.926559 

L 89.210085 214.157269 

L 95.973722 216.890112 

L 102.737358 219.207134 

L 109.500994 221.158606 

L 116.264631 222.768951 

L 123.028267 224.039802 

L 129.791903 225.032733 

L 136.55554 225.711351 

L 143.319176 226.121407 

L 143.319176 226.121407 

" style="fill:none;stroke:#440154;stroke-width:1.5;"/>

   </g>

   <g id="LineCollection_2">

    <path clip-path="url(#pe88a0490cf)" d="M 133.173722 210.818793 

L 136.55554 211.217391 

L 139.937358 211.522888 

L 146.700994 211.867253 

L 153.464631 211.867253 

L 160.228267 211.522888 

L 166.991903 210.818793 

L 173.75554 209.765788 

L 180.519176 208.308355 

L 183.900994 207.44094 

L 190.664631 205.346778 

L 194.374747 203.98 

L 199.613697 201.783636 

L 200.810085 201.240131 

L 204.191903 199.563534 

L 208.125892 197.390909 

L 211.665629 195.194545 

L 214.834698 192.998182 

L 217.719176 190.771731 

L 221.100994 187.828445 

L 222.593748 186.409091 

L 224.683038 184.212727 

L 226.587288 182.016364 

L 228.28032 179.82 

L 229.811744 177.623636 

L 232.353724 173.230909 

L 233.391393 171.034545 

L 234.628267 167.758163 

L 235.012742 166.641818 

L 235.626477 164.445455 

L 236.096863 162.249091 

L 236.429169 160.052727 

L 236.627093 157.856364 

L 236.692826 155.66 

L 236.627093 153.463636 

L 236.429169 151.267273 

L 236.096863 149.070909 

L 235.626477 146.874545 

L 234.628267 143.561837 

L 234.267871 142.481818 

L 233.391393 140.285455 

L 232.353724 138.089091 

L 229.811744 133.696364 

L 227.864631 130.960211 

L 226.587288 129.303636 

L 224.482812 126.894055 

L 221.100994 123.491555 

L 220.264141 122.714545 

L 217.682625 120.518182 

L 214.337358 117.963205 

L 210.95554 115.664278 

L 207.573722 113.606087 

L 204.145577 111.732727 

L 199.613697 109.536364 

L 197.428267 108.566876 

L 194.046449 107.209961 

L 188.113944 105.143636 

L 183.900994 103.87906 

L 177.137358 102.228139 

L 170.373722 100.984973 

L 163.610085 100.102609 

L 156.846449 99.581291 

L 150.082812 99.410056 

L 143.319176 99.581291 

L 136.55554 100.102609 

L 129.791903 100.984973 

L 123.028267 102.228139 

L 116.264631 103.87906 

L 109.500994 105.973222 

L 105.790878 107.34 

L 100.551928 109.536364 

L 99.35554 110.079869 

L 95.973722 111.756466 

L 92.039733 113.929091 

L 88.499996 116.125455 

L 85.330927 118.321818 

L 82.446449 120.548269 

L 79.064631 123.491555 

L 77.571877 124.910909 

L 75.482587 127.107273 

L 73.578337 129.303636 

L 71.885305 131.5 

L 70.353881 133.696364 

L 67.811901 138.089091 

L 66.774232 140.285455 

L 65.537358 143.561837 

L 65.152883 144.678182 

L 64.539148 146.874545 

L 64.068762 149.070909 

L 63.736456 151.267273 

L 63.538532 153.463636 

L 63.472799 155.66 

L 63.538532 157.856364 

L 63.736456 160.052727 

L 64.068762 162.249091 

L 64.539148 164.445455 

L 65.537358 167.758163 

L 65.897754 168.838182 

L 66.774232 171.034545 

L 67.811901 173.230909 

L 70.353881 177.623636 

L 72.300994 180.359789 

L 73.578337 182.016364 

L 75.682813 184.425945 

L 79.064631 187.828445 

L 79.901484 188.605455 

L 82.483 190.801818 

L 85.828267 193.356795 

L 89.210085 195.655722 

L 92.591903 197.713913 

L 96.020048 199.587273 

L 100.551928 201.783636 

L 102.737358 202.753124 

L 106.119176 204.110039 

L 112.051681 206.176364 

L 116.264631 207.44094 

L 123.028267 209.091861 

L 129.791903 210.335027 

L 133.173722 210.818793 

L 133.173722 210.818793 

" style="fill:none;stroke:#414487;stroke-width:1.5;"/>

   </g>

   <g id="LineCollection_3">

    <path clip-path="url(#pe88a0490cf)" d="M 133.173722 200.126709 

L 136.55554 200.614261 

L 143.319176 201.251919 

L 150.082812 201.461368 

L 156.846449 201.251919 

L 163.610085 200.614261 

L 170.004276 199.587273 

L 173.75554 198.805022 

L 179.097263 197.390909 

L 180.519176 196.974393 

L 185.65448 195.194545 

L 187.282813 194.568195 

L 190.91161 192.998182 

L 195.29177 190.801818 

L 199.05855 188.605455 

L 202.337966 186.409091 

L 205.21638 184.212727 

L 207.751748 182.016364 

L 210.95554 178.76246 

L 211.96536 177.623636 

L 214.337358 174.503794 

L 215.208959 173.230909 

L 216.514717 171.034545 

L 217.719176 168.598241 

L 218.549766 166.641818 

L 219.300466 164.445455 

L 219.875825 162.249091 

L 220.282291 160.052727 

L 220.524385 157.856364 

L 220.604787 155.66 

L 220.524385 153.463636 

L 220.282291 151.267273 

L 219.875825 149.070909 

L 219.300466 146.874545 

L 218.549766 144.678182 

L 217.617639 142.481818 

L 216.514717 140.285455 

L 214.337358 136.816206 

L 213.696033 135.892727 

L 210.95554 132.55754 

L 209.991127 131.5 

L 207.573722 129.143232 

L 204.191903 126.298483 

L 200.810085 123.852102 

L 197.428267 121.722244 

L 194.046449 119.852823 

L 190.664631 118.206197 

L 185.65448 116.125455 

L 183.900994 115.469614 

L 179.097263 113.929091 

L 177.137358 113.363019 

L 173.75554 112.514978 

L 166.991903 111.193291 

L 163.610085 110.705739 

L 156.846449 110.068081 

L 150.082812 109.858632 

L 143.319176 110.068081 

L 136.55554 110.705739 

L 130.161349 111.732727 

L 126.410085 112.514978 

L 121.068362 113.929091 

L 119.646449 114.345607 

L 114.511145 116.125455 

L 112.882813 116.751805 

L 109.254015 118.321818 

L 104.873855 120.518182 

L 101.107075 122.714545 

L 97.827659 124.910909 

L 94.949245 127.107273 

L 92.413877 129.303636 

L 89.210085 132.55754 

L 88.200265 133.696364 

L 85.828267 136.816206 

L 84.956666 138.089091 

L 83.650908 140.285455 

L 82.446449 142.721759 

L 81.615859 144.678182 

L 80.865159 146.874545 

L 80.2898 149.070909 

L 79.883334 151.267273 

L 79.64124 153.463636 

L 79.560838 155.66 

L 79.64124 157.856364 

L 79.883334 160.052727 

L 80.2898 162.249091 

L 80.865159 164.445455 

L 81.615859 166.641818 

L 82.547986 168.838182 

L 83.650908 171.034545 

L 85.828267 174.503794 

L 86.469592 175.427273 

L 89.210085 178.76246 

L 90.174498 179.82 

L 92.591903 182.176768 

L 95.973722 185.021517 

L 99.35554 187.467898 

L 102.737358 189.597756 

L 106.119176 191.467177 

L 109.500994 193.113803 

L 114.511145 195.194545 

L 116.264631 195.850386 

L 121.068362 197.390909 

L 123.028267 197.956981 

L 126.410085 198.805022 

L 133.173722 200.126709 

L 133.173722 200.126709 

" style="fill:none;stroke:#2a788e;stroke-width:1.5;"/>

   </g>

   <g id="LineCollection_4">

    <path clip-path="url(#pe88a0490cf)" d="M 136.55554 191.220927 

L 139.937358 191.692656 

L 143.319176 192.025912 

L 146.700994 192.224401 

L 150.082812 192.290322 

L 153.464631 192.224401 

L 156.846449 192.025912 

L 160.228267 191.692656 

L 165.924995 190.801818 

L 166.991903 190.604696 

L 170.373722 189.835592 

L 174.699281 188.605455 

L 177.137358 187.796966 

L 180.726253 186.409091 

L 185.389668 184.212727 

L 189.233002 182.016364 

L 192.462079 179.82 

L 195.210656 177.623636 

L 197.56518 175.427273 

L 199.565227 173.230909 

L 201.273445 171.034545 

L 202.704171 168.838182 

L 204.191903 165.948901 

L 204.837219 164.445455 

L 205.563557 162.249091 

L 206.076683 160.052727 

L 206.382304 157.856364 

L 206.483804 155.66 

L 206.382304 153.463636 

L 206.076683 151.267273 

L 205.563557 149.070909 

L 204.837219 146.874545 

L 203.888388 144.678182 

L 202.704171 142.481818 

L 200.810085 139.67253 

L 199.565227 138.089091 

L 197.428267 135.758239 

L 194.046449 132.729526 

L 190.664631 130.233425 

L 187.282813 128.136261 

L 183.900994 126.351164 

L 180.519176 124.821989 

L 177.137358 123.523034 

L 173.75554 122.413611 

L 170.373722 121.484408 

L 165.924995 120.518182 

L 163.610085 120.099073 

L 160.228267 119.627344 

L 156.846449 119.294088 

L 153.464631 119.095599 

L 150.082812 119.029678 

L 146.700994 119.095599 

L 143.319176 119.294088 

L 139.937358 119.627344 

L 134.24063 120.518182 

L 133.173722 120.715304 

L 129.791903 121.484408 

L 125.466344 122.714545 

L 123.028267 123.523034 

L 119.439372 124.910909 

L 114.775957 127.107273 

L 110.932623 129.303636 

L 107.703546 131.5 

L 104.954969 133.696364 

L 102.600445 135.892727 

L 100.600398 138.089091 

L 98.89218 140.285455 

L 97.461454 142.481818 

L 95.973722 145.371099 

L 95.328406 146.874545 

L 94.602068 149.070909 

L 94.088942 151.267273 

L 93.783321 153.463636 

L 93.681821 155.66 

L 93.783321 157.856364 

L 94.088942 160.052727 

L 94.602068 162.249091 

L 95.328406 164.445455 

L 96.277237 166.641818 

L 97.461454 168.838182 

L 99.35554 171.64747 

L 100.600398 173.230909 

L 102.737358 175.561761 

L 106.119176 178.590474 

L 109.500994 181.086575 

L 112.882813 183.183739 

L 116.264631 184.968836 

L 119.646449 186.498011 

L 123.028267 187.796966 

L 126.410085 188.906389 

L 129.791903 189.835592 

L 134.24063 190.801818 

L 136.55554 191.220927 

L 136.55554 191.220927 

" style="fill:none;stroke:#22a884;stroke-width:1.5;"/>

   </g>

   <g id="LineCollection_5">

    <path clip-path="url(#pe88a0490cf)" d="M 139.937358 182.342718 

L 143.319176 182.787112 

L 146.700994 183.051796 

L 150.082812 183.139701 

L 153.464631 183.051796 

L 156.846449 182.787112 

L 160.228267 182.342718 

L 161.993633 182.016364 

L 163.610085 181.701533 

L 166.991903 180.847871 

L 170.265002 179.82 

L 170.373722 179.783354 

L 173.75554 178.432818 

L 175.490304 177.623636 

L 177.137358 176.782249 

L 179.464855 175.427273 

L 180.519176 174.742531 

L 182.60548 173.230909 

L 183.900994 172.161209 

L 185.146919 171.034545 

L 187.226387 168.838182 

L 187.282813 168.767572 

L 188.865461 166.641818 

L 190.179875 164.445455 

L 190.664631 163.39563 

L 191.167131 162.249091 

L 191.851379 160.052727 

L 192.258923 157.856364 

L 192.394273 155.66 

L 192.258923 153.463636 

L 191.851379 151.267273 

L 191.167131 149.070909 

L 190.664631 147.92437 

L 190.179875 146.874545 

L 188.865461 144.678182 

L 187.282813 142.552428 

L 187.226387 142.481818 

L 185.146919 140.285455 

L 183.900994 139.158791 

L 182.60548 138.089091 

L 180.519176 136.577469 

L 179.464855 135.892727 

L 177.137358 134.537751 

L 175.490304 133.696364 

L 173.75554 132.887182 

L 170.373722 131.536646 

L 170.265002 131.5 

L 166.991903 130.472129 

L 163.610085 129.618467 

L 161.993633 129.303636 

L 160.228267 128.977282 

L 156.846449 128.532888 

L 153.464631 128.268204 

L 150.082812 128.180299 

L 146.700994 128.268204 

L 143.319176 128.532888 

L 139.937358 128.977282 

L 138.171992 129.303636 

L 136.55554 129.618467 

L 133.173722 130.472129 

L 129.900623 131.5 

L 129.791903 131.536646 

L 126.410085 132.887182 

L 124.675321 133.696364 

L 123.028267 134.537751 

L 120.70077 135.892727 

L 119.646449 136.577469 

L 117.560145 138.089091 

L 116.264631 139.158791 

L 115.018706 140.285455 

L 112.939238 142.481818 

L 112.882813 142.552428 

L 111.300164 144.678182 

L 109.98575 146.874545 

L 109.500994 147.92437 

L 108.998494 149.070909 

L 108.314246 151.267273 

L 107.906702 153.463636 

L 107.771352 155.66 

L 107.906702 157.856364 

L 108.314246 160.052727 

L 108.998494 162.249091 

L 109.500994 163.39563 

L 109.98575 164.445455 

L 111.300164 166.641818 

L 112.882813 168.767572 

L 112.939238 168.838182 

L 115.018706 171.034545 

L 116.264631 172.161209 

L 117.560145 173.230909 

L 119.646449 174.742531 

L 120.70077 175.427273 

L 123.028267 176.782249 

L 124.675321 177.623636 

L 126.410085 178.432818 

L 129.791903 179.783354 

L 129.900623 179.82 

L 133.173722 180.847871 

L 136.55554 181.701533 

L 138.171992 182.016364 

L 139.937358 182.342718 

" style="fill:none;stroke:#7ad151;stroke-width:1.5;"/>

   </g>

   <g id="LineCollection_6">

    <path clip-path="url(#pe88a0490cf)" d="M 143.319176 171.680501 

L 146.700994 172.121078 

L 150.082812 172.267398 

L 153.464631 172.121078 

L 156.846449 171.680501 

L 159.803058 171.034545 

L 160.228267 170.929111 

L 163.610085 169.751607 

L 165.634176 168.838182 

L 166.991903 168.118043 

L 169.264898 166.641818 

L 170.373722 165.760025 

L 171.780154 164.445455 

L 173.593198 162.249091 

L 173.75554 161.972933 

L 174.75014 160.052727 

L 175.428512 157.856364 

L 175.653807 155.66 

L 175.428512 153.463636 

L 174.75014 151.267273 

L 173.75554 149.347067 

L 173.593198 149.070909 

L 171.780154 146.874545 

L 170.373722 145.559975 

L 169.264898 144.678182 

L 166.991903 143.201957 

L 165.634176 142.481818 

L 163.610085 141.568393 

L 160.228267 140.390889 

L 159.803058 140.285455 

L 156.846449 139.639499 

L 153.464631 139.198922 

L 150.082812 139.052602 

L 146.700994 139.198922 

L 143.319176 139.639499 

L 140.362567 140.285455 

L 139.937358 140.390889 

L 136.55554 141.568393 

L 134.531449 142.481818 

L 133.173722 143.201957 

L 130.900727 144.678182 

L 129.791903 145.559975 

L 128.385471 146.874545 

L 126.572427 149.070909 

L 126.410085 149.347067 

L 125.415485 151.267273 

L 124.737113 153.463636 

L 124.511818 155.66 

L 124.737113 157.856364 

L 125.415485 160.052727 

L 126.410085 161.972933 

L 126.572427 162.249091 

L 128.385471 164.445455 

L 129.791903 165.760025 

L 130.900727 166.641818 

L 133.173722 168.118043 

L 134.531449 168.838182 

L 136.55554 169.751607 

L 139.937358 170.929111 

L 140.362567 171.034545 

L 143.319176 171.680501 

" style="fill:none;stroke:#fde725;stroke-width:1.5;"/>

   </g>

   <g id="LineCollection_7">

    <path clip-path="url(#pe88a0490cf)" d="M 373.282812 22.584007 

L 366.519176 20.164502 

L 359.75554 18.126977 

L 352.991903 16.441718 

L 346.172401 15.092727 

L 339.464631 14.024498 

L 332.700994 13.270777 

L 325.937358 12.79868 

L 319.173722 12.585848 

L 312.410085 12.656532 

L 305.646449 13.00416 

L 298.882812 13.609605 

L 292.119176 14.520239 

L 285.35554 15.724879 

L 278.486563 17.289091 

L 275.210085 18.126977 

L 268.446449 20.164502 

L 261.682812 22.584007 

L 254.919176 25.442442 

L 249.166472 28.270909 

L 244.773722 30.704132 

L 241.391903 32.770051 

L 238.010085 35.02091 

L 234.628267 37.486076 

L 231.246449 40.205841 

L 227.864631 43.234659 

L 225.221949 45.841818 

L 223.190107 48.038182 

L 219.614792 52.430909 

L 216.623105 56.823636 

L 215.327852 59.02 

L 213.107916 63.412727 

L 212.179798 65.609091 

L 210.691671 70.001818 

L 210.087051 72.198182 

L 209.229124 76.590909 

L 208.809521 80.983636 

L 208.809521 85.376364 

L 209.229124 89.769091 

L 209.601367 91.965455 

L 210.087051 94.161818 

L 211.384591 98.554545 

L 212.179798 100.750909 

L 213.107916 102.947273 

L 215.327852 107.34 

L 217.719176 111.191476 

L 218.067537 111.732727 

L 219.614792 113.929091 

L 223.190107 118.321818 

L 225.221949 120.518182 

L 227.864631 123.125341 

L 231.246449 126.154159 

L 234.628267 128.873924 

L 238.24104 131.5 

L 241.559634 133.696364 

L 245.183742 135.892727 

L 249.166472 138.089091 

L 253.58003 140.285455 

L 258.300994 142.392137 

L 264.122031 144.678182 

L 268.446449 146.195498 

L 275.210085 148.233023 

L 281.973722 149.918282 

L 288.793224 151.267273 

L 295.500994 152.335502 

L 302.264631 153.089223 

L 309.028267 153.56132 

L 315.791903 153.774152 

L 322.55554 153.703468 

L 329.319176 153.35584 

L 336.082813 152.750395 

L 342.846449 151.839761 

L 349.610085 150.635121 

L 356.479062 149.070909 

L 359.75554 148.233023 

L 366.519176 146.195498 

L 373.282812 143.775993 

L 373.282812 143.775993 

" style="fill:none;stroke:#440154;stroke-width:1.5;"/>

   </g>

   <g id="LineCollection_8">

    <path clip-path="url(#pe88a0490cf)" d="M 373.282812 40.173259 

L 371.544127 39.252727 

L 369.900994 38.412993 

L 366.519176 36.828145 

L 361.766843 34.86 

L 359.75554 34.092131 

L 352.991903 31.879729 

L 346.228267 30.126789 

L 339.464631 28.77695 

L 332.700994 27.810015 

L 325.937358 27.198165 

L 319.173722 26.940721 

L 312.410085 27.026221 

L 305.646449 27.458461 

L 298.793599 28.270909 

L 292.119176 29.397626 

L 285.35554 30.950159 

L 279.453022 32.663636 

L 275.210085 34.092131 

L 271.828267 35.389775 

L 267.948691 37.056364 

L 263.421498 39.252727 

L 259.439687 41.449091 

L 255.899859 43.645455 

L 252.728315 45.841818 

L 249.873488 48.038182 

L 247.300808 50.234545 

L 244.773722 52.644625 

L 242.871292 54.627273 

L 240.986538 56.823636 

L 239.276688 59.02 

L 237.766956 61.216364 

L 236.400906 63.412727 

L 234.628267 66.873671 

L 234.183941 67.805455 

L 233.285062 70.001818 

L 232.541055 72.198182 

L 231.943403 74.394545 

L 231.246449 78.208469 

L 231.15701 78.787273 

L 230.953495 80.983636 

L 230.885905 83.18 

L 230.953495 85.376364 

L 231.246449 88.151531 

L 231.485345 89.769091 

L 231.943403 91.965455 

L 232.541055 94.161818 

L 233.285062 96.358182 

L 234.628267 99.486329 

L 235.218407 100.750909 

L 236.400906 102.947273 

L 238.010085 105.495812 

L 239.276688 107.34 

L 241.391903 110.011627 

L 242.871292 111.732727 

L 244.98234 113.929091 

L 248.15554 116.870072 

L 251.537358 119.623363 

L 254.919176 122.058823 

L 258.300994 124.233223 

L 261.682812 126.186741 

L 265.064631 127.947007 

L 268.446449 129.531855 

L 273.198782 131.5 

L 275.210085 132.267869 

L 281.973722 134.480271 

L 288.737358 136.233211 

L 295.500994 137.58305 

L 302.264631 138.549985 

L 309.028267 139.161835 

L 315.791903 139.419279 

L 322.55554 139.333779 

L 329.319176 138.901539 

L 336.172026 138.089091 

L 342.846449 136.962374 

L 349.610085 135.409841 

L 355.512603 133.696364 

L 359.75554 132.267869 

L 363.137358 130.970225 

L 367.016934 129.303636 

L 371.544127 127.107273 

L 373.282812 126.186741 

L 373.282812 126.186741 

" style="fill:none;stroke:#414487;stroke-width:1.5;"/>

   </g>

   <g id="LineCollection_9">

    <path clip-path="url(#pe88a0490cf)" d="M 373.282812 55.185409 

L 372.615759 54.627273 

L 369.740409 52.430909 

L 366.46471 50.234545 

L 362.696249 48.038182 

L 358.299579 45.841818 

L 356.373722 44.975518 

L 352.991903 43.612471 

L 349.610085 42.407923 

L 346.228267 41.359496 

L 342.846449 40.441948 

L 337.370316 39.252727 

L 336.082813 39.00144 

L 332.700994 38.454968 

L 325.937358 37.706574 

L 319.173722 37.391677 

L 312.410085 37.496258 

L 305.646449 38.024959 

L 302.264631 38.454968 

L 297.595309 39.252727 

L 295.500994 39.660916 

L 292.119176 40.441948 

L 288.444119 41.449091 

L 285.35554 42.407923 

L 281.889468 43.645455 

L 276.666046 45.841818 

L 275.210085 46.523812 

L 271.828267 48.277348 

L 268.446449 50.268668 

L 265.064631 52.547114 

L 261.682812 55.185409 

L 258.300994 58.289975 

L 257.574308 59.02 

L 254.919176 62.069893 

L 253.867337 63.412727 

L 251.537358 66.987585 

L 251.054247 67.805455 

L 249.939189 70.001818 

L 249.016251 72.198182 

L 248.15554 74.851117 

L 247.694599 76.590909 

L 247.282403 78.787273 

L 247.036896 80.983636 

L 246.95536 83.18 

L 247.036896 85.376364 

L 247.282403 87.572727 

L 247.694599 89.769091 

L 248.274866 91.965455 

L 249.016251 94.161818 

L 249.939189 96.358182 

L 251.537358 99.372415 

L 252.357543 100.750909 

L 254.919176 104.290107 

L 255.601953 105.143636 

L 258.300994 108.070025 

L 259.812828 109.536364 

L 262.349866 111.732727 

L 265.225216 113.929091 

L 268.500915 116.125455 

L 272.269376 118.321818 

L 276.666046 120.518182 

L 278.591903 121.384482 

L 281.973722 122.747529 

L 285.35554 123.952077 

L 288.737358 125.000504 

L 292.119176 125.918052 

L 297.595309 127.107273 

L 298.882812 127.35856 

L 302.264631 127.905032 

L 309.028267 128.653426 

L 315.791903 128.968323 

L 322.55554 128.863742 

L 329.319176 128.335041 

L 332.700994 127.905032 

L 337.370316 127.107273 

L 339.464631 126.699084 

L 342.846449 125.918052 

L 346.521506 124.910909 

L 349.610085 123.952077 

L 353.076157 122.714545 

L 358.299579 120.518182 

L 359.75554 119.836188 

L 363.137358 118.082652 

L 366.519176 116.091332 

L 369.900994 113.812886 

L 373.282812 111.174591 

L 373.282812 111.174591 

" style="fill:none;stroke:#2a788e;stroke-width:1.5;"/>

   </g>

   <g id="LineCollection_10">

    <path clip-path="url(#pe88a0490cf)" d="M 373.282812 77.952674 

L 372.963262 76.590909 

L 372.236243 74.394545 

L 371.287665 72.198182 

L 369.900994 69.678458 

L 368.670775 67.805455 

L 366.519176 65.099851 

L 364.957947 63.412727 

L 362.61404 61.216364 

L 359.75554 58.93283 

L 356.373722 56.653637 

L 352.808208 54.627273 

L 348.101072 52.430909 

L 346.228267 51.668345 

L 342.103788 50.234545 

L 339.464631 49.448372 

L 336.082813 48.600438 

L 332.700994 47.908453 

L 329.319176 47.365607 

L 325.937358 46.963675 

L 322.55554 46.69817 

L 319.173722 46.566147 

L 315.791903 46.566147 

L 312.410085 46.69817 

L 309.028267 46.963675 

L 305.646449 47.365607 

L 301.61915 48.038182 

L 298.882812 48.600438 

L 295.500994 49.448372 

L 292.119176 50.464188 

L 286.864553 52.430909 

L 285.35554 53.07886 

L 281.973722 54.722275 

L 278.319491 56.823636 

L 275.091029 59.02 

L 271.828267 61.684476 

L 270.007678 63.412727 

L 267.996831 65.609091 

L 266.29485 67.805455 

L 264.858828 70.001818 

L 263.67796 72.198182 

L 262.729382 74.394545 

L 262.002363 76.590909 

L 261.488764 78.787273 

L 261.182867 80.983636 

L 261.081276 83.18 

L 261.182867 85.376364 

L 261.682812 88.407326 

L 262.002363 89.769091 

L 262.729382 91.965455 

L 263.67796 94.161818 

L 265.064631 96.681542 

L 266.29485 98.554545 

L 268.446449 101.260149 

L 270.007678 102.947273 

L 272.351585 105.143636 

L 275.210085 107.42717 

L 278.591903 109.706363 

L 282.157417 111.732727 

L 286.864553 113.929091 

L 288.737358 114.691655 

L 292.861837 116.125455 

L 295.500994 116.911628 

L 298.882812 117.759562 

L 302.264631 118.451547 

L 305.646449 118.994393 

L 309.028267 119.396325 

L 312.410085 119.66183 

L 315.791903 119.793853 

L 319.173722 119.793853 

L 322.55554 119.66183 

L 325.937358 119.396325 

L 329.319176 118.994393 

L 333.346475 118.321818 

L 336.082813 117.759562 

L 339.464631 116.911628 

L 342.846449 115.895812 

L 348.101072 113.929091 

L 349.610085 113.28114 

L 352.991903 111.637725 

L 356.646134 109.536364 

L 359.874596 107.34 

L 363.137358 104.675524 

L 364.957947 102.947273 

L 366.968794 100.750909 

L 368.670775 98.554545 

L 370.106797 96.358182 

L 371.287665 94.161818 

L 372.236243 91.965455 

L 372.963262 89.769091 

L 373.282812 88.407326 

L 373.282812 88.407326 

" style="fill:none;stroke:#22a884;stroke-width:1.5;"/>

   </g>

   <g id="LineCollection_11">

    <path clip-path="url(#pe88a0490cf)" d="M 305.646449 109.571666 

L 309.028267 110.10764 

L 312.410085 110.461689 

L 315.791903 110.63774 

L 319.173722 110.63774 

L 322.55554 110.461689 

L 325.937358 110.10764 

L 329.319176 109.571666 

L 329.486424 109.536364 

L 332.700994 108.820173 

L 336.082813 107.863346 

L 337.611851 107.34 

L 339.464631 106.658082 

L 342.846449 105.18551 

L 342.930687 105.143636 

L 346.228267 103.345126 

L 346.874298 102.947273 

L 349.610085 101.064227 

L 350.021273 100.750909 

L 352.558073 98.554545 

L 352.991903 98.118265 

L 354.606522 96.358182 

L 356.282219 94.161818 

L 356.373722 94.014798 

L 357.573342 91.965455 

L 358.559826 89.769091 

L 359.256734 87.572727 

L 359.671817 85.376364 

L 359.75554 84.043407 

L 359.807854 83.18 

L 359.75554 82.316593 

L 359.671817 80.983636 

L 359.256734 78.787273 

L 358.559826 76.590909 

L 357.573342 74.394545 

L 356.373722 72.345202 

L 356.282219 72.198182 

L 354.606522 70.001818 

L 352.991903 68.241735 

L 352.558073 67.805455 

L 350.021273 65.609091 

L 349.610085 65.295773 

L 346.874298 63.412727 

L 346.228267 63.014874 

L 342.930687 61.216364 

L 342.846449 61.17449 

L 339.464631 59.701918 

L 337.611851 59.02 

L 336.082813 58.496654 

L 332.700994 57.539827 

L 329.486424 56.823636 

L 329.319176 56.788334 

L 325.937358 56.25236 

L 322.55554 55.898311 

L 319.173722 55.72226 

L 315.791903 55.72226 

L 312.410085 55.898311 

L 309.028267 56.25236 

L 305.646449 56.788334 

L 305.479201 56.823636 

L 302.264631 57.539827 

L 298.882812 58.496654 

L 297.353774 59.02 

L 295.500994 59.701918 

L 292.119176 61.17449 

L 292.034938 61.216364 

L 288.737358 63.014874 

L 288.091327 63.412727 

L 285.35554 65.295773 

L 284.944352 65.609091 

L 282.407552 67.805455 

L 281.973722 68.241735 

L 280.359103 70.001818 

L 278.683406 72.198182 

L 278.591903 72.345202 

L 277.392283 74.394545 

L 276.405799 76.590909 

L 275.708891 78.787273 

L 275.293808 80.983636 

L 275.210085 82.316593 

L 275.157771 83.18 

L 275.210085 84.043407 

L 275.293808 85.376364 

L 275.708891 87.572727 

L 276.405799 89.769091 

L 277.392283 91.965455 

L 278.591903 94.014798 

L 278.683406 94.161818 

L 280.359103 96.358182 

L 281.973722 98.118265 

L 282.407552 98.554545 

L 284.944352 100.750909 

L 285.35554 101.064227 

L 288.091327 102.947273 

L 288.737358 103.345126 

L 292.034938 105.143636 

L 292.119176 105.18551 

L 295.500994 106.658082 

L 297.353774 107.34 

L 298.882812 107.863346 

L 302.264631 108.820173 

L 305.479201 109.536364 

L 305.646449 109.571666 

" style="fill:none;stroke:#7ad151;stroke-width:1.5;"/>

   </g>

   <g id="LineCollection_12">

    <path clip-path="url(#pe88a0490cf)" d="M 309.028267 98.868471 

L 312.410085 99.457799 

L 315.791903 99.750843 

L 319.173722 99.750843 

L 322.55554 99.457799 

L 325.937358 98.868471 

L 327.13585 98.554545 

L 329.319176 97.904295 

L 332.700994 96.549273 

L 333.082445 96.358182 

L 336.082813 94.588335 

L 336.68536 94.161818 

L 339.21882 91.965455 

L 339.464631 91.690515 

L 340.953381 89.769091 

L 342.157559 87.572727 

L 342.846449 85.463571 

L 342.871927 85.376364 

L 343.086168 83.18 

L 342.871927 80.983636 

L 342.846449 80.896429 

L 342.157559 78.787273 

L 340.953381 76.590909 

L 339.464631 74.669485 

L 339.21882 74.394545 

L 336.68536 72.198182 

L 336.082813 71.771665 

L 333.082445 70.001818 

L 332.700994 69.810727 

L 329.319176 68.455705 

L 327.13585 67.805455 

L 325.937358 67.491529 

L 322.55554 66.902201 

L 319.173722 66.609157 

L 315.791903 66.609157 

L 312.410085 66.902201 

L 309.028267 67.491529 

L 307.829775 67.805455 

L 305.646449 68.455705 

L 302.264631 69.810727 

L 301.88318 70.001818 

L 298.882812 71.771665 

L 298.280265 72.198182 

L 295.746805 74.394545 

L 295.500994 74.669485 

L 294.012244 76.590909 

L 292.808066 78.787273 

L 292.119176 80.896429 

L 292.093698 80.983636 

L 291.879457 83.18 

L 292.093698 85.376364 

L 292.119176 85.463571 

L 292.808066 87.572727 

L 294.012244 89.769091 

L 295.500994 91.690515 

L 295.746805 91.965455 

L 298.280265 94.161818 

L 298.882812 94.588335 

L 301.88318 96.358182 

L 302.264631 96.549273 

L 305.646449 97.904295 

L 307.829775 98.554545 

L 309.028267 98.868471 

" style="fill:none;stroke:#fde725;stroke-width:1.5;"/>

   </g>

   <g id="patch_3">

    <path d="M 38.482813 228.14 

L 38.482813 10.7 

" style="fill:none;stroke:#000000;stroke-linecap:square;stroke-linejoin:miter;stroke-width:0.8;"/>

   </g>

   <g id="patch_4">

    <path d="M 373.282813 228.14 

L 373.282813 10.7 

" style="fill:none;stroke:#000000;stroke-linecap:square;stroke-linejoin:miter;stroke-width:0.8;"/>

   </g>

   <g id="patch_5">

    <path d="M 38.482813 228.14 

L 373.282812 228.14 

" style="fill:none;stroke:#000000;stroke-linecap:square;stroke-linejoin:miter;stroke-width:0.8;"/>

   </g>

   <g id="patch_6">

    <path d="M 38.482813 10.7 

L 373.282812 10.7 

" style="fill:none;stroke:#000000;stroke-linecap:square;stroke-linejoin:miter;stroke-width:0.8;"/>

   </g>

  </g>

 </g>

 <defs>

  <clipPath id="pe88a0490cf">

   <rect height="217.44" width="334.8" x="38.482813" y="10.7"/>

  </clipPath>

 </defs>

</svg>
