<?xml version="1.0" encoding="utf-8" standalone="no"?>

<!DOCTYPE svg PUBLIC "-//W3C//DTD SVG 1.1//EN"

  "http://www.w3.org/Graphics/SVG/1.1/DTD/svg11.dtd">

<!-- Created with matplotlib (http://matplotlib.org/) -->

<svg height="265pt" version="1.1" viewBox="0 0 390 265" width="390pt" xmlns="http://www.w3.org/2000/svg" xmlns:xlink="http://www.w3.org/1999/xlink">

 <defs>

  <style type="text/css">

*{stroke-linecap:butt;stroke-linejoin:round;}

  </style>

 </defs>

 <g id="figure_1">

  <g id="patch_1">

   <path d="M 0 265.69625 

L 390.303125 265.69625 

L 390.303125 0 

L 0 0 

z

" style="fill:none;"/>

  </g>

  <g id="axes_1">

   <g id="patch_2">

    <path d="M 44.803125 228.14 

L 379.603125 228.14 

L 379.603125 10.7 

L 44.803125 10.7 

z

" style="fill:#ffffff;"/>

   </g>

   <g id="patch_3">

    <path clip-path="url(#pa44bd1f47f)" d="M 212.203125 98.361794 

L 204.594034 101.326885 

L 204.594034 98.46063 

L 174.15767 98.46063 

L 174.15767 98.262958 

L 204.594034 98.262958 

L 204.594034 95.396703 

z

" style="stroke:#000000;stroke-linejoin:miter;"/>

   </g>

   <g id="matplotlib.axis_1">

    <g id="xtick_1">

     <g id="line2d_1">

      <defs>

       <path d="M 0 0 

L 0 3.5 

" id="mc61fdffc8a" style="stroke:#000000;stroke-width:0.8;"/>

      </defs>

      <g>

       <use style="stroke:#000000;stroke-width:0.8;" x="60.021307" xlink:href="#mc61fdffc8a" y="228.14"/>

      </g>

     </g>

     <g id="text_1">

      <!-- 0.0 -->

      <defs>

       <path d="M 31.78125 66.40625 

Q 24.171875 66.40625 20.328125 58.90625 

Q 16.5 51.421875 16.5 36.375 

Q 16.5 21.390625 20.328125 13.890625 

Q 24.171875 6.390625 31.78125 6.390625 

Q 39.453125 6.390625 43.28125 13.890625 

Q 47.125 21.390625 47.125 36.375 

Q 47.125 51.421875 43.28125 58.90625 

Q 39.453125 66.40625 31.78125 66.40625 

z

M 31.78125 74.21875 

Q 44.046875 74.21875 50.515625 64.515625 

Q 56.984375 54.828125 56.984375 36.375 

Q 56.984375 17.96875 50.515625 8.265625 

Q 44.046875 -1.421875 31.78125 -1.421875 

Q 19.53125 -1.421875 13.0625 8.265625 

Q 6.59375 17.96875 6.59375 36.375 

Q 6.59375 54.828125 13.0625 64.515625 

Q 19.53125 74.21875 31.78125 74.21875 

z

" id="DejaVuSans-30"/>

       <path d="M 10.6875 12.40625 

L 21 12.40625 

L 21 0 

L 10.6875 0 

z

" id="DejaVuSans-2e"/>

      </defs>

      <g transform="translate(52.069744 242.738437)scale(0.1 -0.1)">

       <use xlink:href="#DejaVuSans-30"/>

       <use x="63.623047" xlink:href="#DejaVuSans-2e"/>

       <use x="95.410156" xlink:href="#DejaVuSans-30"/>

      </g>

     </g>

    </g>

    <g id="xtick_2">

     <g id="line2d_2">

      <g>

       <use style="stroke:#000000;stroke-width:0.8;" x="98.066761" xlink:href="#mc61fdffc8a" y="228.14"/>

      </g>

     </g>

     <g id="text_2">

      <!-- 0.5 -->

      <defs>

       <path d="M 10.796875 72.90625 

L 49.515625 72.90625 

L 49.515625 64.59375 

L 19.828125 64.59375 

L 19.828125 46.734375 

Q 21.96875 47.46875 24.109375 47.828125 

Q 26.265625 48.1875 28.421875 48.1875 

Q 40.625 48.1875 47.75 41.5 

Q 54.890625 34.8125 54.890625 23.390625 

Q 54.890625 11.625 47.5625 5.09375 

Q 40.234375 -1.421875 26.90625 -1.421875 

Q 22.3125 -1.421875 17.546875 -0.640625 

Q 12.796875 0.140625 7.71875 1.703125 

L 7.71875 11.625 

Q 12.109375 9.234375 16.796875 8.0625 

Q 21.484375 6.890625 26.703125 6.890625 

Q 35.15625 6.890625 40.078125 11.328125 

Q 45.015625 15.765625 45.015625 23.390625 

Q 45.015625 31 40.078125 35.4375 

Q 35.15625 39.890625 26.703125 39.890625 

Q 22.75 39.890625 18.8125 39.015625 

Q 14.890625 38.140625 10.796875 36.28125 

z

" id="DejaVuSans-35"/>

      </defs>

      <g transform="translate(90.115199 242.738437)scale(0.1 -0.1)">

       <use xlink:href="#DejaVuSans-30"/>

       <use x="63.623047" xlink:href="#DejaVuSans-2e"/>

       <use x="95.410156" xlink:href="#DejaVuSans-35"/>

      </g>

     </g>

    </g>

    <g id="xtick_3">

     <g id="line2d_3">

      <g>

       <use style="stroke:#000000;stroke-width:0.8;" x="136.112216" xlink:href="#mc61fdffc8a" y="228.14"/>

      </g>

     </g>

     <g id="text_3">

      <!-- 1.0 -->

      <defs>

       <path d="M 12.40625 8.296875 

L 28.515625 8.296875 

L 28.515625 63.921875 

L 10.984375 60.40625 

L 10.984375 69.390625 

L 28.421875 72.90625 

L 38.28125 72.90625 

L 38.28125 8.296875 

L 54.390625 8.296875 

L 54.390625 0 

L 12.40625 0 

z

" id="DejaVuSans-31"/>

      </defs>

      <g transform="translate(128.160653 242.738437)scale(0.1 -0.1)">

       <use xlink:href="#DejaVuSans-31"/>

       <use x="63.623047" xlink:href="#DejaVuSans-2e"/>

       <use x="95.410156" xlink:href="#DejaVuSans-30"/>

      </g>

     </g>

    </g>

    <g id="xtick_4">

     <g id="line2d_4">

      <g>

       <use style="stroke:#000000;stroke-width:0.8;" x="174.15767" xlink:href="#mc61fdffc8a" y="228.14"/>

      </g>

     </g>

     <g id="text_4">

      <!-- 1.5 -->

      <g transform="translate(166.206108 242.738437)scale(0.1 -0.1)">

       <use xlink:href="#DejaVuSans-31"/>

       <use x="63.623047" xlink:href="#DejaVuSans-2e"/>

       <use x="95.410156" xlink:href="#DejaVuSans-35"/>

      </g>

     </g>

    </g>

    <g id="xtick_5">

     <g id="line2d_5">

      <g>

       <use style="stroke:#000000;stroke-width:0.8;" x="212.203125" xlink:href="#mc61fdffc8a" y="228.14"/>

      </g>

     </g>

     <g id="text_5">

      <!-- 2.0 -->

      <defs>

       <path d="M 19.1875 8.296875 

L 53.609375 8.296875 

L 53.609375 0 

L 7.328125 0 

L 7.328125 8.296875 

Q 12.9375 14.109375 22.625 23.890625 

Q 32.328125 33.6875 34.8125 36.53125 

Q 39.546875 41.84375 41.421875 45.53125 

Q 43.3125 49.21875 43.3125 52.78125 

Q 43.3125 58.59375 39.234375 62.25 

Q 35.15625 65.921875 28.609375 65.921875 

Q 23.96875 65.921875 18.8125 64.3125 

Q 13.671875 62.703125 7.8125 59.421875 

L 7.8125 69.390625 

Q 13.765625 71.78125 18.9375 73 

Q 24.125 74.21875 28.421875 74.21875 

Q 39.75 74.21875 46.484375 68.546875 

Q 53.21875 62.890625 53.21875 53.421875 

Q 53.21875 48.921875 51.53125 44.890625 

Q 49.859375 40.875 45.40625 35.40625 

Q 44.1875 33.984375 37.640625 27.21875 

Q 31.109375 20.453125 19.1875 8.296875 

z

" id="DejaVuSans-32"/>

      </defs>

      <g transform="translate(204.251563 242.738437)scale(0.1 -0.1)">

       <use xlink:href="#DejaVuSans-32"/>

       <use x="63.623047" xlink:href="#DejaVuSans-2e"/>

       <use x="95.410156" xlink:href="#DejaVuSans-30"/>

      </g>

     </g>

    </g>

    <g id="xtick_6">

     <g id="line2d_6">

      <g>

       <use style="stroke:#000000;stroke-width:0.8;" x="250.24858" xlink:href="#mc61fdffc8a" y="228.14"/>

      </g>

     </g>

     <g id="text_6">

      <!-- 2.5 -->

      <g transform="translate(242.297017 242.738437)scale(0.1 -0.1)">

       <use xlink:href="#DejaVuSans-32"/>

       <use x="63.623047" xlink:href="#DejaVuSans-2e"/>

       <use x="95.410156" xlink:href="#DejaVuSans-35"/>

      </g>

     </g>

    </g>

    <g id="xtick_7">

     <g id="line2d_7">

      <g>

       <use style="stroke:#000000;stroke-width:0.8;" x="288.294034" xlink:href="#mc61fdffc8a" y="228.14"/>

      </g>

     </g>

     <g id="text_7">

      <!-- 3.0 -->

      <defs>

       <path d="M 40.578125 39.3125 

Q 47.65625 37.796875 51.625 33 

Q 55.609375 28.21875 55.609375 21.1875 

Q 55.609375 10.40625 48.1875 4.484375 

Q 40.765625 -1.421875 27.09375 -1.421875 

Q 22.515625 -1.421875 17.65625 -0.515625 

Q 12.796875 0.390625 7.625 2.203125 

L 7.625 11.71875 

Q 11.71875 9.328125 16.59375 8.109375 

Q 21.484375 6.890625 26.8125 6.890625 

Q 36.078125 6.890625 40.9375 10.546875 

Q 45.796875 14.203125 45.796875 21.1875 

Q 45.796875 27.640625 41.28125 31.265625 

Q 36.765625 34.90625 28.71875 34.90625 

L 20.21875 34.90625 

L 20.21875 43.015625 

L 29.109375 43.015625 

Q 36.375 43.015625 40.234375 45.921875 

Q 44.09375 48.828125 44.09375 54.296875 

Q 44.09375 59.90625 40.109375 62.90625 

Q 36.140625 65.921875 28.71875 65.921875 

Q 24.65625 65.921875 20.015625 65.03125 

Q 15.375 64.15625 9.8125 62.3125 

L 9.8125 71.09375 

Q 15.4375 72.65625 20.34375 73.4375 

Q 25.25 74.21875 29.59375 74.21875 

Q 40.828125 74.21875 47.359375 69.109375 

Q 53.90625 64.015625 53.90625 55.328125 

Q 53.90625 49.265625 50.4375 45.09375 

Q 46.96875 40.921875 40.578125 39.3125 

z

" id="DejaVuSans-33"/>

      </defs>

      <g transform="translate(280.342472 242.738437)scale(0.1 -0.1)">

       <use xlink:href="#DejaVuSans-33"/>

       <use x="63.623047" xlink:href="#DejaVuSans-2e"/>

       <use x="95.410156" xlink:href="#DejaVuSans-30"/>

      </g>

     </g>

    </g>

    <g id="xtick_8">

     <g id="line2d_8">

      <g>

       <use style="stroke:#000000;stroke-width:0.8;" x="326.339489" xlink:href="#mc61fdffc8a" y="228.14"/>

      </g>

     </g>

     <g id="text_8">

      <!-- 3.5 -->

      <g transform="translate(318.387926 242.738437)scale(0.1 -0.1)">

       <use xlink:href="#DejaVuSans-33"/>

       <use x="63.623047" xlink:href="#DejaVuSans-2e"/>

       <use x="95.410156" xlink:href="#DejaVuSans-35"/>

      </g>

     </g>

    </g>

    <g id="xtick_9">

     <g id="line2d_9">

      <g>

       <use style="stroke:#000000;stroke-width:0.8;" x="364.384943" xlink:href="#mc61fdffc8a" y="228.14"/>

      </g>

     </g>

     <g id="text_9">

      <!-- 4.0 -->

      <defs>

       <path d="M 37.796875 64.3125 

L 12.890625 25.390625 

L 37.796875 25.390625 

z

M 35.203125 72.90625 

L 47.609375 72.90625 

L 47.609375 25.390625 

L 58.015625 25.390625 

L 58.015625 17.1875 

L 47.609375 17.1875 

L 47.609375 0 

L 37.796875 0 

L 37.796875 17.1875 

L 4.890625 17.1875 

L 4.890625 26.703125 

z

" id="DejaVuSans-34"/>

      </defs>

      <g transform="translate(356.433381 242.738437)scale(0.1 -0.1)">

       <use xlink:href="#DejaVuSans-34"/>

       <use x="63.623047" xlink:href="#DejaVuSans-2e"/>

       <use x="95.410156" xlink:href="#DejaVuSans-30"/>

      </g>

     </g>

    </g>

    <g id="text_10">

     <!-- $x$ -->

     <defs>

      <path d="M 60.015625 54.6875 

L 34.90625 27.875 

L 50.296875 0 

L 39.984375 0 

L 28.421875 21.6875 

L 8.296875 0 

L -2.59375 0 

L 24.3125 28.8125 

L 10.015625 54.6875 

L 20.3125 54.6875 

L 30.8125 34.90625 

L 49.125 54.6875 

z

" id="DejaVuSans-Oblique-78"/>

     </defs>

     <g transform="translate(209.203125 256.416562)scale(0.1 -0.1)">

      <use transform="translate(0 0.3125)" xlink:href="#DejaVuSans-Oblique-78"/>

     </g>

    </g>

   </g>

   <g id="matplotlib.axis_2">

    <g id="ytick_1">

     <g id="line2d_10">

      <defs>

       <path d="M 0 0 

L -3.5 0 

" id="m02764b99d8" style="stroke:#000000;stroke-width:0.8;"/>

      </defs>

      <g>

       <use style="stroke:#000000;stroke-width:0.8;" x="44.803125" xlink:href="#m02764b99d8" y="218.256364"/>

      </g>

     </g>

     <g id="text_11">

      <!-- 0.0 -->

      <g transform="translate(21.9 222.055582)scale(0.1 -0.1)">

       <use xlink:href="#DejaVuSans-30"/>

       <use x="63.623047" xlink:href="#DejaVuSans-2e"/>

       <use x="95.410156" xlink:href="#DejaVuSans-30"/>

      </g>

     </g>

    </g>

    <g id="ytick_2">

     <g id="line2d_11">

      <g>

       <use style="stroke:#000000;stroke-width:0.8;" x="44.803125" xlink:href="#m02764b99d8" y="178.721818"/>

      </g>

     </g>

     <g id="text_12">

      <!-- 0.2 -->

      <g transform="translate(21.9 182.521037)scale(0.1 -0.1)">

       <use xlink:href="#DejaVuSans-30"/>

       <use x="63.623047" xlink:href="#DejaVuSans-2e"/>

       <use x="95.410156" xlink:href="#DejaVuSans-32"/>

      </g>

     </g>

    </g>

    <g id="ytick_3">

     <g id="line2d_12">

      <g>

       <use style="stroke:#000000;stroke-width:0.8;" x="44.803125" xlink:href="#m02764b99d8" y="139.187273"/>

      </g>

     </g>

     <g id="text_13">

      <!-- 0.4 -->

      <g transform="translate(21.9 142.986491)scale(0.1 -0.1)">

       <use xlink:href="#DejaVuSans-30"/>

       <use x="63.623047" xlink:href="#DejaVuSans-2e"/>

       <use x="95.410156" xlink:href="#DejaVuSans-34"/>

      </g>

     </g>

    </g>

    <g id="ytick_4">

     <g id="line2d_13">

      <g>

       <use style="stroke:#000000;stroke-width:0.8;" x="44.803125" xlink:href="#m02764b99d8" y="99.652727"/>

      </g>

     </g>

     <g id="text_14">

      <!-- 0.6 -->

      <defs>

       <path d="M 33.015625 40.375 

Q 26.375 40.375 22.484375 35.828125 

Q 18.609375 31.296875 18.609375 23.390625 

Q 18.609375 15.53125 22.484375 10.953125 

Q 26.375 6.390625 33.015625 6.390625 

Q 39.65625 6.390625 43.53125 10.953125 

Q 47.40625 15.53125 47.40625 23.390625 

Q 47.40625 31.296875 43.53125 35.828125 

Q 39.65625 40.375 33.015625 40.375 

z

M 52.59375 71.296875 

L 52.59375 62.3125 

Q 48.875 64.0625 45.09375 64.984375 

Q 41.3125 65.921875 37.59375 65.921875 

Q 27.828125 65.921875 22.671875 59.328125 

Q 17.53125 52.734375 16.796875 39.40625 

Q 19.671875 43.65625 24.015625 45.921875 

Q 28.375 48.1875 33.59375 48.1875 

Q 44.578125 48.1875 50.953125 41.515625 

Q 57.328125 34.859375 57.328125 23.390625 

Q 57.328125 12.15625 50.6875 5.359375 

Q 44.046875 -1.421875 33.015625 -1.421875 

Q 20.359375 -1.421875 13.671875 8.265625 

Q 6.984375 17.96875 6.984375 36.375 

Q 6.984375 53.65625 15.1875 63.9375 

Q 23.390625 74.21875 37.203125 74.21875 

Q 40.921875 74.21875 44.703125 73.484375 

Q 48.484375 72.75 52.59375 71.296875 

z

" id="DejaVuSans-36"/>

      </defs>

      <g transform="translate(21.9 103.451946)scale(0.1 -0.1)">

       <use xlink:href="#DejaVuSans-30"/>

       <use x="63.623047" xlink:href="#DejaVuSans-2e"/>

       <use x="95.410156" xlink:href="#DejaVuSans-36"/>

      </g>

     </g>

    </g>

    <g id="ytick_5">

     <g id="line2d_14">

      <g>

       <use style="stroke:#000000;stroke-width:0.8;" x="44.803125" xlink:href="#m02764b99d8" y="60.118182"/>

      </g>

     </g>

     <g id="text_15">

      <!-- 0.8 -->

      <defs>

       <path d="M 31.78125 34.625 

Q 24.75 34.625 20.71875 30.859375 

Q 16.703125 27.09375 16.703125 20.515625 

Q 16.703125 13.921875 20.71875 10.15625 

Q 24.75 6.390625 31.78125 6.390625 

Q 38.8125 6.390625 42.859375 10.171875 

Q 46.921875 13.96875 46.921875 20.515625 

Q 46.921875 27.09375 42.890625 30.859375 

Q 38.875 34.625 31.78125 34.625 

z

M 21.921875 38.8125 

Q 15.578125 40.375 12.03125 44.71875 

Q 8.5 49.078125 8.5 55.328125 

Q 8.5 64.0625 14.71875 69.140625 

Q 20.953125 74.21875 31.78125 74.21875 

Q 42.671875 74.21875 48.875 69.140625 

Q 55.078125 64.0625 55.078125 55.328125 

Q 55.078125 49.078125 51.53125 44.71875 

Q 48 40.375 41.703125 38.8125 

Q 48.828125 37.15625 52.796875 32.3125 

Q 56.78125 27.484375 56.78125 20.515625 

Q 56.78125 9.90625 50.3125 4.234375 

Q 43.84375 -1.421875 31.78125 -1.421875 

Q 19.734375 -1.421875 13.25 4.234375 

Q 6.78125 9.90625 6.78125 20.515625 

Q 6.78125 27.484375 10.78125 32.3125 

Q 14.796875 37.15625 21.921875 38.8125 

z

M 18.3125 54.390625 

Q 18.3125 48.734375 21.84375 45.5625 

Q 25.390625 42.390625 31.78125 42.390625 

Q 38.140625 42.390625 41.71875 45.5625 

Q 45.3125 48.734375 45.3125 54.390625 

Q 45.3125 60.0625 41.71875 63.234375 

Q 38.140625 66.40625 31.78125 66.40625 

Q 25.390625 66.40625 21.84375 63.234375 

Q 18.3125 60.0625 18.3125 54.390625 

z

" id="DejaVuSans-38"/>

      </defs>

      <g transform="translate(21.9 63.917401)scale(0.1 -0.1)">

       <use xlink:href="#DejaVuSans-30"/>

       <use x="63.623047" xlink:href="#DejaVuSans-2e"/>

       <use x="95.410156" xlink:href="#DejaVuSans-38"/>

      </g>

     </g>

    </g>

    <g id="ytick_6">

     <g id="line2d_15">

      <g>

       <use style="stroke:#000000;stroke-width:0.8;" x="44.803125" xlink:href="#m02764b99d8" y="20.583636"/>

      </g>

     </g>

     <g id="text_16">

      <!-- 1.0 -->

      <g transform="translate(21.9 24.382855)scale(0.1 -0.1)">

       <use xlink:href="#DejaVuSans-31"/>

       <use x="63.623047" xlink:href="#DejaVuSans-2e"/>

       <use x="95.410156" xlink:href="#DejaVuSans-30"/>

      </g>

     </g>

    </g>

    <g id="text_17">

     <!-- $\phi_j(x)$ -->

     <defs>

      <path d="M 46.734375 75.984375 

L 42.78125 55.8125 

Q 52.546875 55.8125 57.5625 48.34375 

Q 62.75 40.71875 60.15625 27.296875 

Q 57.515625 13.875 49.359375 6.25 

Q 41.453125 -1.21875 31.6875 -1.21875 

L 27.875 -20.796875 

L 18.953125 -20.796875 

L 22.75 -1.21875 

Q 13.03125 -1.21875 7.953125 6.25 

Q 2.78125 13.875 5.421875 27.296875 

Q 8.015625 40.71875 16.15625 48.34375 

Q 24.125 55.8125 33.84375 55.8125 

L 37.796875 75.984375 

z

M 33.25 6.78125 

Q 38.765625 6.78125 43.5 11.8125 

Q 48.6875 17.4375 50.6875 27.296875 

Q 52.640625 37.0625 49.515625 42.78125 

Q 46.734375 47.796875 41.21875 47.796875 

z

M 24.3125 6.78125 

L 32.28125 47.796875 

Q 26.8125 47.796875 22.078125 42.78125 

Q 16.75 37.0625 14.890625 27.296875 

Q 13.03125 17.4375 16.0625 11.8125 

Q 18.796875 6.78125 24.3125 6.78125 

z

" id="DejaVuSans-Oblique-3d5"/>

      <path d="M 14.5 54.6875 

L 23.484375 54.6875 

L 12.703125 -0.984375 

L 12.640625 -1.21875 

Q 10.84375 -10.546875 8.5 -14.015625 

Q 6.296875 -17.28125 2.0625 -19.03125 

Q -2.15625 -20.796875 -7.90625 -20.796875 

L -11.28125 -20.796875 

L -9.8125 -13.1875 

L -7.515625 -13.1875 

Q -2.25 -13.1875 -0.015625 -10.984375 

Q 2.203125 -8.796875 3.71875 -0.984375 

z

M 18.703125 75.984375 

L 27.6875 75.984375 

L 25.484375 64.59375 

L 16.5 64.59375 

z

" id="DejaVuSans-Oblique-6a"/>

      <path d="M 31 75.875 

Q 24.46875 64.65625 21.28125 53.65625 

Q 18.109375 42.671875 18.109375 31.390625 

Q 18.109375 20.125 21.3125 9.0625 

Q 24.515625 -2 31 -13.1875 

L 23.1875 -13.1875 

Q 15.875 -1.703125 12.234375 9.375 

Q 8.59375 20.453125 8.59375 31.390625 

Q 8.59375 42.28125 12.203125 53.3125 

Q 15.828125 64.359375 23.1875 75.875 

z

" id="DejaVuSans-28"/>

      <path d="M 8.015625 75.875 

L 15.828125 75.875 

Q 23.140625 64.359375 26.78125 53.3125 

Q 30.421875 42.28125 30.421875 31.390625 

Q 30.421875 20.453125 26.78125 9.375 

Q 23.140625 -1.703125 15.828125 -13.1875 

L 8.015625 -13.1875 

Q 14.5 -2 17.703125 9.0625 

Q 20.90625 20.125 20.90625 31.390625 

Q 20.90625 42.671875 17.703125 53.65625 

Q 14.5 64.65625 8.015625 75.875 

z

" id="DejaVuSans-29"/>

     </defs>

     <g transform="translate(14.8 130.72)rotate(-90)scale(0.1 -0.1)">

      <use transform="translate(0 0.015625)" xlink:href="#DejaVuSans-Oblique-3d5"/>

      <use transform="translate(65.966797 -16.390625)scale(0.7)" xlink:href="#DejaVuSans-Oblique-6a"/>

      <use transform="translate(88.149414 0.015625)" xlink:href="#DejaVuSans-28"/>

      <use transform="translate(127.163086 0.015625)" xlink:href="#DejaVuSans-Oblique-78"/>

      <use transform="translate(186.342773 0.015625)" xlink:href="#DejaVuSans-29"/>

     </g>

    </g>

   </g>

   <g id="line2d_16">

    <path clip-path="url(#pa44bd1f47f)" d="M 60.021307 216.060418 

L 63.095687 215.467116 

L 66.170067 214.736574 

L 69.244447 213.843602 

L 72.318827 212.760091 

L 75.393208 211.455092 

L 78.467588 209.895019 

L 81.541968 208.044003 

L 84.616348 205.864397 

L 87.690728 203.31747 

L 90.765108 200.364288 

L 93.839489 196.966785 

L 96.913869 193.089012 

L 99.988249 188.698569 

L 103.062629 183.768156 

L 106.137009 178.277237 

L 109.211389 172.21374 

L 112.28577 165.57574 

L 115.36015 158.37305 

L 118.43453 150.628632 

L 121.50891 142.379756 

L 124.58329 133.67882 

L 127.65767 124.593742 

L 130.732051 115.207874 

L 133.806431 105.619374 

L 136.880811 95.940013 

L 139.955191 86.293394 

L 143.029571 76.812626 

L 146.103951 67.637471 

L 149.178332 58.911065 

L 152.252712 50.776291 

L 155.327092 43.371949 

L 158.401472 36.828847 

L 161.475852 31.265976 

L 164.550232 26.786913 

L 167.624613 23.476625 

L 170.698993 21.39878 

L 173.773373 20.59372 

L 176.847753 21.077151 

L 179.922133 22.839635 

L 182.996513 25.846899 

L 186.070894 30.040943 

L 189.145274 35.341897 

L 192.219654 41.650553 

L 195.294034 48.851451 

L 198.368414 56.816384 

L 201.442794 65.408185 

L 204.517175 74.484625 

L 207.591555 83.902284 

L 210.665935 93.520231 

L 213.740315 103.20341 

L 216.814695 112.825601 

L 219.889075 122.271886 

L 222.963456 131.440569 

L 226.037836 140.244516 

L 229.112216 148.611922 

L 232.186596 156.486529 

L 235.260976 163.827345 

L 238.335356 170.607929 

L 241.409737 176.815303 

L 244.484117 182.448603 

L 247.558497 187.517519 

L 250.632877 192.04063 

L 253.707257 196.043705 

L 256.781637 199.558018 

L 259.856018 202.618772 

L 262.930398 205.263626 

L 266.004778 207.531407 

L 269.079158 209.460986 

L 272.153538 211.090352 

L 275.227918 212.455875 

L 278.302299 213.591749 

L 281.376679 214.529607 

L 284.451059 215.29828 

L 287.525439 215.923691 

L 290.599819 216.428847 

L 293.674199 216.833927 

L 296.74858 217.156425 

L 299.82296 217.411341 

L 302.89734 217.611405 

L 305.97172 217.767306 

L 309.0461 217.887936 

L 312.12048 217.980618 

L 315.194861 218.051328 

L 318.269241 218.104899 

L 321.343621 218.1452 

L 324.418001 218.17531 

L 327.492381 218.197649 

L 330.566761 218.214107 

L 333.641142 218.226151 

L 336.715522 218.234902 

L 339.789902 218.241218 

L 342.864282 218.245744 

L 345.938662 218.248967 

L 349.013042 218.251245 

L 352.087423 218.252844 

L 355.161803 218.25396 

L 358.236183 218.254732 

L 361.310563 218.255264 

L 364.384943 218.255627 

" style="fill:none;stroke:#1f77b4;stroke-linecap:square;stroke-width:1.5;"/>

   </g>

   <g id="line2d_17">

    <path clip-path="url(#pa44bd1f47f)" d="M 174.15767 218.256364 

L 174.15767 20.583636 

" style="fill:none;stroke:#000000;stroke-dasharray:5.55,2.4;stroke-dashoffset:0;stroke-width:1.5;"/>

   </g>

   <g id="patch_4">

    <path d="M 44.803125 228.14 

L 44.803125 10.7 

" style="fill:none;stroke:#000000;stroke-linecap:square;stroke-linejoin:miter;stroke-width:0.8;"/>

   </g>

   <g id="patch_5">

    <path d="M 379.603125 228.14 

L 379.603125 10.7 

" style="fill:none;stroke:#000000;stroke-linecap:square;stroke-linejoin:miter;stroke-width:0.8;"/>

   </g>

   <g id="patch_6">

    <path d="M 44.803125 228.14 

L 379.603125 228.14 

" style="fill:none;stroke:#000000;stroke-linecap:square;stroke-linejoin:miter;stroke-width:0.8;"/>

   </g>

   <g id="patch_7">

    <path d="M 44.803125 10.7 

L 379.603125 10.7 

" style="fill:none;stroke:#000000;stroke-linecap:square;stroke-linejoin:miter;stroke-width:0.8;"/>

   </g>

   <g id="text_18">

    <!-- $\mu$ -->

    <defs>

     <path d="M -1.3125 -20.796875 

L 13.375 54.6875 

L 22.40625 54.6875 

L 15.765625 20.65625 

Q 15.578125 19.625 15.421875 18.359375 

Q 15.28125 17.09375 15.28125 15.828125 

Q 15.28125 11.28125 18.140625 8.828125 

Q 21 6.390625 26.3125 6.390625 

Q 33.546875 6.390625 37.984375 10.484375 

Q 42.4375 14.59375 44 22.796875 

L 50.203125 54.6875 

L 59.1875 54.6875 

L 51.03125 12.640625 

Q 50.828125 11.71875 50.75 11.03125 

Q 50.6875 10.359375 50.6875 9.8125 

Q 50.6875 8.296875 51.296875 7.59375 

Q 51.90625 6.890625 53.21875 6.890625 

Q 53.71875 6.890625 54.5625 7.125 

Q 55.421875 7.375 56.984375 8.015625 

L 55.609375 0.78125 

Q 53.46875 -0.296875 51.515625 -0.859375 

Q 49.5625 -1.421875 47.703125 -1.421875 

Q 44.484375 -1.421875 42.65625 0.625 

Q 40.828125 2.6875 40.828125 6.296875 

Q 38.09375 2.390625 34.296875 0.484375 

Q 30.515625 -1.421875 25.390625 -1.421875 

Q 20.84375 -1.421875 17.453125 0.671875 

Q 14.0625 2.78125 12.984375 6.203125 

L 7.71875 -20.796875 

z

" id="DejaVuSans-Oblique-3bc"/>

    </defs>

    <g transform="translate(177.962216 218.256364)scale(0.1 -0.1)">

     <use transform="translate(0 0.3125)" xlink:href="#DejaVuSans-Oblique-3bc"/>

    </g>

   </g>

   <g id="text_19">

    <!-- $\sigma$ -->

    <defs>

     <path d="M 34.671875 47.5625 

Q 27.25 47.5625 22.21875 42.1875 

Q 16.890625 36.578125 15.140625 27.296875 

Q 13.1875 17.484375 16.3125 11.8125 

Q 19.390625 6.203125 26.65625 6.203125 

Q 33.84375 6.203125 39.109375 11.859375 

Q 44.4375 17.53125 46.34375 27.296875 

Q 48.046875 36.234375 45.015625 42.1875 

Q 42.1875 47.5625 34.671875 47.5625 

z

M 36.078125 54.734375 

L 65.921875 54.6875 

L 64.15625 45.703125 

L 54.109375 45.703125 

Q 57.90625 38.09375 55.859375 27.296875 

Q 53.21875 13.875 45.0625 6.25 

Q 36.859375 -1.421875 25.140625 -1.421875 

Q 13.375 -1.421875 8.203125 6.25 

Q 3.03125 13.875 5.671875 27.296875 

Q 8.25 40.765625 16.40625 48.390625 

Q 23.1875 54.734375 36.078125 54.734375 

z

" id="DejaVuSans-Oblique-3c3"/>

    </defs>

    <g transform="translate(189.375852 109.536364)scale(0.1 -0.1)">

     <use transform="translate(0 0.265625)" xlink:href="#DejaVuSans-Oblique-3c3"/>

    </g>

   </g>

  </g>

 </g>

 <defs>

  <clipPath id="pa44bd1f47f">

   <rect height="217.44" width="334.8" x="44.803125" y="10.7"/>

  </clipPath>

 </defs>

</svg>
