<?xml version="1.0" encoding="utf-8" standalone="no"?>

<!DOCTYPE svg PUBLIC "-//W3C//DTD SVG 1.1//EN"

  "http://www.w3.org/Graphics/SVG/1.1/DTD/svg11.dtd">

<!-- Created with matplotlib (http://matplotlib.org/) -->

<svg height="252pt" version="1.1" viewBox="0 0 383 252" width="383pt" xmlns="http://www.w3.org/2000/svg" xmlns:xlink="http://www.w3.org/1999/xlink">

 <defs>

  <style type="text/css">

*{stroke-linecap:butt;stroke-linejoin:round;}

  </style>

 </defs>

 <g id="figure_1">

  <g id="patch_1">

   <path d="M 0 252.018125 

L 383.2 252.018125 

L 383.2 0 

L 0 0 

z

" style="fill:none;"/>

  </g>

  <g id="axes_1">

   <g id="patch_2">

    <path d="M 37.7 228.14 

L 372.5 228.14 

L 372.5 10.7 

L 37.7 10.7 

z

" style="fill:#ffffff;"/>

   </g>

   <g id="matplotlib.axis_1">

    <g id="xtick_1">

     <g id="line2d_1">

      <defs>

       <path d="M 0 0 

L 0 3.5 

" id="m6865d56895" style="stroke:#000000;stroke-width:0.8;"/>

      </defs>

      <g>

       <use style="stroke:#000000;stroke-width:0.8;" x="45.113986" xlink:href="#m6865d56895" y="228.14"/>

      </g>

     </g>

     <g id="text_1">

      <!-- 0 -->

      <defs>

       <path d="M 31.78125 66.40625 

Q 24.171875 66.40625 20.328125 58.90625 

Q 16.5 51.421875 16.5 36.375 

Q 16.5 21.390625 20.328125 13.890625 

Q 24.171875 6.390625 31.78125 6.390625 

Q 39.453125 6.390625 43.28125 13.890625 

Q 47.125 21.390625 47.125 36.375 

Q 47.125 51.421875 43.28125 58.90625 

Q 39.453125 66.40625 31.78125 66.40625 

z

M 31.78125 74.21875 

Q 44.046875 74.21875 50.515625 64.515625 

Q 56.984375 54.828125 56.984375 36.375 

Q 56.984375 17.96875 50.515625 8.265625 

Q 44.046875 -1.421875 31.78125 -1.421875 

Q 19.53125 -1.421875 13.0625 8.265625 

Q 6.59375 17.96875 6.59375 36.375 

Q 6.59375 54.828125 13.0625 64.515625 

Q 19.53125 74.21875 31.78125 74.21875 

z

" id="DejaVuSans-30"/>

      </defs>

      <g transform="translate(41.932736 242.738437)scale(0.1 -0.1)">

       <use xlink:href="#DejaVuSans-30"/>

      </g>

     </g>

    </g>

    <g id="xtick_2">

     <g id="line2d_2">

      <g>

       <use style="stroke:#000000;stroke-width:0.8;" x="84.134965" xlink:href="#m6865d56895" y="228.14"/>

      </g>

     </g>

     <g id="text_2">

      <!-- 10 -->

      <defs>

       <path d="M 12.40625 8.296875 

L 28.515625 8.296875 

L 28.515625 63.921875 

L 10.984375 60.40625 

L 10.984375 69.390625 

L 28.421875 72.90625 

L 38.28125 72.90625 

L 38.28125 8.296875 

L 54.390625 8.296875 

L 54.390625 0 

L 12.40625 0 

z

" id="DejaVuSans-31"/>

      </defs>

      <g transform="translate(77.772465 242.738437)scale(0.1 -0.1)">

       <use xlink:href="#DejaVuSans-31"/>

       <use x="63.623047" xlink:href="#DejaVuSans-30"/>

      </g>

     </g>

    </g>

    <g id="xtick_3">

     <g id="line2d_3">

      <g>

       <use style="stroke:#000000;stroke-width:0.8;" x="123.155944" xlink:href="#m6865d56895" y="228.14"/>

      </g>

     </g>

     <g id="text_3">

      <!-- 20 -->

      <defs>

       <path d="M 19.1875 8.296875 

L 53.609375 8.296875 

L 53.609375 0 

L 7.328125 0 

L 7.328125 8.296875 

Q 12.9375 14.109375 22.625 23.890625 

Q 32.328125 33.6875 34.8125 36.53125 

Q 39.546875 41.84375 41.421875 45.53125 

Q 43.3125 49.21875 43.3125 52.78125 

Q 43.3125 58.59375 39.234375 62.25 

Q 35.15625 65.921875 28.609375 65.921875 

Q 23.96875 65.921875 18.8125 64.3125 

Q 13.671875 62.703125 7.8125 59.421875 

L 7.8125 69.390625 

Q 13.765625 71.78125 18.9375 73 

Q 24.125 74.21875 28.421875 74.21875 

Q 39.75 74.21875 46.484375 68.546875 

Q 53.21875 62.890625 53.21875 53.421875 

Q 53.21875 48.921875 51.53125 44.890625 

Q 49.859375 40.875 45.40625 35.40625 

Q 44.1875 33.984375 37.640625 27.21875 

Q 31.109375 20.453125 19.1875 8.296875 

z

" id="DejaVuSans-32"/>

      </defs>

      <g transform="translate(116.793444 242.738437)scale(0.1 -0.1)">

       <use xlink:href="#DejaVuSans-32"/>

       <use x="63.623047" xlink:href="#DejaVuSans-30"/>

      </g>

     </g>

    </g>

    <g id="xtick_4">

     <g id="line2d_4">

      <g>

       <use style="stroke:#000000;stroke-width:0.8;" x="162.176923" xlink:href="#m6865d56895" y="228.14"/>

      </g>

     </g>

     <g id="text_4">

      <!-- 30 -->

      <defs>

       <path d="M 40.578125 39.3125 

Q 47.65625 37.796875 51.625 33 

Q 55.609375 28.21875 55.609375 21.1875 

Q 55.609375 10.40625 48.1875 4.484375 

Q 40.765625 -1.421875 27.09375 -1.421875 

Q 22.515625 -1.421875 17.65625 -0.515625 

Q 12.796875 0.390625 7.625 2.203125 

L 7.625 11.71875 

Q 11.71875 9.328125 16.59375 8.109375 

Q 21.484375 6.890625 26.8125 6.890625 

Q 36.078125 6.890625 40.9375 10.546875 

Q 45.796875 14.203125 45.796875 21.1875 

Q 45.796875 27.640625 41.28125 31.265625 

Q 36.765625 34.90625 28.71875 34.90625 

L 20.21875 34.90625 

L 20.21875 43.015625 

L 29.109375 43.015625 

Q 36.375 43.015625 40.234375 45.921875 

Q 44.09375 48.828125 44.09375 54.296875 

Q 44.09375 59.90625 40.109375 62.90625 

Q 36.140625 65.921875 28.71875 65.921875 

Q 24.65625 65.921875 20.015625 65.03125 

Q 15.375 64.15625 9.8125 62.3125 

L 9.8125 71.09375 

Q 15.4375 72.65625 20.34375 73.4375 

Q 25.25 74.21875 29.59375 74.21875 

Q 40.828125 74.21875 47.359375 69.109375 

Q 53.90625 64.015625 53.90625 55.328125 

Q 53.90625 49.265625 50.4375 45.09375 

Q 46.96875 40.921875 40.578125 39.3125 

z

" id="DejaVuSans-33"/>

      </defs>

      <g transform="translate(155.814423 242.738437)scale(0.1 -0.1)">

       <use xlink:href="#DejaVuSans-33"/>

       <use x="63.623047" xlink:href="#DejaVuSans-30"/>

      </g>

     </g>

    </g>

    <g id="xtick_5">

     <g id="line2d_5">

      <g>

       <use style="stroke:#000000;stroke-width:0.8;" x="201.197902" xlink:href="#m6865d56895" y="228.14"/>

      </g>

     </g>

     <g id="text_5">

      <!-- 40 -->

      <defs>

       <path d="M 37.796875 64.3125 

L 12.890625 25.390625 

L 37.796875 25.390625 

z

M 35.203125 72.90625 

L 47.609375 72.90625 

L 47.609375 25.390625 

L 58.015625 25.390625 

L 58.015625 17.1875 

L 47.609375 17.1875 

L 47.609375 0 

L 37.796875 0 

L 37.796875 17.1875 

L 4.890625 17.1875 

L 4.890625 26.703125 

z

" id="DejaVuSans-34"/>

      </defs>

      <g transform="translate(194.835402 242.738437)scale(0.1 -0.1)">

       <use xlink:href="#DejaVuSans-34"/>

       <use x="63.623047" xlink:href="#DejaVuSans-30"/>

      </g>

     </g>

    </g>

    <g id="xtick_6">

     <g id="line2d_6">

      <g>

       <use style="stroke:#000000;stroke-width:0.8;" x="240.218881" xlink:href="#m6865d56895" y="228.14"/>

      </g>

     </g>

     <g id="text_6">

      <!-- 50 -->

      <defs>

       <path d="M 10.796875 72.90625 

L 49.515625 72.90625 

L 49.515625 64.59375 

L 19.828125 64.59375 

L 19.828125 46.734375 

Q 21.96875 47.46875 24.109375 47.828125 

Q 26.265625 48.1875 28.421875 48.1875 

Q 40.625 48.1875 47.75 41.5 

Q 54.890625 34.8125 54.890625 23.390625 

Q 54.890625 11.625 47.5625 5.09375 

Q 40.234375 -1.421875 26.90625 -1.421875 

Q 22.3125 -1.421875 17.546875 -0.640625 

Q 12.796875 0.140625 7.71875 1.703125 

L 7.71875 11.625 

Q 12.109375 9.234375 16.796875 8.0625 

Q 21.484375 6.890625 26.703125 6.890625 

Q 35.15625 6.890625 40.078125 11.328125 

Q 45.015625 15.765625 45.015625 23.390625 

Q 45.015625 31 40.078125 35.4375 

Q 35.15625 39.890625 26.703125 39.890625 

Q 22.75 39.890625 18.8125 39.015625 

Q 14.890625 38.140625 10.796875 36.28125 

z

" id="DejaVuSans-35"/>

      </defs>

      <g transform="translate(233.856381 242.738437)scale(0.1 -0.1)">

       <use xlink:href="#DejaVuSans-35"/>

       <use x="63.623047" xlink:href="#DejaVuSans-30"/>

      </g>

     </g>

    </g>

    <g id="xtick_7">

     <g id="line2d_7">

      <g>

       <use style="stroke:#000000;stroke-width:0.8;" x="279.23986" xlink:href="#m6865d56895" y="228.14"/>

      </g>

     </g>

     <g id="text_7">

      <!-- 60 -->

      <defs>

       <path d="M 33.015625 40.375 

Q 26.375 40.375 22.484375 35.828125 

Q 18.609375 31.296875 18.609375 23.390625 

Q 18.609375 15.53125 22.484375 10.953125 

Q 26.375 6.390625 33.015625 6.390625 

Q 39.65625 6.390625 43.53125 10.953125 

Q 47.40625 15.53125 47.40625 23.390625 

Q 47.40625 31.296875 43.53125 35.828125 

Q 39.65625 40.375 33.015625 40.375 

z

M 52.59375 71.296875 

L 52.59375 62.3125 

Q 48.875 64.0625 45.09375 64.984375 

Q 41.3125 65.921875 37.59375 65.921875 

Q 27.828125 65.921875 22.671875 59.328125 

Q 17.53125 52.734375 16.796875 39.40625 

Q 19.671875 43.65625 24.015625 45.921875 

Q 28.375 48.1875 33.59375 48.1875 

Q 44.578125 48.1875 50.953125 41.515625 

Q 57.328125 34.859375 57.328125 23.390625 

Q 57.328125 12.15625 50.6875 5.359375 

Q 44.046875 -1.421875 33.015625 -1.421875 

Q 20.359375 -1.421875 13.671875 8.265625 

Q 6.984375 17.96875 6.984375 36.375 

Q 6.984375 53.65625 15.1875 63.9375 

Q 23.390625 74.21875 37.203125 74.21875 

Q 40.921875 74.21875 44.703125 73.484375 

Q 48.484375 72.75 52.59375 71.296875 

z

" id="DejaVuSans-36"/>

      </defs>

      <g transform="translate(272.87736 242.738437)scale(0.1 -0.1)">

       <use xlink:href="#DejaVuSans-36"/>

       <use x="63.623047" xlink:href="#DejaVuSans-30"/>

      </g>

     </g>

    </g>

    <g id="xtick_8">

     <g id="line2d_8">

      <g>

       <use style="stroke:#000000;stroke-width:0.8;" x="318.260839" xlink:href="#m6865d56895" y="228.14"/>

      </g>

     </g>

     <g id="text_8">

      <!-- 70 -->

      <defs>

       <path d="M 8.203125 72.90625 

L 55.078125 72.90625 

L 55.078125 68.703125 

L 28.609375 0 

L 18.3125 0 

L 43.21875 64.59375 

L 8.203125 64.59375 

z

" id="DejaVuSans-37"/>

      </defs>

      <g transform="translate(311.898339 242.738437)scale(0.1 -0.1)">

       <use xlink:href="#DejaVuSans-37"/>

       <use x="63.623047" xlink:href="#DejaVuSans-30"/>

      </g>

     </g>

    </g>

    <g id="xtick_9">

     <g id="line2d_9">

      <g>

       <use style="stroke:#000000;stroke-width:0.8;" x="357.281818" xlink:href="#m6865d56895" y="228.14"/>

      </g>

     </g>

     <g id="text_9">

      <!-- 80 -->

      <defs>

       <path d="M 31.78125 34.625 

Q 24.75 34.625 20.71875 30.859375 

Q 16.703125 27.09375 16.703125 20.515625 

Q 16.703125 13.921875 20.71875 10.15625 

Q 24.75 6.390625 31.78125 6.390625 

Q 38.8125 6.390625 42.859375 10.171875 

Q 46.921875 13.96875 46.921875 20.515625 

Q 46.921875 27.09375 42.890625 30.859375 

Q 38.875 34.625 31.78125 34.625 

z

M 21.921875 38.8125 

Q 15.578125 40.375 12.03125 44.71875 

Q 8.5 49.078125 8.5 55.328125 

Q 8.5 64.0625 14.71875 69.140625 

Q 20.953125 74.21875 31.78125 74.21875 

Q 42.671875 74.21875 48.875 69.140625 

Q 55.078125 64.0625 55.078125 55.328125 

Q 55.078125 49.078125 51.53125 44.71875 

Q 48 40.375 41.703125 38.8125 

Q 48.828125 37.15625 52.796875 32.3125 

Q 56.78125 27.484375 56.78125 20.515625 

Q 56.78125 9.90625 50.3125 4.234375 

Q 43.84375 -1.421875 31.78125 -1.421875 

Q 19.734375 -1.421875 13.25 4.234375 

Q 6.78125 9.90625 6.78125 20.515625 

Q 6.78125 27.484375 10.78125 32.3125 

Q 14.796875 37.15625 21.921875 38.8125 

z

M 18.3125 54.390625 

Q 18.3125 48.734375 21.84375 45.5625 

Q 25.390625 42.390625 31.78125 42.390625 

Q 38.140625 42.390625 41.71875 45.5625 

Q 45.3125 48.734375 45.3125 54.390625 

Q 45.3125 60.0625 41.71875 63.234375 

Q 38.140625 66.40625 31.78125 66.40625 

Q 25.390625 66.40625 21.84375 63.234375 

Q 18.3125 60.0625 18.3125 54.390625 

z

" id="DejaVuSans-38"/>

      </defs>

      <g transform="translate(350.919318 242.738437)scale(0.1 -0.1)">

       <use xlink:href="#DejaVuSans-38"/>

       <use x="63.623047" xlink:href="#DejaVuSans-30"/>

      </g>

     </g>

    </g>

   </g>

   <g id="matplotlib.axis_2">

    <g id="ytick_1">

     <g id="line2d_10">

      <defs>

       <path d="M 0 0 

L -3.5 0 

" id="m0ce3a85d8b" style="stroke:#000000;stroke-width:0.8;"/>

      </defs>

      <g>

       <use style="stroke:#000000;stroke-width:0.8;" x="37.7" xlink:href="#m0ce3a85d8b" y="187.899191"/>

      </g>

     </g>

     <g id="text_10">

      <!-- $\mathdefault{10^{-1}}$ -->

      <defs>

       <path d="M 10.59375 35.5 

L 73.1875 35.5 

L 73.1875 27.203125 

L 10.59375 27.203125 

z

" id="DejaVuSans-2212"/>

      </defs>

      <g transform="translate(7.2 191.69841)scale(0.1 -0.1)">

       <use transform="translate(0 0.684375)" xlink:href="#DejaVuSans-31"/>

       <use transform="translate(63.623047 0.684375)" xlink:href="#DejaVuSans-30"/>

       <use transform="translate(128.203125 38.965625)scale(0.7)" xlink:href="#DejaVuSans-2212"/>

       <use transform="translate(186.855469 38.965625)scale(0.7)" xlink:href="#DejaVuSans-31"/>

      </g>

     </g>

    </g>

    <g id="ytick_2">

     <g id="line2d_11">

      <g>

       <use style="stroke:#000000;stroke-width:0.8;" x="37.7" xlink:href="#m0ce3a85d8b" y="140.984027"/>

      </g>

     </g>

     <g id="text_11">

      <!-- $\mathdefault{10^{0}}$ -->

      <g transform="translate(13.1 144.783246)scale(0.1 -0.1)">

       <use transform="translate(0 0.765625)" xlink:href="#DejaVuSans-31"/>

       <use transform="translate(63.623047 0.765625)" xlink:href="#DejaVuSans-30"/>

       <use transform="translate(128.203125 39.046875)scale(0.7)" xlink:href="#DejaVuSans-30"/>

      </g>

     </g>

    </g>

    <g id="ytick_3">

     <g id="line2d_12">

      <g>

       <use style="stroke:#000000;stroke-width:0.8;" x="37.7" xlink:href="#m0ce3a85d8b" y="94.068863"/>

      </g>

     </g>

     <g id="text_12">

      <!-- $\mathdefault{10^{1}}$ -->

      <g transform="translate(13.1 97.868081)scale(0.1 -0.1)">

       <use transform="translate(0 0.684375)" xlink:href="#DejaVuSans-31"/>

       <use transform="translate(63.623047 0.684375)" xlink:href="#DejaVuSans-30"/>

       <use transform="translate(128.203125 38.965625)scale(0.7)" xlink:href="#DejaVuSans-31"/>

      </g>

     </g>

    </g>

    <g id="ytick_4">

     <g id="line2d_13">

      <g>

       <use style="stroke:#000000;stroke-width:0.8;" x="37.7" xlink:href="#m0ce3a85d8b" y="47.153698"/>

      </g>

     </g>

     <g id="text_13">

      <!-- $\mathdefault{10^{2}}$ -->

      <g transform="translate(13.1 50.952917)scale(0.1 -0.1)">

       <use transform="translate(0 0.765625)" xlink:href="#DejaVuSans-31"/>

       <use transform="translate(63.623047 0.765625)" xlink:href="#DejaVuSans-30"/>

       <use transform="translate(128.203125 39.046875)scale(0.7)" xlink:href="#DejaVuSans-32"/>

      </g>

     </g>

    </g>

    <g id="ytick_5">

     <g id="line2d_14">

      <defs>

       <path d="M 0 0 

L -2 0 

" id="m0e01d1b446" style="stroke:#000000;stroke-width:0.6;"/>

      </defs>

      <g>

       <use style="stroke:#000000;stroke-width:0.6;" x="37.7" xlink:href="#m0e01d1b446" y="220.691484"/>

      </g>

     </g>

    </g>

    <g id="ytick_6">

     <g id="line2d_15">

      <g>

       <use style="stroke:#000000;stroke-width:0.6;" x="37.7" xlink:href="#m0e01d1b446" y="212.430133"/>

      </g>

     </g>

    </g>

    <g id="ytick_7">

     <g id="line2d_16">

      <g>

       <use style="stroke:#000000;stroke-width:0.6;" x="37.7" xlink:href="#m0e01d1b446" y="206.568612"/>

      </g>

     </g>

    </g>

    <g id="ytick_8">

     <g id="line2d_17">

      <g>

       <use style="stroke:#000000;stroke-width:0.6;" x="37.7" xlink:href="#m0e01d1b446" y="202.022063"/>

      </g>

     </g>

    </g>

    <g id="ytick_9">

     <g id="line2d_18">

      <g>

       <use style="stroke:#000000;stroke-width:0.6;" x="37.7" xlink:href="#m0e01d1b446" y="198.307262"/>

      </g>

     </g>

    </g>

    <g id="ytick_10">

     <g id="line2d_19">

      <g>

       <use style="stroke:#000000;stroke-width:0.6;" x="37.7" xlink:href="#m0e01d1b446" y="195.166442"/>

      </g>

     </g>

    </g>

    <g id="ytick_11">

     <g id="line2d_20">

      <g>

       <use style="stroke:#000000;stroke-width:0.6;" x="37.7" xlink:href="#m0e01d1b446" y="192.44574"/>

      </g>

     </g>

    </g>

    <g id="ytick_12">

     <g id="line2d_21">

      <g>

       <use style="stroke:#000000;stroke-width:0.6;" x="37.7" xlink:href="#m0e01d1b446" y="190.045911"/>

      </g>

     </g>

    </g>

    <g id="ytick_13">

     <g id="line2d_22">

      <g>

       <use style="stroke:#000000;stroke-width:0.6;" x="37.7" xlink:href="#m0e01d1b446" y="173.77632"/>

      </g>

     </g>

    </g>

    <g id="ytick_14">

     <g id="line2d_23">

      <g>

       <use style="stroke:#000000;stroke-width:0.6;" x="37.7" xlink:href="#m0e01d1b446" y="165.514969"/>

      </g>

     </g>

    </g>

    <g id="ytick_15">

     <g id="line2d_24">

      <g>

       <use style="stroke:#000000;stroke-width:0.6;" x="37.7" xlink:href="#m0e01d1b446" y="159.653448"/>

      </g>

     </g>

    </g>

    <g id="ytick_16">

     <g id="line2d_25">

      <g>

       <use style="stroke:#000000;stroke-width:0.6;" x="37.7" xlink:href="#m0e01d1b446" y="155.106899"/>

      </g>

     </g>

    </g>

    <g id="ytick_17">

     <g id="line2d_26">

      <g>

       <use style="stroke:#000000;stroke-width:0.6;" x="37.7" xlink:href="#m0e01d1b446" y="151.392097"/>

      </g>

     </g>

    </g>

    <g id="ytick_18">

     <g id="line2d_27">

      <g>

       <use style="stroke:#000000;stroke-width:0.6;" x="37.7" xlink:href="#m0e01d1b446" y="148.251278"/>

      </g>

     </g>

    </g>

    <g id="ytick_19">

     <g id="line2d_28">

      <g>

       <use style="stroke:#000000;stroke-width:0.6;" x="37.7" xlink:href="#m0e01d1b446" y="145.530576"/>

      </g>

     </g>

    </g>

    <g id="ytick_20">

     <g id="line2d_29">

      <g>

       <use style="stroke:#000000;stroke-width:0.6;" x="37.7" xlink:href="#m0e01d1b446" y="143.130747"/>

      </g>

     </g>

    </g>

    <g id="ytick_21">

     <g id="line2d_30">

      <g>

       <use style="stroke:#000000;stroke-width:0.6;" x="37.7" xlink:href="#m0e01d1b446" y="126.861155"/>

      </g>

     </g>

    </g>

    <g id="ytick_22">

     <g id="line2d_31">

      <g>

       <use style="stroke:#000000;stroke-width:0.6;" x="37.7" xlink:href="#m0e01d1b446" y="118.599805"/>

      </g>

     </g>

    </g>

    <g id="ytick_23">

     <g id="line2d_32">

      <g>

       <use style="stroke:#000000;stroke-width:0.6;" x="37.7" xlink:href="#m0e01d1b446" y="112.738284"/>

      </g>

     </g>

    </g>

    <g id="ytick_24">

     <g id="line2d_33">

      <g>

       <use style="stroke:#000000;stroke-width:0.6;" x="37.7" xlink:href="#m0e01d1b446" y="108.191734"/>

      </g>

     </g>

    </g>

    <g id="ytick_25">

     <g id="line2d_34">

      <g>

       <use style="stroke:#000000;stroke-width:0.6;" x="37.7" xlink:href="#m0e01d1b446" y="104.476933"/>

      </g>

     </g>

    </g>

    <g id="ytick_26">

     <g id="line2d_35">

      <g>

       <use style="stroke:#000000;stroke-width:0.6;" x="37.7" xlink:href="#m0e01d1b446" y="101.336114"/>

      </g>

     </g>

    </g>

    <g id="ytick_27">

     <g id="line2d_36">

      <g>

       <use style="stroke:#000000;stroke-width:0.6;" x="37.7" xlink:href="#m0e01d1b446" y="98.615412"/>

      </g>

     </g>

    </g>

    <g id="ytick_28">

     <g id="line2d_37">

      <g>

       <use style="stroke:#000000;stroke-width:0.6;" x="37.7" xlink:href="#m0e01d1b446" y="96.215583"/>

      </g>

     </g>

    </g>

    <g id="ytick_29">

     <g id="line2d_38">

      <g>

       <use style="stroke:#000000;stroke-width:0.6;" x="37.7" xlink:href="#m0e01d1b446" y="79.945991"/>

      </g>

     </g>

    </g>

    <g id="ytick_30">

     <g id="line2d_39">

      <g>

       <use style="stroke:#000000;stroke-width:0.6;" x="37.7" xlink:href="#m0e01d1b446" y="71.684641"/>

      </g>

     </g>

    </g>

    <g id="ytick_31">

     <g id="line2d_40">

      <g>

       <use style="stroke:#000000;stroke-width:0.6;" x="37.7" xlink:href="#m0e01d1b446" y="65.823119"/>

      </g>

     </g>

    </g>

    <g id="ytick_32">

     <g id="line2d_41">

      <g>

       <use style="stroke:#000000;stroke-width:0.6;" x="37.7" xlink:href="#m0e01d1b446" y="61.27657"/>

      </g>

     </g>

    </g>

    <g id="ytick_33">

     <g id="line2d_42">

      <g>

       <use style="stroke:#000000;stroke-width:0.6;" x="37.7" xlink:href="#m0e01d1b446" y="57.561769"/>

      </g>

     </g>

    </g>

    <g id="ytick_34">

     <g id="line2d_43">

      <g>

       <use style="stroke:#000000;stroke-width:0.6;" x="37.7" xlink:href="#m0e01d1b446" y="54.420949"/>

      </g>

     </g>

    </g>

    <g id="ytick_35">

     <g id="line2d_44">

      <g>

       <use style="stroke:#000000;stroke-width:0.6;" x="37.7" xlink:href="#m0e01d1b446" y="51.700248"/>

      </g>

     </g>

    </g>

    <g id="ytick_36">

     <g id="line2d_45">

      <g>

       <use style="stroke:#000000;stroke-width:0.6;" x="37.7" xlink:href="#m0e01d1b446" y="49.300419"/>

      </g>

     </g>

    </g>

    <g id="ytick_37">

     <g id="line2d_46">

      <g>

       <use style="stroke:#000000;stroke-width:0.6;" x="37.7" xlink:href="#m0e01d1b446" y="33.030827"/>

      </g>

     </g>

    </g>

    <g id="ytick_38">

     <g id="line2d_47">

      <g>

       <use style="stroke:#000000;stroke-width:0.6;" x="37.7" xlink:href="#m0e01d1b446" y="24.769476"/>

      </g>

     </g>

    </g>

    <g id="ytick_39">

     <g id="line2d_48">

      <g>

       <use style="stroke:#000000;stroke-width:0.6;" x="37.7" xlink:href="#m0e01d1b446" y="18.907955"/>

      </g>

     </g>

    </g>

    <g id="ytick_40">

     <g id="line2d_49">

      <g>

       <use style="stroke:#000000;stroke-width:0.6;" x="37.7" xlink:href="#m0e01d1b446" y="14.361406"/>

      </g>

     </g>

    </g>

    <g id="ytick_41">

     <g id="line2d_50">

      <g>

       <use style="stroke:#000000;stroke-width:0.6;" x="37.7" xlink:href="#m0e01d1b446" y="10.646605"/>

      </g>

     </g>

    </g>

   </g>

   <g id="line2d_51">

    <path clip-path="url(#pb34e36d4a9)" d="M 52.918182 191.48675 

L 56.82028 211.627668 

L 60.722378 211.776704 

L 64.624476 216.799151 

L 68.526573 217.046944 

L 72.428671 217.441704 

L 76.330769 217.441503 

L 80.232867 217.448283 

L 84.134965 217.449652 

L 88.037063 217.450494 

L 91.939161 217.455453 

L 95.841259 217.462389 

L 99.743357 217.489062 

L 103.645455 217.501331 

L 107.547552 217.513627 

L 111.44965 217.519146 

L 115.351748 217.528613 

L 119.253846 217.542605 

L 123.155944 217.56383 

L 127.058042 217.549625 

L 130.96014 217.592105 

L 134.862238 217.652165 

L 138.764336 217.654262 

L 142.666434 217.649323 

L 146.568531 217.659789 

L 150.470629 217.682387 

L 154.372727 217.690545 

L 158.274825 217.748869 

L 162.176923 217.723318 

L 166.079021 217.726367 

L 169.981119 217.794766 

L 173.883217 217.812994 

L 177.785315 217.811322 

L 181.687413 217.800921 

L 185.58951 217.826135 

L 189.491608 217.825546 

L 193.393706 217.844259 

L 197.295804 217.833274 

L 201.197902 217.841243 

L 205.1 217.854241 

L 209.002098 217.880021 

L 212.904196 217.957099 

L 216.806294 217.959312 

L 220.708392 218.008566 

L 224.61049 218.008378 

L 228.512587 218.029169 

L 232.414685 218.019794 

L 236.316783 218.052457 

L 240.218881 218.054956 

L 244.120979 218.060068 

L 248.023077 218.054488 

L 251.925175 218.056568 

L 255.827273 218.059518 

L 259.729371 218.074939 

L 263.631469 218.068827 

L 267.533566 218.066033 

L 271.435664 218.067392 

L 275.337762 218.079079 

L 279.23986 218.093219 

L 283.141958 218.115098 

L 287.044056 218.091842 

L 290.946154 218.087344 

L 294.848252 218.106112 

L 298.75035 218.132611 

L 302.652448 218.142587 

L 306.554545 218.135309 

L 310.456643 218.12431 

L 314.358741 218.131667 

L 318.260839 218.15094 

L 322.162937 218.158242 

L 326.065035 218.150333 

L 329.967133 218.155155 

L 333.869231 218.186457 

L 337.771329 218.166798 

L 341.673427 218.18531 

L 345.575524 218.2526 

L 349.477622 218.217224 

L 353.37972 218.256364 

L 357.281818 218.236807 

" style="fill:none;stroke:#1f77b4;stroke-linecap:square;stroke-width:1.5;"/>

   </g>

   <g id="line2d_52">

    <path clip-path="url(#pb34e36d4a9)" d="M 52.918182 192.206183 

L 56.82028 211.005022 

L 60.722378 211.241021 

L 64.624476 214.901311 

L 68.526573 215.182725 

L 72.428671 215.369967 

L 76.330769 215.377993 

L 80.232867 215.394665 

L 84.134965 215.398642 

L 88.037063 215.393937 

L 91.939161 215.374014 

L 95.841259 215.367393 

L 99.743357 215.314965 

L 103.645455 215.27335 

L 107.547552 215.266224 

L 111.44965 215.293162 

L 115.351748 215.315612 

L 119.253846 215.361062 

L 123.155944 215.30596 

L 127.058042 215.353876 

L 130.96014 215.223617 

L 134.862238 215.218881 

L 138.764336 215.16716 

L 142.666434 215.181839 

L 146.568531 215.158828 

L 150.470629 215.20226 

L 154.372727 215.193975 

L 158.274825 215.144553 

L 162.176923 215.198813 

L 166.079021 215.1668 

L 169.981119 215.111291 

L 173.883217 214.9998 

L 177.785315 214.956038 

L 181.687413 215.013446 

L 185.58951 215.027897 

L 189.491608 215.049672 

L 193.393706 215.000569 

L 197.295804 214.994807 

L 201.197902 214.929966 

L 205.1 214.858762 

L 209.002098 214.653387 

L 212.904196 214.33994 

L 216.806294 214.002512 

L 220.708392 213.617641 

L 224.61049 213.225119 

L 228.512587 212.90769 

L 232.414685 212.817746 

L 236.316783 212.993138 

L 240.218881 213.050874 

L 244.120979 213.149725 

L 248.023077 213.159288 

L 251.925175 213.198954 

L 255.827273 213.292078 

L 259.729371 213.431457 

L 263.631469 213.572159 

L 267.533566 213.820317 

L 271.435664 214.055611 

L 275.337762 214.471846 

L 279.23986 214.834705 

L 283.141958 214.930631 

L 287.044056 214.899366 

L 290.946154 214.681946 

L 294.848252 213.612127 

L 298.75035 210.651439 

L 302.652448 205.410289 

L 306.554545 199.223703 

L 310.456643 193.810374 

L 314.358741 189.851945 

L 318.260839 187.801807 

L 322.162937 188.261725 

L 326.065035 190.456605 

L 329.967133 190.35757 

L 333.869231 181.644376 

L 337.771329 158.705739 

L 341.673427 126.910721 

L 345.575524 95.09964 

L 349.477622 66.115067 

L 353.37972 39.657263 

L 357.281818 20.583636 

" style="fill:none;stroke:#ff7f0e;stroke-linecap:square;stroke-width:1.5;"/>

   </g>

   <g id="patch_3">

    <path d="M 37.7 228.14 

L 37.7 10.7 

" style="fill:none;stroke:#000000;stroke-linecap:square;stroke-linejoin:miter;stroke-width:0.8;"/>

   </g>

   <g id="patch_4">

    <path d="M 372.5 228.14 

L 372.5 10.7 

" style="fill:none;stroke:#000000;stroke-linecap:square;stroke-linejoin:miter;stroke-width:0.8;"/>

   </g>

   <g id="patch_5">

    <path d="M 37.7 228.14 

L 372.5 228.14 

" style="fill:none;stroke:#000000;stroke-linecap:square;stroke-linejoin:miter;stroke-width:0.8;"/>

   </g>

   <g id="patch_6">

    <path d="M 37.7 10.7 

L 372.5 10.7 

" style="fill:none;stroke:#000000;stroke-linecap:square;stroke-linejoin:miter;stroke-width:0.8;"/>

   </g>

  </g>

 </g>

 <defs>

  <clipPath id="pb34e36d4a9">

   <rect height="217.44" width="334.8" x="37.7" y="10.7"/>

  </clipPath>

 </defs>

</svg>
